<svg width="64" height="64" xmlns="http://www.w3.org/2000/svg" viewBox="0 0 24 24"><title>account key outline</title><g fill="#000000" class="nc-icon-wrapper"><g transform="translate(0 0)"><path d="M16 4.354a3.644 3.644 0 0 0-.053 7.29 3.64 3.64 0 0 0 2.571-1.01 3.642 3.642 0 0 0 .15-5.117A3.643 3.643 0 0 0 16 4.354zm0 1.191a2.457 2.457 0 0 1 2.391 3.01 2.461 2.461 0 0 1-1.463 1.718A2.456 2.456 0 1 1 16 5.545zm0 7.81c-.99.006-1.976.156-2.94.376-1.05.25-2.09.59-3.033 1.12-.54.313-1.065.697-1.401 1.234a1.75 1.75 0 0 0-.271 1.002v2.559h15.29c0-.905.002-1.81-.001-2.714-.018-.514-.301-.98-.66-1.332-.55-.542-1.246-.908-1.951-1.206-1.13-.466-2.327-.76-3.537-.929a11.48 11.48 0 0 0-1.496-.11zm0 1.19c1.253.005 2.501.233 3.693.616.721.24 1.436.528 2.067.957.251.18.51.38.645.666.075.16.042.34.05.511v1.16H9.545l.001-1.478c.026-.277.235-.488.434-.663.474-.396 1.04-.664 1.608-.897a12.605 12.605 0 0 1 3.582-.838c.276-.022.553-.034.83-.034z" stroke-width="2.667" fill="#ffffff"></path><path d="M3 8a3 3 0 0 0-3 3 3 3 0 0 0 3 3c1.31 0 2.42-.83 2.83-2H8v2h2v-2h1v-2H5.83A2.99 2.99 0 0 0 3 8zm0 2a1 1 0 0 1 1 1 1 1 0 0 1-1 1 1 1 0 0 1-1-1 1 1 0 0 1 1-1z" stroke-width="2.667" data-color="color-2"></path></g></g></svg>