<svg width="64" height="64" xmlns="http://www.w3.org/2000/svg" viewBox="0 0 24 24"><title>account cog outline</title><g fill="#000000" class="nc-icon-wrapper"><g transform="translate(0 0)"><path d="M17 12c-.16 0-.24.08-.24.24l-.26 1.26c-.22.18-.54.34-.78.5l-1.28-.5c-.08 0-.24 0-.32.1l-.96 1.76c-.08.08-.08.24.08.32l1.04.82v1l-1.04.82c-.08.08-.16.24-.08.32l.96 1.76c.08.1.24.1.32.1l1.28-.5c.24.16.56.32.78.5l.26 1.26c0 .16.08.24.24.24h2c.08 0 .24-.08.24-.24l.16-1.26c.32-.18.64-.34.88-.5l1.22.5c.14 0 .3 0 .3-.1l1.04-1.76c.08-.08 0-.24-.08-.32l-1.04-.82v-1l1.04-.82c.08-.08.16-.24.08-.32L21.8 13.6c0-.1-.16-.1-.3-.1l-1.22.5c-.24-.16-.56-.32-.88-.5l-.16-1.26c0-.16-.16-.24-.24-.24zm1 3.5h.04c.8 0 1.46.66 1.46 1.54 0 .8-.66 1.46-1.46 1.46-.88 0-1.54-.66-1.54-1.46 0-.866.64-1.52 1.5-1.54z" stroke-width="2.667" data-color="color-2"></path><path d="M10 4.354a3.645 3.645 0 1 0 3.607 4.184A3.645 3.645 0 0 0 10 4.354zm0 1.291a2.352 2.352 0 0 1 2.315 2.787 2.36 2.36 0 0 1-1.268 1.678 2.367 2.367 0 0 1-2.207-.06 2.358 2.358 0 0 1-.622-3.59A2.357 2.357 0 0 1 10 5.645zm0 7.71c-.91.004-1.814.134-2.702.323-1.05.231-2.088.553-3.045 1.05-.548.29-1.08.643-1.47 1.134-.267.332-.441.75-.428 1.18v2.604h8.778a7.116 7.116 0 0 1-.34-1.191H3.545c0-.497-.002-.993.001-1.49.027-.246.205-.439.379-.6.407-.36.897-.61 1.39-.83a12.497 12.497 0 0 1 3.079-.865c.848-.127 1.712-.168 2.565-.068.145.06.13-.133.184-.221.114-.3.245-.592.395-.875-.51-.07-1.023-.147-1.54-.152zm1.059 1.258c-.011.038.065-.003 0 0z" stroke-width="2.667" fill="#ffffff"></path></g></g></svg>