<svg width="64" height="64" xmlns="http://www.w3.org/2000/svg" viewBox="0 0 24 24"><title>account box outline</title><g fill="#000000" class="nc-icon-wrapper"><g transform="translate(0 0)"><path d="M12 7.75A2.25 2.25 0 0 0 9.75 10 2.25 2.25 0 0 0 12 12.25 2.25 2.25 0 0 0 14.25 10 2.25 2.25 0 0 0 12 7.75zM12 14c-1.5 0-4.5.75-4.5 2.25V17h9v-.75c0-1.5-3-2.25-4.5-2.25z" stroke-width="2.667" data-color="color-2"></path><path d="M5 3.354a1.653 1.653 0 0 0-1.645 1.77v13.907a1.653 1.653 0 0 0 1.777 1.614h13.9a1.653 1.653 0 0 0 1.614-1.777v-13.9a1.653 1.653 0 0 0-1.77-1.614H5zm-.354 1.292h14.708v14.708H4.646V4.646z" stroke-width="2.667" fill="#ffffff"></path></g></g></svg>