<svg width="64" height="64" xmlns="http://www.w3.org/2000/svg" viewBox="0 0 24 24"><title>account cancel outline</title><g fill="#000000" class="nc-icon-wrapper"><g transform="translate(0 0)"><path d="M17.5 13C15 13 13 15 13 17.5s2 4.5 4.5 4.5 4.5-2 4.5-4.5-2-4.5-4.5-4.5zm0 1.5c1.66 0 3 1.34 3 3 0 .56-.15 1.08-.42 1.5L16 14.92c.42-.27.94-.42 1.5-.42zM14.92 16L19 20.08c-.42.27-.94.42-1.5.42-1.66 0-3-1.34-3-3 0-.56.15-1.08.42-1.5z" stroke-width="2.667" data-color="color-2"></path><path d="M10 4.354a3.645 3.645 0 1 0 3.607 4.184A3.645 3.645 0 0 0 10 4.354zm0 1.291a2.352 2.352 0 0 1 2.315 2.787 2.36 2.36 0 0 1-1.268 1.678 2.367 2.367 0 0 1-2.207-.06 2.358 2.358 0 0 1-.635-3.575A2.357 2.357 0 0 1 10 5.645zm0 7.71c-.91.004-1.814.134-2.702.323-1.05.231-2.088.553-3.045 1.05-.548.29-1.08.643-1.47 1.134-.267.332-.441.75-.428 1.18v2.604h8.636a6.848 6.848 0 0 1-.272-1.191H3.546c0-.497-.002-.993.001-1.49.027-.246.205-.439.379-.6.407-.36.897-.61 1.39-.83a12.497 12.497 0 0 1 3.079-.865c.882-.132 1.782-.17 2.668-.058.097-.003.24.084.26-.06.162-.343.354-.673.57-.985-.626-.1-1.257-.206-1.893-.213zm1.282 1.285c-.013.043.087 0 0 0z" stroke-width="2.667" fill="#ffffff"></path></g></g></svg>