<svg width="64" height="64" xmlns="http://www.w3.org/2000/svg" viewBox="0 0 24 24"><title>account check outline</title><g fill="#000000" class="nc-icon-wrapper"><g transform="translate(0 0)"><path d="M11 4.354a3.64 3.64 0 0 0-2.546 1.038 3.642 3.642 0 0 0-.181 5.026A3.646 3.646 0 1 0 11 4.354zm0 1.291a2.36 2.36 0 0 1 1.807.845 2.359 2.359 0 0 1-.722 3.6 2.367 2.367 0 0 1-2.227-.03 2.359 2.359 0 0 1-.573-3.675A2.353 2.353 0 0 1 11 5.645zm0 7.71c-.923.004-1.84.139-2.741.334-1.023.229-2.033.545-2.968 1.024-.584.307-1.156.682-1.557 1.216-.242.322-.394.719-.38 1.124v2.593h8.79l-1.19-1.191H4.544v-1.478c.022-.251.204-.449.38-.612.408-.36.898-.61 1.391-.83 1.01-.436 2.081-.72 3.168-.878a10.272 10.272 0 0 1 1.588-.11l.527.022 1.038-1.037c-.543-.075-1.087-.171-1.637-.178z" stroke-width="2.667" fill="#ffffff"></path><path d="M21.1 12.5l1.4 1.41-6.53 6.59L12.5 17l1.4-1.41 2.07 2.08 5.13-5.17" data-color="color-2"></path></g></g></svg>