<svg width="64" height="64" viewBox="0 0 24 24"><title>account group outline</title><g fill="#000000" class="nc-icon-wrapper"><g transform="translate(0 0)"><path d="M12 5.355a3.14 3.14 0 0 0-2.202.9 3.14 3.14 0 0 0 .043 4.531 3.14 3.14 0 0 0 4.368-.047A3.145 3.145 0 0 0 12 5.355zm0 1.29a1.856 1.856 0 0 1 1.7 2.598 1.858 1.858 0 0 1-3.058.52 1.861 1.861 0 0 1-.438-1.728A1.858 1.858 0 0 1 12 6.645zm0 7.71c-.863.005-1.72.137-2.56.33-.911.216-1.814.51-2.634.97-.46.265-.908.59-1.203 1.04-.17.262-.263.574-.248.887v1.063h13.29c-.001-.405.002-.81-.002-1.215-.02-.439-.265-.831-.571-1.13-.48-.469-1.083-.783-1.695-1.041a12.705 12.705 0 0 0-3.024-.8A9.972 9.972 0 0 0 12 14.355zm0 1.29c1.059.006 2.11.208 3.116.528.436.14.864.306 1.273.51l-.16.672H7.77l-.16-.671c.745-.37 1.544-.621 2.354-.802A9.696 9.696 0 0 1 12 15.645z" fill="#ffffff"></path><path d="M5.5 8A2.5 2.5 0 0 0 3 10.5c0 .94.53 1.75 1.29 2.18.36.2.77.32 1.21.32.44 0 .85-.12 1.21-.32.37-.21.68-.51.91-.87A5.42 5.42 0 0 1 6.5 8.5v-.28c-.3-.14-.64-.22-1-.22zm13 0c-.36 0-.7.08-1 .22v.28c0 1.2-.39 2.36-1.12 3.31.12.19.25.34.4.49a2.482 2.482 0 0 0 1.72.7c.44 0 .85-.12 1.21-.32A2.51 2.51 0 0 0 21 10.5 2.5 2.5 0 0 0 18.5 8zM4.71 14.55C2.78 14.78 0 15.76 0 17.5V19h3v-1.93c0-1.01.69-1.85 1.71-2.52zm14.58 0c1.02.67 1.71 1.51 1.71 2.52V19h3v-1.5c0-1.74-2.78-2.72-4.71-2.95z" data-color="color-2"></path></g></g></svg>