<svg width="64" height="64" xmlns="http://www.w3.org/2000/svg" viewBox="0 0 24 24"><title>account edit outline</title><g fill="#000000" class="nc-icon-wrapper"><g transform="translate(0 0)"><path d="M20.035 11.193a.55.55 0 0 0-.385.157l-1 1 2.05 2 1-1v.05c.21-.21.21-.56 0-.77l-1.28-1.28a.55.55 0 0 0-.385-.157zM18.06 12.88L12 18.94v2.01h2.11l6-6.07z" stroke-width="2.667" data-color="color-2"></path><path d="M10 4.354a3.638 3.638 0 0 0-2.507 1 3.642 3.642 0 0 0-.26 5.02 3.644 3.644 0 0 0 4.987.517 3.648 3.648 0 0 0 .778-4.965A3.654 3.654 0 0 0 10 4.354zm0 1.291a2.358 2.358 0 0 1 2.298 2.872 2.36 2.36 0 0 1-1.287 1.61A2.355 2.355 0 1 1 10 5.646zm-.004 7.71c-.938.006-1.87.142-2.785.343-.978.22-1.942.522-2.84.97-.579.296-1.144.653-1.561 1.159-.28.337-.468.765-.455 1.21v2.609h7.29v-1.182h-6.1l.001-1.487c.02-.246.198-.442.37-.603.403-.36.891-.61 1.381-.83a12.48 12.48 0 0 1 3.098-.874 10.2 10.2 0 0 1 2.338-.094c.67.048 1.334.154 1.987.313l.94-.94c-1.19-.347-2.422-.57-3.664-.594z" stroke-width="2.667" fill="#ffffff"></path></g></g></svg>