<svg width="64" height="64" xmlns="http://www.w3.org/2000/svg" viewBox="0 0 24 24"><title>account lock outline</title><g fill="#000000" class="nc-icon-wrapper"><g transform="translate(0 0)"><path d="M12 4.354a3.638 3.638 0 0 0-2.507 1 3.642 3.642 0 0 0-.281 4.994 3.645 3.645 0 0 0 5.777-4.436A3.652 3.652 0 0 0 12 4.354zm-.004 1.291a2.35 2.35 0 0 1 2.37 2.582 2.35 2.35 0 0 1-2.307 2.125 2.283 2.283 0 0 1-.68-.082 2.296 2.296 0 0 1-.998-.553 2.285 2.285 0 0 1-.527-.743 2.359 2.359 0 0 1 .815-2.916 2.333 2.333 0 0 1 1.327-.413zm.004 7.71c-.95.005-1.895.145-2.821.35-1.003.228-1.994.54-2.91 1.014-.566.3-1.119.664-1.514 1.177-.253.327-.415.734-.4 1.151v2.599h9.29v-1.191h-8.1c0-.497-.002-.993.001-1.49.028-.25.211-.446.389-.61.416-.363.916-.614 1.419-.836a12.548 12.548 0 0 1 3.174-.868c.853-.12 1.72-.14 2.577-.043.612.067 1.22.184 1.816.34.123-.371.285-.73.49-1.063a15.005 15.005 0 0 0-2.944-.516 7.787 7.787 0 0 0-.467-.015zm2.92 1.593c-.023.046.06.003 0 0z" stroke-width="2.667" fill="#ffffff"></path><path d="M19.355 14.004A2.5 2.5 0 0 0 17 16.5v.5c-.55 0-1 .45-1 1v4c0 .55.45 1 1 1h5c.55 0 1-.45 1-1v-4c0-.55-.45-1-1-1v-.5a2.5 2.5 0 0 0-2.645-2.496zM19.5 15c.83 0 1.5.67 1.5 1.5v.5h-3v-.5c0-.83.67-1.5 1.5-1.5z" stroke-width="2.667" data-color="color-2"></path></g></g></svg>