<svg width="64" height="64" xmlns="http://www.w3.org/2000/svg" viewBox="0 0 24 24"><title>account minus outline</title><g fill="#000000" class="nc-icon-wrapper"><g transform="translate(0 0)"><path d="M15 4.354a3.644 3.644 0 0 0-.018 7.291 3.641 3.641 0 0 0 2.56-1.033 3.642 3.642 0 0 0 .093-5.13A3.642 3.642 0 0 0 15 4.353zm0 1.191a2.457 2.457 0 0 1 2.392 3.01 2.461 2.461 0 0 1-1.464 1.718A2.456 2.456 0 1 1 15 5.545zm0 7.81c-.984.006-1.963.154-2.92.372-1.028.242-2.044.57-2.973 1.08-.535.3-1.054.665-1.411 1.171a1.78 1.78 0 0 0-.342 1.096v2.572h15.292c-.001-.905.001-1.81-.002-2.714-.018-.514-.3-.98-.66-1.332-.55-.542-1.245-.908-1.951-1.206-1.13-.466-2.327-.76-3.537-.929A11.48 11.48 0 0 0 15 13.354zm0 1.19c1.254.005 2.501.233 3.693.616.721.24 1.436.528 2.067.957.251.18.51.38.645.666.075.16.043.34.05.511v1.16H8.545v-1.478c.027-.277.236-.488.434-.663.475-.396 1.04-.664 1.608-.897a12.618 12.618 0 0 1 3.584-.838c.275-.022.552-.034.829-.034z" stroke-width="2.667" fill="#ffffff"></path><path d="M1 10v2h8v-2H1" data-color="color-2"></path></g></g></svg>