<svg height="64" width="64" viewBox="0 0 20 20"><title>action_tweak</title><g fill="#000000" class="nc-icon-wrapper"><g transform="translate(0 0)"><path d="M5.494 3.05a.449.449 0 0 0-.312.132l-2 2a.45.45 0 0 0 0 .636l2 2a.45.45 0 0 0 .636 0l2-2a.45.45 0 0 0 0-.636l-2-2a.45.45 0 0 0-.324-.131zm9 0a.449.449 0 0 0-.312.132l-2 2a.45.45 0 0 0 0 .636l2 2a.45.45 0 0 0 .636 0l2-2a.45.45 0 0 0 0-.636l-2-2a.45.45 0 0 0-.324-.131z" fill="#ffffff"></path><path d="M7.121 3l1.44 1.44a1.5 1.5 0 0 1 0 2.12L7.121 8h5.758l-1.44-1.44a1.5 1.5 0 0 1 0-2.12L12.879 3z" data-color="color-2"></path><path d="M8.502 9a.5.5 0 0 0-.461.697l3 7a.5.5 0 0 0 .934-.039l.92-2.764 2.763-.92a.5.5 0 0 0 .04-.933l-7-3A.501.501 0 0 0 8.501 9z" fill="#ffffff"></path></g></g></svg>