<svg height="64" width="64" viewBox="0 0 20 20"><title>action</title><g fill="#000000" class="nc-icon-wrapper"><g transform="translate(0 0)"><path d="M4.494 3.075a.449.449 0 0 0-.312.132l-2 2a.45.45 0 0 0 0 .636l2 2a.45.45 0 0 0 .636 0l2-2a.45.45 0 0 0 0-.636l-2-2a.45.45 0 0 0-.324-.131zm11 0a.449.449 0 0 0-.312.132l-2 2a.45.45 0 0 0 0 .636l2 2a.45.45 0 0 0 .636 0l2-2a.45.45 0 0 0 0-.636l-2-2a.45.45 0 0 0-.324-.131zm-6.027 6.75a.45.45 0 0 0-.297.145l-3 3.25a.45.45 0 0 0 .012.623l3 3a.45.45 0 0 0 .636 0l3-3a.45.45 0 0 0 .012-.623l-3-3.25a.45.45 0 0 0-.363-.144zm.033 1.112l2.377 2.576L9.5 15.888l-2.377-2.377z" fill="#ffffff"></path><path d="M6.121 3.025l1.44 1.44a1.5 1.5 0 0 1 0 2.12l-1.44 1.44h7.758l-1.44-1.44a1.5 1.5 0 0 1 0-2.12l1.44-1.44z" data-color="color-2"></path></g></g></svg>