<svg width="64" height="64" viewBox="0 0 24 24"><title>alert circle outline</title><g fill="#000000" class="nc-icon-wrapper"><g transform="translate(0 0)"><path d="M12 2.355A9.6 9.6 0 0 0 6.414 4.14 9.697 9.697 0 0 0 2.67 9.555a9.665 9.665 0 0 0 .596 6.54 9.695 9.695 0 0 0 4.528 4.586 9.67 9.67 0 0 0 6.355.724 9.662 9.662 0 0 0 5.461-3.48 9.616 9.616 0 0 0 2.028-5.53 9.628 9.628 0 0 0-1.45-5.495 9.694 9.694 0 0 0-4.901-3.97A9.63 9.63 0 0 0 12 2.353zm0 1.29a8.333 8.333 0 0 1 4.853 1.552 8.369 8.369 0 0 1 3.232 4.69 8.391 8.391 0 0 1-.621 5.872 8.393 8.393 0 0 1-4.072 3.879 8.397 8.397 0 0 1-6.266.21 8.386 8.386 0 0 1-4.35-3.645 8.364 8.364 0 0 1 1.107-9.895A8.347 8.347 0 0 1 12 3.645z" fill="#ffffff"></path><path d="M11.354 7.354v5.293h1.293V7.353h-1.293zm0 8v1.293h1.293v-1.293h-1.293z" data-color="color-2"></path></g></g></svg>