<svg width="64" height="64" viewBox="0 0 24 24"><title>alert rhombus outline</title><g fill="#000000" class="nc-icon-wrapper"><g transform="translate(0 0)"><path d="M11 7v6h2V7h-2zm0 8v2h2v-2h-2z" data-color="color-2"></path><path d="M12 2.355c-.47-.005-.923.22-1.239.564-2.655 2.656-5.311 5.31-7.965 7.967a1.633 1.633 0 0 0-.313 1.75c.103.258.291.467.49.657 2.638 2.637 5.274 5.275 7.913 7.911a1.633 1.633 0 0 0 1.822.28c.317-.144.538-.42.784-.657 2.57-2.571 5.143-5.141 7.712-7.713a1.633 1.633 0 0 0 .305-1.767c-.104-.255-.293-.458-.489-.646-2.624-2.624-5.248-5.25-7.874-7.873A1.656 1.656 0 0 0 12 2.355zm0 1.144L20.501 12 12 20.501 3.499 12 12 3.499z" fill="#ffffff"></path></g></g></svg>