<svg width="64" height="64" viewBox="0 0 24 24"><title>alert octagram outline</title><g fill="#000000" class="nc-icon-wrapper"><g transform="translate(0 0)"><path d="M11.354 7.354v5.293h1.293V7.353h-1.293zm0 8v1.293h1.293v-1.293h-1.293z" data-color="color-2"></path><path d="M8.132 2.663l-1.6 3.868-3.869 1.6L4.263 12l-1.6 3.867 3.868 1.601 1.601 3.868 3.868-1.6 3.868 1.6 1.6-3.868 3.869-1.6-1.6-3.868 1.6-3.868-3.868-1.601-1.601-3.868L12 4.263l-3.868-1.6zm.674 1.683L12 5.666l3.194-1.32 1.288 3.172 3.172 1.288L18.334 12l1.32 3.194-3.172 1.288-1.288 3.172L12 18.334l-3.194 1.32-1.288-3.172-3.172-1.288L5.666 12l-1.32-3.194 3.172-1.288 1.288-3.172z" fill="#ffffff"></path></g></g></svg>