<svg width="64" height="64" viewBox="0 0 24 24"><title>alert decagram outline</title><g fill="#000000" class="nc-icon-wrapper"><g transform="translate(0 0)"><path d="M11.354 7.354v5.293h1.293V7.353h-1.293zm0 8v1.293h1.293v-1.293h-1.293z" data-color="color-2"></path><path d="M8.746 1.989l-1.81 3.043-3.454.775.325 3.522-2.336 2.67 2.336 2.662-.325 3.532 3.455.785 1.809 3.043 3.253-1.407 3.255 1.397 1.81-3.043 3.454-.785-.325-3.522L22.528 12l-2.335-2.66.325-3.523-3.455-.785-1.809-3.044L12 3.385 8.746 1.988zm.526 1.632L12 4.794c.91-.39 1.819-.782 2.728-1.173l1.5 2.566 2.891.633-.253 2.95L20.799 12l-1.933 2.22.253 2.948-2.892.644-1.5 2.557-2.726-1.173-2.729 1.184-1.5-2.567-2.891-.633.253-2.96-1.933-2.219 1.933-2.24-.253-2.952 2.892-.622L9.272 3.62z" fill="#ffffff"></path></g></g></svg>