<svg width="64" height="64" viewBox="0 0 24 24"><title>alert remove outline</title><g fill="#000000" class="nc-icon-wrapper"><g transform="translate(0 0)"><path d="M12 4.01L2.613 20.246h11.16a6.247 6.247 0 0 1-.127-1.293H4.783l7.219-12.36 4.209 7.313a6.056 6.056 0 0 1 1.12-.668L12 4.01z" fill="#ffffff"></path><path d="M11.354 10.854v3.293h1.293v-3.293h-1.293zm0 5v1.293h1.293v-1.293h-1.293zm10.768.11l-2.121 2.128-2.12-2.127-.91.916 2.122 2.12-2.121 2.118.91.917L20 19.909l2.121 2.128.916-.916-2.129-2.12 2.129-2.122-.916-.916z" data-color="color-2"></path></g></g></svg>