<svg width="64" height="64" viewBox="0 0 24 24"><title>alert circle check outline</title><g fill="#000000" class="nc-icon-wrapper"><g transform="translate(0 0)"><path d="M12 2.353c-1.136.001-2.273.2-3.339.596a9.683 9.683 0 0 0-3.635 2.396 9.609 9.609 0 0 0-1.64 10.989 9.661 9.661 0 0 0 2.612 3.211 9.619 9.619 0 0 0 6.129 2.1c.668-.012 1.33-.124 1.98-.274a6.213 6.213 0 0 1-.345-1.201 8.456 8.456 0 0 1-4.395-.239 8.299 8.299 0 0 1-2.174-1.096 8.304 8.304 0 0 1-1.64-1.519c-.104-.13-.21-.262-.308-.398a8.299 8.299 0 0 1-1.185-2.31 8.431 8.431 0 0 1-.268-4.172 8.293 8.293 0 0 1 1.301-3.14A8.327 8.327 0 0 1 7.51 4.954a8.389 8.389 0 0 1 7.274-.833 8.321 8.321 0 0 1 3.077 1.923 8.318 8.318 0 0 1 2.492 5.992l-.038.625c.431.022.861.083 1.28.19.016-.29.035-.578.05-.868a9.58 9.58 0 0 0-2.13-6.007c-.14-.186-.297-.357-.454-.528a9.987 9.987 0 0 0-.72-.7 8.658 8.658 0 0 0-.807-.632 6.951 6.951 0 0 0-.584-.384c-.178-.103-.353-.21-.537-.302A9.61 9.61 0 0 0 12 2.353zm1.762 17.816c.03-.003.058-.007.039-.042-.033.007-.055.002-.04.043z" fill="#ffffff"></path><path d="M11.354 7.354v5.293h1.293V7.353h-1.293zm0 8v1.293h1.293v-1.293h-1.293zm10.961 1.171l-3.565 3.567-1.59-1.592-.67.67 2.272 2.478 4.262-4.261-.709-.862z" data-color="color-2"></path></g></g></svg>