<svg width="64" height="64" viewBox="0 0 24 24"><title>alien outline</title><g fill="#000000" class="nc-icon-wrapper"><g transform="translate(0 0)"><path d="M12 2.353a10.42 10.42 0 0 0-5.006 1.264C5.67 4.339 4.51 5.372 3.682 6.634c-.5.759-.876 1.6-1.096 2.482a7.775 7.775 0 0 0-.232 1.927c.008.638.152 1.267.35 1.872.312.931.762 1.812 1.28 2.645a17.525 17.525 0 0 0 2.321 2.948c.199.204.403.4.612.592.248.229.504.45.768.66.676.54 1.405 1.021 2.196 1.378.615.275 1.273.474 1.95.505.658.029 1.311-.119 1.923-.353.725-.28 1.4-.676 2.03-1.127.4-.289.785-.6 1.153-.93.468-.422.914-.87 1.333-1.343a17.074 17.074 0 0 0 2.14-2.999c.43-.779.799-1.598 1.03-2.459a5.524 5.524 0 0 0 .205-1.591 7.777 7.777 0 0 0-.318-2.043 8.328 8.328 0 0 0-1.764-3.151 9.502 9.502 0 0 0-2.719-2.117A10.44 10.44 0 0 0 12 2.354zm0 1.293a9.282 9.282 0 0 1 3.236.575 8.57 8.57 0 0 1 2.33 1.299c.947.743 1.73 1.704 2.219 2.806.404.907.603 1.906.563 2.9-.036.697-.225 1.38-.486 2.025-.242.594-.55 1.16-.895 1.7-.095.154-.2.303-.302.453a15.826 15.826 0 0 1-3.042 3.231c-.577.457-1.19.875-1.849 1.206-.436.217-.896.4-1.38.48a2.432 2.432 0 0 1-.841-.01c-.5-.09-.974-.288-1.424-.52a11.301 11.301 0 0 1-1.893-1.27 15.903 15.903 0 0 1-2.943-3.177c-.1-.15-.205-.3-.299-.454-.459-.727-.85-1.502-1.1-2.327a5.362 5.362 0 0 1-.246-1.706 6.588 6.588 0 0 1 .794-2.994c.588-1.092 1.464-2.02 2.493-2.708a8.878 8.878 0 0 1 3.236-1.331A9.389 9.389 0 0 1 12 3.646z" fill="#ffffff"></path><path d="M7.326 9.389a1.698 1.698 0 0 0-1.004.33c-.306.23-.519.568-.633.93-.152.483-.15 1.004-.049 1.497.126.604.396 1.175.765 1.668.179.237.381.457.607.65.043.034.085.072.13.106.31.245.66.443 1.04.556.36.109.748.142 1.115.052a1.57 1.57 0 0 0 .69-.363c.29-.26.478-.62.57-.996.124-.506.09-1.04-.04-1.54a4.347 4.347 0 0 0-.682-1.423 3.862 3.862 0 0 0-1.2-1.099 2.927 2.927 0 0 0-.736-.298 2.269 2.269 0 0 0-.573-.07zm9.348 0c-.276-.003-.55.05-.81.14a3.3 3.3 0 0 0-1.028.6c-.483.409-.863.934-1.125 1.51a3.666 3.666 0 0 0-.342 1.64c.015.363.097.729.268 1.052.113.207.262.394.444.543.245.198.551.315.863.347.341.036.687-.024 1.008-.139a3.376 3.376 0 0 0 1.168-.737c.179-.17.345-.354.49-.553a4.185 4.185 0 0 0 .804-1.998c.04-.412.009-.837-.133-1.229a1.854 1.854 0 0 0-.518-.776 1.67 1.67 0 0 0-1.09-.4zm-7.47 7.808a.92.92 0 0 0 .073.094c-.004-.04-.02-.072-.06-.084l-.007-.005zm5.59 0a.088.088 0 0 0-.05.065c.017-.022.035-.042.05-.065zm-4.415.697c.23.27.523.491.856.617.238.091.492.132.745.135.389.004.783-.086 1.117-.289.144-.087.277-.193.397-.312.025-.046.05-.092.078-.137a5.952 5.952 0 0 1-1.61.195 5.832 5.832 0 0 1-1.583-.209z" data-color="color-2"></path></g></g></svg>