<svg height="64" width="64" viewBox="0 0 20 20"><title>align_flush</title><g fill="#ffffff" class="nc-icon-wrapper"><g transform="translate(0 0)"><path d="M3.504 3.5a.5.5 0 1 0 0 1h1.992a.5.5 0 1 0 0-1zm4.023 0a.5.5 0 1 0 0 1h1.916a.5.5 0 1 0 0-1zm3.971 0a.5.5 0 1 0 0 1h1.998a.5.5 0 1 0 0-1zm3.998 0a.5.5 0 1 0 0 1h1a.5.5 0 1 0 0-1zm-11.992 3a.5.5 0 1 0 0 1h1a.5.5 0 1 0 0-1zm3 0a.5.5 0 1 0 0 1h1.998a.5.5 0 1 0 0-1zm4.053 0a.5.5 0 1 0 0 1h1.918a.5.5 0 1 0 0-1zm3.947 0a.5.5 0 1 0 0 1h1.992a.5.5 0 1 0 0-1zm-11 3a.5.5 0 1 0 0 1h1.992a.5.5 0 1 0 0-1zm4.023 0a.5.5 0 1 0 0 1h1.916a.5.5 0 1 0 0-1zm3.971 0a.5.5 0 1 0 0 1h1.998a.5.5 0 1 0 0-1zm3.998 0a.5.5 0 1 0 0 1h1a.5.5 0 1 0 0-1zm-11.992 3a.5.5 0 1 0 0 1h1a.5.5 0 1 0 0-1zm3 0a.5.5 0 1 0 0 1h1.998a.5.5 0 1 0 0-1zm4.053 0a.5.5 0 1 0 0 1h1.918a.5.5 0 1 0 0-1zm3.947 0a.5.5 0 1 0 0 1h1.992a.5.5 0 1 0 0-1zm-11 3a.5.5 0 1 0 0 1h1.992a.5.5 0 1 0 0-1zm4.023 0a.5.5 0 1 0 0 1h1.916a.5.5 0 1 0 0-1zm3.971 0a.5.5 0 1 0 0 1h1.998a.5.5 0 1 0 0-1zm3.998 0a.5.5 0 1 0 0 1h1a.5.5 0 1 0 0-1z" class="nc-icon-wrapper"></path></g></g></svg>