<svg height="64" width="64" viewBox="0 0 20 20"><title>anim</title><g fill="#ffffff" class="nc-icon-wrapper"><g transform="translate(0 0)"><path d="M7.998 3.073c1.187 0 2.136.69 2.523 1.621.388.93.208 2.105-.67 2.983l-2.5 2.5c-.622.622-.692 1.322-.455 1.892.238.57.79 1.004 1.602 1.004l6.535-.008-2.139-2.139a.5.5 0 1 1 .707-.707l2.934 2.936.01.008a.5.5 0 0 1 .207.416.5.5 0 0 1 0 .008.5.5 0 0 1-.004.047.5.5 0 0 1-.008.049.5.5 0 0 1-.193.298l-2.946 2.946a.5.5 0 1 1-.707-.707l2.155-2.155-6.551.008c-1.188 0-2.136-.69-2.524-1.62-.387-.931-.207-2.105.67-2.983l2.5-2.5c.623-.622.693-1.323.455-1.893-.237-.57-.789-1.004-1.601-1.004h-4.75a.5.5 0 1 1 0-1z" class="nc-icon-wrapper"></path></g></g></svg>