<svg height="64" width="64" viewBox="0 0 20 20"><title>antialiased</title><g id="g8" fill="#ffffff" class="nc-icon-wrapper"><g transform="translate(0 0)"><g id="g6"><path d="M10 3.414a6.546 6.546 0 0 0-4.492 1.777 6.787 6.787 0 0 0-.586.623c-.042.055-.088.109-.13.164a6.508 6.508 0 0 0-1.237 2.666 6.544 6.544 0 0 0 1.348 5.517 6.787 6.787 0 0 0 .911.917c.055.042.109.088.164.13a6.508 6.508 0 0 0 2.666 1.237 6.575 6.575 0 0 0 3.468-.208 6.53 6.53 0 0 0 2.018-1.115 6.69 6.69 0 0 0 .948-.936c.042-.055.088-.109.13-.164a6.563 6.563 0 0 0 1.364-3.587 6.565 6.565 0 0 0-1.488-4.611c-.07-.09-.147-.174-.223-.259a6.67 6.67 0 0 0-.675-.643c-.055-.042-.109-.088-.164-.13a6.563 6.563 0 0 0-3.587-1.364A6.616 6.616 0 0 0 10 3.414zm0 1.172a5.529 5.529 0 0 1 1.584.232 5.358 5.358 0 0 1 1.873 1.004c.33.274.629.587.887.93.048.07.1.138.147.209.488.722.796 1.565.89 2.432a5.498 5.498 0 0 1-.744 3.418 5.433 5.433 0 0 1-2.163 2.013 5.426 5.426 0 0 1-2.247.585 5.531 5.531 0 0 1-.962-.044 5.393 5.393 0 0 1-4.106-2.924 5.429 5.429 0 0 1-.568-2.223 5.534 5.534 0 0 1 .043-.945 5.393 5.393 0 0 1 2.569-3.918A5.402 5.402 0 0 1 10 4.585z" class="nc-icon-wrapper" id="path4"></path></g></g></g></svg>