<svg height="64" width="64" viewBox="0 0 20 20"><title>automerge_on</title><g fill="#000000" class="nc-icon-wrapper"><g transform="translate(0 0)"><path d="M13.496 2.996a.5.5 0 0 0-.5.5v3.008a.5.5 0 0 0 .5.5h3.008a.5.5 0 0 0 .5-.5V3.496a.5.5 0 0 0-.5-.5zm-10 10a.5.5 0 0 0-.5.5v3.008a.5.5 0 0 0 .5.5h3.008a.5.5 0 0 0 .5-.5v-3.008a.5.5 0 0 0-.5-.5z" fill="#ffffff"></path><path d="M7.488 4.996a.5.5 0 0 0-.5.5v1.5h-1.5a.5.5 0 0 0-.5.5l.008 3a.5.5 0 1 0 1-.002L5.99 7.996h1.498a.5.5 0 0 0 .5-.5v-1.5h2.5a.5.5 0 1 0 0-1zm3.998 2.988a.5.5 0 0 0-.344.15l-3 3.008a.5.5 0 1 0 .708.705l3-3.005a.5.5 0 0 0-.364-.858zm3.002 1.004a.5.5 0 0 0-.492.508v2.5h-1.5a.5.5 0 0 0-.5.5v1.498l-2.498-.006a.5.5 0 1 0-.004 1l3 .008a.5.5 0 0 0 .502-.5v-1.5h1.5a.5.5 0 0 0 .5-.5v-3a.5.5 0 0 0-.508-.508z" data-color="color-2"></path></g></g></svg>