<svg height="64" width="64" viewBox="0 0 20 20"><title>automerge_off</title><g fill="#000000" class="nc-icon-wrapper"><g transform="translate(0 0)"><path d="M13.496 2.996a.5.5 0 0 0-.5.5v3.008a.5.5 0 0 0 .5.5h3.008a.5.5 0 0 0 .5-.5V3.496a.5.5 0 0 0-.5-.5h-3.008zm.5 1h2.008v2.008h-2.008zm-10.5 9a.5.5 0 0 0-.5.5v3.008a.5.5 0 0 0 .5.5h3.008a.5.5 0 0 0 .5-.5v-3.008a.5.5 0 0 0-.5-.5H3.496zm.5 1h2.008v2.008H3.996z" fill="#ffffff"></path><path d="M9.5 4.988a.5.5 0 0 0-.358.146l-1 1a.5.5 0 1 0 .708.708l.851-.852.785.006a.5.5 0 1 0 .006-1zM6.486 7.984a.5.5 0 0 0-.344.15l-1 1a.5.5 0 0 0-.146.354v1.008a.5.5 0 1 0 1 0v-.801l.854-.853a.5.5 0 0 0-.364-.858zm7.994.996a.5.5 0 0 0-.492.508v.8l-.853.854a.5.5 0 1 0 .707.707l1-1a.5.5 0 0 0 .146-.353V9.488a.5.5 0 0 0-.508-.508zm-3.002 4.01a.5.5 0 0 0-.343.152l-.852.852-.783-.006a.5.5 0 1 0-.008 1l.992.008a.5.5 0 0 0 .358-.147l1-1a.5.5 0 0 0-.364-.859z" data-color="color-2"></path></g></g></svg>