<svg width="64" height="64" viewBox="0 0 24 24"><title>axis y arrow lock</title><g fill="#000000" class="nc-icon-wrapper"><g transform="translate(0 0)"><path d="M21.8 5c.6 0 1.2.6 1.2 1.3v3.5c0 .6-.6 1.2-1.3 1.2h-5.5c-.6 0-1.2-.6-1.2-1.3V6.2c0-.6.6-1.2 1.2-1.2V3.5C16.2 2.1 17.6 1 19 1s2.8 1.1 2.8 2.5V5m-1.3 0V3.5c0-.8-.7-1.3-1.5-1.3s-1.5.5-1.5 1.3V5z" data-color="color-2"></path><path d="M9.354 3.353v10.672l-6.7 3.874.645 1.117L10 15.15l7.484 4.33-1.25 2.168 4.33-1.159-1.181-4.298-1.254 2.173-7.482-4.341V3.354H9.354z" fill="#ffffff"></path></g></g></svg>