<svg width="64" height="64" viewBox="0 0 24 24"><title>axis z rotate counterclockwise</title><g fill="#000000" class="nc-icon-wrapper"><g transform="translate(0 0)"><path d="M11.354 2.353v8.5l1.293 1.294V2.354h-1.293zm1.293 17.5l-1.293 1.293v.5h1.293v-1.793z" data-color="color-2"></path><path d="M9.646 7.53c-1.313.164-2.617.459-3.847.955-.782.319-1.54.72-2.19 1.263-.442.372-.837.82-1.066 1.355a2.288 2.288 0 0 0-.187.998c.02.46.194.903.448 1.284.205.31.461.583.74.827.064.061.135.115.204.172.262.211.544.4.836.566.144.075.284.159.428.236.112.056.23.105.342.16.437.206.888.382 1.348.528.22.071.442.13.664.192.89.239 1.8.396 2.716.486l.272.028v2.566L13.5 16l-3.146-3.147v2.448a24.09 24.09 0 0 1-1.183-.132c-.936-.132-1.865-.33-2.759-.64a7.286 7.286 0 0 1-1.512-.712 4.046 4.046 0 0 1-.422-.307 2.758 2.758 0 0 1-.475-.494 1.683 1.683 0 0 1-.356-1.035c.002-.373.153-.733.378-1.026.309-.401.73-.7 1.168-.945.703-.386 1.47-.643 2.245-.841.726-.184 1.465-.31 2.208-.396V7.53zm4.707 0v1.243c1.079.126 2.152.332 3.181.683.631.22 1.252.492 1.795.885.358.261.687.585.875.992.127.274.18.585.132.885-.036.29-.167.56-.339.793-.297.397-.705.696-1.132.94-.676.382-1.415.64-2.163.84-.347.091-.697.168-1.05.234l.967.977c-.009.01-.025.023.025-.003.983-.27 1.947-.631 2.83-1.145.57-.336 1.113-.739 1.537-1.253.3-.368.536-.802.609-1.275a2.088 2.088 0 0 0-.019-.764 2.35 2.35 0 0 0-.075-.277c-.17-.505-.5-.943-.881-1.31-.566-.54-1.245-.946-1.95-1.276-1.102-.509-2.28-.833-3.474-1.041-.288-.05-.577-.093-.868-.129z" fill="#ffffff"></path></g></g></svg>