<svg width="64" height="64" viewBox="0 0 24 24"><title>axis lock</title><g fill="#000000" class="nc-icon-wrapper"><g transform="translate(0 0)"><path d="M9.354 3.353v10.672l-6.7 3.874.645 1.117L10 15.15l9.26 5.363.648-1.133-9.261-5.355V3.354H9.354z" fill="#ffffff"></path><path d="M19 1c-1.4 0-2.8 1.1-2.8 2.5V5c-.6 0-1.2.6-1.2 1.2v3.5c0 .7.6 1.3 1.2 1.3h5.5c.7 0 1.3-.6 1.3-1.2V6.3c0-.7-.6-1.3-1.2-1.3V3.5C21.8 2.1 20.4 1 19 1zm0 1.2c.8 0 1.5.5 1.5 1.3V5h-3V3.5c0-.8.7-1.3 1.5-1.3z" data-color="color-2"></path></g></g></svg>