<svg width="64" height="64" viewBox="0 0 24 24"><title>axis arrow lock</title><g fill="#000000" class="nc-icon-wrapper"><g transform="translate(0 0)"><path d="M10 2.5L6.853 5.647h2.5v8.408l-4.804 2.77-1.219-2.118L2.174 19l4.3 1.148-1.279-2.207L10 15.171l7.516 4.3-1.274 2.175 4.322-1.156-1.18-4.29-1.222 2.144-7.515-4.29V5.647h2.5L10 2.5z" fill="#ffffff"></path><path d="M19 1c-1.4 0-2.8 1.1-2.8 2.5V5c-.6 0-1.2.6-1.2 1.2v3.5c0 .7.6 1.3 1.2 1.3h5.5c.7 0 1.3-.6 1.3-1.2V6.3c0-.7-.6-1.3-1.2-1.3V3.5C21.8 2.1 20.4 1 19 1zm0 1.2c.8 0 1.5.5 1.5 1.3V5h-3V3.5c0-.8.7-1.3 1.5-1.3z" data-color="color-2"></path></g></g></svg>