<svg width="64" height="64" viewBox="0 0 24 24"><title>axis x rotate clockwise</title><g fill="#000000" class="nc-icon-wrapper"><g transform="translate(0 0)"><path d="M21.762 5.615L17.899 7.84l.162.806h1.043l3.305-1.908-.647-1.123zm-10.973 6.326l-8.867 5.121c.224.38.444.764.664 1.147l9.18-5.299-.977-.969z" data-color="color-2"></path><path d="M12 2.353c-.31 0-.616.071-.9.192a3.046 3.046 0 0 0-.747.464 4.166 4.166 0 0 0-.631.628 5.877 5.877 0 0 0-.354.464c-.26.377-.482.778-.679 1.19a12.65 12.65 0 0 0-.8 2.264 18.09 18.09 0 0 0-.532 4.402l1.3-.746c.051-1.31.212-2.619.543-3.888.204-.767.468-1.525.864-2.216.252-.43.559-.843.97-1.135.198-.14.422-.248.662-.294.13-.022.262-.039.394-.03.36.02.702.173.98.396.163.127.31.274.44.434.132.155.246.323.354.496.32.52.553 1.09.743 1.67.303.938.49 1.911.61 2.89.033.272.057.546.084.82h-2.448c1.05 1.048 2.098 2.097 3.147 3.146l3.146-3.147H16.58c-.04-.382-.078-.764-.135-1.144a16.183 16.183 0 0 0-.468-2.163 11.32 11.32 0 0 0-.71-1.86c-.082-.191-.185-.373-.286-.554-.2-.345-.42-.679-.678-.984-.063-.08-.135-.151-.202-.227-.337-.36-.73-.677-1.187-.873A2.312 2.312 0 0 0 12 2.354zm3.025 13.3c-.17.9-.408 1.794-.782 2.634-.23.51-.512 1.007-.9 1.416-.275.288-.618.529-1.012.615-.155.03-.313.045-.47.03-.37-.032-.714-.206-.993-.443-.392-.331-.682-.765-.92-1.215-.372-.711-.62-1.48-.81-2.259-.003-.032-.007-.062-.036-.036l-1.026.591c.283.938.652 1.856 1.173 2.688.343.543.754 1.055 1.273 1.44.368.272.8.474 1.259.52.334.04.675-.015.989-.132.513-.194.948-.55 1.312-.954.521-.583.915-1.269 1.236-1.979.283-.631.508-1.288.69-1.956-.011.014-.023-.016-.034-.021l-.949-.94z" fill="#ffffff"></path></g></g></svg>