<svg width="64" height="64" viewBox="0 0 24 24"><title>axis y rotate clockwise</title><g fill="#000000" class="nc-icon-wrapper"><g transform="translate(0 0)"><path d="M2.238 5.615l-.646 1.123 12.01 6.936c.036-.092-.083-.132-.126-.196-1.078-1.078-2.155-2.158-3.234-3.236-.08-.067-.178-.111-.27-.164-.143-.079-.288-.156-.427-.244.028.019-.006-.002-.018-.009l-7.288-4.21zm15.945 9.21c-.05.277-.13.547-.19.822-.027.18-.053.366-.018.546.002.023.03.026.045.038l3.741 2.154.647-1.123-4.225-2.438z" data-color="color-2"></path><path d="M12 2.353a2.307 2.307 0 0 0-1.018.25c-.52.26-.95.67-1.31 1.122-.524.664-.912 1.425-1.224 2.21-.14.353-.263.714-.372 1.079l1.051.605c.188-.789.437-1.569.81-2.29.238-.453.528-.89.918-1.224.277-.237.617-.414.984-.45.31-.034.628.032.904.176.225.116.422.278.599.457.1.103.19.213.278.326.095.127.182.26.266.395.326.541.561 1.132.752 1.733.3.957.483 1.947.596 2.943.025.222.045.445.067.668h-2.448L16 13.5l3.146-3.147H16.58c-.04-.382-.077-.764-.135-1.144a16.183 16.183 0 0 0-.468-2.163 11.32 11.32 0 0 0-.71-1.86c-.082-.191-.185-.373-.286-.554-.2-.345-.42-.679-.678-.984-.063-.08-.135-.151-.202-.227-.337-.36-.73-.677-1.187-.873A2.312 2.312 0 0 0 12 2.354zm-4.643 9.69c.005 1.52.176 3.046.563 4.518.178.673.401 1.335.687 1.97.07.155.143.308.221.459.246.478.53.938.875 1.351.191.232.399.452.635.638.227.195.484.355.76.474.152.067.312.117.475.15a2.12 2.12 0 0 0 1.087-.062c.524-.169.973-.514 1.347-.91.53-.568.93-1.244 1.255-1.945.424-.92.721-1.893.935-2.881l-.197.197-.877-.877c-.153.98-.38 1.955-.75 2.878-.23.561-.512 1.11-.909 1.572-.277.32-.623.599-1.035.717a1.554 1.554 0 0 1-.625.049c-.087-.018-.177-.027-.262-.058-.42-.13-.767-.426-1.044-.76-.403-.49-.687-1.066-.916-1.654-.38-.989-.606-2.03-.752-3.077a20.395 20.395 0 0 1-.174-2.003l-1.299-.746z" fill="#ffffff"></path></g></g></svg>