<svg width="64" height="64" viewBox="0 0 24 24"><title>axis z rotate clockwise</title><g fill="#000000" class="nc-icon-wrapper"><g transform="translate(0 0)"><path d="M11.354 2.353v9.793l1.293-1.293v-8.5h-1.293zm0 17.5v1.793h1.293v-.5l-1.293-1.293z" data-color="color-2"></path><path d="M9.646 7.53c-1.313.164-2.617.459-3.847.955-.782.319-1.54.72-2.19 1.263-.442.372-.837.82-1.066 1.355a2.288 2.288 0 0 0-.187.99c.018.382.143.755.336 1.083.306.519.754.939 1.238 1.29.727.524 1.548.906 2.389 1.208.351.125.708.236 1.068.334-.014-.011.016-.023.021-.034l.94-.949c-.901-.17-1.795-.408-2.634-.782-.511-.23-1.008-.512-1.416-.9-.288-.275-.53-.618-.616-1.012a1.612 1.612 0 0 1-.029-.476c.033-.354.196-.688.42-.96.332-.404.773-.701 1.231-.945.73-.382 1.522-.635 2.321-.828.666-.158 1.342-.27 2.022-.349V7.53zm4.707 0v1.243c1.079.126 2.152.332 3.181.683.631.22 1.252.492 1.795.885.358.261.687.585.875.992.113.245.167.518.145.787-.025.352-.179.684-.398.957-.285.363-.664.64-1.06.869-.603.345-1.26.587-1.925.78-1.018.29-2.069.46-3.123.556l-.196.019v-2.448L10.5 16l3.147 3.146V16.58c.382-.04.764-.077 1.144-.135a15.816 15.816 0 0 0 2.839-.683c.49-.17.967-.38 1.427-.618l.402-.217c.366-.216.716-.46 1.031-.745.347-.307.655-.664.87-1.076a2.38 2.38 0 0 0 .286-1.138 2.177 2.177 0 0 0-.065-.495 2.744 2.744 0 0 0-.454-.948c-.395-.542-.928-.969-1.493-1.322-.866-.534-1.822-.906-2.798-1.182a16.835 16.835 0 0 0-2.482-.492z" fill="#ffffff"></path></g></g></svg>