<svg width="64" height="64" viewBox="0 0 24 24"><title>axis x y arrow lock</title><g fill="#000000" class="nc-icon-wrapper"><g transform="translate(0 0)"><path d="M9.354 3.353v10.701l-4.805 2.77-1.219-2.117L2.174 19l4.3 1.148-1.279-2.207L10 15.171l7.016 4.05-1.274 2.177 4.322-1.148-1.18-4.301-1.224 2.145-7.014-4.04v-10.7H9.354z" fill="#ffffff"></path><path d="M19 1c-1.3-.003-2.652.96-2.791 2.305-.02.565-.004 1.13-.01 1.695-.7.018-1.284.712-1.199 1.405.005 1.142-.009 2.284.007 3.425.063.678.708 1.259 1.398 1.17 1.808-.004 3.617.01 5.425-.007.678-.063 1.259-.708 1.17-1.398-.004-1.142.01-2.284-.007-3.425-.062-.597-.575-1.157-1.193-1.17-.015-.628.035-1.26-.036-1.885C21.52 1.861 20.234 1.001 19 1zm0 1.2c.704-.028 1.477.471 1.498 1.226.005.525 0 1.05.002 1.574h-3c.01-.572-.02-1.146.018-1.717.105-.693.826-1.098 1.482-1.083z" data-color="color-2"></path></g></g></svg>