<svg width="64" height="64" viewBox="0 0 24 24"><title>axis x rotate counterclockwise</title><g fill="#000000" class="nc-icon-wrapper"><g transform="translate(0 0)"><path d="M21.762 5.615l-3.781 2.178c-.05.156-.028.323-.007.482.016.12.053.235.082.351.049.18.097.362.132.546l4.22-2.434-.646-1.123zm-8.193 4.73L1.592 17.263l.646 1.123 7.191-4.15c.252-.161.52-.295.773-.452.063-.038.109-.097.162-.147l3.167-3.17c.018-.013.053-.017.046-.047 0-.025-.012-.049-.009-.073z" data-color="color-2"></path><path d="M11.994 2.356a2.27 2.27 0 0 0-.793.147 3.03 3.03 0 0 0-.506.253 4.274 4.274 0 0 0-.861.743c-.168.188-.318.39-.456.601-.725 1.084-1.205 2.317-1.502 3.583-.326 1.389-.445 2.819-.464 4.243.415-.24.83-.48 1.246-.717.068-1.338.203-2.68.56-3.976a9.541 9.541 0 0 1 .975-2.337c.237-.477.65-.861 1.137-1.074.279-.121.587-.182.891-.154.095.016.192.027.285.055.175.047.334.137.48.244.142.096.253.228.368.354.11.124.21.257.31.39.342.478.612 1.006.817 1.556.317.843.497 1.729.636 2.616L16 7.998l.125.125c-.176-.804-.32-1.62-.617-2.391a8.504 8.504 0 0 0-.48-1.001 7.399 7.399 0 0 0-.441-.712 5.326 5.326 0 0 0-.573-.69 3.813 3.813 0 0 0-.619-.514 2.62 2.62 0 0 0-1.401-.46zM16 10.5l-3.147 3.147h2.45c-.047.445-.093.89-.16 1.332a15.782 15.782 0 0 1-.297 1.527c-.071.279-.148.556-.24.83-.122.376-.266.746-.432 1.105-.13.305-.298.592-.492.859a3.626 3.626 0 0 1-.442.497 2.57 2.57 0 0 1-.624.422c-.264.116-.561.166-.848.12a1.677 1.677 0 0 1-.58-.212 3.44 3.44 0 0 1-.788-.746c-.391-.489-.662-1.061-.871-1.648-.158-.445-.28-.902-.392-1.36l-1.079.623c.27.89.6 1.769 1.084 2.566.299.49.659.949 1.09 1.33.122.117.26.214.393.318.382.283.86.426 1.334.425.67 0 1.334-.271 1.818-.734a7.498 7.498 0 0 0 1.342-1.794c.481-.884.805-1.844 1.035-2.821.148-.64.261-1.288.347-1.94.03-.232.057-.466.083-.7h2.562L16 10.5z" fill="#ffffff"></path></g></g></svg>