<svg height="64" width="64" viewBox="0 0 20 20"><title>axis_front</title><g fill="#000000" class="nc-icon-wrapper"><g transform="translate(0 0)"><path d="M11.665 3.51a.5.5 0 0 1 .492.508v8.91l4.686 1.875a.5.5 0 1 1-.372.93l-4.828-1.932-7.824 2.69a.5.5 0 1 1-.324-.946l7.662-2.634V4.018a.5.5 0 0 1 .508-.508z" data-color="color-2"></path><path d="M9.651 3.954a.5.5 0 0 1 .506.5v6.884a.5.5 0 0 1-.348.477l-6 1.93a.5.5 0 0 1-.652-.477V6.383a.5.5 0 0 1 .348-.476l6-1.93a.5.5 0 0 1 .146-.023z" fill="#ffffff"></path></g></g></svg>