<svg width="64" height="64" viewBox="0 0 24 24"><title>axis z arrow lock</title><g fill="#000000" class="nc-icon-wrapper"><g transform="translate(0 0)"><path d="M10 2.5L6.853 5.647h2.5v8.378l-6.699 3.873.645 1.118L10 15.15l9.26 5.364.648-1.133-9.261-5.356V5.647h2.5L10 2.5z" fill="#ffffff"></path><path d="M21.8 5c.6 0 1.2.6 1.2 1.3v3.5c0 .6-.6 1.2-1.3 1.2h-5.5c-.6 0-1.2-.6-1.2-1.3V6.2c0-.6.6-1.2 1.2-1.2V3.5C16.2 2.1 17.6 1 19 1s2.8 1.1 2.8 2.5V5m-1.3 0V3.5c0-.8-.7-1.3-1.5-1.3s-1.5.5-1.5 1.3V5h3" data-color="color-2"></path></g></g></svg>