<svg height="64" width="64" data-color="color-2" viewBox="0 0 20 20"><title>axis_side</title><g fill="#000000" class="nc-icon-wrapper"><g transform="translate(0 0)"><path d="M8.483 3.492A.5.5 0 0 0 7.991 4v8.91l-4.686 1.875a.5.5 0 1 0 .372.93l4.828-1.932 7.824 2.69a.5.5 0 1 0 .324-.946l-7.662-2.634V4a.5.5 0 0 0-.508-.508z" data-color="color-2"></path><path d="M10.497 3.936a.5.5 0 0 0-.506.5v6.884a.5.5 0 0 0 .348.477l6 1.93a.5.5 0 0 0 .652-.477V6.365a.5.5 0 0 0-.348-.476l-6-1.93a.5.5 0 0 0-.146-.023z" fill="#ffffff"></path></g></g></svg>