<svg height="64" width="64" data-color="color-2" viewBox="0 0 20 20"><title>axis_top</title><g fill="#000000" class="nc-icon-wrapper"><g transform="translate(0 0)"><path d="M10.012 12.004a.505.505 0 0 0-.17.025l-6 2a.5.5 0 0 0 0 .95l6 2a.5.5 0 0 0 .316 0l6-2a.5.5 0 0 0 0-.95l-6-2a.5.5 0 0 0-.146-.025z" fill="#ffffff"></path><path d="M9.992 2.996a.5.5 0 0 0-.492.508v5.889l-5.658 1.886a.5.5 0 1 0 .316.95L10 10.281l5.842 1.948a.5.5 0 1 0 .316-.95L10.5 9.394v-5.89a.5.5 0 0 0-.508-.508z" data-color="color-2"></path></g></g></svg>