<svg width="64" height="64" data-color="color-2" viewBox="0 0 24 24"><title>axis y rotate counterclockwise</title><g fill="#000000" class="nc-icon-wrapper"><g transform="translate(0 0)"><path d="M2.28 5.545l-.731 1.268 9.512 5.494 1.08-1.073-9.862-5.69zm15.78 9.809l-.162.806 3.863 2.225.647-1.123-3.305-1.908H18.06z" data-color="color-2"></path><path d="M12 2.353a2.307 2.307 0 0 0-1.018.25c-.52.26-.95.67-1.31 1.122-.524.664-.912 1.425-1.224 2.21-.14.353-.263.714-.372 1.079l1.051.605c.188-.789.437-1.569.81-2.29.238-.453.528-.89.918-1.224.277-.237.617-.414.984-.45.14-.015.28-.01.419.015.128.017.252.06.37.11.404.176.727.494.99.842.39.526.665 1.13.886 1.744.229.644.395 1.31.521 1.982l.977-.967c.01.009.023.025-.003-.025-.27-.983-.63-1.947-1.145-2.83-.34-.576-.747-1.124-1.269-1.55-.366-.296-.799-.527-1.269-.597A1.899 1.899 0 0 0 12 2.353zm4 8.147l-3.147 3.147h2.448c-.038.399-.076.798-.133 1.194a14.59 14.59 0 0 1-.629 2.715 7.607 7.607 0 0 1-.682 1.482c-.11.173-.225.342-.358.499a2.717 2.717 0 0 1-.587.533c-.279.184-.61.293-.946.283-.079 0-.158-.009-.235-.026a1.624 1.624 0 0 1-.607-.238c-.415-.264-.73-.658-.986-1.072-.4-.657-.669-1.386-.879-2.123-.341-1.22-.515-2.483-.586-3.746-.014-.119.001-.254-.026-.364l-1.29-.74c.005 1.52.176 3.045.563 4.517.178.673.402 1.335.687 1.97.07.155.143.308.221.459.246.478.53.938.875 1.352.183.22.38.432.605.612a2.954 2.954 0 0 0 .909.547c.328.124.685.173 1.034.131.457-.053.887-.251 1.256-.521.258-.188.49-.409.7-.649.063-.066.118-.14.177-.21.321-.4.587-.84.82-1.297.095-.213.2-.423.29-.638.188-.434.344-.88.475-1.334.155-.533.283-1.073.382-1.62.092-.499.158-1.003.207-1.508l.022-.208h2.567L16 10.5z" fill="#ffffff"></path></g></g></svg>