<svg width="64" height="64" viewBox="0 0 24 24"><title>baby face outline</title><g fill="#000000" class="nc-icon-wrapper"><g transform="translate(0 0)"><path d="M12 3.353a8.62 8.62 0 0 0-7.887 5.112A3.675 3.675 0 0 0 2.01 9.912a3.643 3.643 0 0 0 2.103 5.623 8.644 8.644 0 0 0 5.146 4.668 8.659 8.659 0 0 0 10.637-4.668 3.632 3.632 0 0 0 1.953-1.26 3.652 3.652 0 0 0-1.523-5.67 5.397 5.397 0 0 0-.43-.14A8.644 8.644 0 0 0 12 3.353zm0 1.293a7.376 7.376 0 0 1 6.973 5 2.35 2.35 0 0 1 2.32 1.82 2.369 2.369 0 0 1-.265 1.731 2.363 2.363 0 0 1-2.055 1.157 7.375 7.375 0 0 1-7.614 4.972c-.159-.022-.319-.033-.477-.059a7.335 7.335 0 0 1-3.567-1.598 7.384 7.384 0 0 1-2.29-3.316 2.35 2.35 0 0 1-2.319-1.82 2.37 2.37 0 0 1 .214-1.637 2.364 2.364 0 0 1 1.379-1.144c.235-.073.482-.108.728-.106a7.376 7.376 0 0 1 6.973-5z" fill="#ffffff"></path><path d="M8.232 14.354c.378.62.877 1.171 1.48 1.58a4.034 4.034 0 0 0 3.195.61 4.198 4.198 0 0 0 1.603-.77 5.178 5.178 0 0 0 1.258-1.42H8.232z" data-color="color-2"></path><path d="M9.5 9.25a1.25 1.25 0 0 1 1.25 1.25 1.25 1.25 0 0 1-1.25 1.25 1.25 1.25 0 0 1-1.25-1.25A1.25 1.25 0 0 1 9.5 9.25" data-color="color-2"></path><path d="M14.5 9.25a1.25 1.25 0 0 1 1.25 1.25 1.25 1.25 0 0 1-1.25 1.25 1.25 1.25 0 0 1-1.25-1.25 1.25 1.25 0 0 1 1.25-1.25" data-color="color-2"></path></g></g></svg>