<svg width="64" height="64" viewBox="0 0 24 24"><title>bacteria outline</title><g fill="#000000" class="nc-icon-wrapper"><g transform="translate(0 0)"><path d="M8.5 8.354a1.152 1.152 0 0 0-1.134.98c-.042.276.023.569.18.8a1.139 1.139 0 0 0 1.582.322 1.14 1.14 0 0 0 .328-1.586 1.152 1.152 0 0 0-.956-.516zm2.5 4a.622.622 0 0 0-.254.055.613.613 0 0 0-.218.151.687.687 0 0 0-.156.292.61.61 0 0 0 .03.385.62.62 0 0 0 .153.23c.081.08.187.13.297.161a.61.61 0 0 0 .385-.03.62.62 0 0 0 .23-.153.683.683 0 0 0 .161-.297.61.61 0 0 0-.03-.385.62.62 0 0 0-.153-.23.683.683 0 0 0-.445-.18zm4.5 2a1.152 1.152 0 0 0-1.134.98c-.042.276.023.569.18.8a1.139 1.139 0 0 0 1.582.322 1.14 1.14 0 0 0 .328-1.586 1.152 1.152 0 0 0-.956-.516z" data-color="color-2"></path><path d="M7.354 2.355v2.032c-.443.087-.887.198-1.282.423-.288.15-.527.372-.764.589L2.7 2.792l-.91.916 2.854 2.844c-.179.524-.31 1.073-.29 1.63v.173h-2v1.29h2.008c.072.853.2 1.701.408 2.532l.05.207-2.692.891.406 1.226 2.653-.887c.311.672.635 1.34 1.047 1.957.01.04.097.097.05.125L3.93 17.268l.716 1.07 2.468-1.645a8.81 8.81 0 0 0 1.469 1.24c.303.207.624.385.945.563l-.954 1.897 1.156.58.841-1.681.062.2.209-.467c1.106.374 2.27.556 3.436.606.073-.015.087.026.076.091v1.923h1.29v-2.03c1.048-.109 2.098-.322 3.053-.782l.146-.069 1.445 1.444.911-.918-1.297-1.307c.221-.289.438-.586.56-.933.232-.6.202-1.258.131-1.886-.027-.23-.07-.456-.11-.684l1.49-.739-.582-1.165-1.334.672c-.211-.328-.433-.652-.723-.916a3.423 3.423 0 0 0-1.319-.773l-.173-.061.659-1.955-1.228-.414-.738 2.211c-.562-.047-1.127-.13-1.656-.339a3.577 3.577 0 0 1-1.534-1.1l-.21-.246 1.838-.914-.581-1.163-1.697.863c-.044-.455-.072-.918-.22-1.354-.135-.44-.36-.842-.623-1.217l1.486-2.223-1.071-.715-1.384 2.08c-.378-.187-.766-.358-1.178-.457a7.776 7.776 0 0 0-1.06-.183V2.355H7.353zM8 5.645c.79.003 1.617.115 2.299.543.538.33.921.897 1.024 1.521.052.288.02.583.078.87.201 1.29.994 2.466 2.097 3.16 1.001.639 2.204.892 3.38.905a2.175 2.175 0 0 1 1.789.841c.476.614.64 1.407.679 2.167.02.338.022.691-.131 1.003-.244.53-.757.873-1.273 1.104-.818.356-1.708.51-2.593.58-.57.036-1.143.001-1.712-.046-1.502-.14-3.008-.55-4.279-1.386-.982-.638-1.785-1.533-2.356-2.552-.804-1.435-1.199-3.068-1.329-4.699a13.016 13.016 0 0 1-.028-1.572c-.01-.657.164-1.353.64-1.83.445-.45 1.099-.612 1.715-.608z" fill="#ffffff"></path></g></g></svg>