<svg width="64" height="64" viewBox="0 0 24 24"><title>bell outline</title><g fill="#ffffff" class="nc-icon-wrapper"><g transform="translate(0 0)"><path d="M9.5 20a2 2 0 0 0 2 2 2 2 0 0 0 2-2z"></path><path d="M11.5 2.355a1.152 1.152 0 0 0-1.083.772c-.09.245-.056.51-.063.766v.567a6.81 6.81 0 0 0-1.327.419 6.173 6.173 0 0 0-3.109 3.049 6.16 6.16 0 0 0-.563 2.722v5.496l-2 2v.5h16.29v-.5l-2-2v-5.748a6.111 6.111 0 0 0-1.262-3.622 6.18 6.18 0 0 0-3.5-2.26l-.238-.056c-.002-.35.004-.699-.003-1.048A1.152 1.152 0 0 0 11.5 2.355zm0 3.29a4.828 4.828 0 0 1 4.792 4.068c.084.485.058.977.062 1.465v6.177H6.645V10.42A4.854 4.854 0 0 1 7.79 7.354a4.828 4.828 0 0 1 3.71-1.709z"></path></g></g></svg>