<svg width="64" height="64" viewBox="0 0 24 24"><title>bell off outline</title><g fill="#ffffff" class="nc-icon-wrapper"><g transform="translate(0 0)"><path d="M2.39 2.23L1.611 3l4.655 4.655a7.032 7.032 0 0 0-.678 1.618 6.866 6.866 0 0 0-.234 1.98v5.894l-2 2v.499h14.901l2.584 2.583.77-.769zm9.61.125a1.654 1.654 0 0 0-1.524 1.024c-.115.26-.129.549-.122.83v.332c-.42.139-.83.315-1.22.527-.049.056-.287.086-.201.164l.899.9a5.204 5.204 0 0 1 3.264-.374 5.366 5.366 0 0 1 3.471 2.444c.546.88.814 1.922.788 2.955v2.497l1.29 1.29c0-1.36.002-2.72-.001-4.082a6.658 6.658 0 0 0-1.929-4.55 6.656 6.656 0 0 0-2.973-1.73c-.052-.015-.12-.017-.096-.089-.007-.341.033-.692-.087-1.02A1.655 1.655 0 0 0 12 2.355zM7.214 8.603l9.752 9.751H6.646c0-2.482-.002-4.963 0-7.445a5.08 5.08 0 0 1 .436-1.983zM10 21a2 2 0 0 0 2 2 2 2 0 0 0 2-2z" class="nc-icon-wrapper"></path></g></g></svg>