<svg width="64" height="64" viewBox="0 0 24 24"><title>bell remove outline</title><g fill="#000000" class="nc-icon-wrapper"><g transform="translate(0 0)"><path d="M12 2.353a1.652 1.652 0 0 0-1.647 1.679v.523c-.256.074-.512.148-.76.247a6.66 6.66 0 0 0-4.24 6.311v6.034l-2 2v.5h8.516a6.276 6.276 0 0 1-.207-1.293H6.647v-7.397a5.336 5.336 0 0 1 2.13-4.233 5.33 5.33 0 0 1 1.821-.893 5.392 5.392 0 0 1 3.35.18c.703.274 1.344.7 1.873 1.236a5.372 5.372 0 0 1 1.304 2.2c.16.528.235 1.08.228 1.63v.61a5.472 5.472 0 0 1 1.294-.006c-.001-.277 0-.554-.003-.831a6.624 6.624 0 0 0-.71-2.85 6.699 6.699 0 0 0-2.782-2.856 6.681 6.681 0 0 0-1.188-.496c-.105-.032-.212-.062-.318-.093 0-.206.002-.412-.001-.618A1.651 1.651 0 0 0 12 2.353zM10 21a2 2 0 0 0 3.65 1.13c-.32-.34-.6-.72-.84-1.13z" fill="#ffffff"></path><path d="M20.12 14.46L18 16.59l-2.12-2.13-1.42 1.42L16.59 18l-2.13 2.12 1.42 1.42L18 19.41l2.12 2.13 1.42-1.42L19.41 18l2.13-2.12" data-color="color-2"></path></g></g></svg>