<svg width="64" height="64" viewBox="0 0 24 24"><title>bell ring outline</title><g fill="#ffffff" class="nc-icon-wrapper"><g transform="translate(0 0)"><path d="M12 2.355a1.654 1.654 0 0 0-1.535 1.051c-.113.266-.115.556-.11.84v.308a7.05 7.05 0 0 0-1.642.665A6.65 6.65 0 0 0 5.62 9.134c-.2.673-.28 1.377-.265 2.078v5.935l-2 2v.499h17.29v-.5l-2-2c0-2.088.001-4.177-.001-6.266a6.658 6.658 0 0 0-1.843-4.48 6.652 6.652 0 0 0-3.047-1.813c-.04-.022-.128-.008-.108-.075-.009-.34.034-.691-.08-1.02a1.654 1.654 0 0 0-1.503-1.136h-.031zm-7.726 1.36a10.578 10.578 0 0 0-2.886 6.93h1.266a9.343 9.343 0 0 1 2.52-6.03l-.9-.901zm15.452 0l-.9.9a9.345 9.345 0 0 1 2.52 6.03h1.264a10.6 10.6 0 0 0-2.884-6.93zM12 5.645a5.342 5.342 0 0 1 3.553 1.348 5.346 5.346 0 0 1 1.783 3.561c.032.43.013.862.018 1.292v6.508H6.644c.001-2.486 0-4.972.002-7.458A5.349 5.349 0 0 1 12 5.645z"></path><path d="M10 21h4a2 2 0 0 1-2 2 2 2 0 0 1-2-2"></path></g></g></svg>