<svg width="64" height="64" viewBox="0 0 24 24"><title>bell alert outline</title><g fill="#000000" class="nc-icon-wrapper"><g transform="translate(0 0)"><path d="M12 2.355a1.654 1.654 0 0 0-1.488.94 1.725 1.725 0 0 0-.16.76c-.01.165.012.33.022.494-.453.127-.9.278-1.32.49a6.674 6.674 0 0 0-3.207 3.445 6.706 6.706 0 0 0-.492 2.682v5.98l-2 2v.5h17.29v-.5l-2-2v-6.252a6.644 6.644 0 0 0-4.84-6.292l-.18-.053c.017-.204.033-.409.02-.613A1.653 1.653 0 0 0 12.63 2.48a1.637 1.637 0 0 0-.63-.126zm0 3.29a5.355 5.355 0 0 1 5.25 4.291c.091.437.111.884.105 1.329v7.09H6.645c0-2.487-.002-4.973 0-7.459A5.353 5.353 0 0 1 12 5.646zM10 21a2 2 0 0 0 2 2 2 2 0 0 0 2-2z" fill="#ffffff"></path><path d="M21 7v6h2V7zm0 8v2h2v-2z" data-color="color-2"></path></g></g></svg>