<svg height="64" width="64" viewBox="0 0 20 20"><title>bone_data</title><g fill="#ffffff" class="nc-icon-wrapper"><g transform="translate(0 0)"><path d="M7.504 3c-.824 0-1.5.68-1.5 1.5V6h-1.5c-.82 0-1.5.676-1.5 1.5s.68 1.5 1.5 1.5h1c.426 0 .766-.214 1.035-.502l4.963 4.965c-.29.268-.506.609-.506 1.037v1c0 .82.676 1.5 1.5 1.5s1.5-.68 1.5-1.5V14h1.5c.82 0 1.5-.676 1.5-1.5s-.68-1.5-1.5-1.5h-1c-.426 0-.766.214-1.035.502L8.498 6.537c.29-.268.506-.609.506-1.037v-1c0-.82-.676-1.5-1.5-1.5z" class="nc-icon-wrapper"></path></g></g></svg>