<svg height="64" width="64" viewBox="0 0 20 20"><title>bordermove</title><g fill="#000000" class="nc-icon-wrapper"><g transform="translate(0 0)"><path d="M9.004 2.996v2h1v-2zm3 0v1h2v-1zm4 0v2h1v-2zm-6 3c-2.198 0-4 1.802-4 4 0 .92.327 1.76.855 2.438L3.15 16.142a.5.5 0 1 0 .708.708l3.709-3.71a3.956 3.956 0 0 0 2.437.856 4.013 4.013 0 0 0 3.998-4c0-2.198-1.8-4-3.998-4zm6 1v2h1v-2zm-6 .002c1.652 0 3 1.346 3 2.998 0 1.652-1.348 3-3 3s-3-1.348-3-3a3.004 3.004 0 0 1 3-2.998zm6 3.998v2h1v-2zm-7 4v2h1v-2zm7 0v2h1v-2zm-4 1v1h2v-1z" fill="#ffffff"></path><path d="M9.004 2.996v3.5h1v-2.5h6v12h-6v-2.25h-1v3.25h8v-14z" data-color="color-2"></path></g></g></svg>