<svg height="64" width="64" viewBox="0 0 20 20"><title>brushes_all</title><g fill="#000000" class="nc-icon-wrapper"><g transform="translate(0 0)"><path d="M4.998 2.997c-.583 0-1.109.154-1.477.522C3.154 3.886 3 4.414 3 4.997v3.008h6V5.519c-.002-.337.178-.728.475-1.026.296-.297.69-.482 1.029-.484.658-.012.654-.994-.004-1h-.004L8 3.005v.486c.01.676-1.01.676-1 0v-.488H6v.49c.01.676-1.01.676-1 0v-.492h-.002zM3 9.005v.5c0 .252.164.498.5.486l1.502.01L5 15.995c-.02 1.353 2.02 1.353 2 0l-.002-5.994 1.502-.01c.321 0 .5-.246.5-.486v-.5z" fill="#ffffff"></path><path d="M15 2.991c-.505 0-1.01.338-1 1.014v7h2v-7c.01-.676-.495-1.014-1-1.014zm0 9.028c-1.099 0-2 .901-2 2 0 .827-.133 1.336-.332 1.593-.2.257-.5.393-1.168.393a.492.492 0 0 0-.389.195.5.5 0 0 0-.088.178l-.01.049a.443.443 0 0 0-.002.15.527.527 0 0 0 .096.229.5.5 0 0 0 .393.199c2.019 0 3.31-.264 4.17-.746.856-.48 1.23-1.232 1.3-1.918a1.99 1.99 0 0 0 .03-.322c0-1.099-.902-2-2-2z" data-color="color-2"></path></g></g></svg>