<svg height="64" width="64" viewBox="0 0 20 20"><title>brush_data</title><g fill="#ffffff" class="nc-icon-wrapper"><g transform="translate(0 0)"><path d="M11 2.5c-.486 0-.979.16-1.363.502C9.252 3.344 9 3.875 9 4.5v4H5.5A.5.5 0 0 0 5 9v4c0 .333-.182.725-.479 1.021-.296.297-.688.479-1.021.479a.5.5 0 0 0-.5.5v2a.5.5 0 0 0 .5.5h3a.5.5 0 0 0 .354-.146L8 16.207V17a.5.5 0 0 0 .5.5h5c1.778 0 3.5-1.464 3.5-3.5V9a.5.5 0 0 0-.5-.5H13v-4c0-.625-.252-1.156-.637-1.498A2.044 2.044 0 0 0 11 2.5zm0 1c.264 0 .521.09.7.248.177.158.3.377.3.752v4h-.5c-.676-.01-.676 1.01 0 1H16v1H6v-1h3.5A.5.5 0 0 0 10 9V4.5c0-.375.123-.594.3-.752A1.07 1.07 0 0 1 11 3.5zm-5 8h10V14c0 1.464-1.278 2.5-2.5 2.5H13V15a.5.5 0 1 0-1 0v1.5H9V15a.5.5 0 0 0-.854-.354L6.293 16.5H4v-1.223c.444-.12.906-.226 1.229-.548C5.682 14.275 6 13.667 6 13z" class="nc-icon-wrapper"></path></g></g></svg>