<svg width="64" height="64" viewBox="0 0 24 24"><title>bug check outline</title><g fill="#000000" class="nc-icon-wrapper"><g transform="translate(0 0)"><path d="M8 9v2h4V9zm0 4v2h4v-2zm13.34 3l-3.59 3.59L16.16 18 15 19.16l2.75 3 4.75-4.75z" data-color="color-2"></path><path d="M6.41 2.5l-.908.908 1.676 1.645c-.175.118-.352.232-.523.355-.628.459-1.133 1.07-1.52 1.741l-.12.204H2.355v1.293h2.16c-.038.216-.083.431-.113.648-.037.272-.05.546-.047.82v1.24h-2v1.292h2v1.436c.004.322.04.643.103.96l.057.311h-2.16v1.293h2.662c.114.2.23.4.365.588.095.135.2.263.3.393a5.6 5.6 0 0 0 1.945 1.47 5.684 5.684 0 0 0 4.02.259c.001-.274-.005-.549.02-.822.015-.18.039-.36.069-.54a4.383 4.383 0 0 1-2.27.327 4.349 4.349 0 0 1-3.818-4.389V9.951a4.347 4.347 0 0 1 2.8-4.02 4.381 4.381 0 0 1 3.013-.034 4.35 4.35 0 0 1 2.894 4.209v3.699a6.411 6.411 0 0 1 1.293-.7v-.458h2v-1.293h-2l-.001-1.436a5.342 5.342 0 0 0-.102-.96l-.058-.311h2.16V7.354h-2.663a7.709 7.709 0 0 0-.37-.612 5.324 5.324 0 0 0-1.497-1.485l-.307-.204 1.687-1.647-.906-.906-2.06 2.06a5.691 5.691 0 0 0-2.93-.029l-.12.03L6.41 2.5zm5.324 15.494c.047-.008.066-.039.067-.084l.023-.115c-.046.01-.07.039-.07.086a6.168 6.168 0 0 0-.02.113z" fill="#ffffff"></path></g></g></svg>