<svg width="64" height="64" viewBox="0 0 24 24"><title>bug outline</title><g fill="#000000" class="nc-icon-wrapper"><g transform="translate(0 0)"><path d="M10 10v2h4v-2zm0 4v2h4v-2z" data-color="color-2"></path><path d="M8.41 3.5l-.907.908L9.18 6.053c-.335.222-.675.44-.966.72-.489.451-.88.998-1.198 1.582H4.354v1.29h2.161c-.073.394-.151.79-.158 1.192-.005.506-.001 1.012-.002 1.517h-2v1.292h2c.001.515-.004 1.031.003 1.547.009.392.087.777.157 1.161h-2.16v1.292h2.66c.251.454.55.883.913 1.257a5.656 5.656 0 0 0 3.803 1.726 5.626 5.626 0 0 0 3.111-.767 5.629 5.629 0 0 0 2.114-2.165c.013-.053.055-.058.102-.051h2.588v-1.292h-2.16c.073-.398.152-.798.158-1.205.004-.501 0-1.002.002-1.503h2v-1.292h-2c-.002-.515.004-1.031-.004-1.547-.009-.392-.086-.777-.157-1.162h2.161v-1.29h-2.663a5.945 5.945 0 0 0-1.074-1.46 5.549 5.549 0 0 0-.935-.733l-.165-.11 1.688-1.645-.906-.906-2.06 2.06a5.861 5.861 0 0 0-1.672-.204c-.466.01-.928.087-1.378.204l-2.07-2.06zM12 6.645a4.349 4.349 0 0 1 4.351 4.187c.007.594.002 1.188.003 1.781 0 .837.003 1.674-.001 2.51a4.35 4.35 0 0 1-4.269 4.23 4.35 4.35 0 0 1-4.434-4.157c-.009-.499-.002-.998-.004-1.497 0-.937-.002-1.874.001-2.811A4.35 4.35 0 0 1 12 6.645z" fill="#ffffff"></path></g></g></svg>