<svg width="64" height="64" data-color="color-2" viewBox="0 0 24 24"><title>cached</title><g fill="#000000" class="nc-icon-wrapper"><g transform="translate(0 0)"><path d="M12 4.354a7.613 7.613 0 0 0-3.737.975 7.637 7.637 0 0 0-3.908 6.784v.241h-2.5L5 15.5l3.145-3.145h-2.5a8.196 8.196 0 0 1 .054-1.178 6.336 6.336 0 0 1 1.687-3.547 6.344 6.344 0 0 1 3.555-1.896 6.33 6.33 0 0 1 3.79.536l.919-.92c-1.113-.618-2.371-.997-3.65-.995z" fill="#ffffff"></path><path d="M19 8.501l-3.145 3.145h2.5c.001.393.001.788-.054 1.178a6.338 6.338 0 0 1-1.7 3.56 6.345 6.345 0 0 1-3.604 1.893c-1.26.2-2.58.011-3.728-.546l-.919.92c1.104.613 2.352.991 3.62.995a7.613 7.613 0 0 0 3.742-.961 7.684 7.684 0 0 0 3.202-3.418c.5-1.049.747-2.214.732-3.375v-.247h2.499L19 8.501z" data-color="color-2"></path></g></g></svg>