<svg width="64" height="64" data-color="color-2" viewBox="0 0 24 24"><title>calculator variant outline</title><g fill="#000000" class="nc-icon-wrapper"><g transform="translate(0 0)"><path d="M14.1 6L13 7.1l1.4 1.4L13 9.9l1.1 1 1.4-1.4 1.4 1.4 1.1-1-1.4-1.4L18 7.1 16.9 6l-1.4 1.4zM6.2 7.7v1.5h5V7.7zM8 12.5v2H6V16h2v2h1.5v-2h2v-1.5h-2v-2zm5 .7v1.5h5v-1.5zm0 2.6v1.5h5v-1.5z" data-color="color-2"></path><path d="M5 3.354a1.658 1.658 0 0 0-1.493.958c-.127.259-.162.55-.152.835v13.895a1.66 1.66 0 0 0 1.025 1.481c.249.109.521.13.789.122h13.873a1.66 1.66 0 0 0 1.481-1.025c.109-.249.13-.522.123-.79V4.959a1.66 1.66 0 0 0-1.026-1.482c-.248-.108-.521-.129-.789-.122H5.001zm-.354 1.292h14.708v14.708H4.646V4.646z" fill="#ffffff"></path></g></g></svg>