<svg height="64" width="64" viewBox="0 0 20 20"><title>center_only</title><g fill="#000000" class="nc-icon-wrapper"><g transform="translate(0 0)"><path d="M13.5 9.49a.5.5 0 0 0-.348.86l2.148 2.146H4.708l2.147-2.146a.5.5 0 1 0-.708-.708L3.19 12.6a.5.5 0 0 0-.002.792.5.5 0 0 0 .008.006l2.952 2.952a.5.5 0 1 0 .707-.707l-2.148-2.147h10.592l-2.147 2.146a.5.5 0 1 0 .707.708l2.965-2.967a.5.5 0 0 0 .02-.016l.015-.017a.5.5 0 0 0 .024-.682.5.5 0 0 0-.024-.026.5.5 0 0 0-.01-.01l-2.99-2.99a.5.5 0 0 0-.359-.152z" fill="#ffffff"></path><path d="M11 4.994a1.498 1.498 0 0 1-1.498 1.498 1.498 1.498 0 0 1-1.498-1.498 1.498 1.498 0 0 1 1.498-1.498A1.498 1.498 0 0 1 11 4.994zm5 0a1.498 1.498 0 0 1-1.498 1.498 1.498 1.498 0 0 1-1.498-1.498 1.498 1.498 0 0 1 1.498-1.498A1.498 1.498 0 0 1 16 4.994zm-10 0a1.498 1.498 0 0 1-1.498 1.498 1.498 1.498 0 0 1-1.498-1.498 1.498 1.498 0 0 1 1.498-1.498A1.498 1.498 0 0 1 6 4.994z" data-color="color-2"></path></g></g></svg>