<svg width="64" height="64" viewBox="0 0 24 24"><title>circle outline</title><g fill="#ffffff" class="nc-icon-wrapper"><g transform="translate(0 0)"><path class="nc-icon-wrapper" d="M12 2.353c-.65.002-1.3.065-1.936.196A9.58 9.58 0 0 0 7.28 3.587 9.69 9.69 0 0 0 4.27 6.229c-.115.159-.232.319-.34.484a9.579 9.579 0 0 0-1.33 3.11 9.696 9.696 0 0 0 .03 4.479 9.57 9.57 0 0 0 1.697 3.543 9.602 9.602 0 0 0 2.332 2.189 9.582 9.582 0 0 0 5.348 1.613 9.676 9.676 0 0 0 2.3-.28 9.569 9.569 0 0 0 3.537-1.695 9.58 9.58 0 0 0 1.676-1.633A9.578 9.578 0 0 0 21.647 12a9.681 9.681 0 0 0-.274-2.286 9.562 9.562 0 0 0-1.645-3.483 9.603 9.603 0 0 0-2.046-2.024 9.56 9.56 0 0 0-3.402-1.58A9.682 9.682 0 0 0 12 2.353zm0 1.293a8.325 8.325 0 0 1 5.41 1.987 8.35 8.35 0 0 1 2.847 5.093 8.42 8.42 0 0 1-.32 3.887 8.354 8.354 0 0 1-1.57 2.798 8.369 8.369 0 0 1-3.345 2.38 8.298 8.298 0 0 1-2.773.559 8.351 8.351 0 0 1-2.946-.441 8.348 8.348 0 0 1-4.46-3.598 8.386 8.386 0 0 1-.761-6.978 8.35 8.35 0 0 1 3.065-4.135A8.35 8.35 0 0 1 12 3.647z"></path></g></g></svg>