<svg width="64" height="64" viewBox="0 0 24 24"><title>circle off outline</title><g fill="#ffffff" class="nc-icon-wrapper"><g transform="translate(0 0)"><path class="nc-icon-wrapper" d="M2.39 2.23l-.779.772 2.92 2.916c-.207.272-.419.541-.604.83a9.62 9.62 0 0 0-1.556 4.68 9.591 9.591 0 0 0 .344 3.183 9.674 9.674 0 0 0 2.042 3.74c.421.483.893.923 1.402 1.31a9.609 9.609 0 0 0 3.962 1.8 9.632 9.632 0 0 0 3.183.096 9.466 9.466 0 0 0 3.043-.957c.4-.204.785-.44 1.154-.696.199-.138.39-.288.581-.435l2.758 2.761.77-.77L2.39 2.23zm9.61.124a9.28 9.28 0 0 0-3.368.65c-.447.174-.882.38-1.302.611l.91.924a8.334 8.334 0 0 1 3.586-.89 8.347 8.347 0 0 1 3.238.576c.908.356 1.75.878 2.48 1.523a8.322 8.322 0 0 1 2.803 5.942 8.344 8.344 0 0 1-.886 4.07l.924.91c.634-1.145 1.068-2.409 1.209-3.713.1-.92.053-1.854-.118-2.762a9.598 9.598 0 0 0-1.702-3.885 9.71 9.71 0 0 0-1.79-1.86A9.606 9.606 0 0 0 12 2.353zM5.457 6.836l11.705 11.705c-.275.2-.547.407-.838.585a8.116 8.116 0 0 1-3.816 1.213c-.553.032-1.11.01-1.659-.063a10.174 10.174 0 0 1-.515-.09 8.174 8.174 0 0 1-3.006-1.258 8.268 8.268 0 0 1-1.978-1.869 8.307 8.307 0 0 1-1.365-2.693 8.386 8.386 0 0 1-.23-3.701 8.23 8.23 0 0 1 1.47-3.507l.232-.322z"></path></g></g></svg>