<svg width="64" height="64" viewBox="0 0 24 24"><title>circle slice 7</title><g fill="#000000" class="nc-icon-wrapper"><g transform="translate(0 0)"><path d="M12 5c3.87 0 7 3.13 7 7s-3.13 7-7 7-7-3.13-7-7c0-1.93.78-3.68 2.05-4.95L12 12z" fill="#ffffff"></path><path d="M12 2.355a9.593 9.593 0 0 0-5.478 1.719A9.719 9.719 0 0 0 2.69 9.482a9.603 9.603 0 0 0 .471 6.37 9.753 9.753 0 0 0 4.405 4.707 9.595 9.595 0 0 0 6.075.945 9.662 9.662 0 0 0 5.312-2.837 9.591 9.591 0 0 0 1.494-11.305 9.747 9.747 0 0 0-4.976-4.358A9.575 9.575 0 0 0 12 2.354zm0 1.29a8.336 8.336 0 0 1 4.899 1.585 8.37 8.37 0 0 1 3.132 4.457 8.399 8.399 0 0 1-.503 5.942 8.386 8.386 0 0 1-4.205 4.04A8.4 8.4 0 0 1 9 19.8a8.382 8.382 0 0 1-4.323-3.773 8.377 8.377 0 0 1-.94-5.275 8.34 8.34 0 0 1 2.354-4.662A8.34 8.34 0 0 1 12 3.645z" data-color="color-2"></path></g></g></svg>