<svg width="64" height="64" viewBox="0 0 24 24"><title>clipboard file outline</title><g fill="#000000" class="nc-icon-wrapper"><g transform="translate(0 0)"><path d="M15 10.354a1.65 1.65 0 0 0-1.646 1.707v8.97a1.649 1.649 0 0 0 1.716 1.615h5.962a1.647 1.647 0 0 0 1.614-1.716v-6.784l-3.793-3.792H15zm-.354 1.291h3.67l3.039 3.039v6.67h-6.71v-9.709z" data-color="color-2"></path><path d="M12 3c.55 0 1 .45 1 1s-.45 1-1 1-1-.45-1-1 .45-1 1-1z" fill="#ffffff"></path><path d="M12 1.354a2.64 2.64 0 0 0-2.088 1.039 2.98 2.98 0 0 0-.464.908c-.001.067-.058.055-.107.053-1.468.001-2.936-.001-4.404.002A1.66 1.66 0 0 0 3.45 4.45c-.105.266-.097.555-.095.836v13.755a1.66 1.66 0 0 0 1.072 1.5c.253.103.528.108.797.103h5.422v-1.29h-6V4.644h2.708v2h9.292v-2h2.708v3h.623l.668.67c0-1.127.002-2.252 0-3.378a1.66 1.66 0 0 0-1.096-1.487c-.266-.106-.555-.097-.836-.096h-4.141c-.11-.316-.236-.631-.44-.9A2.64 2.64 0 0 0 12 1.353z" fill="#ffffff"></path></g></g></svg>