<svg width="64" height="64" viewBox="0 0 24 24"><title>clipboard remove outline</title><g fill="#000000" class="nc-icon-wrapper"><g transform="translate(0 0)"><path d="M15.54 10.88L13.41 13l2.13 2.12-1.42 1.42L12 14.41l-2.12 2.13-1.41-1.42L10.59 13l-2.12-2.12 1.41-1.41L12 11.59l2.12-2.12z" data-color="color-2"></path><path d="M12 1.354a2.633 2.633 0 0 0-2.04.98 2.905 2.905 0 0 0-.508.955c-.006.062-.045.076-.101.065-1.472.001-2.943-.001-4.414.002A1.66 1.66 0 0 0 3.45 4.45c-.101.257-.098.534-.096.806l.001 13.79c.01.638.432 1.241 1.024 1.476.25.11.523.13.792.122h13.876a1.651 1.651 0 0 0 1.477-1.023c.108-.25.129-.524.121-.793V4.953a1.653 1.653 0 0 0-1.005-1.469c-.252-.113-.53-.138-.804-.13h-4.264c-.106-.302-.223-.604-.414-.865A2.643 2.643 0 0 0 12 1.354zm-.034 1.292a1.356 1.356 0 1 1-.352 2.653 1.363 1.363 0 0 1-.964-1.195 1.36 1.36 0 0 1 1.316-1.458zm-7.32 2h2.708v2h9.291v-2h2.709v14.708H4.645V4.646z" fill="#ffffff"></path></g></g></svg>