<svg width="64" height="64" viewBox="0 0 24 24"><title>clipboard search outline</title><g fill="#000000" class="nc-icon-wrapper"><g transform="translate(0 0)"><path d="M16.5 11C14 11 12 13 12 15.5s2 4.5 4.5 4.5c.87 0 1.69-.25 2.38-.68L22 22.39 23.39 21l-3.08-3.1c.44-.69.69-1.52.69-2.4 0-2.5-2-4.5-4.5-4.5zm0 2a2.5 2.5 0 0 1 0 5 2.5 2.5 0 0 1 0-5z" data-color="color-2"></path><path d="M12 1.354a2.64 2.64 0 0 0-2.118 1.08c-.208.27-.338.586-.448.906-.028.032-.098.006-.142.014-1.452.001-2.903-.001-4.355.002A1.66 1.66 0 0 0 3.45 4.45c-.107.27-.097.562-.096.847v13.734c.004.65.437 1.267 1.043 1.5.264.112.554.118.836.114h6.742a6.169 6.169 0 0 1-1.135-1.292H4.646V4.646h2.708v2h9.291v-2h2.709v4.623c.458.21.891.474 1.291.78 0-1.704.002-3.408 0-5.112a1.654 1.654 0 0 0-1.061-1.475c-.272-.114-.569-.11-.858-.108h-4.155c-.105-.302-.223-.604-.413-.865a2.642 2.642 0 0 0-2.111-1.134h-.024zm-.034 1.292a1.355 1.355 0 1 1-.462 2.615A1.362 1.362 0 0 1 10.646 4a1.362 1.362 0 0 1 1.32-1.354z" fill="#ffffff"></path></g></g></svg>