<svg width="64" height="64" viewBox="0 0 24 24"><title>clipboard outline</title><g fill="#ffffff" class="nc-icon-wrapper"><g transform="translate(0 0)"><path class="nc-icon-wrapper" d="M12 1.353c-.4 0-.799.094-1.157.272-.331.161-.623.399-.86.68-.153.18-.279.384-.38.598-.068.146-.118.3-.175.45H4.976A1.65 1.65 0 0 0 3.353 5.03v13.987a1.65 1.65 0 0 0 1.673 1.63h13.99a1.65 1.65 0 0 0 1.63-1.672V4.984a1.65 1.65 0 0 0-1.672-1.63h-4.401c-.074-.194-.137-.393-.238-.574a2.704 2.704 0 0 0-1.141-1.138A2.608 2.608 0 0 0 12 1.352zm0 1.293a1.35 1.35 0 0 1 1.353 1.328 1.35 1.35 0 0 1-1.3 1.379 1.352 1.352 0 0 1-1.405-1.283A1.352 1.352 0 0 1 12 2.646zm-7.354 2h2.707v2h9.293v-2h2.707v14.707H4.646V4.646z"></path></g></g></svg>