<svg width="64" height="64" viewBox="0 0 24 24"><title>clipboard off outline</title><g fill="#ffffff" class="nc-icon-wrapper"><g transform="translate(0 0)"><path class="nc-icon-wrapper" d="M12 1.353c-.402 0-.804.096-1.164.276-.368.183-.69.456-.94.783a2.82 2.82 0 0 0-.397.75l-.071.192H7.053l3.293 3.292h6.3v-2h2.708v11.008l1.293 1.293V4.977a1.657 1.657 0 0 0-1.52-1.618c-.155-.01-.31-.003-.465-.005h-4.09c-.079-.212-.15-.427-.264-.624a2.657 2.657 0 0 0-1.512-1.251A2.626 2.626 0 0 0 12 1.354zm-9.61.877l-.779.772 1.742 1.752v14.27a1.657 1.657 0 0 0 1.52 1.618c.155.009.31.003.465.005h13.908l1.594 1.584.77-.77L2.39 2.231zm9.61.416a1.352 1.352 0 0 1 1.346 1.5 1.357 1.357 0 0 1-1.948 1.067A1.352 1.352 0 0 1 12 2.647zm-7.354 3.39l13.319 13.317H4.647V6.035z"></path></g></g></svg>