<svg width="64" height="64" viewBox="0 0 24 24"><title>clipboard alert outline</title><g fill="#000000" class="nc-icon-wrapper"><g transform="translate(0 0)"><path d="M11 9v4.5h2V9zm0 6v2h2v-2z" data-color="color-2"></path><path d="M12 1.354a2.633 2.633 0 0 0-2.04.98c-.232.277-.391.606-.505.948-.01.056-.036.088-.096.072-1.474.001-2.948-.001-4.422.002-.64.016-1.24.446-1.468 1.041-.106.25-.121.523-.114.79v13.86c.01.638.432 1.241 1.024 1.477.25.108.524.13.792.122l13.877-.001a1.654 1.654 0 0 0 1.476-1.024c.108-.25.13-.523.122-.792l-.001-13.876a1.653 1.653 0 0 0-1.005-1.469c-.252-.113-.53-.138-.803-.13h-4.265c-.106-.302-.223-.604-.414-.865A2.643 2.643 0 0 0 12 1.354zm0 1.292a1.357 1.357 0 0 1 1.221.766c.243.493.145 1.13-.24 1.523A1.356 1.356 0 1 1 12 2.645zm-7.354 2h2.708v2h9.292v-2h2.708v14.708H4.646V4.646z" fill="#ffffff"></path></g></g></svg>