<svg width="64" height="64" viewBox="0 0 24 24"><title>clock fast</title><g fill="#000000" class="nc-icon-wrapper"><g transform="translate(0 0)"><path d="M4 6a1 1 0 0 0-1 1 1 1 0 0 0 1 1h1.83c.31-.71.71-1.38 1.17-2zm10 2v4.4l2.77 2.77 1.06-1.06-2.33-2.33V8zM3 11a1 1 0 0 0-1 1 1 1 0 0 0 1 1h2.05L5 12l.05-1zm-1 5a1 1 0 0 0-1 1 1 1 0 0 0 1 1h5c-.46-.62-.86-1.29-1.17-2z" data-color="color-2"></path><path d="M15 4.354a7.617 7.617 0 0 0-4.047 1.159 7.683 7.683 0 0 0-3.075 3.7 7.671 7.671 0 0 0 .1 5.816 7.685 7.685 0 0 0 3.26 3.628 7.628 7.628 0 0 0 4.155.979 7.614 7.614 0 0 0 4.13-1.472 7.67 7.67 0 0 0 2.813-4.004 7.672 7.672 0 0 0-.415-5.412 7.686 7.686 0 0 0-3.426-3.55A7.613 7.613 0 0 0 15 4.355zm0 1.291a6.337 6.337 0 0 1 3.522 1.064 6.371 6.371 0 0 1 2.577 3.499 6.382 6.382 0 0 1-.457 4.72 6.382 6.382 0 0 1-3.204 2.942 6.386 6.386 0 0 1-5.018-.06 6.384 6.384 0 0 1-3.097-2.951 6.384 6.384 0 0 1-.379-4.791 6.376 6.376 0 0 1 2.663-3.442A6.336 6.336 0 0 1 15 5.646z" fill="#ffffff"></path></g></g></svg>