<svg width="64" height="64" viewBox="0 0 24 24"><title>clock alert outline</title><g fill="#000000" class="nc-icon-wrapper"><g transform="translate(0 0)"><path d="M12 2.353a9.578 9.578 0 0 0-3.677.733A9.737 9.737 0 0 0 3.92 6.751a9.563 9.563 0 0 0-1.49 6.45 9.56 9.56 0 0 0 2.136 4.924 9.57 9.57 0 0 0 1.56 1.51 9.613 9.613 0 0 0 3.938 1.814c.832.17 1.688.232 2.537.178a9.138 9.138 0 0 0 3.893-1.098 9.814 9.814 0 0 0 1.154-.736v-1.654c-1.068.954-2.364 1.662-3.76 1.993a8.263 8.263 0 0 1-4.639-.246A8.388 8.388 0 0 1 6.06 17.86a8.379 8.379 0 0 1-1.983-3.217 8.302 8.302 0 0 1-.425-2.945A8.287 8.287 0 0 1 4.72 7.912a8.46 8.46 0 0 1 3.526-3.37 8.285 8.285 0 0 1 3.7-.895 8.143 8.143 0 0 1 3.433.733 8.494 8.494 0 0 1 4.587 5.266h1.322a9.626 9.626 0 0 0-2.536-4.489 9.562 9.562 0 0 0-4.467-2.527 9.385 9.385 0 0 0-1.777-.262A9.135 9.135 0 0 0 12 2.353z" fill="#ffffff"></path><path d="M11 7v6l5.2 3.1.8-1.2-4.5-2.7V7zm9 5v6h2v-6zm0 8v2h2v-2z" data-color="color-2"></path></g></g></svg>