<svg width="64" height="64" data-color="color-2" viewBox="0 0 24 24"><title>clock end</title><g fill="#000000" class="nc-icon-wrapper"><g transform="translate(0 0)"><path d="M11 5v3.69l3.19 1.84.75-1.3-2.44-1.41V5zm4 11v3H3v2h12v3l4-4zm4 4v4h2v-8h-2z" data-color="color-2"></path><path d="M12 1.354a6.616 6.616 0 0 0-3.612 1.07 6.694 6.694 0 0 0-2.68 3.439c-.532 1.55-.46 3.3.202 4.8a6.648 6.648 0 0 0 6.909 3.933 6.634 6.634 0 0 0 3.646-1.676 6.641 6.641 0 0 0 1.573-7.692 6.7 6.7 0 0 0-3.346-3.303A6.607 6.607 0 0 0 12 1.355zm0 1.442a5.215 5.215 0 0 1 5.082 4.075 5.216 5.216 0 0 1-.522 3.64 5.232 5.232 0 0 1-2.807 2.39 5.225 5.225 0 0 1-3.989-.199 5.225 5.225 0 0 1-2.557-2.669A5.233 5.233 0 0 1 7.193 6a5.226 5.226 0 0 1 2.493-2.663A5.192 5.192 0 0 1 12 2.796z" fill="#ffffff"></path></g></g></svg>