<svg width="64" height="64" viewBox="0 0 24 24"><title>clock check outline</title><g fill="#000000" class="nc-icon-wrapper"><g transform="translate(0 0)"><path d="M11 7v6l3.5 2.1c.3-.4.7-.7 1.1-1l-3.1-1.8V7zm11 8.5L18.5 19l-2-2-1.5 1.5 3.5 3.5 5-5z" data-color="color-2"></path><path d="M12 2.353c-1.263.001-2.526.25-3.69.739a9.738 9.738 0 0 0-4.407 3.683 9.563 9.563 0 0 0-1.472 6.441 9.56 9.56 0 0 0 2.133 4.909 9.577 9.577 0 0 0 1.571 1.519 9.611 9.611 0 0 0 3.942 1.808 9.623 9.623 0 0 0 1.993.194 7.22 7.22 0 0 0 1.092-.132 6.133 6.133 0 0 1-.348-1.2c-.33.046-.663.04-.995.038a8.286 8.286 0 0 1-3.799-1.013 8.46 8.46 0 0 1-3.448-3.527 8.285 8.285 0 0 1-.925-3.738 8.288 8.288 0 0 1 .7-3.414A8.444 8.444 0 0 1 7.07 5.266a8.316 8.316 0 0 1 7.285-1.28 8.358 8.358 0 0 1 3.259 1.84 8.41 8.41 0 0 1 2.18 3.171c.376.971.567 2.014.56 3.055 0 .255-.004.51-.04.762.41.082.81.2 1.196.362.071-.42.146-.842.136-1.27a9.568 9.568 0 0 0-2.21-6.031 9.556 9.556 0 0 0-1.44-1.416 9.621 9.621 0 0 0-4.022-1.9A9.678 9.678 0 0 0 12 2.352zm8.315 10.462c-.046-.028-.055.053-.004.042l.004-.042zm-7.5 7.5c.03 0 .055-.005.037-.04-.034.005-.052-.001-.037.04z" fill="#ffffff"></path></g></g></svg>