<svg width="64" height="64" viewBox="0 0 24 24"><title>cog outline</title><g fill="#000000" class="nc-icon-wrapper"><g transform="translate(0 0)"><path d="M17.586 13.653c-.006-.004-.006-.003.009.008.004.001.014.013.014.009a.272.272 0 0 0-.023-.017z" fill="#ffffff"></path><path d="M12 8.353a3.623 3.623 0 0 0-1.8.476 3.666 3.666 0 0 0-1.63 1.935c-.301.827-.288 1.765.041 2.582a3.673 3.673 0 0 0 1.702 1.885 3.64 3.64 0 0 0 4.66-1.121 3.637 3.637 0 0 0-.174-4.446A3.65 3.65 0 0 0 12 8.354zm0 1.294a2.348 2.348 0 0 1 2.296 1.831 2.37 2.37 0 0 1-.268 1.72c-.295.5-.78.886-1.337 1.053a2.372 2.372 0 0 1-1.833-.19 2.364 2.364 0 0 1-1.106-1.36 2.371 2.371 0 0 1 .142-1.754c.282-.566.8-1.01 1.405-1.195.227-.07.464-.106.701-.105z" data-color="color-2"></path><path d="M10.55 17.668c.005-.005-.007-.056-.003-.026l.004.026z" fill="#ffffff"></path><path d="M10 2.353a.156.156 0 0 0-.154.15l-.393 2.821c-.225.089-.451.18-.667.29a7.95 7.95 0 0 0-1.213.78l-.081.06-2.676-1.075c-.067-.028-.147.01-.175.076l-1.998 3.46a.143.143 0 0 0 .054.188l2.24 1.733-.081 1.167.081 1.13-2.262 1.781c-.056.047-.063.135-.02.192L4.65 18.56a.15.15 0 0 0 .165.06c.05-.013.096-.037.145-.055l2.534-1.03c.238.182.476.365.729.526.352.228.728.422 1.12.572l.11.044.399 2.855c.014.074.093.123.166.116H14a.155.155 0 0 0 .154-.15l.393-2.821c.225-.089.451-.18.667-.29a7.95 7.95 0 0 0 1.213-.78l.081-.06 2.676 1.075c.068.03.148-.013.176-.079l1.997-3.456a.15.15 0 0 0-.056-.193l-2.238-1.73c.027-.388.055-.777.081-1.166l-.081-1.16 2.26-1.75a.147.147 0 0 0 .022-.195l-1.999-3.457a.139.139 0 0 0-.18-.048l-2.658 1.066a10.63 10.63 0 0 0-.803-.561 6.144 6.144 0 0 0-1.054-.526l-.104-.042-.399-2.855c-.016-.075-.095-.124-.169-.116zm.942 1.294h2.116l.38 2.685a5.778 5.778 0 0 1 2.782 1.616c.015.034.043.004.065-.002l2.424-1.047 1.066 1.849-2.165 1.588a5.936 5.936 0 0 1 .018 3.27c-.016.037-.028.072.015.089l2.144 1.566-1.066 1.848-2.494-1.066a5.875 5.875 0 0 1-2.778 1.632l-.383 2.678h-2.135l-.38-2.685a5.8 5.8 0 0 1-2.78-1.627L5.28 17.109l-1.064-1.848 2.175-1.597a5.908 5.908 0 0 1-.018-3.264c.016-.037.028-.072-.015-.089L4.225 8.748l1.066-1.85 2.473 1.069a5.85 5.85 0 0 1 2.798-1.643z" fill="#ffffff"></path></g></g></svg>