<svg width="64" height="64" viewBox="0 0 24 24"><title>cog refresh outline</title><g fill="#000000" class="nc-icon-wrapper"><g transform="translate(0 0)"><path d="M12 8.355a3.612 3.612 0 0 0-1.695.42 3.695 3.695 0 0 0-1.668 1.82 3.611 3.611 0 0 0-.056 2.658c.31.83.94 1.531 1.725 1.94.458.24.966.381 1.482.412.221-.474.499-.922.824-1.332a2.34 2.34 0 0 1-1.618-.146 2.365 2.365 0 0 1-1.163-1.213 2.339 2.339 0 0 1 .029-1.892c.24-.531.688-.966 1.226-1.19a2.34 2.34 0 0 1 1.903.033c.526.242.956.687 1.18 1.22a2.34 2.34 0 0 1 .049 1.703c.445-.3.925-.546 1.427-.735a3.62 3.62 0 0 0-.39-1.69 3.694 3.694 0 0 0-1.82-1.712A3.61 3.61 0 0 0 12 8.355zm2.218 4.433c-.03.007-.045.099-.015.04l.015-.04zm-1.606 1.485c.037.001.09-.04.086-.06-.04.006-.064.026-.086.06zM18 14.5c-2.2 0-4 1.8-4 4s1.8 4 4 4c1.7 0 3.1-1 3.7-2.5H20c-.5.6-1.2 1-2 1-1.4 0-2.5-1.1-2.5-2.5S16.6 16 18 16c.7 0 1.3.3 1.8.7L18 18.5h4v-4l-1.2 1.2c-.7-.8-1.7-1.2-2.8-1.2z" data-color="color-2"></path><path d="M10 2.353a.278.278 0 0 0-.149.091l-.433 2.923c-.185.061-.372.119-.546.207-.401.197-.769.455-1.163.665-.097.052-.196.1-.295.15L4.961 5.367c-.101.006-.214-.002-.3.06-.068.054-.1.136-.144.208L2.62 8.961c.024.072.078.13.13.183l2.224 1.694c-.038.388-.078.777-.115 1.165l.113 1.151-2.22 1.8c-.042.037-.072.098-.048.153.028.065.068.123.102.185l1.908 3.34c.03.026.091.005.132.013.041-.001.085.01.122-.011l2.594-1.04c.16.13.32.258.493.37.437.292.91.522 1.379.757l.09.045.43 2.908c-.01.044.053.043.08.06.064.02.133.01.2.012h1.734c-.234-.44-.395-.915-.533-1.393h-.438l-.408-2.66c-.768-.172-1.481-.546-2.092-1.038a6.882 6.882 0 0 1-.685-.634l-2.453 1.022-1.13-1.83 2.165-1.649a5.868 5.868 0 0 1-.006-3.314L4.219 8.805l1.139-1.848L7.81 7.98a6.047 6.047 0 0 1 2.02-1.393c.243-.103.492-.19.745-.263l.307-2.678h2.121l.41 2.66a5.311 5.311 0 0 1 2.787 1.668l2.442-1.017 1.133 1.838-2.166 1.547c.123.425.203.863.23 1.304.213-.001.426.003.637.027.215.023.43.058.642.096l-.091-.931 2.222-1.694c.044-.04.073-.105.043-.162-.043-.082-.092-.162-.137-.243l-1.88-3.294c-.01-.028-.019-.064-.055-.069a.82.82 0 0 0-.18-.012L16.44 6.406a5.864 5.864 0 0 0-.513-.384c-.45-.298-.938-.533-1.42-.773-.02-.007-.037-.016-.034-.04l-.42-2.838c-.047-.026-.1-.015-.152-.018H10zm9.12 9.416c0 .034.007.023 0 0z" fill="#ffffff"></path></g></g></svg>