<svg width="64" height="64" viewBox="0 0 20 20"><title>collapsemenu</title><g fill="#ffffff" class="nc-icon-wrapper"><g transform="translate(0 0)"><path class="nc-icon-wrapper" d="M4 4.295a.707.707 0 0 0-.477.167.646.646 0 0 0-.164.226.764.764 0 0 0-.064.345.7.7 0 0 0 .256.528.722.722 0 0 0 .468.144h11.99a.7.7 0 0 0 .475-.174.727.727 0 0 0 .22-.595.697.697 0 0 0-.274-.51.732.732 0 0 0-.455-.131H4zm0 5a.707.707 0 0 0-.477.167.646.646 0 0 0-.164.226.764.764 0 0 0-.064.345.7.7 0 0 0 .256.528.722.722 0 0 0 .468.144h11.99a.7.7 0 0 0 .475-.174.727.727 0 0 0 .22-.595.697.697 0 0 0-.274-.51.732.732 0 0 0-.455-.131H4zm0 5a.707.707 0 0 0-.477.167.646.646 0 0 0-.164.226.764.764 0 0 0-.064.345.7.7 0 0 0 .256.528.722.722 0 0 0 .468.144h11.99a.7.7 0 0 0 .475-.174.727.727 0 0 0 .22-.595.697.697 0 0 0-.274-.51.731.731 0 0 0-.455-.131H4z"></path></g></g></svg>