<svg height="64" width="64" viewBox="0 0 20 20"><title>color</title><g fill="#000000" class="nc-icon-wrapper"><g transform="translate(0 0)"><path d="M3.504 3a.5.5 0 0 0-.5.5L2.996 14c0 1.517 1.22 3 2.985 3s3.015-1.475 3.015-3l.008-10.5a.5.5 0 0 0-.5-.5zm2.5 10c.546 0 1 .454 1 1s-.454 1-1 1-1-.454-1-1 .454-1 1-1z" fill="#ffffff"></path><path d="M14.496 11a.5.5 0 0 0-.353.146l-4.75 4.75a.5.5 0 0 0-.147.354v.25a.5.5 0 0 0 .5.5h6.758a.5.5 0 0 0 .5-.5v-5a.5.5 0 0 0-.5-.5z" data-color="color-2"></path><path d="M12.49 4a.502.502 0 0 0-.347.146l-2 2a.5.5 0 0 0-.147.354v6a.5.5 0 0 0 .854.354l5-5a.5.5 0 0 0 0-.708l-3-3A.5.5 0 0 0 12.49 4z" data-color="color-2"></path></g></g></svg>