<svg height="64" width="64" viewBox="0 0 20 20"><title>community</title><g fill="#000000" class="nc-icon-wrapper"><g transform="translate(0 0)"><path d="M12 3c-1.1 0-2 .9-2 2v.43a3.24 3.24 0 0 1 1.234 2.416c.237.099.495.154.766.154h1c1.1 0 2-.9 2-2V5c0-1.1-.9-2-2-2zm2.588 6.006A.502.502 0 0 0 14 9.5c0 .25-.25.5-.5.5h-2c-.25 0-.5-.25-.5-.5v.5c0 .363-.261.684-.443.936l.004.004c.411.411.882.757 1.375 1.25.407.407.864 1.04 1.011 1.81H16.5a.5.5 0 0 0 .5-.5V12c0-.667-.357-1.19-.771-1.604-.415-.414-.905-.779-1.375-1.25a.493.493 0 0 0-.266-.14z" data-color="color-2"></path><path d="M7 6c-1.1 0-2 .9-2 2v1c0 1.1.9 2 2 2h1c1.1 0 2-.9 2-2V8c0-1.1-.9-2-2-2zm-1.516 6a.5.5 0 0 0-.338.146c-.47.471-.96.836-1.375 1.25C3.357 13.811 3 14.333 3 15v1.5a.5.5 0 0 0 .5.5h8a.5.5 0 0 0 .5-.5V15c0-.667-.357-1.19-.771-1.604-.415-.414-.905-.779-1.375-1.25a.5.5 0 0 0-.854.37.624.624 0 0 1-.164.302c-.116.12-.27.182-.336.182h-2a.544.544 0 0 1-.332-.168A.561.561 0 0 1 6 12.5a.5.5 0 0 0-.516-.5z" fill="#ffffff"></path></g></g></svg>