<svg height="64" width="64" viewBox="0 0 20 20"><title>con_translike</title><g fill="#000000" class="nc-icon-wrapper"><g transform="translate(0 0)"><path d="M9.614 5.01a.6.6 0 0 0-.476.99l1.61 2.02a1.5 1.5 0 0 1 1.247 1.562l.928 1.162a.6.6 0 0 0 .467.233.6.6 0 0 0 .47-.98l-1.588-1.991 1.59-2.008a.6.6 0 1 0-.941-.744l-1.416 1.789-1.43-1.791a.6.6 0 0 0-.46-.242z" fill="#ffffff"></path><path d="M10.392 14.983a.6.6 0 0 0 .471-.983l-1.597-2.002 1.597-2.002a.6.6 0 1 0-.937-.75l-1.428 1.79-1.428-1.79a.6.6 0 1 0-.937.75l1.598 2.002L6.133 14a.6.6 0 1 0 .937.75l1.428-1.789 1.428 1.79a.6.6 0 0 0 .467.232z" fill="#ffffff"></path><path d="M15.498 13.004a.5.5 0 0 0 .227-.055s.356-.184.668-.572c.31-.388.609-1.012.609-1.873v-5c0-.861-.298-1.486-.61-1.875a2.3 2.3 0 0 0-.667-.572.5.5 0 1 0-.446.894s.143.067.332.303c.19.236.391.611.391 1.25v5c0 .639-.202 1.013-.39 1.248-.19.235-.333.3-.333.3a.5.5 0 0 0 .22.952z" data-color="color-2"></path><path d="M4.514 17.004a.5.5 0 0 0 .205-.951s-.145-.066-.334-.301c-.189-.235-.389-.61-.389-1.248v-5c0-.639.202-1.014.39-1.25.19-.236.333-.303.333-.303a.5.5 0 1 0-.447-.894s-.356.183-.666.572c-.311.389-.61 1.014-.61 1.875v5c0 .861.298 1.485.61 1.873.31.388.667.572.667.572a.5.5 0 0 0 .24.055z" data-color="color-2"></path></g></g></svg>