<svg height="64" width="64" viewBox="0 0 20 20"><title>con_transform</title><g fill="#000000" class="nc-icon-wrapper"><g transform="translate(0 0)"><path d="M7.596 6.021a.6.6 0 0 0-.473.96l2.149 3.029-2.149 3.029a.6.6 0 1 0 .979.695l1.906-2.687 1.906 2.687a.6.6 0 1 0 .979-.695l-2.149-3.03 2.149-3.029a.6.6 0 0 0-.041-.757.6.6 0 0 0-.938.062l-1.906 2.688-1.906-2.688a.6.6 0 0 0-.065-.078.6.6 0 0 0-.441-.186z" fill="#ffffff"></path><path d="M14.481 2.994a.5.5 0 0 1 .418.208c2.812 3.794 2.812 9.788 0 13.582a.5.5 0 1 1-.804-.595c2.504-3.377 2.504-9.012 0-12.39a.5.5 0 0 1 .386-.805zm-8.962 0a.5.5 0 0 0-.417.209c-2.813 3.793-2.813 9.788 0 13.582a.5.5 0 1 0 .803-.595C3.4 12.81 3.4 7.177 5.905 3.799a.5.5 0 0 0-.386-.804z" data-color="color-2"></path></g></g></svg>