<svg height="64" width="64" viewBox="0 0 20 20"><title>con_floor</title><g fill="#000000" class="nc-icon-wrapper"><g transform="translate(0 0)"><path d="M3.5 16.005a.5.5 0 1 0 0 1h6.283a3.019 3.019 0 0 1-.607-1zm11.299 0a3.017 3.017 0 0 1-.608 1H16.5a.5.5 0 1 0 0-1z" fill="#ffffff"></path><path d="M11.986 12.993c1.1 0 2.004.902 2.004 2.002 0 1.1-.904 2-2.004 2s-2.002-.9-2.002-2 .902-2.002 2.002-2.002zM7.488 2.995a2.51 2.51 0 0 1 2.502 2.5 2.508 2.508 0 0 1-2.502 2.498 2.506 2.506 0 0 1-2.5-2.498c0-1.374 1.125-2.5 2.5-2.5zm0 1c-.835 0-1.5.667-1.5 1.5a1.49 1.49 0 0 0 1.5 1.498c.835 0 1.502-.665 1.502-1.498s-.667-1.5-1.502-1.5z" fill="#ffffff"></path><path d="M7.492 8.997A.5.5 0 0 0 7 9.505v1a.5.5 0 1 0 1 0v-1a.5.5 0 0 0-.508-.508zm0 3a.5.5 0 0 0-.492.508v1a.5.5 0 1 0 1 0v-1a.5.5 0 0 0-.508-.508z" data-color="color-2"></path></g></g></svg>