<svg height="64" width="64" viewBox="0 0 20 20"><title>con_trackto</title><g fill="#000000" class="nc-icon-wrapper"><g transform="translate(0 0)"><path d="M11.992 5.501a2.511 2.511 0 0 1 2.504-2.504A2.511 2.511 0 0 1 17 5.501a2.511 2.511 0 0 1-2.504 2.504 2.511 2.511 0 0 1-2.504-2.504zM3 15.005c0-1.096.897-1.996 1.992-1.996 1.096 0 1.994.9 1.994 1.996a2.005 2.005 0 0 1-1.994 1.998A2.003 2.003 0 0 1 3 15.005zm1 0c0 .557.438.998.992.998a.99.99 0 0 0 .994-.998.988.988 0 0 0-.994-.996.986.986 0 0 0-.992.996z" fill="#ffffff"></path><path d="M11.368 8.009a.604.604 0 0 0-.417.183l-.774.774a.604.604 0 1 0 .853.855l.776-.776a.604.604 0 0 0-.438-1.036zm-2.997 2.99a.611.61 0 0 0-.421.185l-.784.782a.611.61 0 1 0 .863.864l.786-.784a.611.61 0 0 0-.444-1.047z" data-color="color-2"></path></g></g></svg>