<svg height="64" width="64" viewBox="0 0 20 20"><title>con_sizelimit</title><g fill="#000000" class="nc-icon-wrapper"><g transform="translate(0 0)"><path d="M3.5 11a.5.5 0 0 0-.5.5v4a.5.5 0 0 0 .5.5h4a.5.5 0 0 0 .5-.5v-4a.5.5 0 0 0-.5-.5z" fill="#ffffff"></path><path d="M3.521 5a.5.5 0 0 0-.5.498L3 9.998l1 .004L4.02 6H13v9H9v1h4.5a.5.5 0 0 0 .5-.5v-10a.5.5 0 0 0-.5-.5z" fill="#ffffff"></path><path d="M17 8V6h-1v2zm0-3V3h-1v2zm0 12v-2h-1v2zm0-3v-2h-1v2zm0-3V9h-1v2z" data-color="color-2"></path></g></g></svg>