<svg height="64" width="64" viewBox="0 0 20 20"><title>con_objectsolver</title><g fill="#000000" class="nc-icon-wrapper"><g transform="translate(0 0)"><path d="M16.5 6.5V4a.5.5 0 0 0-.5-.5h-2.5v1h2v2zm-13 0V4a.5.5 0 0 1 .5-.5h2.5v1h-2v2zm13 7V16a.5.5 0 0 1-.5.5h-2.5v-1h2v-2zm-13 0V16a.5.5 0 0 0 .5.5h2.5v-1h-2v-2z" data-color="color-2"></path><path d="M9.5 3.5v2h1v-2zM7 6.5a.5.5 0 0 0-.5.5v6a.5.5 0 0 0 .5.5h6a.5.5 0 0 0 .5-.5V7a.5.5 0 0 0-.5-.5zm.5 1h5.027v5H7.5zm-4 2v1h2v-1zm11 0v1h2v-1zm-5 5v2h1v-2z" fill="#ffffff"></path></g></g></svg>