<svg height="64" width="64" viewBox="0 0 20 20"><title>con_stretchto</title><g fill="#000000" class="nc-icon-wrapper"><g transform="translate(0 0)"><path d="M11.99 5.504A2.511 2.511 0 0 1 14.494 3a2.511 2.511 0 0 1 2.504 2.504 2.511 2.511 0 0 1-2.504 2.504 2.511 2.511 0 0 1-2.504-2.504z" fill="#ffffff"></path><path d="M9.468 8.062a2.01 2.01 0 0 0-.9.52L3.59 13.564a2.016 2.016 0 0 0 .9 3.368 2.008 2.008 0 0 0 1.942-.522l4.978-4.98a2.02 2.02 0 0 0 .52-1.946 2.01 2.01 0 0 0-2.461-1.422zm.782.965a1.013 1.013 0 0 1 .451 1.695l-4.976 4.981a1.009 1.009 0 0 1-1.69-.453c-.094-.35.006-.722.262-.979l4.978-4.982c.256-.256.626-.355.975-.262z" data-color="color-2"></path></g></g></svg>