<svg height="64" width="64" data-color="color-2" viewBox="0 0 20 20"><title>con_loclimit</title><g fill="#000000" class="nc-icon-wrapper"><g transform="translate(0 0)"><path d="M5.496 3.992a.5.5 0 0 0-.388.195.5.5 0 0 0-.004.006L3.15 6.147a.5.5 0 1 0 .708.707l1.146-1.147V13.5a.5.5 0 0 0 .5.5h7.793l-1.147 1.146a.5.5 0 1 0 .708.708l1.957-1.958a.5.5 0 0 0 .002-.792.5.5 0 0 0-.006-.004l-1.953-1.954a.5.5 0 1 0-.708.707L13.297 13H6.004V5.707L7.15 6.854a.5.5 0 1 0 .708-.708L5.9 4.189a.5.5 0 0 0-.404-.197z" fill="#ffffff"></path><path d="M17.004 8V6h-1v2zm0-3V3h-1v2zm0 12v-2h-1v2zm0-3v-2h-1v2zm0-3V9h-1v2z" data-color="color-2"></path></g></g></svg>