<svg height="64" width="64" viewBox="0 0 20 20"><title>con_childof</title><g fill="#000000" class="nc-icon-wrapper"><g transform="translate(0 0)"><path d="M5.492 6.992A.5.5 0 0 0 5 7.5v3a.5.5 0 1 0 1 0v-3a.5.5 0 0 0-.508-.508zm0 5A.5.5 0 0 0 5 12.5v2a.5.5 0 0 0 .5.5h2a.5.5 0 1 0 0-1H6v-1.5a.5.5 0 0 0-.508-.508zM9.5 14a.5.5 0 1 0 0 1h3a.5.5 0 1 0 0-1z" data-color="color-2"></path><path d="M12.5 12a.5.5 0 0 0-.5.5v4a.5.5 0 0 0 .5.5h4a.5.5 0 0 0 .5-.5v-4a.5.5 0 0 0-.5-.5zm.5 1h3v3h-3z" fill="#ffffff"></path><path d="M3.5 3a.5.5 0 0 0-.5.5v4a.5.5 0 0 0 .5.5h4a.5.5 0 0 0 .5-.5v-4a.5.5 0 0 0-.5-.5z" fill="#ffffff"></path></g></g></svg>