<svg height="64" width="64" viewBox="0 0 20 20"><title>con_sizelike</title><g fill="#000000" class="nc-icon-wrapper"><g transform="translate(0 0)"><path d="M4 12.5a.5.5 0 0 0-.5.5v3a.5.5 0 0 0 .5.5h3a.5.5 0 0 0 .5-.5v-3a.5.5 0 0 0-.5-.5z" fill="#ffffff"></path><path d="M4.021 7.5a.5.5 0 0 0-.5.496l-.021 3.5 1 .008.018-3.004H11.5v7h-3v1H12a.5.5 0 0 0 .5-.5V8a.5.5 0 0 0-.5-.5z" fill="#ffffff"></path><path d="M8.021 3.5a.5.5 0 0 0-.5.496l-.021 2.5 1 .008.018-2.004H15.5v7h-2v1H16a.5.5 0 0 0 .5-.5V4a.5.5 0 0 0-.5-.5z" data-color="color-2"></path></g></g></svg>