<svg height="64" width="64" viewBox="0 0 20 20"><title>con_rotlimit</title><g fill="#000000" class="nc-icon-wrapper"><g transform="translate(0 0)"><path d="M5.51 4.996a.5.5 0 0 0-.311.106 5.5 5.5 0 0 0 2.563 9.85A5.494 5.494 0 0 0 13 12.636V15.5a.5.5 0 1 0 1 0v-4a.5.5 0 0 0-.5-.5h-4a.5.5 0 1 0 0 1h2.726a4.488 4.488 0 0 1-8.082-1.367A4.497 4.497 0 0 1 5.8 5.9a.5.5 0 0 0-.29-.904z" fill="#ffffff"></path><path d="M17 8V6h-1v2zm0-3V3h-1v2zm0 12v-2h-1v2zm0-3v-2h-1v2zm0-3V9h-1v2z" data-color="color-2"></path></g></g></svg>