<svg height="64" width="64" viewBox="0 0 20 20"><title>con_action</title><g fill="#ffffff" class="nc-icon-wrapper"><g transform="translate(0 0)"><path d="M12.492 2.5a.5.5 0 0 0-.346.146l-4 4a.5.5 0 0 0 0 .708l4 4a.5.5 0 0 0 .362.146.5.5 0 0 0 .346-.146l4-4a.5.5 0 0 0 0-.708l-.182-.181-3.818-3.819a.5.5 0 0 0-.362-.146zm.008 1.207L15.793 7 12.5 10.293 9.207 7zM4 6.5v1h1v-1zm2 0v1h1v-1zm.5 4a.499.499 0 0 0-.354.146l-3 3a.5.5 0 0 0 0 .708l3 3a.5.5 0 0 0 .708 0l3-3a.5.5 0 0 0 0-.708l-3-3A.499.499 0 0 0 6.5 10.5zm4.5 3v1h1v-1zm2 0v1h1v-1zm2 0v1h1v-1z" class="nc-icon-wrapper"></path></g></g></svg>