<svg height="64" width="64" data-color="color-2" viewBox="0 0 20 20"><title>con_splineik</title><g fill="#000000" class="nc-icon-wrapper"><g transform="translate(0 0)"><path d="M12.495 8.003a.5.5 0 0 0-.5.5v1.73l-2.77 2.77h-1.73a.5.5 0 0 0-.5.5v1.03c0 .275.224.47.5.47h1c.273 0 .5.17.5.5v1a.5.5 0 0 0 .5.5h1a.5.5 0 0 0 .5-.5V14.77l2.768-2.767h1.732a.5.5 0 0 0 .5-.5v-1.027c0-.277-.224-.473-.5-.473h-1c-.272 0-.5-.17-.5-.5v-1a.5.5 0 0 0-.5-.5z" fill="#ffffff"></path><path d="M5.517 14.008a.5.5 0 0 0 .32-.87c-1.108-1.04-1.854-2.618-1.841-4.13.017-1.958 1.007-3.5 2.74-4.447 1.678-.918 3.815-.647 5.489.406l-.024-.016a5.667 5.667 0 0 0 3.287 1.053h1.008a.5.5 0 1 0 0-1h-1.008a4.669 4.669 0 0 1-2.709-.87l-.012-.007-.011-.008c-1.932-1.215-4.441-1.563-6.5-.438C4.252 4.777 3.016 6.699 2.996 9c-.016 1.838.85 3.64 2.158 4.869a.5.5 0 0 0 .363.139z" data-color="color-2"></path></g></g></svg>