<svg height="64" width="64" viewBox="0 0 20 20"><title>con_clampto</title><g fill="#000000" class="nc-icon-wrapper"><g transform="translate(0 0)"><path d="M9.488 6.988a.5.5 0 0 0-.388.196L7.142 9.141a.5.5 0 1 0 .708.707L8.996 8.7v5.793a.5.5 0 0 0 .5.5h5.793l-1.147 1.147a.5.5 0 1 0 .708.707l1.95-1.95a.5.5 0 0 0 .009-.798l-1.96-1.96a.5.5 0 1 0-.706.708l1.146 1.146H9.996V8.7l1.146 1.147a.5.5 0 1 0 .708-.707L9.889 7.179l-.006-.008a.5.5 0 0 0-.395-.184z" fill="#ffffff"></path><path d="M9.441 3.002a6.283 6.283 0 0 0-3.4.848c-2.1 1.224-3.28 3.552-3.006 5.941.275 2.394 1.982 4.45 4.31 5.186a.5.5 0 1 0 .301-.954c-1.95-.616-3.388-2.358-3.617-4.347-.229-1.994.751-3.932 2.516-4.961 1.764-1.029 3.974-.938 5.672.201.938.63 1.924 1.084 3.279 1.084h1a.5.5 0 1 0 0-1h-1c-1.145 0-1.856-.336-2.72-.916a6.408 6.408 0 0 0-3.335-1.082z" data-color="color-2"></path></g></g></svg>