<svg height="64" width="64" viewBox="0 0 20 20"><title>con_loclike</title><g fill="#000000" class="nc-icon-wrapper"><g transform="translate(0 0)"><path d="M9.492 2.992a.5.5 0 0 0-.388.195.5.5 0 0 0-.004.006L7.146 5.147a.5.5 0 1 0 .708.707L9 4.707V10.5a.5.5 0 0 0 .5.5h5.793l-1.147 1.146a.5.5 0 1 0 .708.708l1.957-1.958a.5.5 0 0 0 .002-.792.5.5 0 0 0-.006-.004l-1.953-1.954a.5.5 0 1 0-.708.707L15.293 10H10V4.707l1.146 1.147a.5.5 0 1 0 .708-.708L9.896 3.189a.5.5 0 0 0-.404-.197z" data-color="color-2"></path><path d="M5.492 6.992a.5.5 0 0 0-.388.195.5.5 0 0 0-.004.006L3.146 9.147a.5.5 0 1 0 .708.707L5 8.707V14.5a.5.5 0 0 0 .5.5h5.793l-1.147 1.146a.5.5 0 1 0 .708.708l1.957-1.958a.5.5 0 0 0 .002-.792.5.5 0 0 0-.006-.004l-1.953-1.954a.5.5 0 1 0-.708.707L11.293 14H6V8.707l1.146 1.147a.5.5 0 1 0 .708-.708L5.896 7.189a.5.5 0 0 0-.404-.197z" fill="#ffffff"></path></g></g></svg>