<svg height="64" width="64" viewBox="0 0 20 20"><title>cone</title><g fill="#ffffff" class="nc-icon-wrapper"><g transform="translate(0 0)"><path d="M9.5 3a.5.5 0 0 0-.414.22l-5.75 8.5a.5.5 0 0 0-.025.042C3.098 12.152 3 12.58 3 13c0 1.217.896 2.232 2.166 2.916C6.436 16.6 8.132 17 10 17c1.868 0 3.564-.4 4.834-1.084C16.104 15.232 17 14.217 17 13c0-.42-.097-.847-.313-1.24a.5.5 0 0 0-.023-.04l-5.75-8.5A.5.5 0 0 0 10.5 3zm.266 1h.468l5.58 8.248c.128.235.186.484.186.752 0 .716-.558 1.452-1.64 2.035-1.083.583-2.638.965-4.36.965-1.722 0-3.277-.382-4.36-.965C4.558 14.452 4 13.715 4 13c0-.263.062-.522.188-.756z"></path><path d="M10 10c-1.858 0-3.54.349-4.797.898-.628.275-1.153.6-1.543.983-.39.382-.66.848-.66 1.369a.5.5 0 1 0 1 0c0-.17.094-.394.361-.656.268-.263.695-.54 1.243-.78C6.699 11.334 8.269 11 10 11c1.731 0 3.3.335 4.396.814.548.24.975.517 1.243.78.267.262.361.486.361.656a.5.5 0 1 0 1 0c0-.52-.27-.987-.66-1.37-.39-.382-.915-.707-1.543-.982C13.54 10.348 11.858 10 10 10z"></path></g></g></svg>