<svg width="64" height="64" viewBox="0 0 24 24"><title>console 1</title><g fill="#000000" class="nc-icon-wrapper"><g transform="translate(0 0)"><path d="M5.57 9l4.01 4-3.99 4h2.83l3.28-3.28c.39-.39.39-1.03 0-1.42L8.4 9zM13 15v2h5v-2z" data-color="color-2"></path><path d="M4 3.354a1.654 1.654 0 0 0-1.474.915 1.754 1.754 0 0 0-.171.871v13.907c.01.648.446 1.26 1.051 1.488.255.107.532.116.804.11h15.832a1.653 1.653 0 0 0 1.466-.987c.119-.257.146-.542.137-.822V4.952a1.654 1.654 0 0 0-1.052-1.487c-.254-.107-.531-.116-.803-.11H4zm-.355 3.291h16.71v12.71H3.645V6.644z" fill="#ffffff"></path></g></g></svg>