<svg width="64" height="64" viewBox="0 0 20 20"><title>constraint_bone</title><g fill="#000000" class="nc-icon-wrapper"><g transform="translate(0 0)"><path d="M5.5 3a.5.5 0 0 0-.5.5v.981c-.003.005-.014.032-.047.074-.053.066-.15.154-.254.232-.166.125-.276.18-.338.213H3.5a.5.5 0 0 0-.5.5v1a.5.5 0 0 0 .5.5h1.775A5.49 5.49 0 0 1 6.75 5.736l.426-.267L7 5.293V3.5a.5.5 0 0 0-.5-.5zm3.85 4.643l-1.051.662a1.5 1.5 0 0 1-.049.029c-.345.2-.627.47-.836.787l4.225 4.226L13 14.707V16.5a.5.5 0 0 0 .5.5h1a.5.5 0 0 0 .5-.5v-1c0-.083.057-.225.166-.334A.544.544 0 0 1 15.5 15h1a.5.5 0 0 0 .5-.5v-1a.5.5 0 0 0-.5-.5h-1.793z" data-color="color-2"></path><path d="M13.781 3.002a3.117 3.117 0 0 0-1.469.416.5.5 0 0 0-.015.01L7.25 6.604l-.016.01a.5.5 0 0 0-.195.22c-1.458.99-2.28 2.694-1.97 4.448a4.504 4.504 0 0 0 5.539 3.58.5.5 0 1 0-.247-.97 3.498 3.498 0 0 1-2.61-6.423.5.5 0 0 0 .015-.01l.027-.015a.5.5 0 0 0 .01-.008l5.01-3.15a2.12 2.12 0 0 1 2.564.337c.682.682.82 1.73.338 2.565a.5.5 0 0 0-.005.013.5.5 0 0 0-.02.037l-1.628 3.026a.5.5 0 1 0 .878.473L16.574 7.7l.008-.011v-.005l.006-.01a.5.5 0 0 0 .059-.312c.51-1.166.353-2.53-.562-3.445a3.12 3.12 0 0 0-2.303-.914zM14.001 5A1 1 0 0 0 13 6a1 1 0 0 0 1 1 1 1 0 0 0 1-1 1 1 0 0 0-1-1z" fill="#ffffff"></path></g></g></svg>