<svg width="64" height="64" viewBox="0 0 20 20"><title>constraint</title><g fill="#000000" class="nc-icon-wrapper"><g transform="translate(0 0)"><path d="M8.505 9.973a1.487 1.5 0 0 1 1.489 1.5 1.487 1.5 0 0 1-1.488 1.5 1.487 1.5 0 0 1-1.489-1.5 1.487 1.5 0 0 1 1.489-1.5z" fill="#ffffff"></path><path d="M13.98 4.998a1.009 1.009 0 0 0-.975 1c0 .546.454 1 1 1 .547 0 1-.454 1-1s-.453-1-1-1h-.026zm-5.475 3a3.508 3.508 0 0 0-3.5 3.5c0 1.927 1.574 3.5 3.5 3.5 1.928 0 3.5-1.573 3.5-3.5s-1.572-3.5-3.5-3.5z" data-color="color-2"></path><path d="M13.992 3.002c-.468 0-.94.108-1.371.324L5.783 6.72a.5.5 0 0 0-.027.013 5.504 5.504 0 0 0-2.666 5.72 5.502 5.502 0 0 0 6.152 4.495 5.505 5.505 0 0 0 4.027-2.703.5.5 0 0 0 .016-.03l3.385-6.84c.576-1.154.376-2.58-.547-3.503a3.002 3.002 0 0 0-2.13-.87zm.06 1.003a2.082 2.082 0 0 1 .253.022c.414.063.808.25 1.11.553.607.606.748 1.576.362 2.348a.5.5 0 0 0-.002.002L12.4 13.75a4.496 4.496 0 0 1-4.676 2.18 4.497 4.497 0 0 1-3.65-3.65 4.496 4.496 0 0 1 2.182-4.678l6.81-3.38a.5.5 0 0 0 .002 0 2.082 2.082 0 0 1 .983-.218z" fill="#ffffff"></path></g></g></svg>