<svg width="64" height="64" viewBox="0 0 24 24"><title>content save alert outline</title><g fill="#000000" class="nc-icon-wrapper"><g transform="translate(0 0)"><path d="M21 7v7h2V7zm0 9v2h2v-2z" data-color="color-2"></path><path d="M3 3.354a1.658 1.658 0 0 0-1.504.98c-.119.254-.15.537-.142.814l.001 13.894c.01.64.433 1.244 1.025 1.481.249.109.522.13.79.123l13.873-.001a1.658 1.658 0 0 0 1.48-1.025c.107-.246.13-.517.122-.783V7.147l-3.791-3.792zm-.354 1.292h11.7l3.009 3.008v11.7H2.645zM4 6v4h9V6zm6 6c-1.7 0-3 1.3-3 3s1.3 3 3 3 3-1.3 3-3-1.3-3-3-3z" fill="#ffffff"></path></g></g></svg>