<svg width="64" height="64" data-color="color-2" viewBox="0 0 24 24"><title>content duplicate</title><g fill="#000000" class="nc-icon-wrapper"><g transform="translate(0 0)"><path d="M8 5.354a1.649 1.649 0 0 0-1.647 1.651v5.641h1.293v-6h11.707v14.707H7.646v-2H6.353v1.679a1.65 1.65 0 0 0 1.665 1.614h10.998a1.65 1.65 0 0 0 1.63-1.659V6.984a1.65 1.65 0 0 0-1.659-1.63H8z" fill="#ffffff"></path><path d="M4 1.353a1.649 1.649 0 0 0-1.647 1.652v12.011a1.65 1.65 0 0 0 1.66 1.63h7.34v1.647L14.41 16l-3.057-2.293v1.647H3.646V2.647h12V1.354H4z" data-color="color-2"></path></g></g></svg>