<svg width="64" height="64" viewBox="0 0 24 24"><title>content cut</title><g fill="#000000" class="nc-icon-wrapper"><g transform="translate(0 0)"><path d="M6 2.355a3.644 3.644 0 0 0-3.64 3.838 3.648 3.648 0 0 0 4.204 3.408c.398-.058.774-.205 1.135-.378.044-.012.072.062.109.084l11.338 11.338h2.5v-.498L9.215 7.717c.168-.353.316-.718.377-1.105A3.648 3.648 0 0 0 6 2.355zm0 1.29a2.358 2.358 0 0 1 1.97 1.061 2.37 2.37 0 0 1 .077 2.46 2.357 2.357 0 0 1-4.191-2.142A2.358 2.358 0 0 1 6 3.645zm6 7.5a.855.855 0 1 1 0 1.71.855.855 0 0 1 0-1.71z" fill="#ffffff"></path><path d="M19.146 3.354L13.501 9 15 10.5l6.645-6.647v-.499h-2.499zM10 12.501l-2.284 2.284c-.352-.168-.717-.316-1.104-.378a3.647 3.647 0 0 0-4.25 3.383 3.642 3.642 0 0 0 .981 2.705A3.644 3.644 0 0 0 9.64 17.8a3.672 3.672 0 0 0-.39-1.44c-.028-.047-.047-.092.011-.123L11.5 14 10 12.501zm-4 3.144a2.358 2.358 0 0 1 1.97 1.061 2.37 2.37 0 0 1 .077 2.46 2.357 2.357 0 0 1-4.191-2.142A2.358 2.358 0 0 1 6 15.645z" data-color="color-2"></path></g></g></svg>