<svg width="64" height="64" viewBox="0 0 24 24"><title>content save all outline</title><g fill="#000000" class="nc-icon-wrapper"><g transform="translate(0 0)"><path d="M7 1.354a1.653 1.653 0 0 0-1.447.862c-.152.274-.21.59-.198.902v13.925c.01.598.378 1.17.915 1.43.265.137.566.183.862.172h13.91c.631-.01 1.23-.42 1.472-1.002.115-.252.14-.532.132-.805V5.147l-3.793-3.793zm-.355 1.292h11.671l3.038 3.038v11.67H6.645zM8 4v4h9V4zm6 6c-1.66 0-3 1.34-3 3s1.34 3 3 3 3-1.34 3-3-1.34-3-3-3z" fill="#ffffff"></path><path d="M1.353 7.354v13.662a1.65 1.65 0 0 0 1.66 1.63h13.634v-1.293h-14v-14H1.354z" data-color="color-2"></path></g></g></svg>