<svg width="64" height="64" viewBox="0 0 24 24"><title>content save cog outline</title><g fill="#000000" class="nc-icon-wrapper"><g transform="translate(0 0)"><path d="M17.1 13.2c-.2 0-.3.1-.3.2l-.2 1.3c-.3.2-.5.3-.8.5l-1.2-.5c-.1 0-.2 0-.3.1l-1 1.7c0 .1 0 .2.1.3l1.1.8v1l-1.1.8c-.1.1-.2.2-.1.3l1 1.7c.1.1.2.1.3.1l1.2-.5c.2.2.5.4.8.5l.2 1.3c.1.1.2.2.3.2h2c.1 0 .2-.1.2-.2l.2-1.3c.3-.2.5-.3.8-.5l1.2.4c.1 0 .2 0 .3-.1l1-1.7c.1-.1.1-.2 0-.2l-1.1-.8v-1l1.1-.8c.1-.1.2-.2.1-.3l-1-1.7c0-.1-.2-.1-.3-.1l-1.2.5c-.3-.2-.6-.4-.9-.5l-.2-1.3c0-.1-.1-.2-.2-.2zm.9 3.3c.8 0 1.5.7 1.5 1.5s-.7 1.5-1.5 1.5-1.5-.7-1.5-1.5.7-1.5 1.5-1.5z" data-color="color-2"></path><path d="M5 3.354a1.653 1.653 0 0 0-1.646 1.683V19.02a1.653 1.653 0 0 0 1.686 1.625h6.116a7.214 7.214 0 0 1-.353-1.292H4.647V4.646h11.699l3.008 3.008v3.148c.44.081.875.193 1.292.354v-4.01l-3.792-3.792zM6 6v4h9V6zm6 6c-1.7 0-3 1.3-3 3 0 1.3.8 2.4 2 2.8.1-2.2 1.1-4.1 2.7-5.3-.5-.3-1.1-.5-1.7-.5z" fill="#ffffff"></path></g></g></svg>