<svg width="64" height="64" viewBox="0 0 24 24"><title>content save outline</title><g fill="#ffffff" class="nc-icon-wrapper"><g transform="translate(0 0)"><path d="M5 3.354a1.653 1.653 0 0 0-1.646 1.771v13.906c.005.616.392 1.206.951 1.46.257.125.545.165.828.154h13.91a1.659 1.659 0 0 0 1.48-1.026c.109-.248.13-.521.123-.79V7.147l-3.792-3.791zm-.354 1.292h11.67l3.038 3.038v11.67H4.646zM6 6v4h9V6zm6 6c-1.66 0-3 1.34-3 3s1.34 3 3 3 3-1.34 3-3-1.34-3-3-3z" class="nc-icon-wrapper"></path></g></g></svg>