<svg width="64" height="64" viewBox="0 0 24 24"><title>content copy</title><g fill="#000000" class="nc-icon-wrapper"><g transform="translate(0 0)"><path d="M4 1.353a1.647 1.647 0 0 0-1.645 1.584c-.003.185 0 .37-.001.556v13.154h1.293v-14h12V1.354H4z" data-color="color-2"></path><path d="M8 5.355a1.651 1.651 0 0 0-1.646 1.759v13.918a1.653 1.653 0 0 0 1.767 1.614h10.91a1.653 1.653 0 0 0 1.615-1.76l-.001-13.929a1.652 1.652 0 0 0-1.76-1.602H8zm-.354 1.29h11.708v14.71H7.646V6.645z" fill="#ffffff"></path></g></g></svg>