<svg height="64" width="64" data-color="color-2" viewBox="0 0 20 20"><title>copy_id</title><g fill="#000000" class="nc-icon-wrapper"><g transform="translate(0 0)"><path d="M4.5 3.5C3.678 3.5 3 4.178 3 5v6c0 .647.421 1.198 1 1.406V5c0-.286.214-.5.5-.5h9c.286 0 .5.214.5.5v1.5h1V5c0-.822-.678-1.5-1.5-1.5z" data-color="color-2"></path><path d="M6.5 7.5C5.678 7.5 5 8.178 5 9v6c0 .822.678 1.5 1.5 1.5h9c.822 0 1.5-.678 1.5-1.5V9c0-.822-.678-1.5-1.5-1.5zm2.004 2a.5.5 0 0 1 .443.277l2 4a.5.5 0 0 1-.447.723h-4a.5.5 0 0 1-.447-.723l2-4a.5.5 0 0 1 .45-.277zm3.996 0h3a.5.5 0 1 1 0 1h-3a.5.5 0 1 1 0-1zm0 2h3a.5.5 0 1 1 0 1h-3a.5.5 0 1 1 0-1zm0 2h2a.5.5 0 1 1 0 1h-2a.5.5 0 1 1 0-1z" fill="#ffffff"></path></g></g></svg>