<svg width="64" height="64" viewBox="0 0 24 24"><title>cow</title><g fill="#ffffff" class="nc-icon-wrapper"><g transform="translate(0 0)"><path class="nc-icon-wrapper" d="M9.16 3.926a3.765 3.765 0 0 0-1.346 1.616 3.629 3.629 0 0 0-.298 1.751c.023.26.087.521.219.749l.072.132-.967 1.375c-.119-.146-.234-.294-.356-.437a3.047 3.047 0 0 0-1.315-.86c-.36-.11-.739-.14-1.113-.137-.374.006-.75.046-1.109.156-.166.056-.339.123-.462.252a.295.295 0 0 0-.082.257c.029.174.137.32.245.455.209.251.463.458.73.645.324.224.673.42 1.05.538.47.143.977.157 1.457.054.182-.043.362-.098.544-.147l.093-.026-.167 1.726c.002.323.028.647.088.964.042.219.087.437.154.65a5.67 5.67 0 0 0 .788 1.614c.095.134.195.263.293.394-.183.164-.371.324-.536.508a3.38 3.38 0 0 0-.353.45c-.166.26-.299.546-.37.847-.099.405-.085.835.04 1.232.142.481.43.908.78 1.263.161.165.338.314.523.451.517.383 1.104.66 1.713.862.989.322 2.042.433 3.079.37.93-.06 1.856-.267 2.705-.658.611-.283 1.185-.664 1.636-1.169.298-.334.538-.726.658-1.16.124-.417.123-.87.002-1.288a2.89 2.89 0 0 0-.53-1.005 3.954 3.954 0 0 0-.35-.384c-.115-.11-.235-.213-.353-.32.164-.218.333-.434.475-.668a5.586 5.586 0 0 0 .846-2.966l-.165-1.713c.201.055.4.114.602.165.44.101.906.101 1.345-.005.384-.096.74-.28 1.07-.495.266-.175.516-.376.741-.6.111-.12.218-.245.294-.39.057-.11.1-.246.045-.365-.063-.122-.186-.198-.306-.255-.313-.14-.656-.195-.996-.224a4.372 4.372 0 0 0-1.24.069c-.446.097-.854.324-1.204.61a2.782 2.782 0 0 0-.433.448l-.236.292-.967-1.375c.068-.126.144-.249.188-.386.096-.27.12-.56.116-.844a3.754 3.754 0 0 0-1.657-3.018c.196.616.242 1.286.092 1.917-.072.3-.18.59-.323.861l-.111.222c-.257-.109-.512-.222-.779-.304a6.226 6.226 0 0 0-1.07-.23 5.575 5.575 0 0 0-1.42.017 5.786 5.786 0 0 0-1.257.322c-.159.06-.314.13-.47.195-.102-.206-.213-.407-.292-.623a3.448 3.448 0 0 1-.215-.899 3.706 3.706 0 0 1 .165-1.478zM12 7.646a4.352 4.352 0 0 1 3.928 2.472 4.36 4.36 0 0 1 .423 2.04 4.254 4.254 0 0 1-.5 1.88 4.52 4.52 0 0 1-.59.846l-.083.098a9.568 9.568 0 0 0-.79-.282 8.411 8.411 0 0 0-3.906-.21 7.894 7.894 0 0 0-1.526.44l-.134.052c-.154-.18-.31-.361-.44-.56a4.243 4.243 0 0 1-.724-2.095A4.35 4.35 0 0 1 12 7.647zm-2 3.707a.65.65 0 0 0-.571.348.647.647 0 0 0 .692.934.648.648 0 0 0 .427-.975.65.65 0 0 0-.548-.306zm4 0a.65.65 0 0 0-.571.348.647.647 0 0 0 .692.934.648.648 0 0 0 .427-.975.65.65 0 0 0-.548-.306zm-2 4.294c.848 0 1.7.123 2.5.413.458.17.902.398 1.265.73.257.237.47.536.55.88.081.337.033.702-.13 1.007-.185.349-.485.621-.812.835-.495.32-1.06.518-1.631.651a7.96 7.96 0 0 1-2.161.18 7.023 7.023 0 0 1-2.214-.454c-.438-.175-.86-.41-1.197-.742-.243-.24-.435-.541-.498-.88a1.445 1.445 0 0 1 .152-.959c.188-.347.491-.618.82-.83.496-.318 1.06-.513 1.632-.645A7.815 7.815 0 0 1 12 15.647zm-1.5 2.706c-.094-.002-.172.1-.14.19.025.085.133.132.21.085.076-.038.102-.148.047-.215a.147.147 0 0 0-.117-.06zm3 0c-.094-.002-.172.1-.14.19.025.085.133.132.21.085.076-.038.102-.148.047-.215a.147.147 0 0 0-.117-.06z"></path></g></g></svg>