<svg width="64" height="64" viewBox="0 0 24 24"><title>crown outline</title><g fill="#000000" class="nc-icon-wrapper"><g transform="translate(0 0)"><path d="M5.354 18.354v.665a.654.654 0 0 0 .171.456c.12.12.291.17.456.172H18.01a.661.661 0 0 0 .46-.167.647.647 0 0 0 .177-.451v-.675H5.353z" data-color="color-2"></path><path d="M12 4.704l-3.415 5.852-5.049-4.59 1.76 9.68h13.408l1.76-9.68-5.05 4.59L12 4.704zm0 2.587l3.088 5.352 3.469-3.121-.966 4.833H6.41l-.966-4.833 3.468 3.12L12 7.293z" fill="#ffffff"></path></g></g></svg>