<svg height="64" width="64" viewBox="0 0 20 20"><title>cube</title><g fill="#000000" class="nc-icon-wrapper"><g transform="translate(0 0)"><path d="M6.506 2.998a.5.5 0 0 0-.354.146l-3 3a.5.5 0 0 0-.146.354v10a.5.5 0 0 0 .5.5h10a.5.5 0 0 0 .354-.146l3-3a.5.5 0 0 0 .146-.354v-10a.5.5 0 0 0-.5-.5zm.207 1h8.58l-1.994 2H4.713zm9.293.701v8.592l-2 2V6.703zm-12 2.299h9v9h-9z" fill="#ffffff"></path><path d="M6.498 2.982a.5.5 0 0 0-.492.508v9.793l-2.854 2.861a.5.5 0 1 0 .708.705l2.853-2.859h9.793a.5.5 0 1 0 0-1h-9.5v-9.5a.5.5 0 0 0-.508-.508z" data-color="color-2"></path></g></g></svg>