<svg height="64" width="64" viewBox="0 0 20 20"><title>curve_ncurve</title><g fill="#000000" class="nc-icon-wrapper"><g transform="translate(0 0)"><path d="M16.059 4.018a6.065 6.065 0 0 0-5.24 2.992 5.94 5.94 0 0 0 0 5.994 6.065 6.065 0 0 0 5.24 2.992l.431.01a.5.5 0 1 0 .02-1l-.442-.01a.5.5 0 0 0-.01 0 5.063 5.063 0 0 1-4.377-2.496 4.93 4.93 0 0 1 0-4.984 5.065 5.065 0 0 1 4.373-2.498l.438.004a.5.5 0 1 0 .008-1l-.438-.004a.5.5 0 0 0-.004 0z" fill="#ffffff"></path><path d="M3.498 3a.5.5 0 0 0-.5.5v2a.5.5 0 0 0 .5.5H4v8h-.502a.5.5 0 0 0-.5.5v2a.5.5 0 0 0 .5.5h2a.5.5 0 0 0 .5-.5v-.494H11c.676.01.676-1.01 0-1H5.998V14.5a.5.5 0 0 0-.5-.5H5V6h.498a.5.5 0 0 0 .5-.5v-.494H11c.676.01.676-1.01 0-1H5.998V3.5a.5.5 0 0 0-.5-.5zm.5 1h1v1h-1zm0 11h1v1h-1z" data-color="color-2"></path></g></g></svg>