<svg height="64" width="64" viewBox="0 0 20 20"><title>curve_bezcircle</title><g fill="#000000" class="nc-icon-wrapper"><g transform="translate(0 0)"><path d="M9.495 5.497a.5.5 0 0 0-.5.5l.002.608a5.01 5.01 0 0 0-4 4.898c0 2.756 2.245 5 5 5s5-2.244 5-5a5.01 5.01 0 0 0-4-4.898l-.002-.608a.5.5 0 0 0-.5-.5zm.502 2.006c2.215 0 4 1.785 4 4s-1.785 4-4 4-4-1.785-4-4 1.785-4 4-4z" fill="#ffffff"></path><path d="M3.495 3.497a.5.5 0 0 0-.5.5v2a.5.5 0 0 0 .5.5h2a.5.5 0 0 0 .5-.5v-.494h1.502c.676.01.676-1.01 0-1H5.995v-.506a.5.5 0 0 0-.5-.5zm11.01 0a.5.5 0 0 0-.5.5v.506h-1.504c-.676-.01-.676 1.01 0 1h1.504v.494a.5.5 0 0 0 .5.5h2a.5.5 0 0 0 .5-.5v-2a.5.5 0 0 0-.5-.5zm-10.51 1h1v1h-1zm11.01 0h1v1h-1z" data-color="color-2"></path></g></g></svg>