<svg height="64" width="64" viewBox="0 0 20 20"><title>curve_bezcurve</title><g fill="#000000" class="nc-icon-wrapper"><g transform="translate(0 0)"><path d="M9.5 4.514a.5.5 0 0 0-.5.5v1a.5.5 0 0 0 .5.5h.72c1.464 2.398 2.782 4.046 2.782 6.006 0 1.458-.663 2.347-1.766 2.75s-2.716.26-4.5-.691a.5.5 0 1 0-.468.882c1.966 1.049 3.853 1.28 5.312.746 1.46-.534 2.422-1.895 2.422-3.687 0-2.434-1.544-4.245-3.002-6.65v-.856a.5.5 0 0 0-.5-.5z" fill="#ffffff"></path><path d="M3.5 3.514a.5.5 0 0 0-.5.5v2a.5.5 0 0 0 .5.5h2a.5.5 0 0 0 .5-.5V5.52h1.502c.676.01.676-1.01 0-1H6v-.506a.5.5 0 0 0-.5-.5zm11 0a.5.5 0 0 0-.5.5v.506h-1.498c-.676-.01-.676 1.01 0 1H14v.494a.5.5 0 0 0 .5.5h2a.5.5 0 0 0 .5-.5v-2a.5.5 0 0 0-.5-.5zm-10.5 1h1v1H4zm11 0h1v1h-1z" data-color="color-2"></path></g></g></svg>