<svg height="64" width="64" viewBox="0 0 20 20"><title>decorate_override</title><g fill="#ffffff" class="nc-icon-wrapper"><g transform="translate(0 0)"><path d="M11.983 13.781l-2.138-2.139a.5.5 0 1 0-.708.708l2.936 2.933.008.01a.5.5 0 0 0 .52.195.5.5 0 0 0 .299-.193l2.945-2.946c.49-.47-.236-1.197-.707-.707l-2.154 2.155.007-4.801c0-2.48-2.02-4.5-4.5-4.5s-4.5 2.02-4.5 4.5v6c-.01.676 1.01.676 1 0v-6c0-1.939 1.561-3.5 3.5-3.5a3.493 3.493 0 0 1 3.5 3.499z" class="nc-icon-wrapper"></path></g></g></svg>