<svg height="64" width="64" viewBox="0 0 20 20"><title>decorate_library_override</title><g fill="#000000" class="nc-icon-wrapper"><g transform="translate(0 0)"><path d="M13.78 3.512c-.666-.013-1.322.3-1.89.868l-1.25 1.25a.5.5 0 1 0 .706.707l1.25-1.25c.433-.432.812-.582 1.165-.575.352.007.73.177 1.128.575.398.398.568.776.575 1.128.007.352-.144.733-.575 1.165l-1.25 1.25a.5.5 0 1 0 .706.707l1.251-1.25c.568-.568.88-1.225.867-1.892-.012-.666-.342-1.289-.867-1.815-.526-.526-1.148-.856-1.815-.868zm-.797 2.968a.5.5 0 0 0-.343.15l-1.251 1.25a.5.5 0 1 0 .707.707l1.25-1.25a.5.5 0 0 0-.363-.858zm-6.996 3.998a.5.5 0 0 0-.346.15l-1.28 1.263a.5.5 0 0 0-.006.005c-.552.562-.86 1.214-.853 1.879.008.665.328 1.295.856 1.824.528.528 1.163.854 1.835.862.672.009 1.334-.305 1.903-.874l1.25-1.25a.5.5 0 1 0-.707-.708l-1.25 1.25c-.431.432-.823.587-1.184.583-.363-.005-.743-.175-1.139-.57-.395-.396-.56-.772-.564-1.128-.004-.357.15-.743.567-1.168l1.274-1.256a.5.5 0 0 0-.357-.863zm2.246.751a.5.5 0 0 0-.343.15L6.639 12.63a.5.5 0 1 0 .707.707l1.25-1.25a.5.5 0 0 0-.363-.858z" fill="#ffffff"></path><path d="M4.987 4.478a.5.5 0 0 0-.348.86l10.147 10.146h-3.043a.5.5 0 1 0 0 1h4.19a.5.5 0 0 0 .56-.56v-4.19a.5.5 0 1 0-1 0v3.043L5.347 4.63a.5.5 0 0 0-.36-.152z" data-color="color-2"></path></g></g></svg>