<svg width="64" height="64" viewBox="0 0 24 24"><title>delete forever outline</title><g fill="#000000" class="nc-icon-wrapper"><g transform="translate(0 0)"><path d="M9.646 3.353l-1 1H5.353v1.294h13.293V4.354h-3.293l-1-1H9.648zm-3.293 4v11.663c.003.406.165.808.443 1.104.282.306.685.499 1.101.523.137.006.275.002.412.003h7.715a1.646 1.646 0 0 0 1.62-1.56c.005-.147.002-.295.003-.443V7.353H6.354zm1.293 1.294h8.707v10.707H7.646V8.646z" fill="#ffffff"></path><path d="M9.87 10.971l-.907.908L11.092 14 8.97 16.12l.91.91L12 14.908l2.119 2.122.91-.91L12.91 14l2.12-2.119-.91-.91-2.12 2.12-2.13-2.12z" data-color="color-2"></path></g></g></svg>