<svg width="64" height="64" viewBox="0 0 24 24"><title>delete sweep outline</title><g fill="#000000" class="nc-icon-wrapper"><g transform="translate(0 0)"><path d="M6.147 4.354l-1 1H2.355v1.291h11.29v-1.29h-2.791l-1-1H6.145zm-2.792 4v9.678A1.652 1.652 0 0 0 5.1 19.646h5.943a1.652 1.652 0 0 0 1.603-1.74V8.355H3.355zm1.29 1.291h6.71v8.71h-6.71v-8.71z" fill="#ffffff"></path><path d="M15.354 8.354v1.293h6.293V8.352h-6.293zm0 4v1.293h5.293v-1.294h-5.293zm0 4v1.293h3.293v-1.293h-3.293z" data-color="color-2"></path></g></g></svg>