<svg width="64" height="64" viewBox="0 0 24 24"><title>delete off outline</title><g fill="#ffffff" class="nc-icon-wrapper"><g transform="translate(0 0)"><path class="nc-icon-wrapper" d="M9.646 3.353l-1 1H6.675l1.293 1.294h10.68V4.354h-3.293l-1-1H9.647zM3.28 4.5l-.777.771 3.852 3.852v9.898a1.653 1.653 0 0 0 1.689 1.625h7.974c.185-.003.37-.037.546-.097.195-.07.37-.183.524-.32l.202-.172 1.44 1.441.771-.777L3.28 4.5zm6.395 2.853l1.293 1.294h5.386v5.386l1.293 1.293V7.353H9.674zm-2.027 3.061l8.939 8.94h-8.94v-8.94z"></path></g></g></svg>