<svg width="64" height="64" viewBox="0 0 24 24"><title>delete alert outline</title><g fill="#000000" class="nc-icon-wrapper"><g transform="translate(0 0)"><path d="M19.354 7.354v5.293h1.293V7.353h-1.293zm0 8v1.293h1.293v-1.293h-1.293z" data-color="color-2"></path><path d="M7.647 3.354l-1 1H3.355v1.292h13.29V4.354h-3.291l-1-1H7.646zm-3.293 4v11.688c.01.622.411 1.213.98 1.461.25.117.527.151.8.142h7.908a1.658 1.658 0 0 0 1.464-.984c.114-.248.148-.524.14-.795V7.354H4.353zm1.292 1.292h8.709v10.708h-8.71V8.646z" fill="#ffffff"></path></g></g></svg>