<svg height="64" width="64" viewBox="0 0 20 20"><title>desktop</title><g fill="#000000" class="nc-icon-wrapper"><g transform="translate(0 0)"><path d="M12 8a.5.5 0 0 1-.5.5h-2A.5.5 0 0 1 9 8V6a.5.5 0 0 1 .5-.5h2a.5.5 0 0 1 .5.5z" data-color="color-2"></path><path d="M3.5 15.5a.501.501 0 0 0-.478.621c.004.016.01.032.015.047a.49.49 0 0 0 .041.09.499.499 0 0 0 .422.242h13a.501.501 0 0 0 .478-.621c-.004-.016-.01-.032-.015-.047a.5.5 0 0 0-.406-.328.488.488 0 0 0-.057-.004zm0-12A.5.5 0 0 0 3 4v10a.5.5 0 0 0 .5.5h13a.5.5 0 0 0 .5-.5V4a.5.5 0 0 0-.5-.5zm.5 1h12v9H4z" fill="#ffffff"></path><path d="M8 12a.5.5 0 0 1-.5.5h-2A.5.5 0 0 1 5 12v-2a.5.5 0 0 1 .5-.5h2a.5.5 0 0 1 .5.5zm-1-.5v-1H6v1zM8 8a.5.5 0 0 1-.5.5h-2A.5.5 0 0 1 5 8V6a.5.5 0 0 1 .5-.5h2A.5.5 0 0 1 8 6z" data-color="color-2"></path></g></g></svg>