<svg height="64" width="64" viewBox="0 0 20 20"><title>disk_drive</title><g fill="#ffffff" class="nc-icon-wrapper"><g transform="translate(0 0)"><path d="M10 13h1v2h-1zm-2 0h1v2H8zm-2 0h1v2H6zM5.537 3C4.694 3 4 3.694 4 4.537v10.926C4 16.306 4.694 17 5.537 17h8.926A1.547 1.547 0 0 0 16 15.463V4.537C16 3.694 15.306 3 14.463 3zm0 9h8.926c.306 0 .537.231.537.537v2.926a.526.526 0 0 1-.537.537H5.537A.526.526 0 0 1 5 15.463v-2.926c0-.306.231-.537.537-.537z" class="nc-icon-wrapper"></path></g></g></svg>