<svg width="64" height="64" viewBox="0 0 20 20"><title>driver_distance</title><g fill="#000000" class="nc-icon-wrapper"><g transform="translate(0 0)"><path d="M13.603 3.003a.6.6 0 0 0-.418 1.03l2.787 2.788a.601.601 0 0 0 .85-.85l-2.788-2.786a.6.6 0 0 0-.431-.182zm-10 10a.6.6 0 0 0-.418 1.03l2.787 2.788a.601.601 0 0 0 .85-.85l-2.788-2.786a.6.6 0 0 0-.431-.182z" fill="#ffffff"></path><path d="M13.491 5.897a.6.6 0 0 0-.412.182l-1 1a.6.6 0 1 0 .848.848l1-1a.6.6 0 0 0-.436-1.03zm-3 3a.6.6 0 0 0-.412.182l-1 1a.6.6 0 1 0 .848.848l1-1a.6.6 0 0 0-.436-1.03zm-3 3v.001a.6.6 0 0 0-.412.18l-1 1.001a.6.6 0 1 0 .848.848l1-1a.6.6 0 0 0-.436-1.03z" data-color="color-2"></path></g></g></svg>