<svg width="64" height="64" viewBox="0 0 20 20"><title>driver_rotational_difference</title><g fill="#000000" class="nc-icon-wrapper"><g transform="translate(0 0)"><path d="M5.942 6.578a.5.5 0 1 0 0 1h1a.5.5 0 1 0 0-1zm3.285.71a.5.5 0 0 0-.19.964l1 .416a.5.5 0 1 0 .385-.922l-1-.418a.5.5 0 0 0-.194-.04zm2.578 1.995a.5.5 0 0 0-.455.7l.418 1a.5.5 0 0 0 .923-.385l-.418-1a.5.5 0 0 0-.468-.315zm1.166 3.25a.5.5 0 0 0-.492.506v1a.5.5 0 0 0 1 0v-1a.5.5 0 0 0-.508-.506z" data-color="color-2"></path><path d="M3.992 3.492A.5.5 0 0 0 3.5 4v11.92a.5.5 0 0 0 .113.404.5.5 0 0 0 .016.02.5.5 0 0 0 .017.017.5.5 0 0 0 .004.002.5.5 0 0 0 .034.032.5.5 0 0 0 .004.002.5.5 0 0 0 .394.103H16a.5.5 0 1 0 0-1H4.5V4a.5.5 0 0 0-.508-.508z" fill="#ffffff"></path></g></g></svg>