<svg width="64" height="64" viewBox="0 0 24 24"><title>dropper off</title><g fill="#ffffff" class="nc-icon-wrapper"><g transform="translate(0 0)"><path class="nc-icon-wrapper" d="M18.881 2.477c-.61-.001-1.22.215-1.688.606-.15.125-.283.27-.422.406l-1.431 1.43 3.74 3.741 1.7-1.7a2.634 2.634 0 0 0 .733-1.619 2.634 2.634 0 0 0-2.632-2.865zM3.141 4.07l-.781.78 6.533 6.52L4.16 16.1l-1.745 4.316 1.168 1.168 4.317-1.744 4.73-4.732 5.95 5.962.779-.78L3.14 4.07zm9.139 1.08l-1.627 1.627 1.42 1.413-.633.63.92.92.64-.642L14.903 11l-.643.64.92.92.63-.632 1.413 1.42 1.627-1.627-6.57-6.57zm-2.467 7.137L11.71 14.2l-4.537 4.54-3.35 1.437 1.438-3.35 4.55-4.539z"></path></g></g></svg>