<svg width="64" height="64" viewBox="0 0 24 24"><title>dropper</title><g fill="#ffffff" class="nc-icon-wrapper"><g transform="translate(0 0)"><path class="nc-icon-wrapper" d="M18.881 2.477c-.625-.001-1.248.226-1.722.635-.138.119-.261.253-.391.38L15.34 4.92l3.74 3.74 1.7-1.7a2.654 2.654 0 0 0 .402-3.141 2.638 2.638 0 0 0-2.301-1.342zM12.279 5.15l-1.627 1.627 1.42 1.412L4.16 16.1l-1.744 4.317 1.168 1.168L7.9 19.84l7.91-7.912 1.413 1.42 1.627-1.627-6.57-6.57zM13 9.1l1.9 1.9-7.726 7.738-3.35 1.438 1.438-3.35L13 9.1z"></path></g></g></svg>