<svg width="64" height="64" viewBox="0 0 24 24"><title>dropper remove</title><g fill="#000000" class="nc-icon-wrapper"><g transform="translate(0 0)"><path d="M2.88 1.97c-.304.304-.61.607-.915.91L4.092 5 1.963 7.121l.916.916L5 5.908l2.121 2.13.916-.917L5.908 5c.71-.706 1.418-1.413 2.127-2.12l-.916-.91L5 4.093 2.881 1.97z" data-color="color-2"></path><path d="M18.881 2.477a2.65 2.65 0 0 0-1.679.598c-.154.126-.288.274-.43.413L15.34 4.92l3.74 3.74 1.7-1.7a2.634 2.634 0 0 0 .733-1.619 2.634 2.634 0 0 0-2.632-2.865zM12.279 5.15l-1.627 1.627 1.42 1.412L4.16 16.1l-1.744 4.317 1.168 1.168L7.9 19.84l7.91-7.912 1.413 1.42 1.627-1.627-6.57-6.57zM13 9.1l1.9 1.9-7.726 7.738-3.35 1.438 1.438-3.35L13 9.1z" fill="#ffffff"></path></g></g></svg>