<svg height="64" width="64" viewBox="0 0 20 20"><title>edge_select</title><g fill="#000000" class="nc-icon-wrapper"><g transform="translate(0 0)"><path d="M12.507 16.496a.5.5 0 0 0-.5.5h-2a.5.5 0 0 0-.5-.5v-9a.5.5 0 0 0 .5-.5h2a.5.5 0 0 0 .5.5z" fill="#ffffff"></path><path d="M16.5 12.503a.5.5 0 0 0-.147.354l-1.992 1.992c-.471.491-1.198-.236-.707-.707l1.846-1.846V4.003H7.207L4.5 6.711v8.291l4.007-.007.002 1-4.507.007a.5.5 0 0 0-.502-.5v-9a.5.5 0 0 0 .146-.353l3-3A.5.5 0 0 0 7 3.002h9a.5.5 0 0 0 .5.5z" data-color="color-2"></path></g></g></svg>