<svg height="64" width="64" viewBox="0 0 20 20"><title>empty_axis</title><g fill="#ffffff" class="nc-icon-wrapper"><g transform="translate(0 0)"><path d="M9.492 2.992A.5.5 0 0 0 9 3.5v6.793l-3.854 3.853a.5.5 0 1 0 .708.708L9.707 11H16.5a.5.5 0 1 0 0-1H10V3.5a.5.5 0 0 0-.508-.508z"></path><path d="M13.49 5.996a.5.5 0 0 0-.344.15l-2 2a.5.5 0 1 0 .708.708l2-2a.5.5 0 0 0-.364-.858zM3.5 10a.5.5 0 1 0 0 1h3.25a.5.5 0 1 0 0-1zm5.992 2.742A.5.5 0 0 0 9 13.25v3.25a.5.5 0 1 0 1 0v-3.25a.5.5 0 0 0-.508-.508z"></path></g></g></svg>