<svg height="64" width="64" viewBox="0 0 20 20"><title>empty_arrows</title><g fill="#ffffff" class="nc-icon-wrapper"><g transform="translate(0 0)"><path d="M7.492 3a.5.5 0 0 0-.346.146l-2 2a.5.5 0 1 0 .708.708L7 4.707v7.586l-3 3V13.5a.5.5 0 0 0-.508-.508A.5.5 0 0 0 3 13.5v3a.5.5 0 0 0 .5.5h3a.5.5 0 1 0 0-1H4.707l3-3h7.586l-1.147 1.146a.5.5 0 1 0 .708.708l2-2a.5.5 0 0 0 0-.708l-2-2a.5.5 0 0 0-.36-.152.5.5 0 0 0-.348.86L15.293 12H8V4.707l1.146 1.147a.5.5 0 1 0 .708-.708l-2-2A.5.5 0 0 0 7.492 3z" class="nc-icon-wrapper"></path></g></g></svg>