<svg width="64" height="64" viewBox="0 0 24 24"><title>expand all outline</title><g fill="#000000" class="nc-icon-wrapper"><g transform="translate(0 0)"><path d="M19 17h-2v2h-2v-2h-2v-2h2v-2h2v2h2z" data-color="color-2"></path><path d="M4 2.355a1.654 1.654 0 0 0-1.523 1.024c-.116.26-.129.548-.122.83v9.437h1.29v-10h10V2.354H4zm4 4A1.653 1.653 0 0 0 6.484 7.36c-.12.264-.136.555-.13.84v9.445h1.292v-10h10v-1.29H8zm4 4a1.653 1.653 0 0 0-1.516 1.005c-.12.263-.137.555-.13.84v7.843c.01.64.431 1.245 1.024 1.48.264.117.555.128.839.122h7.826a1.654 1.654 0 0 0 1.502-1.08c.128-.315.096-.658.1-.99v-7.607a1.654 1.654 0 0 0-1.08-1.513c-.315-.128-.658-.097-.99-.1H12zm-.354 1.29h8.709v8.71h-8.71v-8.71z" fill="#ffffff"></path></g></g></svg>