<svg width="64" height="64" viewBox="0 0 20 20"><title>experimental</title><g fill="#000000" class="nc-icon-wrapper"><g transform="translate(0 0)"><path d="M7.991 12a.5.5 0 0 0-.376.17l-1.75 2a.5.5 0 0 0 .376.83h7.5a.5.5 0 0 0 .377-.83l-1.75-2a.5.5 0 0 0-.377-.17z" data-color="color-2"></path><path d="M7.49 3a.5.5 0 0 0-.499.5v1a.5.5 0 0 0 .147.353l.853.854v2.615l-4.386 5.362-.004.004c-.59.736-.708 1.57-.45 2.216A1.726 1.726 0 0 0 4.741 17h10.5c.71 0 1.338-.443 1.605-1.092.266-.647.144-1.49-.467-2.224l-4.387-5.362V5.707l.854-.854a.5.5 0 0 0 .146-.353v-1a.5.5 0 0 0-.5-.5zm.5 1h4.001v.293l-.853.853a.5.5 0 0 0-.147.354v3a.5.5 0 0 0 .114.316l4.5 5.5s0 .003.002.004c.428.515.431.92.312 1.21a.739.739 0 0 1-.678.47h-10.5a.707.707 0 0 1-.66-.467c-.116-.29-.11-.707.3-1.22l4.497-5.497a.5.5 0 0 0 .113-.316v-3a.5.5 0 0 0-.146-.354l-.854-.853z" fill="#ffffff"></path></g></g></svg>