<svg height="64" width="64" viewBox="0 0 20 20"><title>external_drive</title><g fill="#000000" class="nc-icon-wrapper"><g transform="translate(0 0)"><path d="M9.037 3C7.917 3 7 3.917 7 5.037V6c-.04.706 1.04.706 1 0v-.963C8 4.454 8.454 4 9.037 4h4.926C14.546 4 15 4.454 15 5.037v5.059a1.54 1.54 0 0 0-1 1.441v1.926a.5.5 0 0 0 .5.5h.5V16h1v-2.037h.5a.5.5 0 0 0 .5-.5v-1.926a1.54 1.54 0 0 0-1-1.441V5.037C16 3.917 15.083 3 13.963 3z" data-color="color-2"></path><path d="M7 14h1v1H7zm-2 0h1v1H5zm-.463-8C3.694 6 3 6.694 3 7.537v7.926C3 16.306 3.694 17 4.537 17h5.926A1.547 1.547 0 0 0 12 15.463V7.537C12 6.694 11.306 6 10.463 6zm0 7h5.926c.306 0 .537.231.537.537v1.926a.526.526 0 0 1-.537.537H4.537A.526.526 0 0 1 4 15.463v-1.926c0-.306.231-.537.537-.537z" fill="#ffffff"></path></g></g></svg>