<svg width="64" height="64" viewBox="0 0 24 24"><title>eye remove outline</title><g fill="#000000" class="nc-icon-wrapper"><g transform="translate(0 0)"><path d="M12 9c-1.66 0-3 1.34-3 3s1.34 3 3 3 3-1.34 3-3-1.34-3-3-3zm9.12 6.97L19 18.09l-2.12-2.119-.909.91L18.091 19l-2.12 2.12.91.918L19 19.908l2.12 2.13.918-.917L19.908 19l2.13-2.12z" data-color="color-2"></path><path d="M12 4.854a11.38 11.38 0 0 0-5.992 1.697A11.562 11.562 0 0 0 1.392 12a11.56 11.56 0 0 0 4.973 5.66 11.338 11.338 0 0 0 5.866 1.48c.139-.006.278-.016.417-.025a6.019 6.019 0 0 1 .116-1.302c-1 .099-2.014.01-2.995-.206a10.173 10.173 0 0 1-5.35-3.141A10.328 10.328 0 0 1 2.786 12 10.41 10.41 0 0 1 4.79 9.116 9.762 9.762 0 0 1 7.942 6.98a10.337 10.337 0 0 1 8.158.015 9.969 9.969 0 0 1 1.76.981c1.422.992 2.561 2.37 3.31 3.931.016.045.064.09.024.135a9.76 9.76 0 0 1-.463.856c.412.112.813.266 1.191.463.256-.44.49-.893.685-1.364a11.56 11.56 0 0 0-5.019-5.684A11.387 11.387 0 0 0 12 4.854zm8.731 8.044c-.05-.02-.022.057 0 0zm-7.967 4.915c.096.005.028-.05 0 0z" fill="#ffffff"></path></g></g></svg>