<svg width="64" height="64" viewBox="0 0 24 24"><title>eye outline</title><g fill="#000000" class="nc-icon-wrapper"><g transform="translate(0 0)"><path d="M12 4.854a11.38 11.38 0 0 0-5.992 1.697A11.562 11.562 0 0 0 1.392 12a11.56 11.56 0 0 0 4.94 5.641 11.394 11.394 0 0 0 6.093 1.497 11.373 11.373 0 0 0 5.884-1.892A11.562 11.562 0 0 0 22.608 12a11.56 11.56 0 0 0-4.94-5.641A11.38 11.38 0 0 0 12 4.854zm0 1.29c1.59 0 3.182.375 4.597 1.104.618.3 1.196.682 1.736 1.107 1.214.963 2.2 2.209 2.863 3.608.04.043-.013.085-.026.128-.736 1.535-1.849 2.894-3.238 3.882a10.142 10.142 0 0 1-3.287 1.533 10.324 10.324 0 0 1-6.96-.6c-1.833-.827-3.381-2.249-4.405-3.977-.18-.302-.341-.614-.495-.93A10.231 10.231 0 0 1 4.91 9.023a10.032 10.032 0 0 1 2.416-1.737c.573-.29 1.167-.543 1.785-.722.937-.278 1.913-.42 2.89-.419z" fill="#ffffff"></path><path d="M12 9a3 3 0 0 1 3 3 3 3 0 0 1-3 3 3 3 0 0 1-3-3 3 3 0 0 1 3-3" data-color="color-2"></path></g></g></svg>