<svg width="64" height="64" viewBox="0 0 24 24"><title>eye settings outline</title><g fill="#000000" class="nc-icon-wrapper"><g transform="translate(0 0)"><path d="M12 9a3 3 0 0 0-3 3 3 3 0 0 0 3 3 3 3 0 0 0 3-3 3 3 0 0 0-3-3zM7.354 22.354v1.291h1.291v-1.29zm4 0v1.291h1.291v-1.29zm4 0v1.291h1.292v-1.29z" data-color="color-2"></path><path d="M12 4.854c-1.717 0-3.432.393-4.976 1.147a11.56 11.56 0 0 0-5.63 5.995c.881 2.18 2.45 4.074 4.434 5.337a11.46 11.46 0 0 0 4.356 1.659 11.435 11.435 0 0 0 7.325-1.27 11.435 11.435 0 0 0 4.82-5.1c.083-.22.247-.442.26-.667A11.56 11.56 0 0 0 17.8 6.443 11.404 11.404 0 0 0 12 4.854zm-.072 1.287a10.227 10.227 0 0 1 6.308 2.133 10.163 10.163 0 0 1 2.966 3.7c.029.044-.029.089-.04.133a10.184 10.184 0 0 1-4.195 4.454 10.144 10.144 0 0 1-5.687 1.273 10.208 10.208 0 0 1-4.979-1.72 10.135 10.135 0 0 1-3.485-4.052c-.038-.044-.027-.09.004-.134a10.185 10.185 0 0 1 4.11-4.43 10.163 10.163 0 0 1 4.998-1.357z" fill="#ffffff"></path></g></g></svg>