<svg width="64" height="64" viewBox="0 0 24 24"><title>eye check outline</title><g fill="#000000" class="nc-icon-wrapper"><g transform="translate(0 0)"><path d="M12 4.854a11.451 11.451 0 0 0-2.67.315 11.366 11.366 0 0 0-4.65 2.35A11.599 11.599 0 0 0 1.405 12a11.593 11.593 0 0 0 3.749 4.858 11.386 11.386 0 0 0 4.023 1.936 11.49 11.49 0 0 0 2.124.33c.244.014.489.026.733.021l.612-.024a6.53 6.53 0 0 1 .113-1.31c-.253.014-.507.03-.76.042a10.19 10.19 0 0 1-9.2-5.824c-.01-.017-.02-.033-.004-.05.22-.46.468-.907.75-1.332a9.966 9.966 0 0 1 2.565-2.651 10.13 10.13 0 0 1 4.293-1.726 10.395 10.395 0 0 1 5.287.555 9.922 9.922 0 0 1 3.512 2.281 10.375 10.375 0 0 1 2.004 2.878c.01.017.019.034.002.05l-.486.85c.418.116.823.278 1.207.48.251-.437.484-.885.672-1.352a11.59 11.59 0 0 0-3.74-4.86 11.377 11.377 0 0 0-3.945-1.922 11.092 11.092 0 0 0-1.45-.282c-.18-.023-.362-.038-.543-.057A12.672 12.672 0 0 0 12 4.853z" fill="#ffffff"></path><path d="M12 9a3 3 0 0 0-3 3 3 3 0 0 0 3 3 3 3 0 0 0 3-3 3 3 0 0 0-3-3zm10 7.001l-3.5 3.5-2-2-.999 1 3 2.998L22.998 17z" data-color="color-2"></path></g></g></svg>