<svg width="64" height="64" viewBox="0 0 24 24"><title>eye minus outline</title><g fill="#000000" class="nc-icon-wrapper"><g transform="translate(0 0)"><path d="M12.095 8.998A2.9 2.9 0 0 0 12 9a3 3 0 1 0 3 3 2.9 2.9 0 0 0-2.905-3.001zm3.26 8.856v1.291h7.29v-1.29z" data-color="color-2"></path><path d="M12 4.854a11.444 11.444 0 0 0-2.581.293 11.412 11.412 0 0 0-5.093 2.669A11.497 11.497 0 0 0 1.404 12a11.492 11.492 0 0 0 3.298 4.51 11.393 11.393 0 0 0 6.953 2.631c.31.009.621.004.931.005h.094a4.315 4.315 0 0 1-.033-.658c-.01-.245.002-.49.033-.734l-.929.001a9.931 9.931 0 0 1-4.02-.883 9.973 9.973 0 0 1-4.897-4.815c-.01-.018-.018-.037-.027-.055.126-.27.258-.538.406-.797.134-.242.283-.478.437-.708.155-.224.317-.44.487-.653a9.866 9.866 0 0 1 1.86-1.774c.402-.293.829-.551 1.267-.787a9.91 9.91 0 0 1 2.674-.945 9.808 9.808 0 0 1 2.1-.192 9.91 9.91 0 0 1 6.643 2.466 9.98 9.98 0 0 1 2.487 3.338l.031.065-.254.446a4.95 4.95 0 0 1 1.21.521 9.51 9.51 0 0 0 .449-.968 11.486 11.486 0 0 0-3.295-4.517 11.43 11.43 0 0 0-4.728-2.35c-.221-.047-.442-.097-.665-.133A11.26 11.26 0 0 0 12 4.854z" fill="#ffffff"></path></g></g></svg>