<svg width="64" height="64" viewBox="0 0 24 24"><title>eye off outline</title><g fill="#000000" class="nc-icon-wrapper"><g transform="translate(0 0)"><path d="M3.279 4.5l-.777.77 2.206 2.207c-.48.412-.943.846-1.355 1.327a11.51 11.51 0 0 0-1.958 3.203 11.56 11.56 0 0 0 5.058 5.703 11.408 11.408 0 0 0 6.182 1.418 11.249 11.249 0 0 0 3.11-.613l2.984 2.983.77-.777L3.28 4.5zM12 4.854c-1.38-.001-2.75.29-4.037.775l.978.97c1.734-.52 3.605-.604 5.371-.187A10.191 10.191 0 0 1 21.215 12a10.277 10.277 0 0 1-2.99 3.722c-.102.046-.117.097-.03.156l.827.83a11.428 11.428 0 0 0 3.586-4.707 11.56 11.56 0 0 0-5.058-5.709A11.38 11.38 0 0 0 12 4.854zM5.619 8.387l3.72 3.73c.043.636.308 1.254.752 1.712a2.73 2.73 0 0 0 1.782.83c.062.043.11.11.167.16l2.665 2.678c-.576.128-1.153.266-1.744.313a10.181 10.181 0 0 1-9.987-5.43c-.065-.126-.126-.253-.189-.38a10.278 10.278 0 0 1 2.697-3.495l.137-.118z" data-color="color-2"></path><path d="M12 9a3 3 0 0 1 3 3 3 3 0 0 1-.17 1L11 9.17A3 3 0 0 1 12 9" data-color="color-2"></path></g></g></svg>