<svg width="64" height="64" viewBox="0 0 24 24"><title>eye plus outline</title><g fill="#000000" class="nc-icon-wrapper"><g transform="translate(0 0)"><path d="M12 9a3 3 0 0 0-3 3 3 3 0 0 0 3 3 3 3 0 0 0 3-3 3 3 0 0 0-3-3zm6.354 5.854v3h-3v1.291h3v3h1.292v-3h3v-1.29h-3v-3z" data-color="color-2"></path><path d="M12 4.854a11.451 11.451 0 0 0-2.67.315 11.366 11.366 0 0 0-4.65 2.35A11.599 11.599 0 0 0 1.405 12a11.598 11.598 0 0 0 3.712 4.832 11.324 11.324 0 0 0 7.003 2.313c.187-.004.374-.018.56-.03a5.436 5.436 0 0 1 .008-1.299c-.32.031-.641.045-.962.034a10.166 10.166 0 0 1-8.042-4.305c-.34-.482-.637-.994-.89-1.527-.016-.016-.002-.033.006-.05.275-.577.599-1.132.973-1.651a9.916 9.916 0 0 1 2.702-2.568 10.203 10.203 0 0 1 4.667-1.566c1.707-.142 3.45.143 5.018.835a9.893 9.893 0 0 1 3.323 2.384c.704.77 1.285 1.652 1.73 2.596 0 .016-.016.033-.021.049-.07.142-.144.282-.226.418.41.132.803.312 1.174.53.165-.322.324-.648.463-.981a11.588 11.588 0 0 0-3.739-4.861A11.35 11.35 0 0 0 12 4.853zm8.967 7.61c-.02 0-.05.092-.02.036l.02-.035zm-8.277 5.352c.05.003.001-.033 0 0z" fill="#ffffff"></path></g></g></svg>