<svg height="64" width="64" viewBox="0 0 20 20"><title>face_select</title><g fill="#000000" class="nc-icon-wrapper"><g transform="translate(0 0)"><path d="M3.504 6.996a.5.5 0 0 0-.5.5v9a.5.5 0 0 0 .5.5h9a.5.5 0 0 0 .5-.5v-9a.5.5 0 0 0-.5-.5z" fill="#ffffff"></path><path d="M7.496 3.004a.5.5 0 0 0-.353.146L5.15 5.143a.444.444 0 0 0-.146.353v.5h1l.003-.296 1.696-1.696h8.293v8.293L14.3 13.994l-.295.002v1h.5a.447.447 0 0 0 .346-.139l2-2a.5.5 0 0 0 .146-.353v-9a.5.5 0 0 0-.5-.5z" data-color="color-2"></path></g></g></svg>