<svg height="64" width="64" viewBox="0 0 20 20"><title>fcurve</title><g fill="#000000" class="nc-icon-wrapper"><g transform="translate(0 0)"><path d="M8 7c-.71 0-1.273.364-1.621.822-.348.458-.547.995-.748 1.49-.202.496-.405.95-.65 1.24-.246.292-.49.448-.981.448H3v1h1c.758 0 1.36-.344 1.746-.803.387-.458.606-1.005.81-1.51.205-.504.398-.967.62-1.26C7.398 8.136 7.586 8 8 8c.377 0 .584.165.838.557.254.391.47.989.69 1.615.218.626.438 1.281.794 1.828.356.547.934 1.006 1.682 1 .673-.005 1.209-.264 1.57-.621s.571-.778.772-1.147c.2-.369.389-.685.623-.892.233-.207.505-.34 1.031-.34h1V9h-1c-.724 0-1.296.239-1.695.592-.4.353-.632.783-.838 1.162-.206.379-.387.707-.596.914-.209.207-.423.328-.875.332-.377.003-.58-.158-.834-.547-.253-.389-.47-.985-.69-1.611-.218-.626-.439-1.282-.794-1.83C9.322 7.463 8.748 7 8 7z" data-color="color-2"></path><path d="M16.5 3l-13 .004a.5.5 0 0 0-.5.5V10h1V4.004L16 4v4h1V3.5a.5.5 0 0 0-.5-.5zm-.5 8v5H4v-3H3v3.5a.5.5 0 0 0 .5.5h13a.5.5 0 0 0 .5-.5V11z" fill="#ffffff"></path></g></g></svg>