<svg height="64" width="64" viewBox="0 0 20 20"><title>fcurve_snapshot</title><g fill="#000000" class="nc-icon-wrapper"><g transform="translate(0 0)"><path d="M3.496 2.996a.5.5 0 0 0-.5.5v10a.5.5 0 0 0 .5.5h13a.5.5 0 1 0 0-1h-12.5v-9h9v7.5a.5.5 0 1 0 1 0v-8a.5.5 0 0 0-.5-.5zm9.992 11.742a.5.5 0 0 0-.492.508v1.25a.5.5 0 1 0 1 0v-1.25a.5.5 0 0 0-.508-.508z" fill="#ffffff"></path><path d="M11.496 5.996a2.69 2.69 0 0 0-1.527.459c-.44.293-.827.687-1.327 1.187l-1 1c-.5.5-.862.856-1.173 1.063-.311.207-.556.291-.973.291h-1v1h1a2.69 2.69 0 0 0 1.527-.459c.44-.293.827-.687 1.327-1.187l1-1c.5-.5.862-.856 1.173-1.063.311-.207.556-.291.973-.291h1v-1z" data-color="color-2"></path></g></g></svg>