<svg width="64" height="64" viewBox="0 0 24 24"><title>feature search outline</title><g fill="#000000" class="nc-icon-wrapper"><g transform="translate(0 0)"><path d="M15.5 2.355a4.137 4.137 0 0 0-4.022 3.13 4.189 4.189 0 0 0 .37 2.984 4.139 4.139 0 0 0 1.972 1.826 4.102 4.102 0 0 0 2.253.306c.622-.094 1.21-.347 1.75-.665l.136-.078L21 12.898l.899-.898-3.04-3.041c.186-.323.369-.649.5-.998a3.98 3.98 0 0 0 .28-1.715A4.134 4.134 0 0 0 15.5 2.355zm0 1.29a2.858 2.858 0 0 1 1.965.77c.527.49.846 1.191.884 1.909a2.875 2.875 0 0 1-.608 1.96 2.828 2.828 0 0 1-1.835 1.043 2.903 2.903 0 0 1-2.006-.45 2.82 2.82 0 0 1-1.183-1.726 2.912 2.912 0 0 1 .415-2.263 2.823 2.823 0 0 1 1.796-1.187 2.96 2.96 0 0 1 .572-.056z" data-color="color-2"></path><path d="M4 4.354A1.65 1.65 0 0 0 2.354 6.02v13.996a1.65 1.65 0 0 0 1.668 1.63h13.994a1.65 1.65 0 0 0 1.63-1.669v-4.83l-1.292-1.294v6.5H3.647V5.646h5.07c.059-.438.157-.871.29-1.293H4z" fill="#ffffff"></path></g></g></svg>