<svg width="64" height="64" data-color="color-2" viewBox="0 0 24 24"><title>file hidden</title><g fill="#000000" class="nc-icon-wrapper"><g transform="translate(0 0)"><path d="M6 2.355a1.652 1.652 0 0 0-1.475.913 1.75 1.75 0 0 0-.17.87v.508h1.29v-1h2V2.354H6zm3.354 0v1.29h2v2h1.291v-1.29h-1v-2h-2.29zm4 0v.999l1.756 1.755.75-.749c-.67-.668-1.338-1.337-2.006-2.005h-.5zm-9 4v2.29h1.292v-2.29H4.354zm0 4v2.29h1.292v-2.29H4.354zm0 4v2.29h1.292v-2.29H4.354zm0 4c.002.576-.003 1.153.002 1.73.025.631.452 1.22 1.041 1.446.246.104.516.121.78.114h.468v-1.29h-1v-2h-1.29zm14 1v1h-2v1.29c.575 0 1.15.003 1.725-.002a1.654 1.654 0 0 0 1.466-1.078c.103-.255.104-.532.1-.803v-.408h-1.29zm-10 1v1.29h2.292v-1.29H8.355zm4 0v1.29h2.292v-1.29h-2.292z" data-color="color-2"></path><path d="M17.63 6.131l-.749.749 2.475 2.475h-4.001v1.29h2.29v-1h2V8.147L17.63 6.13zm-6.275 1.223v3.292h2.291V9.355h-1v-2h-1.291zm7 4v2.292h1.291v-2.291h-1.291zm0 4v2.292h1.291v-2.291h-1.291z" data-color="color-2"></path></g></g></svg>