<svg width="64" height="64" viewBox="0 0 24 24"><title>file edit outline</title><g fill="#000000" class="nc-icon-wrapper"><g transform="translate(0 0)"><path d="M20.2 13c-.2 0-.3.1-.4.2l-1 1 2.1 2.1 1-1c.2-.2.2-.6 0-.8l-1.3-1.3c-.1-.1-.3-.2-.4-.2zm-2.1 1.8L12 20.9V23h2.1l6.1-6.1z" data-color="color-2"></path><path d="M6 2.353a1.652 1.652 0 0 0-1.646 1.684v15.985a1.654 1.654 0 0 0 1.685 1.625h3.607v-1.293h-4V3.647h7.707v5h5v2.6l1.293-1.293V8.147l-5.793-5.793H6z" fill="#ffffff"></path></g></g></svg>