<svg width="64" height="64" viewBox="0 0 24 24"><title>file lock outline</title><g fill="#000000" class="nc-icon-wrapper"><g transform="translate(0 0)"><path d="M12 11c-1.66 0-3 1.36-3 3v1H8v4h8v-4h-1v-1c0-1.66-1.34-3-3-3zm0 2c.55 0 1 .47 1 1v1h-2v-1c0-.55.45-1 1-1z" data-color="color-2"></path><path d="M6 2.355a1.652 1.652 0 0 0-1.467.9 1.74 1.74 0 0 0-.179.878v15.899a1.65 1.65 0 0 0 .862 1.415c.276.154.596.21.91.198h11.922a1.653 1.653 0 0 0 1.444-.95c.126-.26.164-.55.154-.836V8.147l-5.792-5.792H6zm-.354 1.29h7.708v5h5v11.71H5.647V3.645z" fill="#ffffff"></path></g></g></svg>