<svg width="64" height="64" viewBox="0 0 24 24"><title>file export outline</title><g fill="#000000" class="nc-icon-wrapper"><g transform="translate(0 0)"><path d="M16 11v7.1L13.9 16l-2.8 2.8L8.3 16l2.8-2.8L8.9 11z" data-color="color-2"></path><path d="M6 2.355a1.656 1.656 0 0 0-1.483.934c-.133.263-.173.56-.163.852v15.901c.01.64.433 1.244 1.026 1.481.247.107.518.13.783.122h11.88c.63-.01 1.228-.42 1.47-1.002.116-.253.14-.532.133-.806V8.147l-5.792-5.792H6zm-.354 1.29h7.708v5h5v11.71H5.647V3.645z" fill="#ffffff"></path></g></g></svg>