<svg width="64" height="64" viewBox="0 0 24 24"><title>file find outline</title><g fill="#ffffff" class="nc-icon-wrapper"><g transform="translate(0 0)"><path class="nc-icon-wrapper" d="M6 2.353A1.65 1.65 0 0 0 4.354 4.02v15.996a1.65 1.65 0 0 0 1.668 1.631h11.994a1.65 1.65 0 0 0 1.63-1.669V8.147l-5.792-5.794H6zm-.354 1.293h7.5l5.207 5.207v9.583l-2.648-2.649c.133-.202.27-.401.383-.616a4.577 4.577 0 0 0 .54-2.061 4.617 4.617 0 0 0-.957-2.925 5.066 5.066 0 0 0-.691-.726 4.585 4.585 0 0 0-2.29-1.053 4.581 4.581 0 0 0-2.262.227 4.755 4.755 0 0 0-1.969 1.36 4.59 4.59 0 0 0-1.11 3.115 4.555 4.555 0 0 0 1.412 3.181 4.467 4.467 0 0 0 1.886 1.131 4.675 4.675 0 0 0 2.736-.015c.44-.138.858-.344 1.24-.604l.174-.115 3.656 3.668H5.646V3.647zm6.354 6a3.299 3.299 0 0 1 1.854.563c.327.222.612.503.849.82.37.5.598 1.105.642 1.726a3.233 3.233 0 0 1-.251 1.518c-.18.428-.455.814-.792 1.132a3.387 3.387 0 0 1-1.773.904c-.693.118-1.422 0-2.042-.33a3.515 3.515 0 0 1-1.101-.913 3.317 3.317 0 0 1-.733-1.864 3.293 3.293 0 0 1 1.023-2.606A3.26 3.26 0 0 1 12 9.646z"></path></g></g></svg>