<svg width="64" height="64" viewBox="0 0 24 24"><title>file sync outline</title><g fill="#000000" class="nc-icon-wrapper"><g transform="translate(0 0)"><path d="M17 12l-2.2 2.2 2.2 2.2V15c1.4 0 2.5 1.1 2.5 2.5 0 .4-.1.8-.3 1.1l1.1 1.1c.4-.6.7-1.4.7-2.2 0-2.2-1.8-4-4-4zm-3.3 3.3c-.4.6-.7 1.4-.7 2.2 0 2.2 1.8 4 4 4V23l2.2-2.2-2.2-2.3V20c-1.4 0-2.5-1.1-2.5-2.5 0-.4.1-.8.3-1.1z" data-color="color-2"></path><path d="M6 2.353a1.653 1.653 0 0 0-1.646 1.684v15.984a1.653 1.653 0 0 0 1.689 1.626h6.033a8.198 8.198 0 0 1-.803-1.293H5.646V3.647h7.707v5h5v2.046c.437.066.874.143 1.293.282V8.147l-5.793-5.793H6z" fill="#ffffff"></path></g></g></svg>