<svg width="64" height="64" viewBox="0 0 24 24"><title>file replace outline</title><g fill="#ffffff" class="nc-icon-wrapper"><g transform="translate(0 0)"><path class="nc-icon-wrapper" d="M4 1.353a1.65 1.65 0 0 0-1.646 1.679v11.992a1.65 1.65 0 0 0 1.681 1.622h7.319v1.647L14.41 16l-3.056-2.293v1.646H3.647V2.646h9.5l-1.293-1.293H4zm4 4a1.65 1.65 0 0 0-1.646 1.679v5.614h1.293v-6h6.707v5h5v9.707H7.647v-2H6.354v1.687a1.651 1.651 0 0 0 1.68 1.606h10.99a1.65 1.65 0 0 0 1.623-1.681V10.146l-4.793-4.793H8z"></path></g></g></svg>