<svg width="64" height="64" viewBox="0 0 24 24"><title>file cabinet</title><g fill="#ffffff" class="nc-icon-wrapper"><g transform="translate(0 0)"><path class="nc-icon-wrapper" d="M6 2.353A1.65 1.65 0 0 0 4.354 4.02v15.997a1.645 1.645 0 0 0 1.582 1.63c.223.002.445 0 .668 0h11.412a1.645 1.645 0 0 0 1.629-1.582c.003-.222 0-.445.001-.667V3.985a1.65 1.65 0 0 0-1.668-1.63H6zm-.354 1.293h12.707v7.707H5.646V3.647zm4.707 2.707v1.293h3.293V6.353h-3.293zm-4.707 6.293h12.707v7.707H5.646v-7.707zm4.707 2.707v1.294h3.293v-1.293h-3.293z"></path></g></g></svg>