<svg width="64" height="64" data-color="color-2" viewBox="0 0 24 24"><title>file eye outline</title><g fill="#000000" class="nc-icon-wrapper"><g transform="translate(0 0)"><path d="M6 2.353a1.65 1.65 0 0 0-1.646 1.67v15.993a1.65 1.65 0 0 0 1.672 1.63h3.761a8.506 8.506 0 0 1-.742-1.293H5.646V3.646h7.707v5h5v4.12c.438.067.871.165 1.293.298V8.146l-5.793-5.793H6z" fill="#ffffff"></path><path d="M17 15c-2.73 0-5.06 1.66-6 4 .94 2.34 3.27 4 6 4s5.06-1.66 6-4c-.94-2.34-3.27-4-6-4zm0 1.5a2.5 2.5 0 0 1 2.5 2.5 2.5 2.5 0 0 1-2.5 2.5 2.5 2.5 0 0 1-2.5-2.5 2.5 2.5 0 0 1 2.5-2.5zm-.026 1.5A.99.99 0 0 0 16 19c0 .56.44 1 1 1s1-.44 1-1-.44-1-1-1h-.026z" data-color="color-2"></path></g></g></svg>