<svg height="64" width="64" viewBox="0 0 20 20"><title>file_text</title><g fill="#000000" class="nc-icon-wrapper"><g transform="translate(0 0)"><path d="M10.492 4a.5.5 0 1 0 0 1h6a.5.5 0 1 0 0-1zm0 3a.5.5 0 1 0 0 1h6a.5.5 0 1 0 0-1zm0 3a.5.5 0 1 0 0 1h6a.5.5 0 1 0 0-1zm-7 3a.5.5 0 1 0 0 1h13a.5.5 0 1 0 0-1zm-.014 3a.5.5 0 1 0 0 1h13.045a.5.5 0 1 0 0-1z" data-color="color-2"></path><path d="M3.484 11a.5.5 0 0 1-.492-.508V5.404c0-.866.488-1.664 1.258-2.088a2.574 2.574 0 0 1 2.478 0 2.396 2.396 0 0 1 1.256 2.088v5.088c.01.676-1.01.676-1 0V8H3.992v2.492a.503.503 0 0 1-.508.508zm.508-4h2.992V5.404c0-.493-.273-.954-.738-1.21a1.586 1.586 0 0 0-1.514 0c-.465.256-.74.717-.74 1.21z" fill="#ffffff"></path></g></g></svg>