<svg width="64" height="64" viewBox="0 0 24 24"><title>file clock outline</title><g fill="#000000" class="nc-icon-wrapper"><g transform="translate(0 0)"><path d="M15 12v5l3.61 2.16.75-1.22-2.86-1.69V12z" data-color="color-2"></path><path d="M4 2.355a1.653 1.653 0 0 0-1.491.95c-.13.266-.164.566-.154.859v15.879c.009.639.43 1.245 1.024 1.48.258.113.542.13.82.122h8.31a6.657 6.657 0 0 0 3.833.992 6.634 6.634 0 0 0 4.2-1.785 6.642 6.642 0 0 0 2.077-4.257 6.642 6.642 0 0 0-4.836-6.99c-.041-.022-.123-.014-.137-.058v-1.4l-5.792-5.792H4zm-.355 1.29h7.71v5H16v.71a6.623 6.623 0 0 0-4.195 1.492 6.646 6.646 0 0 0-2.383 4.203 6.653 6.653 0 0 0 .932 4.449c.184.292.39.57.586.856H3.646V3.645zm12.355 7a5.349 5.349 0 0 1 5.345 5.045 5.345 5.345 0 0 1-1.213 3.716 5.356 5.356 0 0 1-9.453-2.808 5.358 5.358 0 0 1 4.555-5.898c.253-.036.51-.054.766-.054z" fill="#ffffff"></path></g></g></svg>