<svg height="64" width="64" viewBox="0 0 20 20"><title>file_sound</title><g fill="#ffffff" class="nc-icon-wrapper"><g transform="translate(0 0)"><path d="M7.5 3a.5.5 0 0 0-.5.5v9.64c-.566-.207-1.286-.18-1.982.073-1.355.496-2.238 1.699-1.971 2.685.266.988 1.58 1.385 2.935.89 1.108-.407 1.932-1.304 2.01-2.188L7.998 6H16v6.14c-.566-.207-1.286-.18-1.982.073-1.355.496-2.238 1.699-1.971 2.685.266.988 1.58 1.385 2.935.89 1.108-.407 1.932-1.304 2.01-2.188L17 3.5a.5.5 0 0 0-.5-.5z" class="nc-icon-wrapper"></path></g></g></svg>