<svg width="64" height="64" viewBox="0 0 24 24"><title>file search outline</title><g fill="#000000" class="nc-icon-wrapper"><g transform="translate(0 0)"><path d="M16.578 11.988a4.514 4.514 0 0 0-3.888 2.092c-1.34 2.11-.69 4.89 1.4 6.22a4.5 4.5 0 0 0 4.79.02L22 23.39 23.39 22l-3.08-3.1c1.33-2.11.69-4.9-1.4-6.22a4.479 4.479 0 0 0-2.332-.692zM16.5 14a2.5 2.5 0 0 1 2.5 2.5 2.5 2.5 0 0 1-2.5 2.5 2.5 2.5 0 0 1-2.5-2.5 2.5 2.5 0 0 1 2.5-2.5z" data-color="color-2"></path><path d="M6 2.353a1.65 1.65 0 0 0-1.646 1.67v15.993a1.65 1.65 0 0 0 1.672 1.63h5.9a6.004 6.004 0 0 1-.907-.99c-.073-.099-.143-.2-.21-.302H5.646V3.647h7.707v5h5v1.261c.446.12.882.277 1.293.485V8.147l-5.793-5.793H6z" fill="#ffffff"></path></g></g></svg>