<svg width="64" height="64" viewBox="0 0 24 24"><title>file excel outline</title><g fill="#000000" class="nc-icon-wrapper"><g transform="translate(0 0)"><path d="M12.9 14.5l2.9 4.5H14l-2-3.4-2 3.4H8.2l2.9-4.5L8.2 10H10l2 3.4 2-3.4h1.8z" data-color="color-2"></path><path d="M6 2.355a1.652 1.652 0 0 0-1.467.9 1.74 1.74 0 0 0-.179.878v15.899a1.65 1.65 0 0 0 .862 1.415c.276.154.596.21.91.198h11.922a1.653 1.653 0 0 0 1.444-.95c.126-.26.164-.55.154-.836V8.147l-5.792-5.792H6zm-.354 1.29h7.708v5h5v11.71H5.647V3.645z" fill="#ffffff"></path></g></g></svg>