<svg width="64" height="64" viewBox="0 0 24 24"><title>file certificate outline</title><g fill="#000000" class="nc-icon-wrapper"><g transform="translate(0 0)"><path d="M14 13v-2l-2 1-2-1v2l-2 1 2 1v2l2-1 2 1v-2l2-1z" fill="#ffffff"></path><path d="M10 11v2l-2 1 2 1v2l2-1 2 1v-2l2-1-2-1v-2l-2 1zm0 7v5l2-1 2 1v-5z" data-color="color-2"></path><path d="M14 13v-2l-2 1-2-1v2l-2 1 2 1v2l2-1 2 1v-2l2-1" data-color="color-2"></path><path d="M7 2.355a1.651 1.651 0 0 0-1.645 1.751v13.936a1.653 1.653 0 0 0 1.758 1.604h.533v-1.292h-1V3.644h6.708v4.001h4v10.71h-1v1.29c.265-.002.53.007.794-.006a1.654 1.654 0 0 0 1.375-1.018c.104-.242.13-.507.122-.768V7.146l-4.791-4.791H7z" fill="#ffffff"></path></g></g></svg>