<svg width="64" height="64" viewBox="0 0 24 24"><title>file cog outline</title><g fill="#000000" class="nc-icon-wrapper"><g transform="translate(0 0)"><path d="M18 14a.26.26 0 0 0-.26.21l-.19 1.32c-.3.13-.59.29-.85.47l-1.24-.5c-.11 0-.24 0-.31.13l-1 1.73c-.06.11-.04.24.06.32l1.06.82a4.193 4.193 0 0 0 0 1l-1.06.82a.26.26 0 0 0-.06.32l1 1.73c.06.13.19.13.31.13l1.24-.5c.26.18.54.35.85.47l.19 1.32c.02.12.12.21.26.21h2c.11 0 .22-.09.24-.21l.19-1.32c.3-.13.57-.29.84-.47l1.23.5c.13 0 .26 0 .33-.13l1-1.73a.26.26 0 0 0-.06-.32l-1.07-.82c.02-.17.04-.33.04-.5 0-.17-.01-.33-.04-.5l1.06-.82a.26.26 0 0 0 .06-.32l-1-1.73c-.06-.13-.19-.13-.32-.13l-1.23.5a4.39 4.39 0 0 0-.85-.47l-.19-1.32A.236.236 0 0 0 20 14zm1 3.5c.83 0 1.5.67 1.5 1.5s-.67 1.5-1.5 1.5c-.84 0-1.5-.67-1.5-1.5s.67-1.5 1.5-1.5z" data-color="color-2"></path><path d="M6 2.355a1.654 1.654 0 0 0-1.487.941c-.13.262-.169.558-.159.847v15.89a1.65 1.65 0 0 0 .88 1.423c.272.149.586.202.894.19h5.517v-1.291h-6V3.645h7.71v5h5v3h1.29V8.147l-5.791-5.792H6z" fill="#ffffff"></path></g></g></svg>