<svg width="64" height="64" viewBox="0 0 24 24"><title>file document edit outline</title><g fill="#000000" class="nc-icon-wrapper"><g transform="translate(0 0)"><path d="M20.2 13c-.2 0-.3.1-.4.2l-1 1 2.1 2.1 1-1c.2-.2.2-.6 0-.8l-1.3-1.3c-.1-.1-.3-.2-.4-.2zm-2.1 1.8L12 20.9V23h2.1l6.1-6.1z" data-color="color-2"></path><path d="M6 2.355a1.653 1.653 0 0 0-1.474.914 1.745 1.745 0 0 0-.172.866v15.908c.01.611.395 1.195.951 1.448.258.125.547.164.83.154h3.51v-1.29h-4V3.645h7.71v5h5v2.6l1.29-1.292V8.146l-5.791-5.791H6zm2.355 10v1.29h7.29v-1.29h-7.29zm0 4v1.29h3.599l.691-.692v-.599h-4.29z" fill="#ffffff"></path></g></g></svg>