<svg height="64" width="64" viewBox="0 0 20 20"><title>file_volume</title><g fill="#ffffff" class="nc-icon-wrapper"><g transform="translate(0 0)"><path d="M3.992 5.992A.5.5 0 0 0 3.5 6.5v7a.5.5 0 1 0 1 0v-7a.5.5 0 0 0-.508-.508zm2 1A.5.5 0 0 0 5.5 7.5v7a.5.5 0 1 0 1 0v-7a.5.5 0 0 0-.508-.508zm2 1A.5.5 0 0 0 7.5 8.5v7a.5.5 0 1 0 1 0v-7a.5.5 0 0 0-.508-.508zm2 1A.5.5 0 0 0 9.5 9.5v7a.5.5 0 1 0 1 0v-7a.5.5 0 0 0-.508-.508z"></path><path d="M5.994 4.992a.5.5 0 0 0-.494.506v.25a.5.5 0 1 0 1 .004v-.25a.5.5 0 0 0-.506-.51zm2 1a.5.5 0 0 0-.494.506l-.002.25a.5.5 0 1 0 1 .004l.002-.25a.5.5 0 0 0-.506-.51zm2 1a.5.5 0 0 0-.494.506l-.002.25a.5.5 0 1 0 1 .004l.002-.25a.5.5 0 0 0-.506-.51zm1.998 1a.5.5 0 0 0-.492.508v7a.5.5 0 1 0 1 0v-7a.5.5 0 0 0-.508-.508z"></path><path d="M7.994 3.992a.5.5 0 0 0-.494.506v.25a.5.5 0 1 0 1 .004v-.25a.5.5 0 0 0-.506-.51zm2 1a.5.5 0 0 0-.494.506l-.002.25a.5.5 0 1 0 1 .004l.002-.25a.5.5 0 0 0-.506-.51zm2 1a.5.5 0 0 0-.494.506l-.002.25a.5.5 0 1 0 1 .004l.002-.25a.5.5 0 0 0-.506-.51zm1.998 1a.5.5 0 0 0-.492.508v7a.5.5 0 1 0 1 0v-7a.5.5 0 0 0-.508-.508z"></path><path d="M9.994 2.992a.5.5 0 0 0-.494.506v.25a.5.5 0 1 0 1 .004v-.25a.5.5 0 0 0-.506-.51zm2 1a.5.5 0 0 0-.494.506l-.002.25a.5.5 0 1 0 1 .004l.002-.25a.5.5 0 0 0-.506-.51zm2 1a.5.5 0 0 0-.494.506l-.002.25a.5.5 0 1 0 1 .004l.002-.25a.5.5 0 0 0-.506-.51zm1.998 1a.5.5 0 0 0-.492.508v7a.5.5 0 1 0 1 0v-7a.5.5 0 0 0-.508-.508z"></path></g></g></svg>