<svg height="64" width="64" viewBox="0 0 20 20"><title>file_blend</title><g fill="#000000" class="nc-icon-wrapper"><g transform="translate(0 0)"><path d="M11.186 3.269a1 1 0 0 0-.729-.274c-.895.04-1.29 1.146-.623 1.744l1.373 1.266H4.51c-1.361-.028-1.361 2.028 0 2h3.092l-.008.006-4.75 4.248c-.995.89.339 2.382 1.334 1.492l2.34-2.094c.082 2.956 2.518 5.348 5.492 5.348 3.026 0 5.498-2.474 5.498-5.5a5.48 5.48 0 0 0-1.722-3.984zm.824 4.736c1.945 0 3.5 1.555 3.5 3.5s-1.555 3.5-3.5 3.5a3.485 3.485 0 0 1-3.5-3.5c0-1.945 1.555-3.5 3.5-3.5z" fill="#ffffff"></path><path d="M13.723 11.504a1.732 1.714 0 0 1-1.732 1.714 1.732 1.714 0 0 1-1.731-1.714 1.732 1.714 0 0 1 1.731-1.715 1.732 1.714 0 0 1 1.732 1.715z" data-color="color-2"></path></g></g></svg>