<svg width="64" height="64" viewBox="0 0 24 24"><title>file key outline</title><g fill="#000000" class="nc-icon-wrapper"><g transform="translate(0 0)"><path d="M10.138 13.004A3 3 0 1 0 12.83 17H14v2h2v-2h1v-2h-4.17a3 3 0 0 0-2.692-1.997zM10 15a1 1 0 0 1 1 1 1 1 0 0 1-1 1 1 1 0 1 1 0-2z" data-color="color-2"></path><path d="M6 2.355a1.652 1.652 0 0 0-1.467.9 1.74 1.74 0 0 0-.179.878v15.91c.01.604.387 1.182.933 1.44.262.13.557.173.847.162h11.914a1.653 1.653 0 0 0 1.446-.955c.124-.258.162-.547.152-.831V8.147l-5.792-5.792H6zm-.354 1.29h7.708v5h5v11.71H5.647V3.645z" fill="#ffffff"></path></g></g></svg>