<svg width="64" height="64" viewBox="0 0 24 24"><title>file image outline</title><g fill="#000000" class="nc-icon-wrapper"><g transform="translate(0 0)"><path d="M8.5 9A1.5 1.5 0 0 0 7 10.5 1.5 1.5 0 0 0 8.5 12a1.5 1.5 0 0 0 1.5-1.5A1.5 1.5 0 0 0 8.5 9zm8.5 4l-3 3-2-2-5 5h10z" data-color="color-2"></path><path d="M6 2.355a1.652 1.652 0 0 0-1.467.9 1.74 1.74 0 0 0-.179.878v15.91c.01.604.387 1.182.933 1.44.262.13.557.173.847.162h11.914a1.653 1.653 0 0 0 1.446-.955c.124-.258.162-.547.152-.831V8.147l-5.792-5.792H6zm-.354 1.29h7.708v5h5v11.71H5.647V3.645z" fill="#ffffff"></path></g></g></svg>