<svg width="64" height="64" data-color="color-2" viewBox="0 0 24 24"><title>file refresh outline</title><g fill="#000000" class="nc-icon-wrapper"><g transform="translate(0 0)"><path d="M6 2.353a1.652 1.652 0 0 0-1.646 1.684v15.984a1.653 1.653 0 0 0 1.689 1.625H12.4a7.19 7.19 0 0 1-.5-1.293H5.647V3.646h7.707v5h5v3a7.39 7.39 0 0 1 1.293.096V8.146l-5.793-5.793H6z" fill="#ffffff"></path><path d="M18 14.5c1.11 0 2.11.45 2.83 1.17L22 14.5v4h-4l1.77-1.77A2.5 2.5 0 1 0 20 20h1.71A3.991 3.991 0 0 1 18 22.5c-2.21 0-4-1.79-4-4s1.79-4 4-4" data-color="color-2"></path></g></g></svg>