<svg width="64" height="64" data-color="color-2" viewBox="0 0 24 24"><title>file link outline</title><g fill="#000000" class="nc-icon-wrapper"><g transform="translate(0 0)"><path d="M10.75 11.5c-1.3 0-3.75.78-3.75 3.75S9.45 19 10.75 19H11v-1.5h-.25c-.25 0-2.25-.06-2.25-2.25 0-2.12 1.88-2.25 2.25-2.25H11v-1.5zm2.25 0V13h.25c.25 0 2.25.06 2.25 2.25 0 2.12-1.88 2.25-2.25 2.25H13V19h.25c1.3 0 3.75-.78 3.75-3.75s-2.45-3.75-3.75-3.75zm-3 3V16h4v-1.5z" data-color="color-2"></path><path d="M6 2.355a1.652 1.652 0 0 0-1.467.9 1.74 1.74 0 0 0-.179.878v15.899a1.65 1.65 0 0 0 .862 1.415c.276.154.596.21.91.198h11.922a1.653 1.653 0 0 0 1.444-.95c.126-.26.164-.55.154-.836V8.147l-5.792-5.792H6zm-.354 1.29h7.708v5h5v11.71H5.647V3.645z" fill="#ffffff"></path></g></g></svg>