<svg width="64" height="64" viewBox="0 0 24 24"><title>filter remove outline</title><g fill="#000000" class="nc-icon-wrapper"><g transform="translate(0 0)"><path d="M3 3.354a.664.664 0 0 0-.636.547.668.668 0 0 0 .173.562l4.817 6.164c0 1.757.002 3.515 0 5.272a.656.656 0 0 0 .23.593c1.33 1.33 2.659 2.661 3.99 3.99a.648.648 0 0 0 .874-.011.618.618 0 0 0 .198-.575v-9.269L17.52 4.39a.65.65 0 0 0-.102-.874.701.701 0 0 0-.495-.16H3zm1.313 1.292h11.375l-4.333 5.527v8.263l-2.71-2.71v-5.545L4.312 4.646z" fill="#ffffff"></path><path d="M16.152 14.258l-.918.912L18.082 18l-2.848 2.83.916.91 2.852-2.841 2.8 2.84.916-.91L19.91 18l2.808-2.828-.916-.91-2.8 2.809-2.85-2.813z" data-color="color-2"></path></g></g></svg>