<svg width="64" height="64" viewBox="0 0 24 24"><title>filter off outline</title><g fill="#ffffff" class="nc-icon-wrapper"><g transform="translate(0 0)"><path class="nc-icon-wrapper" d="M2.389 2.232l-.778.77 7.743 7.742v5.152a.651.651 0 0 0 .157.524c.17.173.343.344.515.516l3.532 3.532c.181.18.472.23.705.128a.711.711 0 0 0 .289-.24.647.647 0 0 0 .095-.452v-3.869l6.193 6.196.77-.77-6.963-6.965c-.002-.019-.026-.029-.037-.044l-1.934-1.924c-.69-.695-1.381-1.39-2.073-2.083L3.83 3.68 2.39 2.232zm4.674 1.121l1.285 1.294h9.341l-4.107 5.236 1.065 1.064v-.318c1.624-2.08 3.249-4.16 4.873-6.242a.64.64 0 0 0 .047-.682.663.663 0 0 0-.307-.287.637.637 0 0 0-.322-.064H7.062zm3.584 8.682l2.706 2.71v3.69l-2.706-2.709v-3.69z"></path></g></g></svg>