<svg width="64" height="64" viewBox="0 0 24 24"><title>filter minus outline</title><g fill="#000000" class="nc-icon-wrapper"><g transform="translate(0 0)"><path d="M3 3.354a.664.664 0 0 0-.636.547.668.668 0 0 0 .173.562l4.817 6.164c0 1.757.002 3.515 0 5.272a.656.656 0 0 0 .23.593c1.328 1.328 2.655 2.657 3.984 3.984.24.233.655.223.892-.008.161-.142.216-.372.186-.579v-9.262L17.52 4.39a.65.65 0 0 0-.102-.874.701.701 0 0 0-.495-.16H3zm1.313 1.292h11.375l-4.333 5.527v8.263l-2.71-2.71v-5.535L4.313 4.646z" fill="#ffffff"></path><path d="M15.354 17.354v1.293h7.293v-1.293h-7.293z" data-color="color-2"></path></g></g></svg>