<svg width="64" height="64" viewBox="0 0 24 24"><title>filter outline</title><g fill="#ffffff" class="nc-icon-wrapper"><g transform="translate(0 0)"><path class="nc-icon-wrapper" d="M5 3.353a.69.69 0 0 0-.423.17.652.652 0 0 0-.106.853c.104.137.211.271.317.407l4.566 5.846v5.264a.644.644 0 0 0 .096.446c.056.086.135.151.205.225l3.908 3.908a.65.65 0 0 0 .922-.035.62.62 0 0 0 .162-.528V10.628l4.868-6.234a.641.641 0 0 0-.204-.949.624.624 0 0 0-.35-.092H5zm1.313 1.293H17.69l-4.336 5.53v8.26l-2.707-2.71v-5.542L6.313 4.647z"></path></g></g></svg>