<svg width="64" height="64" viewBox="0 0 24 24"><title>filter menu outline</title><g fill="#000000" class="nc-icon-wrapper"><g transform="translate(0 0)"><path d="M13.854 16.354L18 20.5l4.147-4.146h-8.293z" data-color="color-2"></path><path d="M2 2.355a.656.656 0 0 0-.646.634.692.692 0 0 0 .192.485l4.809 6.154v5.264a.666.666 0 0 0 .233.604l3.977 3.978c.24.234.663.226.895-.015a.66.66 0 0 0 .185-.572v-9.26l4.876-6.238a.65.65 0 0 0-.107-.88.694.694 0 0 0-.506-.154H2zm1.268 1.29h11.465l-4.379 5.527v8.263l-2.708-2.708V9.183L3.268 3.645z" fill="#ffffff"></path></g></g></svg>