<svg width="64" height="64" viewBox="0 0 24 24"><title>folder edit outline</title><g fill="#000000" class="nc-icon-wrapper"><g transform="translate(0 0)"><path d="M3 4.354a1.646 1.646 0 0 0-1.17.495c-.307.31-.486.746-.477 1.185v11.982a1.65 1.65 0 0 0 1.67 1.63h7.623v-1.293h-8V7.646h16.707v1.61l1.282-1.282a1.662 1.662 0 0 0-.491-1.15 1.612 1.612 0 0 0-.868-.447c-.18-.033-.364-.021-.546-.024h-7.877l-2-2H3z" fill="#ffffff"></path><path d="M21 11.11c-.08 0-.28.1-.38.2l-1 1 2.1 2.11 1-1.01c.2-.2.2-.6 0-.8l-1.3-1.3c-.1-.1-.2-.2-.42-.2zm-1.88 1.8L13 18.92V21h2.12l6.1-6.08z" data-color="color-2"></path></g></g></svg>