<svg width="64" height="64" data-color="color-2" viewBox="0 0 24 24"><title>folder refresh outline</title><g fill="#000000" class="nc-icon-wrapper"><g transform="translate(0 0)"><path d="M4 4.354a1.645 1.645 0 0 0-1.645 1.582c-.003.232 0 .463-.002.695v11.393a1.65 1.65 0 0 0 1.673 1.622h7.716a7.185 7.185 0 0 1-.096-1.255c-.003-.013.01-.045-.014-.038H3.646V7.646h16.707v4.256c.445.126.88.289 1.293.496V7.976a1.65 1.65 0 0 0-1.672-1.622h-8.12l-2-2H4z" fill="#ffffff"></path><path d="M18 14.5c1.11 0 2.11.45 2.83 1.17L22 14.5v4h-4l1.77-1.77A2.5 2.5 0 1 0 20 20h1.71A3.991 3.991 0 0 1 18 22.5c-2.21 0-4-1.79-4-4s1.79-4 4-4" data-color="color-2"></path></g></g></svg>