<svg width="64" height="64" viewBox="0 0 24 24"><title>folder account outline</title><g fill="#000000" class="nc-icon-wrapper"><g transform="translate(0 0)"><path d="M4 4.354a1.653 1.653 0 0 0-1.447.862c-.152.274-.21.591-.198.902v11.93c.011.606.391 1.184.941 1.44.261.128.556.168.844.158h15.892a1.65 1.65 0 0 0 1.415-.862c.154-.276.211-.596.198-.91V7.953a1.653 1.653 0 0 0-.941-1.44 1.762 1.762 0 0 0-.844-.159h-8.006l-2-2H4zm-.355 3.292h16.71v10.708H3.645V7.646z" fill="#ffffff"></path><path d="M15 9a2 2 0 1 0 0 4c1.11 0 2-.89 2-2s-.89-2-2-2zm0 5c-1.33 0-4 .67-4 2v1h8v-1c0-1.33-2.67-2-4-2z" data-color="color-2"></path></g></g></svg>