<svg width="64" height="64" viewBox="0 0 24 24"><title>folder music outline</title><g fill="#000000" class="nc-icon-wrapper"><g transform="translate(0 0)"><path d="M18 9v2h-2v4c0 1.11-.89 2-2 2a2 2 0 1 1 0-4c.17 0 .34 0 .5.06V9z" data-color="color-2"></path><path d="M4 4.354a1.649 1.649 0 0 0-1.645 1.764v11.93c.011.606.391 1.184.941 1.44.261.128.556.168.844.158l15.902-.001a1.658 1.658 0 0 0 1.481-1.025c.107-.247.13-.517.122-.783V7.952a1.653 1.653 0 0 0-.941-1.44 1.762 1.762 0 0 0-.845-.158h-8.005l-2-2H4zm-.355 3.292h16.71v10.708H3.645V7.646z" fill="#ffffff"></path></g></g></svg>