<svg width="64" height="64" viewBox="0 0 24 24"><title>folder search outline</title><g fill="#000000" class="nc-icon-wrapper"><g transform="translate(0 0)"><path d="M3 4.354a1.645 1.645 0 0 0-1.645 1.582c-.003.234 0 .467-.002.7v11.388a1.65 1.65 0 0 0 1.673 1.622H10.4a7.19 7.19 0 0 1-.5-1.293H2.646V7.646h16.707v2.623c.459.21.893.472 1.293.777V7.968a1.65 1.65 0 0 0-1.675-1.615h-8.117l-2-2H3z" fill="#ffffff"></path><path d="M16.5 12C14 12 12 14 12 16.5s2 4.5 4.5 4.5c.87 0 1.69-.25 2.38-.68L22 23.39 23.39 22l-3.08-3.1c.44-.69.69-1.52.69-2.4 0-2.5-2-4.5-4.5-4.5zm0 2a2.5 2.5 0 0 1 2.5 2.5 2.5 2.5 0 0 1-2.5 2.5 2.5 2.5 0 0 1-2.5-2.5 2.5 2.5 0 0 1 2.5-2.5z" data-color="color-2"></path></g></g></svg>