<svg width="64" height="64" viewBox="0 0 24 24"><title>folder cog outline</title><g fill="#000000" class="nc-icon-wrapper"><g transform="translate(0 0)"><path d="M18 14a.26.26 0 0 0-.26.21l-.19 1.32c-.3.13-.59.29-.85.47l-1.24-.5c-.11 0-.24 0-.31.13l-1 1.73c-.06.11-.04.24.06.32l1.06.82a4.193 4.193 0 0 0 0 1l-1.06.82a.26.26 0 0 0-.06.32l1 1.73c.06.13.19.13.31.13l1.24-.5c.26.18.54.35.85.47l.19 1.32c.02.12.12.21.26.21h2c.11 0 .22-.09.24-.21l.19-1.32c.3-.13.57-.29.84-.47l1.23.5c.13 0 .26 0 .33-.13l1-1.73a.26.26 0 0 0-.06-.32l-1.07-.82c.02-.17.04-.33.04-.5 0-.17-.01-.33-.04-.5l1.06-.82a.26.26 0 0 0 .06-.32l-1-1.73c-.06-.13-.19-.13-.32-.13l-1.23.5a4.39 4.39 0 0 0-.85-.47l-.19-1.32A.236.236 0 0 0 20 14zm1 3.5c.83 0 1.5.67 1.5 1.5s-.67 1.5-1.5 1.5c-.84 0-1.5-.67-1.5-1.5s.67-1.5 1.5-1.5z" data-color="color-2"></path><path d="M4 4.354a1.649 1.649 0 0 0-1.645 1.767v11.927c.011.626.418 1.222.996 1.464.253.114.533.142.807.134h7.488v-1.292h-8V7.646h16.709v4h1.29c0-1.237.002-2.473 0-3.71a1.655 1.655 0 0 0-1.023-1.46c-.248-.106-.52-.13-.788-.122h-7.98l-2-2H4z" fill="#ffffff"></path></g></g></svg>