<svg width="64" height="64" viewBox="0 0 24 24"><title>folder multiple outline</title><g fill="#ffffff" class="nc-icon-wrapper"><g transform="translate(0 0)"><path class="nc-icon-wrapper" d="M6 2.353a1.63 1.63 0 0 0-.98.329c-.396.292-.653.769-.666 1.262-.002.406 0 .811 0 1.217v10.863c.003.373.143.74.382 1.025.296.36.75.587 1.216.597.603.002 1.206 0 1.809 0h14.263c.373-.002.74-.143 1.025-.381a1.65 1.65 0 0 0 .597-1.217v-1.809-8.263a1.637 1.637 0 0 0-.382-1.025 1.65 1.65 0 0 0-1.216-.597h-8.195l-2-2H6zm-.354 3.293h16.707v10.707H5.646V5.646zm-5.293.708v13.67c.003.372.144.74.383 1.025.296.359.75.586 1.216.596.603.002 1.206 0 1.809.001h15.886v-1.293h-18v-14H.354z"></path></g></g></svg>