<svg width="64" height="64" data-color="color-2" viewBox="0 0 24 24"><title>folder pound outline</title><g fill="#000000" class="nc-icon-wrapper"><g transform="translate(0 0)"><path d="M14 9l-.5 2H12v1h1.25l-.5 2H11v1h1.5l-.5 2h1l.5-2h2l-.5 2h1l.5-2H18v-1h-1.25l.5-2H19v-1h-1.5l.5-2h-1l-.5 2h-2l.5-2zm.25 3h2l-.5 2h-2z" data-color="color-2"></path><path d="M4 4.354a1.649 1.649 0 0 0-1.645 1.764v11.93c.011.606.391 1.184.941 1.44.261.128.556.168.844.158l15.903-.001a1.653 1.653 0 0 0 1.602-1.771V7.953a1.653 1.653 0 0 0-.941-1.44 1.762 1.762 0 0 0-.844-.159h-8.006l-2-2H4zm-.355 3.292h16.71v10.708H3.645V7.646z" fill="#ffffff"></path></g></g></svg>