<svg width="64" height="64" viewBox="0 0 24 24"><title>folder information outline</title><g fill="#000000" class="nc-icon-wrapper"><g transform="translate(0 0)"><path d="M15 12v2h2v-2zm0 3v5h2v-5z" data-color="color-2"></path><path d="M3 4.354A1.659 1.659 0 0 0 1.477 5.38c-.115.259-.13.544-.123.822v11.84A1.66 1.66 0 0 0 2.45 19.55c.324.127.675.09 1.014.095h6.925a6.254 6.254 0 0 0 1.886 1.902 6.864 6.864 0 0 0 5.335.906 6.599 6.599 0 0 0 3.847-2.634c1.131-1.61 1.489-3.739.928-5.627-.324-1.109-.944-2.12-1.74-2.954 0-1.1.002-2.201 0-3.301a1.66 1.66 0 0 0-1.12-1.496c-.328-.121-.68-.08-1.023-.087h-7.648l-2-2H3zm-.354 3.292h16.708v2.656c-.438-.241-.869-.504-1.35-.653-.856-.28-1.774-.341-2.668-.263a6.618 6.618 0 0 0-4.13 1.988 6.625 6.625 0 0 0-1.837 4.174c-.054.852.038 1.72.329 2.524l.094.283H2.645V7.645zm13.354 3a5.36 5.36 0 0 1 3.52 1.292 5.31 5.31 0 0 1 1.798 3.423c.155 1.321-.178 2.7-.959 3.782a5.294 5.294 0 0 1-3.368 2.123c-1.383.252-2.866-.035-4.029-.834a5.29 5.29 0 0 1-2.189-3.243c-.308-1.4-.058-2.923.728-4.127a5.286 5.286 0 0 1 3.281-2.282c.4-.09.809-.134 1.218-.134z" fill="#ffffff"></path></g></g></svg>