<svg width="64" height="64" viewBox="0 0 24 24"><title>folder network outline</title><g fill="#ffffff" class="nc-icon-wrapper"><g transform="translate(0 0)"><path class="nc-icon-wrapper" d="M5 3.353a1.653 1.653 0 0 0-1.646 1.69v9.98a1.65 1.65 0 0 0 1.68 1.623h6.32v2.707l-1.379.001a.655.655 0 0 0-.621.718v.281h-7v1.293h7c0 .135-.003.269.002.403a.655.655 0 0 0 .446.565c.122.044.253.03.38.032h3.835a.655.655 0 0 0 .63-.715v-.285h7v-1.293h-7c-.002-.134.002-.268-.003-.402a.655.655 0 0 0-.446-.565c-.122-.044-.253-.03-.38-.033h-1.171v-2.707h6.377a1.645 1.645 0 0 0 1.615-1.488c.013-.15.006-.302.008-.453V6.976a1.65 1.65 0 0 0-1.681-1.623h-6.112l-2-2H5zm-.354 3.293h14.707v8.707H4.646V6.646z"></path></g></g></svg>