<svg width="64" height="64" data-color="color-2" viewBox="0 0 24 24"><title>folder sync outline</title><g fill="#000000" class="nc-icon-wrapper"><g transform="translate(0 0)"><path d="M19 12c-2.15 2.13-2.22 2.17-2.28 2.22L19 16.5V15a2.5 2.5 0 0 1 2.5 2.5c0 .4-.09.78-.26 1.12l1.09 1.09c.42-.63.67-1.39.67-2.21a4 4 0 0 0-4-4zm-3.33 3.29c-.42.63-.67 1.39-.67 2.21a4 4 0 0 0 4 4V23c2.15-2.13 2.22-2.17 2.28-2.22L19 18.5V20a2.5 2.5 0 0 1-2.5-2.5c0-.4.09-.78.26-1.12z" data-color="color-2"></path><path d="M4 4.354a1.645 1.645 0 0 0-1.645 1.582c-.003.232 0 .463-.002.695v11.393a1.65 1.65 0 0 0 1.673 1.622h8.964a7.418 7.418 0 0 1-.299-1.293H3.646V7.646h16.707v3.045c.439.062.873.159 1.293.3V7.967a1.65 1.65 0 0 0-1.672-1.615h-8.12l-2-2H4z" fill="#ffffff"></path></g></g></svg>