<svg width="64" height="64" viewBox="0 0 24 24"><title>folder key network outline</title><g fill="#000000" class="nc-icon-wrapper"><g transform="translate(0 0)"><path d="M5 3.354A1.659 1.659 0 0 0 3.477 4.38c-.114.259-.13.543-.122.82v9.832c.003.657.446 1.28 1.061 1.507.286.12.598.108.902.107h6.037v2.708c-.468.001-.937-.002-1.405.002a.656.656 0 0 0-.596.694v.305h-7v1.29h7c.008.19-.023.385.037.568a.662.662 0 0 0 .675.433l3.967-.001c.348-.01.64-.341.613-.687v-.313h7v-1.29h-7c-.008-.19.023-.385-.037-.568a.662.662 0 0 0-.676-.433h-1.288v-2.708c2.14-.001 4.279.001 6.418-.001a1.652 1.652 0 0 0 1.49-1.098c.128-.339.085-.703.093-1.057l-.001-7.532a1.653 1.653 0 0 0-1.024-1.481c-.267-.118-.56-.128-.847-.122h-5.92l-2-2H5zm-.354 3.291h14.708v8.71H4.646v-8.71z" fill="#ffffff"></path><path d="M9 8c-1.66 0-3 1.34-3 3s1.34 3 3 3c1.31 0 2.42-.83 2.83-2H14v2h2v-2h1v-2h-5.17A2.99 2.99 0 0 0 9 8zm0 2c.55 0 1 .45 1 1s-.45 1-1 1-1-.45-1-1 .45-1 1-1z" data-color="color-2"></path></g></g></svg>