<svg width="64" height="64" viewBox="0 0 24 24"><title>folder open outline</title><g fill="#ffffff" class="nc-icon-wrapper"><g transform="translate(0 0)"><path class="nc-icon-wrapper" d="M4 4.354a1.65 1.65 0 0 0-1.647 1.67v12a1.65 1.65 0 0 0 1.676 1.623h14.988a1.62 1.62 0 0 0 1.123-.468c.144-.142.26-.313.334-.5.055-.126.08-.261.118-.392l2.144-7.933H6.373L4.342 18.09 3.647 18V7.648H20.5c-.102-.41-.335-.795-.684-1.039a1.373 1.373 0 0 0-.63-.242c-.147-.02-.295-.01-.443-.012h-6.89l-2-2H4.001zm3.328 7.293H21.06l-1.789 6.706H5.539l1.79-6.707z"></path></g></g></svg>