<svg width="64" height="64" viewBox="0 0 24 24"><title>folder key outline</title><g fill="#000000" class="nc-icon-wrapper"><g transform="translate(0 0)"><path d="M11 10c-1.66 0-3 1.34-3 3s1.34 3 3 3c1.31 0 2.42-.83 2.83-2H16v2h2v-2h1v-2h-5.17c-.41-1.16-1.52-2-2.83-2zm-.025 2H11c.55 0 1 .45 1 1s-.45 1-1 1-1-.44-1-1c0-.542.436-.986.975-1z" data-color="color-2"></path><path d="M4 4.354a1.649 1.649 0 0 0-1.645 1.764v11.924c.01.631.42 1.23 1.002 1.472.252.114.532.14.806.132h15.88a1.658 1.658 0 0 0 1.48-1.026c.107-.246.13-.517.122-.783V7.952a1.653 1.653 0 0 0-.941-1.44 1.762 1.762 0 0 0-.845-.158h-8.005l-2-2H4zm-.355 3.292h16.71v10.708H3.645V7.646z" fill="#ffffff"></path></g></g></svg>