<svg width="64" height="64" viewBox="0 0 24 24"><title>folder alert outline</title><g fill="#000000" class="nc-icon-wrapper"><g transform="translate(0 0)"><path d="M3 4.354a1.651 1.651 0 0 0-1.524 1.024c-.118.268-.127.562-.122.85v11.804c.004.657.447 1.28 1.062 1.506.32.134.668.104 1.006.108h7.014a6.652 6.652 0 0 0 10.332.982 6.652 6.652 0 0 0 .95-8.02c-.295-.5-.659-.956-1.072-1.363-.001-1.103.001-2.206-.002-3.308a1.654 1.654 0 0 0-1.079-1.483c-.337-.134-.702-.093-1.055-.1h-7.656l-2-2H3zm-.354 3.292h16.708v2.584c-.418-.198-.832-.407-1.275-.543a6.659 6.659 0 0 0-5.157.422 6.679 6.679 0 0 0-3.185 3.664 6.701 6.701 0 0 0-.064 4.272l.092.31h-7.12V7.644zm13.354 3a5.35 5.35 0 0 1 5.338 4.925 5.352 5.352 0 0 1-4.74 5.75A5.356 5.356 0 1 1 16 10.646z" fill="#ffffff"></path><path d="M15 12v5h2v-5zm0 6v2h2v-2z" data-color="color-2"></path></g></g></svg>