<svg width="64" height="64" viewBox="0 0 24 24"><title>folder remove outline</title><g fill="#000000" class="nc-icon-wrapper"><g transform="translate(0 0)"><path d="M4 4.354a1.653 1.653 0 0 0-1.447.862c-.152.274-.21.591-.198.902v11.93c.011.606.391 1.184.941 1.44.261.128.556.168.844.158h15.892a1.65 1.65 0 0 0 1.415-.862c.154-.276.211-.596.198-.91V7.953a1.653 1.653 0 0 0-.941-1.44 1.762 1.762 0 0 0-.844-.159h-8.006l-2-2H4zm-.355 3.292h16.71v10.708H3.645V7.646z" fill="#ffffff"></path><path d="M11.46 10.88l1.42-1.42L15 11.59l2.12-2.13 1.42 1.42L16.41 13l2.13 2.12-1.42 1.42L15 14.41l-2.12 2.13-1.42-1.42L13.59 13l-2.13-2.12" data-color="color-2"></path></g></g></svg>