<svg width="64" height="64" viewBox="0 0 24 24"><title>folder heart outline</title><g fill="#000000" class="nc-icon-wrapper"><g transform="translate(0 0)"><path d="M13 10c-1.1 0-2 .92-2 2.05 0 .57.22 1.07.59 1.45L15 17l3.42-3.5c.36-.37.58-.89.58-1.45 0-1.13-.9-2.05-2-2.05-.54 0-1.05.23-1.41.6l-.59.6-.58-.59A1.99 1.99 0 0 0 13 10z" data-color="color-2"></path><path d="M4 4.354a1.649 1.649 0 0 0-1.645 1.764v11.924c.01.631.42 1.23 1.002 1.472.252.114.532.14.806.132h15.88a1.658 1.658 0 0 0 1.48-1.026c.107-.246.13-.517.122-.783V7.952a1.653 1.653 0 0 0-.941-1.44 1.762 1.762 0 0 0-.845-.158h-8.005l-2-2H4zm-.355 3.292h16.71v10.708H3.645V7.646z" fill="#ffffff"></path></g></g></svg>