<svg width="64" height="64" viewBox="0 0 24 24"><title>folder multiple plus outline</title><g fill="#000000" class="nc-icon-wrapper"><g transform="translate(0 0)"><path d="M.354 6.354l.001 13.689c.01.646.442 1.256 1.044 1.488.248.104.52.12.786.114h17.46v-1.29h-18v-14zM16 8v2h-2v2h2v2h2v-2h2v-2h-2V8z" data-color="color-2"></path><path d="M5.996 2.71a1.301 1.301 0 0 0-1.248.973c-.07.287-.027.584-.04.876.002 3.841-.002 7.683.003 11.524.03.584.506 1.11 1.087 1.191.288.036.58.007.868.017 5.14-.001 10.278.003 15.417-.002.59-.031 1.122-.518 1.194-1.107.03-.283.006-.57.014-.854-.001-3.137.002-6.275-.002-9.412-.032-.59-.518-1.122-1.107-1.193-.245-.027-.493-.01-.739-.014h-7.736l-2-2H5.996zM6 6h16v10H6V6z" fill="#ffffff"></path></g></g></svg>