<svg width="64" height="64" viewBox="0 0 24 24"><title>folder star multiple outline</title><g fill="#000000" class="nc-icon-wrapper"><g transform="translate(0 0)"><path d="M6 2.355a1.654 1.654 0 0 0-1.531 1.042c-.115.27-.12.565-.115.852v11.782a1.654 1.654 0 0 0 1.1 1.521c.35.132.726.084 1.091.093h15.487a1.653 1.653 0 0 0 1.52-1.099c.132-.35.084-.726.094-1.092V5.968a1.654 1.654 0 0 0-1.1-1.52c-.35-.132-.726-.085-1.092-.094h-7.6l-2-2H6zm-.354 3.29h16.708v10.71H5.646V5.644zm-5.291.71v13.677c.002.65.435 1.27 1.042 1.5.276.118.578.117.871.113h17.378v-1.29h-18v-14H.355z" fill="#ffffff"></path><path d="M12.78 10.05l3.03-.26L17 7l1.19 2.79 3.03.26-2.3 1.99.69 2.96L17 13.47 14.39 15l.69-2.96-2.3-1.99" data-color="color-2"></path></g></g></svg>