<svg width="64" height="64" viewBox="0 0 24 24"><title>folder zip outline</title><g fill="#000000" class="nc-icon-wrapper"><g transform="translate(0 0)"><path d="M4 4.354a1.657 1.657 0 0 0-1.495.961c-.125.26-.16.549-.15.833v11.894c.01.631.42 1.23 1.002 1.472.252.114.532.14.806.132h15.88a1.658 1.658 0 0 0 1.48-1.026c.107-.246.13-.517.122-.783V7.958a1.658 1.658 0 0 0-1.002-1.471c-.252-.115-.532-.14-.806-.132h-7.983l-2-2H4zm16.355 3.281v10.72c-5.57-.03-11.14 0-16.71 0V7.643c4.451.028 8.902.076 13.354.05 1.118-.007 2.237-.024 3.355-.058z" fill="#ffffff"></path><path d="M14 7.68V10h2V7.68zM16 10v2h2v-2zm0 2h-2v2h2zm0 2v2h2v-2zm0 2h-2v2.426h2z" data-color="color-2"></path></g></g></svg>