<svg width="64" height="64" viewBox="0 0 24 24"><title>folder plus outline</title><g fill="#000000" class="nc-icon-wrapper"><g transform="translate(0 0)"><path d="M4 4.354a1.649 1.649 0 0 0-1.645 1.764v11.93c.011.61.395 1.191.95 1.444.259.126.55.164.835.153h15.892a1.65 1.65 0 0 0 1.415-.86c.154-.277.211-.597.198-.911V7.952a1.653 1.653 0 0 0-.95-1.444 1.765 1.765 0 0 0-.835-.154h-8.006l-2-2H4zm-.355 3.292h16.71v10.708H3.645V7.646z" fill="#ffffff"></path><path d="M12 12h2v-2h2v2h2v2h-2v2h-2v-2h-2v-2" data-color="color-2"></path></g></g></svg>