<svg height="64" width="64" viewBox="0 0 20 20"><title>font_preview</title><g fill="#ffffff" class="nc-icon-wrapper"><g transform="translate(0 0)"><path d="M12.498 3a.5.5 0 0 0-.352.146C11.436 3.857 10.098 5 7.5 5a.5.5 0 0 0-.5.5V8h-.5c-.758 0-1.387.319-1.906.734-.52.416-.962.927-1.448 1.412-.396.397.311 1.104.708.708.455-.456.798-.644 1.181-.747.383-.102.84-.107 1.465-.107H7v4.5c0 .757-.57 1.366-1.184 1.477-.307.055-.62.004-.941-.229-.321-.233-.654-.667-.9-1.406A.5.5 0 0 0 3 14.5v1a.5.5 0 0 0 .146.354C4.226 16.932 5.194 17.01 6 17h.01c.365 0 .981-.055 1.678-.203.192-.046.36-.132.543-.197.414-.125.822-.202 1.242-.45C10.823 15.354 12 13.76 12 11v-1h2.5a.5.5 0 0 0 .354-.146l1-1A.5.5 0 0 0 15.5 8H12V5.47c.266.243.533.478.832.528.633.105 1.237-.068 1.766-.332 1.056-.528 1.9-1.457 2.256-1.812.453-.472-.236-1.16-.708-.708-.318.319-.841.674-1.4.764-.558.09-1.169-.023-1.889-.76a.5.5 0 0 0-.359-.15zm-2.51 3.014H10V12c0 1.655-.45 2.603-1.135 3.182-.204.172-.46.287-.726.39C8.649 14.749 9 13.574 9 12V6.018c.35.005.7.007.988-.004z" class="nc-icon-wrapper"></path></g></g></svg>