<svg height="64" width="64" viewBox="0 0 20 20"><title>force_wind</title><g fill="#ffffff" class="nc-icon-wrapper"><g transform="translate(0 0)"><path d="M8.858 3.006a2.003 2.003 0 0 0-1.67 1.152.5.5 0 1 0 .907.422.996.996 0 0 1 1.193-.539c.48.143.777.608.705 1.104a.995.995 0 0 1-.99.855h-5.5c-.676-.01-.676 1.01 0 1h5.5c.99 0 1.836-.732 1.979-1.71a2.005 2.005 0 0 0-2.124-2.284zM14.491 5c-.868.005-1.7.464-2.154 1.25a.5.5 0 1 0 .867.5 1.496 1.496 0 0 1 1.813-.66c.687.25 1.09.95.963 1.67A1.495 1.495 0 0 1 14.503 9h-11c-.676-.01-.676 1.01 0 1h11c1.21 0 2.253-.875 2.463-2.066A2.505 2.505 0 0 0 14.491 5zM3.503 12c-.676-.01-.676 1.01 0 1h8c.742 0 1.367.535 1.482 1.268a1.494 1.494 0 0 1-1.021 1.66 1.497 1.497 0 0 1-1.8-.752.5.5 0 1 0-.893.45 2.507 2.507 0 0 0 3 1.253 2.504 2.504 0 0 0 1.7-2.768A2.504 2.504 0 0 0 11.503 12z" class="nc-icon-wrapper"></path></g></g></svg>