<svg height="64" width="64" viewBox="0 0 20 20"><title>force_charge</title><g fill="#000000" class="nc-icon-wrapper"><g transform="translate(0 0)"><path d="M6.508 10.018A3.482 3.482 0 0 0 3.025 13.5a3.482 3.482 0 0 0 3.483 3.482A3.482 3.482 0 0 0 9.99 13.5a3.482 3.482 0 0 0-3.482-3.482zm-.506.986h1.014v1.986h1.996v1.014H7.016v1.986H6.002v-1.986H4.006V12.99h1.996z" fill="#ffffff"></path><path d="M13.486 3.018a3.488 3.488 0 0 0-3.488 3.488 3.488 3.488 0 0 0 3.488 3.488 3.488 3.488 0 0 0 3.489-3.488 3.488 3.488 0 0 0-3.489-3.488zm-2.48 3h5.006V7.03h-5.006z" data-color="color-2"></path></g></g></svg>