<svg height="64" width="64" viewBox="0 0 20 20"><title>force_boid</title><g fill="#000000" class="nc-icon-wrapper"><g transform="translate(0 0)"><path d="M6.046 3.002a1.96 1.96 0 0 0-.476.037c-1.228.252-1.959 1.367-2.455 2.098a.6.6 0 1 0 .993.674c.467-.69 1.163-1.485 1.705-1.596.27-.056.532-.025.947.312.415.338.939 1.012 1.498 2.157a.6.6 0 0 0 .539.336h.414a.6.6 0 0 0 .541-.338c.548-1.135 1.063-1.802 1.477-2.135.413-.334.68-.365.959-.309.556.113 1.262.903 1.716 1.573a.6.6 0 1 0 .993-.674c-.492-.725-1.24-1.826-2.471-2.075-.615-.124-1.325.046-1.951.551-.51.412-.988 1.196-1.47 2.076-.492-.889-.976-1.678-1.487-2.093-.469-.382-.985-.574-1.473-.594zM10.236 9c-.773 0-1.48.465-2.07 1.121a.6.6 0 1 0 .893.803c.542-.602.932-.779 1.304-.713.373.066.95.476 1.64 1.539a.6.6 0 0 0 1.007 0c.689-1.063 1.266-1.473 1.639-1.54.372-.065.762.112 1.304.714a.6.6 0 1 0 .893-.803c-.675-.75-1.501-1.251-2.406-1.092-.71.126-1.327.685-1.934 1.455-.607-.77-1.224-1.33-1.934-1.455A1.938 1.938 0 0 0 10.236 9z" fill="#ffffff"></path><path d="M5.504 12c-1.375 0-2.5 1.125-2.5 2.5s1.125 2.5 2.5 2.5a2.508 2.508 0 0 0 2.5-2.5c0-1.375-1.125-2.5-2.5-2.5z" data-color="color-2"></path></g></g></svg>