<svg height="64" width="64" data-color="color-2" viewBox="0 0 20 20"><title>force_lennardjones</title><g fill="#000000" class="nc-icon-wrapper"><g transform="translate(0 0)"><path d="M13.498 2.998a2.503 2.503 0 0 0-2.422 1.918 6.026 6.026 0 0 1 2.506 3.074 2.504 2.504 0 0 0 2.416-2.492c0-1.375-1.125-2.5-2.5-2.5zm.502 8A3.01 3.01 0 0 0 10.998 14 3.01 3.01 0 0 0 14 17.002 3.01 3.01 0 0 0 17.002 14 3.01 3.01 0 0 0 14 10.998z" fill="#ffffff"></path><path d="M7.969 5.027a4.98 4.98 0 0 0-4.97 4.97 4.978 4.978 0 0 0 4.97 4.97c.745 0 1.448-.177 2.084-.473-.021-.164-.051-.325-.051-.494 0-.26.03-.513.078-.76a3.859 3.859 0 0 1-2.111.627 3.862 3.862 0 0 1-3.871-3.869 3.863 3.863 0 0 1 3.87-3.871 3.862 3.862 0 0 1 3.87 3.871c0 .238-.03.47-.07.695.35-.239.747-.407 1.164-.525.002-.057.008-.113.008-.17a4.98 4.98 0 0 0-4.971-4.97z" data-color="color-2"></path></g></g></svg>