<svg height="64" width="64" viewBox="0 0 20 20"><title>force_drag</title><g fill="#000000" class="nc-icon-wrapper"><g transform="translate(0 0)"><path d="M5.017 12.985c1.099 0 2 .901 2 2s-.901 2-2 2-2-.901-2-2 .901-2 2-2z" data-color="color-2"></path><path d="M10.054 3.016c-1.674-.033-3.282.691-3.998 2.268a.438.438 0 0 0-.018.049l-2 5.994c-.21.633.739.949.95.316l1.984-5.951c.004-.009.011-.016.016-.025l7.345 7.345-.021.012-5.957 1.986c-.633.211-.317 1.16.316.95l6-2a.628.628 0 0 0 .049-.02c1.574-.716 2.296-2.323 2.262-3.996-.035-1.673-.771-3.468-2.116-4.813-1.344-1.344-3.139-2.081-4.812-2.115zm-.02 1c1.008.02 2.114.367 3.088.994-1.682.116-2.733.941-3.6 1.778L7.579 4.844c.609-.578 1.467-.848 2.456-.828zm3.479 1.969h.5v.002l.002.5c0 1.608-.669 2.434-1.506 3.287l-2.283-2.283c.853-.837 1.678-1.506 3.287-1.506zm1.477.893c.626.973.971 2.078.992 3.086.02.989-.25 1.847-.828 2.455l-1.942-1.942c.837-.866 1.661-1.917 1.778-3.6z" fill="#ffffff"></path></g></g></svg>