<svg height="64" width="64" viewBox="0 0 20 20"><title>force_texture</title><g fill="#000000" class="nc-icon-wrapper"><g transform="translate(0 0)"><path d="M16.998 3v2h-2V3zm-2 2v2h-2V5zm-2 0h-2V3h2zm-2 0v2h-2V5zm-2 0h-2V3h2zm6 8v-2h2v2zm0-2h-2V9h2zm0-2V7h2v2zm-2 0h-2V7h2zm-2 0v2h-2V9zm-2 0h-2V7h2zm2 2h2v2h-2z" data-color="color-2"></path><path d="M6 11.004a3.005 3.005 0 0 1 2.998 2.998A3.005 3.005 0 0 1 6 17a3.005 3.005 0 0 1-2.998-2.998A3.005 3.005 0 0 1 6 11.004z" fill="#ffffff"></path></g></g></svg>