<svg height="64" width="64" viewBox="0 0 20 20"><title>force_fluidflow</title><g fill="#000000" class="nc-icon-wrapper"><g transform="translate(0 0)"><path d="M10.264 3.008a4.001 4.001 0 0 0-2.576.729 4 4 0 0 0-1.684 3.31 3.49 3.49 0 0 0-1.963.963A3.497 3.497 0 0 0 3.01 10.4a.5.5 0 0 0-.01.1v1a.5.5 0 1 0 1 0v-.965a.5.5 0 0 0 0-.035A2.5 2.5 0 0 1 6.531 8a.5.5 0 0 0 .496-.62 2.994 2.994 0 0 1 1.239-2.827A3 3 0 0 1 13 7a.5.5 0 0 0 .002.043c-.159-.001-.318-.003-.475.014a4.05 4.05 0 0 0-2.332 1.066.5.5 0 1 0 .684.73 3.076 3.076 0 0 1 3.652-.396c1.171.69 1.722 2.05 1.36 3.334-.363 1.285-1.554 2.177-2.922 2.176-1.369-.001-2.56-.895-2.92-2.18a.5.5 0 0 0-.047-.117.5.5 0 0 0 0-.002.5.5 0 0 0-.016-.098 2.012 2.012 0 0 0-1.857-1.568 2.02 2.02 0 0 0-2.025 1.351.5.5 0 0 0 .947.325A1.014 1.014 0 0 1 8.072 11c.464.026.843.348.938.783a.5.5 0 0 0 .056.154.5.5 0 0 0 .02.12c.483 1.72 2.075 2.909 3.88 2.91 1.806 0 3.402-1.185 3.887-2.905.486-1.72-.263-3.553-1.814-4.466a4.054 4.054 0 0 0-1.064-.432A.5.5 0 0 0 14 7a4.001 4.001 0 0 0-3.736-3.992z" fill="#ffffff"></path><path d="M5.004 13c1.099 0 2 .901 2 2s-.901 2-2 2-2-.901-2-2 .901-2 2-2z" data-color="color-2"></path></g></g></svg>