<svg height="64" width="64" viewBox="0 0 20 20"><title>force_force</title><g fill="#ffffff" class="nc-icon-wrapper"><g transform="translate(0 0)"><path d="M12.498 2.993a.5.5 0 0 0-.348.86l2.66 2.66-2.673 2.896a.5.5 0 0 0-.133.34v.5a.5.5 0 0 0 .133.34l2.673 2.897-2.66 2.66a.5.5 0 1 0 .707.707l3-3a.5.5 0 0 0 .014-.694l-2.867-3.105v-.11l2.867-3.105a.5.5 0 0 0-.014-.693l-3-3a.5.5 0 0 0-.359-.153z"></path><path d="M8.498 2.993a.5.5 0 0 0-.348.86l2.66 2.66-2.673 2.896a.5.5 0 0 0-.133.34v.5a.5.5 0 0 0 .133.34l2.673 2.897-2.66 2.66a.5.5 0 1 0 .707.707l3-3a.5.5 0 0 0 .014-.694l-2.867-3.105v-.11l2.867-3.105a.5.5 0 0 0-.014-.693l-3-3a.5.5 0 0 0-.359-.153z"></path><path d="M4.498 2.993a.5.5 0 0 0-.348.86l2.66 2.66-2.673 2.896a.5.5 0 0 0-.133.34v.5a.5.5 0 0 0 .133.34l2.673 2.897-2.66 2.66a.5.5 0 1 0 .707.707l3-3a.5.5 0 0 0 .014-.694l-2.867-3.105v-.11l2.867-3.105a.5.5 0 0 0-.014-.693l-3-3a.5.5 0 0 0-.359-.153z"></path></g></g></svg>