<svg height="64" width="64" data-color="color-2" viewBox="0 0 20 20"><title>force_harmonic</title><g fill="#000000" class="nc-icon-wrapper"><g transform="translate(0 0)"><path d="M6.775 3c-.558 0-1.077.25-1.492.643-.414.393-.75.926-1.04 1.574-.583 1.296-.987 3.072-1.24 5.215a.55.55 0 1 0 1.093.129c.244-2.075.646-3.772 1.15-4.895.252-.561.53-.974.793-1.225.264-.25.489-.341.736-.341.248 0 .465.09.721.334.257.243.526.643.772 1.175.492 1.066.894 2.646 1.189 4.479.304 1.888.708 3.535 1.275 4.764.284.614.608 1.129 1.014 1.513.406.385.92.635 1.479.635 1.088 0 1.93-.83 2.52-1.973.588-1.143.995-2.677 1.25-4.453a.55.55 0 1 0-1.089-.156c-.242 1.697-.641 3.14-1.138 4.105-.498.966-1.02 1.377-1.543 1.377-.248 0-.465-.09-.721-.334-.257-.243-.526-.643-.772-1.175-.492-1.066-.894-2.646-1.189-4.479-.304-1.888-.708-3.535-1.275-4.764-.284-.614-.608-1.129-1.014-1.513C7.848 3.25 7.334 3 6.775 3z" fill="#ffffff"></path><path d="M5.75 10a.5.5 0 1 0 0 1h2a.5.5 0 1 0 0-1zm6.5 0a.5.5 0 1 0 0 1h2a.5.5 0 1 0 0-1z" data-color="color-2"></path></g></g></svg>