<svg height="64" width="64" viewBox="0 0 20 20"><title>force_curve</title><g fill="#000000" class="nc-icon-wrapper"><g transform="translate(0 0)"><path d="M5.498 12a2.508 2.508 0 0 0-2.5 2.5c0 1.375 1.125 2.5 2.5 2.5s2.5-1.125 2.5-2.5-1.125-2.5-2.5-2.5z" data-color="color-2"></path><path d="M10.545 3a.6.6 0 1 0 0 1.2h.977c1.24 0 2.319.34 3.068.966.75.625 1.213 1.527 1.213 2.852 0 2.628-2.351 5.184-6.324 5.789a.6.6 0 1 0 .181 1.185c4.409-.67 7.342-3.637 7.342-6.974 0-1.621-.627-2.926-1.643-3.774C14.344 3.397 12.981 3 11.522 3z" fill="#ffffff"></path></g></g></svg>