<svg height="64" width="64" viewBox="0 0 20 20"><title>fullscreen_enter</title><g fill="#000000" class="nc-icon-wrapper"><g transform="translate(0 0)"><path d="M3.499 2.999a.5.5 0 0 0-.5.5v6.502h1V3.999h6v-1zm12.502 7.002v6H9.999v1h6.502a.5.5 0 0 0 .5-.5v-6.5z" data-color="color-2"></path><path d="M12.501 2.999a.5.5 0 1 0 0 1h2.783l-4.139 4.149a.5.5 0 1 0 .71.705l4.146-4.157v2.803a.5.5 0 1 0 1 0v-4a.5.5 0 0 0-.5-.5zm-4.012 7.998a.5.5 0 0 0-.344.15l-4.146 4.137v-2.783a.5.5 0 1 0-1 0v4a.5.5 0 0 0 .5.5h4a.5.5 0 1 0 0-1H4.696l4.154-4.144a.5.5 0 0 0-.36-.86z" fill="#ffffff"></path></g></g></svg>