<svg height="64" width="64" viewBox="0 0 20 20"><title>fullscreen_exit</title><g fill="#000000" class="nc-icon-wrapper"><g transform="translate(0 0)"><path d="M16.491 2.995a.5.5 0 0 0-.344.15l-4.146 4.137V4.499a.5.5 0 1 0-1 0v4a.5.5 0 0 0 .5.5h4a.5.5 0 1 0 0-1h-2.803l4.154-4.144a.5.5 0 0 0-.36-.86zM4.503 10.997a.5.5 0 1 0 0 1h2.783l-4.139 4.149a.5.5 0 1 0 .71.705l4.146-4.157v2.803a.5.5 0 1 0 1 0v-4a.5.5 0 0 0-.5-.5z" fill="#ffffff"></path><path d="M5.501 4.997a.5.5 0 0 0-.5.5v4.502h1V5.997h4v-1zm8.502 5.002v4h-4.002v1h4.502a.5.5 0 0 0 .5-.5v-4.5z" data-color="color-2"></path></g></g></svg>