<svg width="64" height="64" viewBox="0 0 24 24"><title>ghost outline</title><g fill="#ffffff" class="nc-icon-wrapper"><g transform="translate(0 0)"><path class="nc-icon-wrapper" d="M12 2.353a8.62 8.62 0 0 0-5.479 1.96 8.703 8.703 0 0 0-2.038 2.413 8.6 8.6 0 0 0-1.11 3.705c-.022.3-.02.602-.02.903v9.812L6 18.498 9 21.5l3-3.002 3 3.002 3-3.002 2.647 2.648V10.944a8.628 8.628 0 0 0-1.844-5.278 8.699 8.699 0 0 0-2.494-2.163A8.609 8.609 0 0 0 12 2.353zm0 1.293a7.3 7.3 0 0 1 3.13.698 7.384 7.384 0 0 1 3.578 3.64c.433.958.654 2.009.646 3.059v6.982l-1.352-1.353c-.41.413-.82.827-1.231 1.239L15 19.67l-1.887-1.875L12 16.674l-1.23 1.237L9 19.67l-1.887-1.875-1.115-1.123-1.351 1.354V10.94a7.3 7.3 0 0 1 .722-3.123 7.386 7.386 0 0 1 3.616-3.526A7.296 7.296 0 0 1 12 3.647zM9 8.354a1.653 1.653 0 0 0-1.618 1.344A1.646 1.646 0 1 0 9 8.354zm6 0a1.653 1.653 0 0 0-1.618 1.344A1.646 1.646 0 1 0 15 8.354z"></path></g></g></svg>