<svg width="64" height="64" viewBox="0 0 24 24"><title>ghost off outline</title><g fill="#ffffff" class="nc-icon-wrapper"><g transform="translate(0 0)"><path class="nc-icon-wrapper" d="M2.39 2.23l-.779.772L4.81 6.199c-.167.266-.333.533-.477.812a8.609 8.609 0 0 0-.978 3.872v10.263L6 18.498 9 21.5l3-3.002 3 3.002 2.56-2.55 3.28 3.28.77-.77c-.322-.32-.643-.642-.964-.964 0-.02-.025-.03-.036-.047l-3.337-3.336c-.02 0-.03-.025-.046-.037l-6.778-6.787L2.39 2.23zm9.61.124c-1.231-.003-2.455.3-3.564.83-.344.163-.678.348-1 .552l.908.909a7.157 7.157 0 0 1 3.252-.987 7.308 7.308 0 0 1 5.273 1.833 7.333 7.333 0 0 1 2.485 5.711v4.452l1.293 1.293V10.93a8.625 8.625 0 0 0-1.965-5.416 8.696 8.696 0 0 0-2.625-2.15A8.61 8.61 0 0 0 12 2.353zM5.732 7.12l1.922 1.922c-.066.133-.143.263-.195.402-.07.198-.115.408-.104.619.014.448.228.882.566 1.175.286.25.659.4 1.04.407.274.008.546-.069.789-.193l.207-.107 6.685 6.683L15 19.67c-.63-.627-1.263-1.253-1.893-1.881L12 16.674c-.415.417-.828.835-1.244 1.251L9 19.67c-.63-.627-1.263-1.253-1.893-1.881l-1.109-1.117-1.352 1.354v-7.092a7.35 7.35 0 0 1 .888-3.438l.198-.375zM15 8.354a1.55 1.55 0 0 0-1.02.384 1.77 1.77 0 0 0-.566.996l1.852 1.852c.473-.09.913-.377 1.161-.793.206-.339.268-.756.182-1.141a1.669 1.669 0 0 0-.833-1.101A1.61 1.61 0 0 0 15 8.354z"></path></g></g></svg>