<svg height="64" width="64" viewBox="0 0 20 20"><title>gizmo</title><g fill="#000000" class="nc-icon-wrapper"><g transform="translate(0 0)"><path d="M12.5 3a.5.5 0 1 0 0 1h2.795l-2.969 2.969c.245.227.48.462.707.707L16 4.709V7.5a.5.5 0 1 0 1 0v-4a.5.5 0 0 0-.5-.5zM9.516 9.78L6.01 13.285A1.968 1.968 0 0 0 5 13c-1.099 0-2 .901-2 2s.901 2 2 2 2-.901 2-2c0-.368-.108-.71-.283-1.008l3.506-3.506a8.924 8.924 0 0 0-.707-.707zM5 14c.558 0 1 .442 1 1s-.442 1-1 1-1-.442-1-1 .442-1 1-1z" fill="#ffffff"></path><path d="M3.504 5a.5.5 0 1 0 0 1A10.487 10.487 0 0 1 14 16.492a.5.5 0 1 0 1 0C15 10.15 9.848 4.999 3.504 4.999z" data-color="color-2"></path></g></g></svg>