<svg height="64" width="64" viewBox="0 0 20 20"><title>gp_only_selected</title><g fill="#000000" class="nc-icon-wrapper"><g transform="translate(0 0)"><path d="M13.055 16.055a3.247 3.247 0 0 0 2.055-.951c1.169-1.17 1.161-2.911.289-4.307-.873-1.396-2.574-2.527-4.834-2.793-2.84-.334-5.64 1.057-6.534 3.312a.5.5 0 1 0 .93.368c.672-1.697 3.053-2.974 5.486-2.688 1.99.234 3.414 1.228 4.104 2.332.69 1.104.682 2.238-.149 3.068-.837.838-1.988.894-3.084.264-1.095-.63-2.082-1.98-2.316-3.969a.5.5 0 1 0-.992.118c.266 2.26 1.404 3.91 2.808 4.718.703.404 1.485.59 2.237.528zm-3.541-9.05a.5.5 0 0 0 .377-.187c.312-.377.926-.696 1.66-.789a.5.5 0 1 0-.125-.992c-.94.118-1.778.51-2.305 1.145a.5.5 0 0 0 .393.824z" fill="#ffffff"></path><path d="M6.5 17a.5.5 0 0 0 .5-.5v-3a.5.5 0 0 0-.5-.5h-3a.5.5 0 0 0-.5.5v3a.5.5 0 0 0 .5.5zm10-10a.5.5 0 0 0 .5-.5v-3a.5.5 0 0 0-.5-.5h-3a.5.5 0 0 0-.5.5v3a.5.5 0 0 0 .5.5z" data-color="color-2"></path></g></g></svg>