<svg height="64" width="64" viewBox="0 0 20 20"><title>gp_select_points</title><g fill="#000000" class="nc-icon-wrapper"><g transform="translate(0 0)"><path d="M6.488 17a.5.5 0 0 0 .5-.5v-3a.5.5 0 0 0-.5-.5h-3a.5.5 0 0 0-.5.5v3a.5.5 0 0 0 .5.5z" data-color="color-2"></path><path d="M14.043 14.055a3.247 3.247 0 0 0 2.055-.951c1.169-1.17 1.161-2.911.289-4.307-.873-1.396-2.574-2.527-4.834-2.793C8.046 5.591 4.994 7.918 4.994 11v.5a.5.5 0 1 0 1 0V11c0-2.418 2.427-4.359 5.441-4.004 1.99.234 3.414 1.228 4.104 2.332.69 1.104.682 2.238-.149 3.068-.837.838-1.988.894-3.083.264-1.096-.63-2.083-1.98-2.317-3.969a.5.5 0 1 0-.992.118c.266 2.26 1.404 3.91 2.808 4.718.703.404 1.485.59 2.237.528zm-3.541-9.05a.5.5 0 0 0 .377-.187C11.254 4.365 12.067 4 12.994 4h1.5a.5.5 0 1 0 0-1h-1.5c-1.175 0-2.252.418-2.885 1.182a.5.5 0 0 0 .393.824z" fill="#ffffff"></path></g></g></svg>