<svg height="64" width="64" data-color="color-2" viewBox="0 0 20 20"><title>group_vcol</title><g fill="#000000" class="nc-icon-wrapper"><g transform="translate(0 0)"><path d="M6.504 2.996a.5.5 0 0 1 .5.5v3.008a.5.5 0 0 1-.5.5H3.496a.5.5 0 0 1-.5-.5V3.496a.5.5 0 0 1 .5-.5h3.008zm-.5 1H3.996v2.008h2.008zm.492 3.992L3.5 7.994a.5.5 0 0 0-.5.498l-.004 6.459c0 1.023.806 2.037 2 2.037 1.195 0 1.996-1.022 1.996-2.043l.004-6.457a.5.5 0 0 0-.5-.5zm-1.5 6a1 1 0 0 1 1 1 1 1 0 0 1-1 1 1 1 0 0 1-1-1 1 1 0 0 1 1-1z" fill="#ffffff"></path><path d="M15.504 3.996a.5.5 0 0 1 .5.5v3.008a.5.5 0 0 1-.5.5h-3.008a.5.5 0 0 1-.5-.5V4.496a.5.5 0 0 1 .5-.5h3.008zm-.5 1h-2.008v2.008h2.008zM9.489 7.988a.5.5 0 0 0-.346.147l-1 1a.5.5 0 0 0-.147.353v4a.5.5 0 0 0 .854.354l3-3a.5.5 0 0 0 0-.707l-2-2a.5.5 0 0 0-.361-.147z" data-color="color-2"></path><path d="M16.504 12.996a.5.5 0 0 1 .5.5v3.008a.5.5 0 0 1-.5.5h-3.008a.5.5 0 0 1-.5-.5v-3.008a.5.5 0 0 1 .5-.5h3.008zm-.5 1h-2.008v2.008h2.008zm-4.522-1.007a.502.502 0 0 0-.34.145l-3 3a.5.5 0 0 0 .354.854h3a.5.5 0 0 0 .5-.5v-3a.5.5 0 0 0-.514-.5z" data-color="color-2"></path></g></g></svg>