<svg height="64" width="64" viewBox="0 0 20 20"><title>group_bone</title><g fill="#000000" class="nc-icon-wrapper"><g transform="translate(0 0)"><path d="M13.469 2.984c.84 0 1.531.691 1.531 1.531v.469h.5c.84 0 1.5.71 1.5 1.531v.938c0 .821-.66 1.531-1.5 1.531h-.969c-.191 0-.4-.145-.611-.213l-.316.317a.5.5 0 1 1-.708-.708l.5-.5a.5.5 0 0 1 .708 0c.03.03.22.104.427.104h.969c.286 0 .5-.227.5-.531v-.938c0-.304-.214-.531-.5-.531h-.984A.5.5 0 0 1 14 5.468v-.953a.54.54 0 0 0-.531-.531h-.938a.54.54 0 0 0-.531.531v.938c0 .207.073.397.104.427a.5.5 0 0 1 0 .708l-.5.5a.5.5 0 1 1-.708-.708l.317-.316c-.068-.21-.213-.42-.213-.611v-.938c0-.84.691-1.531 1.531-1.531zm-6.713 7.744a.5.5 0 0 1 .348.86l-.5.5a.5.5 0 0 1-.708 0c.054.053-.061-.029-.21-.06a2.524 2.524 0 0 0-.436-.044H4.5c-.305 0-.5.195-.5.5v.938c0 .304.232.562.5.562h.953a.5.5 0 0 1 .465.283.5.5 0 0 1 .012.022l.006.01c.006.012.015.027.027.056a.487.487 0 0 1 .02.06 2.423 2.423 0 0 1 .017.132v.937a.541.541 0 0 0 .531.531H7.5c.286 0 .5-.226.5-.531v-.938a1.29 1.29 0 0 0-.111-.466.5.5 0 0 1 .008-.7l.5-.5a.5.5 0 1 1 .707.708l-.319.318c.07.22.215.439.215.64v.938c0 .822-.66 1.531-1.5 1.531h-.969c-.84 0-1.531-.69-1.531-1.531v-.5h-.5c-.859 0-1.5-.74-1.5-1.563v-.937c0-.822.678-1.5 1.5-1.5h.75a3.23 3.23 0 0 1 .635.065c.076.015.156.087.234.109l.277-.277a.5.5 0 0 1 .36-.153z" data-color="color-2"></path><path d="M7.5 2.984c.824 0 1.5.68 1.5 1.5v1c0 .428-.215.769-.506 1.037l4.963 4.965c.269-.288.609-.502 1.035-.502h1c.82 0 1.5.676 1.5 1.5s-.68 1.5-1.5 1.5h-1.5v1.5c0 .82-.676 1.5-1.5 1.5s-1.5-.68-1.5-1.5v-1c0-.428.215-.769.506-1.037L6.535 8.482c-.269.288-.609.502-1.035.502h-1c-.82 0-1.5-.676-1.5-1.5s.68-1.5 1.5-1.5H6v-1.5c0-.82.676-1.5 1.5-1.5z" fill="#ffffff"></path></g></g></svg>