<svg height="64" width="64" viewBox="0 0 20 20"><title>group_uvs</title><g fill="#ffffff" class="nc-icon-wrapper"><g transform="translate(0 0)"><path d="M13.5 3a.5.5 0 0 0-.5.5V4H5a2.01 2.01 0 0 0-1.393.576c-.368.36-.607.86-.607 1.426V15a2.001 2.001 0 0 0 2 2h2.5a.5.5 0 0 0 .5-.5v-9a.5.5 0 0 0-.5-.5H5c-.452 0-1-.471-1-.998 0-.264.138-.515.332-.7C4.525 5.119 4.775 5 5 5h8v1.5a.5.5 0 0 0 .5.5H15v5h-1.5a.5.5 0 0 0-.5.5V14H9v1h4v.5a.5.5 0 0 0 .5.5h3a.5.5 0 0 0 .5-.5v-3a.5.5 0 0 0-.5-.5H16V7h.5a.5.5 0 0 0 .5-.5v-3a.5.5 0 0 0-.5-.5zm.5 1h2v2h-2zm0 9h2v2h-2z" class="nc-icon-wrapper"></path></g></g></svg>