<svg height="64" width="64" viewBox="0 0 20 20"><title>group_vertex</title><g fill="#000000" class="nc-icon-wrapper"><g transform="translate(0 0)"><path d="M3.492 6.004a.5.5 0 0 0-.5.5v3a.5.5 0 0 0 .5.5h3a.5.5 0 0 0 .5-.5v-3a.5.5 0 0 0-.5-.5zm5 1.992a.5.5 0 0 0-.5.5v3a.5.5 0 0 0 .5.5h3a.5.5 0 0 0 .5-.5v-3a.5.5 0 0 0-.5-.5h-3zm-5 3.008a.5.5 0 0 0-.5.5v3a.5.5 0 0 0 .5.5h3a.5.5 0 0 0 .5-.5v-3a.5.5 0 0 0-.5-.5zm5 1.992a.5.5 0 0 0-.5.5v3a.5.5 0 0 0 .5.5h3a.5.5 0 0 0 .5-.5v-3a.5.5 0 0 0-.5-.5z" fill="#ffffff"></path><path d="M8.484 3.004a.5.5 0 0 0-.5.5v3.008a.5.5 0 0 0 .5.5h3.008a.5.5 0 0 0 .5-.5V3.504a.5.5 0 0 0-.5-.5H8.484zm.5 1h2.008v2.008H8.984zm4.508 1.984a.5.5 0 0 0-.5.5v3.008a.5.5 0 0 0 .5.5H16.5a.5.5 0 0 0 .5-.5V6.488a.5.5 0 0 0-.5-.5h-3.008zm.5 1H16v2.008h-2.008zm-.492 4a.5.5 0 0 0-.5.5v3.008a.5.5 0 0 0 .5.5h3.008a.5.5 0 0 0 .5-.5v-3.008a.5.5 0 0 0-.5-.5H13.5zm.5 1h2.008v2.008H14z" data-color="color-2"></path></g></g></svg>