<svg height="64" width="64" viewBox="0 0 20 20"><title>help</title><g fill="#ffffff" class="nc-icon-wrapper"><g transform="translate(0 0)"><path d="M6.5 3C5 3 4 4.3 4 5.5v9C4 15.7 5 17 6.5 17h9c.7 0 .7-1 0-1h-9c-1 0-1.5-.8-1.5-1.5S5.5 13 6.5 13h9c.3 0 .5-.2.5-.5v-9c0-.3-.2-.5-.5-.5h-9zm4 1C11.9 4 13 5.1 13 6.5c0 1.2-.9 2.2-2 2.4V10h-1V8.5c0-.3.2-.5.5-.5.8 0 1.5-.7 1.5-1.5S11.3 5 10.5 5 9 5.7 9 6.5V7H8v-.5C8 5.1 9.1 4 10.5 4zm-.5 7h1v1h-1v-1zm-3.5 3c-.3 0-.5.2-.5.5s.2.5.5.5h9c.3 0 .5-.2.5-.5s-.2-.5-.5-.5h-9z" class="nc-icon-wrapper"></path></g></g></svg>