<svg height="64" width="64" viewBox="0 0 20 20"><title>image_plane</title><g fill="#000000" class="nc-icon-wrapper"><g transform="translate(0 0)"><path d="M3.5 3a.5.5 0 0 0-.5.5V7h1V4h3V3zM13 3v1h3v3h1V3.5a.5.5 0 0 0-.5-.5zM3 13v3.5a.5.5 0 0 0 .5.5H7v-1H4v-3zm13 0v3h-3v1h3.5a.5.5 0 0 0 .5-.5V13z" data-color="color-2"></path><path d="M14.5 5a.5.5 0 0 1 .5.5v9a.5.5 0 0 1-.5.5h-9a.5.5 0 0 1-.5-.5v-9a.5.5 0 0 1 .5-.5zM14 6H6v8h8z" fill="#ffffff"></path><path d="M12 7c.546 0 1 .454 1 1s-.454 1-1 1-1-.454-1-1 .454-1 1-1zM8.496 8a.5.5 0 0 1 .443.262l3 5.5a.5.5 0 0 1-.439.738H5.75a.5.5 0 0 1-.447-.723l2.75-5.5A.5.5 0 0 1 8.496 8z" data-color="color-2"></path></g></g></svg>