<svg height="64" width="64" viewBox="0 0 20 20"><title>image_background</title><g fill="#000000" class="nc-icon-wrapper"><g transform="translate(0 0)"><path d="M9 13.997v2H6.5a.5.5 0 1 0 0 1h2.92a.5.5 0 0 0 .162 0h.838a.5.5 0 0 0 .162 0H13.5a.5.5 0 1 0 0-1H11v-2zm-5.5-11a.5.5 0 0 0-.5.5v9a.5.5 0 0 0 .5.5h13a.5.5 0 0 0 .5-.5v-9a.5.5 0 0 0-.5-.5zm.5 1h12v8H4z" fill="#ffffff"></path><path d="M13 5c-.546 0-1 .454-1 1s.454 1 1 1 1-.454 1-1-.454-1-1-1zM8.496 6.05a.45.45 0 0 0-.398.249l-2.75 5.5a.45.45 0 0 0 .402.652h5.75a.45.45 0 0 0 .395-.666l-3-5.5a.45.45 0 0 0-.399-.234z" data-color="color-2"></path></g></g></svg>