<svg height="64" width="64" viewBox="0 0 20 20"><title>image</title><g fill="#000000" class="nc-icon-wrapper"><g transform="translate(0 0)"><path d="M3.5 3a.5.5 0 0 0-.5.5v13a.5.5 0 0 0 .5.5h13a.5.5 0 0 0 .5-.5v-8a.5.5 0 1 0-1 0V16H4V4h1.5a.5.5 0 1 0 0-1z" fill="#ffffff"></path><path d="M7.5 3c-.25 0-.5.25-.5.5V9c0 .5.25 1 1 1s1-.5 1-1V8c0-.5.534-1 1-1a1 1 0 0 1 1 1v3.5a1.5 1.5 0 1 0 3 0V8a1 1 0 0 1 1-1h.5c.855 0 1.5-.664 1.5-1.5v-2c0-.25-.25-.5-.5-.5z" data-color="color-2"></path></g></g></svg>