<svg height="64" width="64" viewBox="0 0 20 20"><title>image_reference</title><g fill="#000000" class="nc-icon-wrapper"><g transform="translate(0 0)"><path d="M6.492 2.992A.5.5 0 0 0 6 3.5v9.793l-2.854 2.853a.5.5 0 1 0 .708.708L6.707 14H16.5a.5.5 0 1 0 0-1H7V3.5a.5.5 0 0 0-.508-.508z" fill="#ffffff"></path><path d="M16.5 3a.5.5 0 0 1 .5.5V12h-1V4H8V3h.5z" fill="#ffffff"></path><path d="M14 5c-.546 0-1 .454-1 1s.454 1 1 1 1-.454 1-1-.454-1-1-1zm-3.48 2.05a.45.45 0 0 0-.413.23l-2.25 4a.45.45 0 0 0 .393.671h4.5a.45.45 0 0 0 .393-.672l-2.25-4a.451.451 0 0 0-.373-.228z" data-color="color-2"></path></g></g></svg>