<svg height="64" width="64" viewBox="0 0 20 20"><title>image_rgb_alpha</title><g fill="#000000" class="nc-icon-wrapper"><g transform="translate(0 0)"><path d="M3.5 3a.5.5 0 0 0-.5.5v13a.5.5 0 0 0 .5.5h13a.5.5 0 0 0 .5-.5v-13a.5.5 0 0 0-.5-.5zM4 4h12v12H4z" fill="#ffffff"></path><path d="M3.588 3.006A.502.502 0 0 0 3 3.5v13a.5.5 0 0 0 .5.5h13a.5.5 0 0 0 .354-.854l-13-13a.493.493 0 0 0-.266-.14zM7.496 9a.5.5 0 0 1 .451.277l3 6A.5.5 0 0 1 10.5 16h-6a.5.5 0 0 1-.447-.723l3-6A.5.5 0 0 1 7.496 9z" fill="#ffffff"></path><path d="M13.5 6c.823 0 1.5.677 1.5 1.5S14.323 9 13.5 9 12 8.323 12 7.5 12.677 6 13.5 6z" data-color="color-2"></path><path d="M7.503 9a.5.5 0 0 0-.45.278l-3 6a.5.5 0 0 0 .447.723h6a.5.5 0 0 0 .447-.723l-3-6a.5.5 0 0 0-.444-.277z" data-color="color-2"></path></g></g></svg>