<svg height="64" width="64" viewBox="0 0 20 20"><title>image_rgb</title><g fill="#ffffff" class="nc-icon-wrapper"><g transform="translate(0 0)"><g class="st0"><path class="st1" d="M3.5 16.5h13v-13h-13v13"></path><path class="st2" d="M8.5 8c.2 0 .4.1.5.3l3 6c.1.2 0 .5-.2.7-.1 0-.1.1-.2.1h-6c-.4-.1-.6-.3-.6-.6 0-.1 0-.2.1-.2l3-6c0-.2.2-.3.4-.3z"></path><path class="st2" d="M13.5 6c.8 0 1.5.7 1.5 1.5S14.3 9 13.5 9 12 8.3 12 7.5 12.7 6 13.5 6z"></path><path class="st2" d="M16 4v12H4V4h12m.5-1h-13c-.3 0-.5.2-.5.5v13c0 .3.2.5.5.5h13c.3 0 .5-.2.5-.5v-13c0-.3-.2-.5-.5-.5z"></path></g></g></g></svg>