<svg height="64" width="64" viewBox="0 0 20 20"><title>imgdisplay</title><g fill="#ffffff" class="nc-icon-wrapper"><g transform="translate(0 0)"><path d="M12.508 11a.5.5 0 0 0-.5.5v5a.5.5 0 0 0 .5.5h3.984a.5.5 0 0 0 .5-.5v-5a.5.5 0 0 0-.5-.5zm.5 1h2.984v4h-2.984zm-9.5-1a.5.5 0 0 0-.5.5v5a.5.5 0 0 0 .5.5h3.984a.5.5 0 0 0 .5-.5v-5a.5.5 0 0 0-.5-.5zm.5 1h2.984v4H4.008zm8.5-9a.5.5 0 0 0-.5.5v5a.5.5 0 0 0 .5.5h3.984a.5.5 0 0 0 .5-.5v-5a.5.5 0 0 0-.5-.5zm.5 1h2.984v4h-2.984zm-9.5-1a.5.5 0 0 0-.5.5v5a.5.5 0 0 0 .5.5h3.984a.5.5 0 0 0 .5-.5v-5a.5.5 0 0 0-.5-.5zm.5 1h2.984v4H4.008z" class="nc-icon-wrapper"></path></g></g></svg>