<svg width="64" height="64" viewBox="0 0 24 24"><title>inbox arrow up outline</title><g fill="#000000" class="nc-icon-wrapper"><g transform="translate(0 0)"><path d="M8 11h2v3h4v-3h2l-4-4" data-color="color-2"></path><path d="M5 3.354a1.653 1.653 0 0 0-1.645 1.77v13.907a1.653 1.653 0 0 0 1.777 1.614h13.9a1.653 1.653 0 0 0 1.614-1.777v-13.9a1.653 1.653 0 0 0-1.77-1.614H5zm-.354 1.292h14.708v10.709h-5c-.003.285.01.571-.008.856a2.36 2.36 0 0 1-1.28 1.89 2.358 2.358 0 0 1-3.42-2.085v-.661h-5V4.645zm0 12h3.752c.098.362.211.723.398 1.05.238.441.572.824.958 1.141l.596.517H4.646v-2.708zm10.956 0h3.752v2.708H13.65c.29-.254.587-.5.87-.762.512-.49.872-1.13 1.045-1.815l.037-.131z" fill="#ffffff"></path></g></g></svg>