<svg width="64" height="64" viewBox="0 0 24 24"><title>inbox full outline</title><g fill="#000000" class="nc-icon-wrapper"><g transform="translate(0 0)"><path d="M7 7v2h10V7zm0 4v2h10v-2z" data-color="color-2"></path><path d="M5 3.354a1.658 1.658 0 0 0-1.493.958c-.127.259-.162.55-.152.835v13.895a1.66 1.66 0 0 0 1.025 1.481c.249.109.521.13.789.122h13.873a1.66 1.66 0 0 0 1.481-1.025c.109-.249.13-.522.123-.79V4.959a1.66 1.66 0 0 0-1.026-1.482c-.248-.108-.521-.129-.789-.122H5.001zm-.354 1.292h14.708v10.709h-5c-.003.31.012.62-.013.93-.05.597-.331 1.18-.807 1.552-.892.714-2.292.689-3.15-.069-.451-.391-.7-.98-.732-1.57-.012-.28-.004-.562-.007-.843h-5V4.645zm0 12h3.752c.096.357.207.712.39 1.036.238.444.572.831.96 1.15l.603.522H4.646v-2.708zm10.956 0h3.752v2.708h-5.701c.288-.254.585-.5.868-.762a3.8 3.8 0 0 0 1.038-1.794l.043-.152z" fill="#ffffff"></path></g></g></svg>