<svg height="64" width="64" viewBox="0 0 20 20"><title>interpolate_quartic</title><g fill="#000000" class="nc-icon-wrapper"><g transform="translate(0 0)"><path d="M15.5 4.504a.5.5 0 0 0-.498.455c-.24 2.645-1.326 5.29-3.236 7.26-1.911 1.97-4.638 3.285-8.266 3.285a.5.5 0 1 0 0 1c3.872 0 6.895-1.435 8.984-3.59 1.976-2.038 3.06-4.712 3.399-7.41h.617a.5.5 0 1 0 0-1z" fill="#ffffff"></path><path d="M4.467 3.498a.5.5 0 0 0-.451.385l-1 4a.5.5 0 0 0 .484.621H6v1.5c-.01.676 1.01.676 1 0v-4c-.009-.657-.99-.657-1 0v1.5H4.14l.844-3.379a.5.5 0 0 0-.517-.627z" data-color="color-2"></path></g></g></svg>