<svg height="64" width="64" viewBox="0 0 20 20"><title>interpolate_bezier</title><g fill="#000000" class="nc-icon-wrapper"><g transform="translate(0 0)"><path d="M16 4c-1.597 0-2.86.788-3.861 1.88-1.003 1.094-1.793 2.499-2.575 3.874-.78 1.375-1.553 2.72-2.44 3.69C6.234 14.413 5.278 15 4 15h-.5a.5.5 0 1 0 0 1H4c1.597 0 2.86-.788 3.861-1.88 1.003-1.094 1.793-2.499 2.575-3.874.78-1.375 1.553-2.72 2.44-3.69C13.766 5.587 14.722 5 16 5h.5a.5.5 0 1 0 0-1z" fill="#ffffff"></path><path d="M4.5 3a.5.5 0 0 0-.5.5v2a.5.5 0 0 0 .5.5h2a.5.5 0 0 0 .5-.5V5h3.5a.5.5 0 1 0 0-1H7v-.5a.5.5 0 0 0-.5-.5zM5 4h1v.42a.5.5 0 0 0 0 .162V5H5zm8.508 10a.5.5 0 0 0-.5.5v.5h-3.5a.5.5 0 1 0 0 1h3.5v.5a.5.5 0 0 0 .5.5h2a.5.5 0 0 0 .5-.5v-2a.5.5 0 0 0-.5-.5zm.5 1h1v1h-1v-.424a.5.5 0 0 0 0-.152z" data-color="color-2"></path></g></g></svg>