<svg height="64" width="64" viewBox="0 0 20 20"><title>interpolate_quad</title><g fill="#000000" class="nc-icon-wrapper"><g transform="translate(0 0)"><path d="M15.5 4.502a.5.5 0 0 0-.4.2c-1.548 2.063-2.854 4.801-4.586 6.99-1.733 2.188-3.812 3.81-7.014 3.81a.5.5 0 1 0 0 1c3.548 0 5.969-1.878 7.799-4.19 1.778-2.245 3.067-4.884 4.47-6.81h.731a.5.5 0 1 0 0-1z" fill="#ffffff"></path><path d="M5 3.498c-.792 0-1.705.427-1.98 1.36a.5.5 0 1 0 .96.283c.125-.421.578-.643 1.02-.643a1 1 0 0 1 .678.246c.171.157.295.38.299.76 0 .21-.101.418-.338.687-.238.27-.596.567-.977.903-.761.67-1.658 1.557-1.662 2.902a.5.5 0 0 0 .5.502h3a.5.5 0 1 0 0-1H4.166c.184-.625.586-1.15 1.158-1.654.363-.32.748-.63 1.067-.992.319-.363.588-.811.586-1.352a.5.5 0 0 0 0-.002c-.006-.619-.247-1.148-.623-1.492A1.995 1.995 0 0 0 5 3.498z" data-color="color-2"></path></g></g></svg>