<svg height="64" width="64" viewBox="0 0 20 20"><title>interpolate_quintic</title><g fill="#000000" class="nc-icon-wrapper"><g transform="translate(0 0)"><path d="M15.501 4.502a.5.5 0 0 0-.5.5c0 3.443-1.075 6.032-3.023 7.791-1.948 1.76-4.814 2.709-8.477 2.709a.5.5 0 1 0 0 1c3.837 0 6.971-1 9.148-2.967 2.066-1.866 3.15-4.637 3.264-8.033h.588a.5.5 0 1 0 0-1z" fill="#ffffff"></path><path d="M3.501 3.498a.5.5 0 0 0-.5.5v2.004a.5.5 0 0 0 .5.5h1.5c.417 0 1 .45 1 1.5s-.58 1.494-1.002 1.496c-.526.003-.86-.339-1.05-.723a.5.5 0 1 0-.895.446c.31.623.975 1.282 1.949 1.277 1.079-.005 1.998-1.046 1.998-2.496s-.917-2.5-2-2.5h-1V4.498h2.5a.5.5 0 1 0 0-1z" data-color="color-2"></path></g></g></svg>