<svg height="64" width="64" viewBox="0 0 20 20"><title>interpolate_sine</title><g fill="#000000" class="nc-icon-wrapper"><g transform="translate(0 0)"><path d="M15.5 4.502a.5.5 0 0 0-.4.2c-1.548 2.063-2.854 4.801-4.586 6.99-1.733 2.188-3.812 3.81-7.014 3.81a.5.5 0 1 0 0 1c3.548 0 5.969-1.878 7.799-4.19 1.778-2.245 3.067-4.884 4.47-6.81h.731a.5.5 0 1 0 0-1z" fill="#ffffff"></path><path d="M5.484 3.498a.5.5 0 0 0-.338.147l-2 2a.5.5 0 1 0 .708.707L5 5.205v4.797a.5.5 0 1 0 1 0V3.998a.5.5 0 0 0-.516-.5z" data-color="color-2"></path></g></g></svg>