<svg width="64" height="64" viewBox="0 0 24 24"><title>jellyfish outline</title><g fill="#ffffff" class="nc-icon-wrapper"><g transform="translate(0 0)"><path class="nc-icon-wrapper" d="M12 2.353a8.648 8.648 0 0 0-2.49.365 7.725 7.725 0 0 0-1.978.908 7.658 7.658 0 0 0-2.084 1.985c-.745 1.037-1.223 2.254-1.44 3.51a10.167 10.167 0 0 0-.15 1.775c.04.457.261.897.613 1.193.14.119.3.218.472.282l1.91.563v2.588a.85.85 0 0 1-.392.698.851.851 0 1 1-1.315-.726c.003-.062.012-.125 0-.187a.555.555 0 0 0-.484-.457c-.055-.007-.11 0-.165.007a.546.546 0 0 0-.643.62c0 .055-.004.11-.002.165.008.35.106.697.288.996a2.052 2.052 0 0 0 1.826 1.009c.12.001.24.005.36-.01a2.03 2.03 0 0 0 1.103-.478 2.046 2.046 0 0 0 .717-1.665v-2.148h1.707v6.074a.83.83 0 0 1-.245.6c-.276.265-.727.307-1.057.12a.782.782 0 0 1-.375-.493.959.959 0 0 1-.024-.338.553.553 0 0 0-.652-.551.548.548 0 0 0-.648.605c.008.058-.006.117-.004.176-.015.496.162.994.483 1.372.351.42.875.693 1.422.73.123.009.245.003.368.008a2.028 2.028 0 0 0 1.288-.474 2.046 2.046 0 0 0 .737-1.681v-5.848h1.707v5.87a2.041 2.041 0 0 0 1.854 2.125c.14.014.28.003.42.005a2.04 2.04 0 0 0 1.073-.32 2.06 2.06 0 0 0 .898-1.273c.05-.21.06-.426.044-.64a.604.604 0 0 0-.252-.44.702.702 0 0 0-.75-.019.597.597 0 0 0-.28.438c-.012.096-.002.195-.022.29a.786.786 0 0 1-.341.527.92.92 0 0 1-1.037-.03.795.795 0 0 1-.303-.526c-.017-.124-.008-.248-.01-.373v-5.833h1.706v2.186a2.062 2.062 0 0 0 1.179 1.823c.3.143.637.207.969.19a2.054 2.054 0 0 0 2.146-2.139.631.631 0 0 0-.198-.486.694.694 0 0 0-.743-.102.593.593 0 0 0-.334.412c-.03.116-.01.236-.034.352a.786.786 0 0 1-.341.526.92.92 0 0 1-1.037-.03.795.795 0 0 1-.303-.526c-.017-.124-.008-.249-.01-.373v-2.346l1.906-.561a1.935 1.935 0 0 0 1.088-1.504c-.003-1.356-.26-2.72-.833-3.954a7.79 7.79 0 0 0-2.282-2.893 7.853 7.853 0 0 0-2.462-1.282 8.243 8.243 0 0 0-1.161-.275A8.811 8.811 0 0 0 12 2.353zm0 1.293a7.055 7.055 0 0 1 3.166.717 6.372 6.372 0 0 1 2.779 2.69c.522.953.809 2.026.886 3.108.021.284.024.57.022.854.003.019.003.036-.02.038a18.677 18.677 0 0 1-13.644.008c-.013-.009-.043-.007-.043-.025 0-.282 0-.564.021-.845.073-1.08.354-2.153.871-3.107a6.49 6.49 0 0 1 1.595-1.946 6.313 6.313 0 0 1 1.044-.694C9.693 3.9 10.851 3.643 12 3.646zm-.12 1.9a7.086 7.086 0 0 0-3.047 1.738c-.167.16-.325.328-.474.504a8.558 8.558 0 0 0-.312.392c-.062.086-.125.171-.181.26-.047.082.016.19.105.205.065.017.131-.023.161-.08a6.657 6.657 0 0 1 3.773-2.707c.056-.022.122-.04.158-.093.018-.037-.01-.073-.014-.11-.014-.073-.097-.124-.168-.108z"></path></g></g></svg>