<svg height="64" width="64" viewBox="0 0 20 20"><title>key_hlt</title><g fill="#000000" class="nc-icon-wrapper"><g transform="translate(0 0)"><path d="M13.502 3.001a3.5 3.5 0 1 0 0 7 3.5 3.5 0 0 0 0-7zm-.5 1h1v2h2v1h-2v2h-1v-2h-2v-1h2z" fill="#ffffff"></path><path d="M17.002 13.002l-7.111-.004c-.255-1.679-1.647-2.994-3.395-2.994A3.504 3.504 0 0 0 2.998 13.5a3.506 3.506 0 0 0 3.498 3.498c1.75 0 3.142-1.319 3.395-3l7.11.004zm-8.01.498a2.49 2.49 0 0 1-2.496 2.498A2.49 2.49 0 0 1 3.998 13.5a2.49 2.49 0 0 1 2.498-2.496A2.488 2.488 0 0 1 8.992 13.5z" data-color="color-2"></path><path d="M16.998 14.498h-3v1a.5.5 0 0 0 .5.5h2a.5.5 0 0 0 .5-.5z" data-color="color-2"></path></g></g></svg>