<svg height="64" width="64" viewBox="0 0 20 20"><title>key_dehlt</title><g fill="#000000" class="nc-icon-wrapper"><g transform="translate(0 0)"><path d="M16.998 13.006l-7.111-.004c-.255-1.679-1.647-2.994-3.395-2.994a3.504 3.504 0 0 0-3.498 3.496 3.506 3.506 0 0 0 3.498 3.498c1.75 0 3.142-1.319 3.395-3l7.11.004zm-8.01.498a2.49 2.49 0 0 1-2.496 2.498 2.49 2.49 0 0 1-2.498-2.498 2.49 2.49 0 0 1 2.498-2.496 2.488 2.488 0 0 1 2.496 2.496z" data-color="color-2"></path><path d="M16.994 14.502h-3v1a.5.5 0 0 0 .5.5h2a.5.5 0 0 0 .5-.5z" data-color="color-2"></path><path d="M10.493 2.999a.5.5 0 0 0-.348.86l2.647 2.646-2.647 2.646a.5.5 0 1 0 .708.708l2.646-2.647 2.646 2.647a.5.5 0 1 0 .708-.708l-2.647-2.646 2.647-2.646a.5.5 0 1 0-.708-.708l-2.646 2.647-2.646-2.647a.5.5 0 0 0-.36-.152z" fill="#ffffff"></path></g></g></svg>