<svg width="64" height="64" viewBox="0 0 24 24"><title>language python</title><g fill="#000000" class="nc-icon-wrapper"><g transform="translate(0 0)"><path d="M9.86 2.5A2.86 2.86 0 0 0 7 5.36v1.68h4.29c.39 0 .71.57.71.96H4.86A2.86 2.86 0 0 0 2 10.86v3.78a2.86 2.86 0 0 0 2.86 2.86h1.18v-2.68a2.85 2.85 0 0 1 2.85-2.86h5.25A2.85 2.85 0 0 0 17 9.11V5.36a2.86 2.86 0 0 0-2.86-2.86zm-.756 1.61h.036c.4 0 .72.12.72.71s-.32.89-.72.89c-.39 0-.71-.3-.71-.89 0-.572.3-.702.674-.71z" fill="#ffffff"></path><path d="M17.96 7.5v2.68a2.85 2.85 0 0 1-2.85 2.86H9.86A2.85 2.85 0 0 0 7 15.89v3.75a2.86 2.86 0 0 0 2.86 2.86h4.28A2.86 2.86 0 0 0 17 19.64v-1.68h-4.29c-.39 0-.71-.57-.71-.96h7.14A2.86 2.86 0 0 0 22 14.14v-3.78a2.86 2.86 0 0 0-2.86-2.86zm-3.1 11.79c.39 0 .71.3.71.89a.71.71 0 0 1-.71.71c-.4 0-.72-.12-.72-.71s.32-.89.72-.89z" data-color="color-2"></path></g></g></svg>