<svg height="64" width="64" viewBox="0 0 20 20"><title>lattice_data</title><g fill="#ffffff" class="nc-icon-wrapper"><g transform="translate(0 0)"><path d="M4.493 2.996a.5.5 0 0 0-.5.5v3a.5.5 0 0 0 .5.5h.862l-.828 3.307a.5.5 0 0 0-.002.006.5.5 0 0 0-.035.143.5.5 0 0 0 0 .004l-1.481 5.92a.5.5 0 0 0 .484.622h4.924a.5.5 0 0 0 .145 0h4.908a.5.5 0 0 0 .484-.378l3.037-11.99a.5.5 0 0 0-.484-.622l-4.91-.006a.5.5 0 0 0-.201 0l-3.403-.006v-.5a.5.5 0 0 0-.5-.5zm.5 1h2v2h-.921a.5.5 0 0 0-.145 0h-.934zm3 1l2.86.004-1.248 4.996H5.636l.75-3h1.107a.5.5 0 0 0 .5-.5zm3.891.006l3.98.006-1.263 4.989h-3.965zm-6.498 5.994h3.969l-1.252 5.002H4.136zm5 0h3.961l-1.268 5.002H9.136z" class="nc-icon-wrapper"></path></g></g></svg>