<svg width="64" height="64" viewBox="0 0 24 24"><title>layers search</title><g fill="#000000" class="nc-icon-wrapper"><g transform="translate(0 0)"><path d="M4.63 10.27L3 9l9-7 9 7-1.64 1.27-.71.55c-.93-.52-2.01-.82-3.15-.82-2.71 0-5.04 1.68-6 4.05z" fill="#ffffff"></path><path d="M15.5 12C13 12 11 14 11 16.5s2 4.5 4.5 4.5c.87 0 1.69-.25 2.38-.68L21 23.39 22.39 22l-3.08-3.1c.44-.69.69-1.52.69-2.4 0-2.5-2-4.5-4.5-4.5zM4.62 13.258l-1.044.813 5.286 4.113a6.797 6.797 0 0 1-.216-1.728v-.061zm4.241 4.926c.002.006.01.008.013.012l.17.132c-.002-.006-.01-.008-.014-.013zM15.5 14a2.5 2.5 0 0 1 0 5 2.5 2.5 0 0 1 0-5z" data-color="color-2"></path></g></g></svg>