<svg height="64" width="64" viewBox="0 0 20 20"><title>lightprobe_planar</title><g fill="#ffffff" class="nc-icon-wrapper"><g transform="translate(0 0)"><path d="M9.977 2.5a.5.5 0 0 0-.346.147l-7 7a.5.5 0 0 0 0 .707l7 7a.5.5 0 0 0 .707 0l7.032-7a.5.5 0 0 0 0-.707l-7.032-7a.5.5 0 0 0-.36-.147zm.008 1.207L16.307 10l-6.322 6.293L3.692 10zm0 4.793c-.822 0-1.5.678-1.5 1.5 0 .823.678 1.5 1.5 1.5.823 0 1.5-.677 1.5-1.5 0-.822-.677-1.5-1.5-1.5zm0 1c.282 0 .5.218.5.5 0 .282-.218.5-.5.5a.493.493 0 0 1-.5-.5c0-.282.218-.5.5-.5z" class="nc-icon-wrapper"></path></g></g></svg>