<svg width="64" height="64" viewBox="0 0 20 20"><title>light_area</title><g fill="#000000" class="nc-icon-wrapper"><g transform="translate(0 0)"><path d="M10.004 8.997a1 1 0 0 0-1 1 1 1 0 0 0 .033.26l-.143.142a.5.5 0 0 0 .708.708l.144-.145a1 1 0 0 0 .258.035 1 1 0 0 0 1-1 1 1 0 0 0-1-1zm-2.51 2.992a.5.5 0 0 0-.344.153l-1 1a.5.5 0 1 0 .707.707l1-1a.5.5 0 0 0-.363-.86zm-3.002 3a.5.5 0 0 0-.344.153l-1 1.004a.5.5 0 1 0 .71.705l1-1.004a.5.5 0 0 0-.366-.858z" data-color="color-2"></path><path d="M4.504 2.995a.5.5 0 0 0-.356.147L3.144 4.149a.5.5 0 0 0-.093.577l3 6a.5.5 0 1 0 .894-.446L4.105 4.6l.606-.605h6.47l4.723 10.39-.61.61-5.985.008-.358-.726a.5.5 0 1 0-.896.441l.494 1.006a.5.5 0 0 0 .449.279l6.506-.008a.5.5 0 0 0 .353-.146l1-1a.5.5 0 0 0 .102-.561l-5-11a.5.5 0 0 0-.455-.293z" fill="#ffffff"></path></g></g></svg>