<svg height="64" width="64" viewBox="0 0 20 20"><title>lightprobe_cubemap</title><g fill="#000000" class="nc-icon-wrapper"><g transform="translate(0 0)"><path d="M7 3.5a.5.5 0 0 0-.354.146l-3 3A.5.5 0 0 0 3.5 7v9a.5.5 0 0 0 .5.5h9a.5.5 0 0 0 .354-.146l3-3A.5.5 0 0 0 16.5 13V4a.5.5 0 0 0-.5-.5zm.207 1H15.5v8.293L12.793 15.5H4.5V7.207zm1.799 5.037c-.823 0-1.5.678-1.5 1.5 0 .823.677 1.5 1.5 1.5.822 0 1.5-.677 1.5-1.5 0-.822-.678-1.5-1.5-1.5zm0 1c.282 0 .5.218.5.5 0 .282-.218.5-.5.5a.493.493 0 0 1-.5-.5c0-.282.218-.5.5-.5z" data-color="color-2"></path><path d="M15.646 3.646L12.793 6.5H4v1h8.5l.006 8.537h1l-.006-8.83 2.854-2.853z" fill="#ffffff"></path></g></g></svg>