<svg width="64" height="64" data-color="color-2" viewBox="0 0 20 20"><title>light_point</title><g fill="#000000" class="nc-icon-wrapper"><g transform="translate(0 0)"><path d="M9.998 15.484a.5.5 0 0 0-.492.508v1.002c-.01.676 1.01.676 1 0v-1.002a.5.5 0 0 0-.508-.508z" data-color="color-2"></path><path d="M10 7.5c-.823 0-1.5.677-1.5 1.5a1.5 1.5 0 0 0 1 1.406V11c-.01.676 1.01.676 1 0v-.594c.579-.208 1-.76 1-1.406 0-.823-.678-1.5-1.5-1.5zm0 1c.282 0 .5.218.5.5s-.218.5-.5.5a.493.493 0 0 1-.5-.5c0-.282.218-.5.5-.5zm-.002 3.984a.5.5 0 0 0-.492.508v1c-.01.676 1.01.676 1 0v-1a.5.5 0 0 0-.508-.508z" data-color="color-2"></path><path d="M9.98 2.5c-3.163.009-5.865 2.316-6.39 5.451-.526 3.135 1.275 6.205 4.26 7.258a.5.5 0 1 0 .332-.943c-2.53-.893-4.052-3.485-3.606-6.149.447-2.664 2.728-4.61 5.408-4.617a5.504 5.504 0 0 1 5.434 4.584c.462 2.662-1.046 5.263-3.57 6.17a.5.5 0 1 0 .34.941c2.978-1.07 4.758-4.149 4.214-7.28-.543-3.133-3.258-5.424-6.422-5.415z" fill="#ffffff"></path></g></g></svg>