<svg height="64" width="64" viewBox="0 0 20 20"><title>linenumbers_on</title><g fill="#000000" class="nc-icon-wrapper"><g transform="translate(0 0)"><path d="M9.5 3a.5.5 0 1 0 0 1h6.992a.5.5 0 1 0 0-1zm0 2a.5.5 0 1 0 0 1h6.992a.5.5 0 1 0 0-1zm0 2a.5.5 0 1 0 0 1h6.992a.5.5 0 1 0 0-1zm0 5a.5.5 0 1 0 0 1h6.992a.5.5 0 1 0 0-1zm0 2a.5.5 0 1 0 0 1h6.992a.5.5 0 1 0 0-1zm0 2a.5.5 0 1 0 0 1h7a.5.5 0 1 0 0-1z" fill="#ffffff"></path><path d="M5.484 3a.5.5 0 0 0-.338.146l-2 2a.5.5 0 1 0 .708.708L5 4.707V8.5a.5.5 0 1 0 1 0v-5a.5.5 0 0 0-.516-.5zM5 11c-.792 0-1.705.427-1.98 1.36a.5.5 0 1 0 .96.28c.125-.42.578-.64 1.02-.64.32 0 .6.063.754.166.154.103.25.212.254.588 0 .207-.076.328-.297.521-.222.194-.578.403-.967.645-.388.242-.811.524-1.154.935A2.55 2.55 0 0 0 3 16.498a.5.5 0 0 0 .5.502h3a.5.5 0 1 0 0-1H4.178c.061-.162.068-.37.18-.504.222-.268.552-.502.915-.728.364-.227.758-.44 1.098-.739.34-.298.64-.739.637-1.281a.5.5 0 0 0 0-.002c-.006-.624-.29-1.14-.7-1.412C5.899 11.062 5.431 11 5 11z" data-color="color-2"></path></g></g></svg>