<svg width="64" height="64" viewBox="0 0 24 24"><title>location exit</title><g fill="#000000" class="nc-icon-wrapper"><g transform="translate(0 0)"><path d="M12.281 2.338a9.965 9.965 0 0 0-3.5.57c-.923.325-1.798.788-2.587 1.366a9.487 9.487 0 0 0-2.565 2.85 9.394 9.394 0 0 0-1.188 3.539c-.117.91-.115 1.834.009 2.743a9.997 9.997 0 0 0 .472 1.946c.24.667.556 1.308.942 1.903.114.17.233.336.351.502 1.113 1.491 2.688 2.622 4.437 3.25 1.869.675 3.947.78 5.866.251a9.389 9.389 0 0 0 4.012-2.283c.196-.194.446-.427.585-.622h-1.719a8.305 8.305 0 0 1-3.702 1.842 8.37 8.37 0 0 1-4.973-.505 8.45 8.45 0 0 1-3.57-2.844c-.12-.163-.226-.335-.334-.506a7.258 7.258 0 0 1-.414-.772c-.092-.219-.196-.432-.274-.656-.063-.175-.125-.35-.168-.53a7.412 7.412 0 0 1-.211-.898 8.886 8.886 0 0 1-.09-2.299c.05-.52.142-1.037.292-1.537.028-.1.051-.202.087-.3a6.8 6.8 0 0 1 .297-.76c.07-.17.149-.337.236-.5.127-.242.27-.475.421-.703.16-.247.34-.48.526-.707a8.536 8.536 0 0 1 4.919-2.893 8.19 8.19 0 0 1 4.488.382 8.446 8.446 0 0 1 2.47 1.48h1.78c-.964-1.103-2.164-2.006-3.514-2.58a9.084 9.084 0 0 0-3.381-.729z" fill="#ffffff"></path><path d="M22 12l-4-4v3h-8v2h8v3" data-color="color-2"></path></g></g></svg>