<svg width="64" height="64" viewBox="0 0 24 24"><title>location enter</title><g fill="#000000" class="nc-icon-wrapper"><g transform="translate(0 0)"><path d="M12.195 2.353a9.455 9.455 0 0 0-4.162.881 9.693 9.693 0 0 0-4.098 3.612 9.862 9.862 0 0 0-.894 1.8h1.316c.547-1.27 1.384-2.424 2.472-3.283a8.023 8.023 0 0 1 4.069-1.665c2.287-.269 4.677.396 6.473 1.843a7.948 7.948 0 0 1 1.439 1.5c.134.182.255.373.375.565.195.323.37.66.514 1.008.159.38.293.771.392 1.172.157.634.246 1.284.262 1.937a9.204 9.204 0 0 1-.145 1.948 8.069 8.069 0 0 1-.984 2.658 7.811 7.811 0 0 1-1.79 2.079 8.248 8.248 0 0 1-1.178.808c-2.036 1.158-4.546 1.466-6.792.79a7.852 7.852 0 0 1-3.503-2.172 8.68 8.68 0 0 1-1.604-2.48H3.041a9.78 9.78 0 0 0 3.086 4.237 9.52 9.52 0 0 0 4.796 1.993 9.592 9.592 0 0 0 7.167-2.102 9.675 9.675 0 0 0 2.94-4.084 9.67 9.67 0 0 0 .492-4.948 9.64 9.64 0 0 0-4.933-6.938 9.556 9.556 0 0 0-3.87-1.134 9.525 9.525 0 0 0-.524-.025z" fill="#ffffff"></path><path d="M14 12l-4-4v3H2v2h8v3" data-color="color-2"></path></g></g></svg>