<svg width="64" height="64" viewBox="0 0 24 24"><title>lock alert outline</title><g fill="#000000" class="nc-icon-wrapper"><g transform="translate(0 0)"><path d="M20 7v6h2V7zm0 8v2h2v-2z" data-color="color-2"></path><path d="M10 1.354a4.654 4.654 0 0 0-3.017 1.088A4.605 4.605 0 0 0 5.388 5.43c-.051.442-.028.888-.033 1.332v1.593c-.48.001-.96-.003-1.44.002A1.657 1.657 0 0 0 2.47 9.398c-.104.248-.121.52-.114.785v9.86c.01.625.414 1.219.988 1.465.255.117.539.146.817.137h11.882a1.658 1.658 0 0 0 1.481-1.025c.11-.25.13-.525.123-.795l-.001-9.867a1.659 1.659 0 0 0-1.044-1.489c-.248-.104-.519-.12-.784-.114h-1.171c-.002-.836.003-1.671-.003-2.507A4.634 4.634 0 0 0 13.3 2.701a4.637 4.637 0 0 0-3.3-1.347zm0 1.292c.881-.007 1.768.333 2.39.963.634.626.974 1.52.964 2.406v2.34H6.645c.001-.822-.002-1.644.002-2.466.02-.879.389-1.752 1.036-2.352.618-.585 1.469-.896 2.317-.892zm-6.355 7h12.71v10.709H3.645V9.645zM10 13.353a1.657 1.657 0 0 0-1.506.984 1.646 1.646 0 1 0 1.86 2.268 1.661 1.661 0 0 0 1.275-1.377A1.65 1.65 0 0 0 10 13.354z" fill="#ffffff"></path></g></g></svg>