<svg height="64" width="64" viewBox="0 0 20 20"><title>lock_view_off</title><g fill="#000000" class="nc-icon-wrapper"><g transform="translate(0 0)"><path d="M3.496 3.997a.5.5 0 0 0-.5.5v8a.5.5 0 0 0 .5.5h7c.676.01.676-1.01 0-1h-6.5v-7h6.5c.676.01.676-1.01 0-1h-6zm4.507 10.007l-.007 1.993h-1.5c-.676-.01-.676 1.01 0 1h1.92a.49.49 0 0 0 .162 0h1.918c.676.01.676-1.01 0-1h-1.5l.007-1.993z" data-color="color-2"></path><path d="M14.504 2.996c-1.39 0-2.5 1.192-2.5 2.615v1.893a.5.5 0 1 0 1 0V5.611c0-.912.681-1.615 1.5-1.615s1.5.703 1.5 1.615v1.893a.5.5 0 1 0 1 0V5.611c0-1.423-1.11-2.615-2.5-2.615zm-2.008 9a.5.5 0 0 0-.492.508v1.885c0 1.423 1.11 2.615 2.5 2.615s2.5-1.192 2.5-2.615v-1.885a.5.5 0 1 0-1 0v1.885c0 .912-.681 1.615-1.5 1.615s-1.5-.703-1.5-1.615v-1.885a.5.5 0 0 0-.508-.508z" fill="#ffffff"></path></g></g></svg>