<svg width="64" height="64" viewBox="0 0 24 24"><title>lock reset</title><g fill="#000000" class="nc-icon-wrapper"><g transform="translate(0 0)"><path d="M12.81 6.46c-1.52 0-2.77 1.24-2.77 2.77v1.01c-.5.01-.91.41-.91.92v4.61c0 .5.41.92.92.92h5.53c.51 0 .92-.42.92-.92v-4.61c0-.51-.41-.91-.91-.92V9.23c0-1.53-1.25-2.77-2.78-2.77zm-.035 1.4h.035c.76 0 1.38.61 1.38 1.37v1.01h-2.75V9.23c0-.748.6-1.35 1.335-1.37z" data-color="color-2"></path><path d="M12.631 2.353a9.66 9.66 0 0 0-3.018.484A9.641 9.641 0 0 0 7.44 3.871a9.738 9.738 0 0 0-1.248.957 9.605 9.605 0 0 0-3.162 6.326l-.021.2H.854L3.73 14.23c.961-.96 1.923-1.918 2.885-2.877H4.31c.044-.36.083-.721.162-1.075a8.297 8.297 0 0 1 1.214-2.901 8.527 8.527 0 0 1 1.426-1.636 8.316 8.316 0 0 1 5.697-2.094 8.3 8.3 0 0 1 3.024.63 8.369 8.369 0 0 1 4.12 3.681 8.37 8.37 0 0 1 .555 6.853 8.353 8.353 0 0 1-1.803 2.935 8.37 8.37 0 0 1-3.636 2.249 8.359 8.359 0 0 1-5.488-.226 8.394 8.394 0 0 1-3.723-2.928c-.038-.038-.068-.125-.109-.139l-.986.78a9.814 9.814 0 0 0 4.027 3.348 9.362 9.362 0 0 0 3.408.805 9.593 9.593 0 0 0 5.678-1.543 9.669 9.669 0 0 0 2.15-1.901c.27-.32.517-.659.742-1.01a9.551 9.551 0 0 0 1.518-5.275 9.563 9.563 0 0 0-1.65-5.288 9.121 9.121 0 0 0-.953-1.196 9.673 9.673 0 0 0-3.343-2.327 9.595 9.595 0 0 0-3.71-.742z" fill="#ffffff"></path></g></g></svg>