<svg width="64" height="64" viewBox="0 0 24 24"><title>lock remove outline</title><g fill="#000000" class="nc-icon-wrapper"><g transform="translate(0 0)"><path d="M22.54 16.88l-1.42-1.41L19 17.59l-2.12-2.12-1.41 1.41L17.59 19l-2.12 2.12 1.41 1.42L19 20.41l2.12 2.13 1.42-1.42L20.41 19z" data-color="color-2"></path><path d="M12 1.354a4.64 4.64 0 0 0-3.244 1.323 4.64 4.64 0 0 0-1.4 3.203c-.004.825 0 1.65-.002 2.475-.483.001-.966-.004-1.45.002a1.652 1.652 0 0 0-1.457 1.096c-.106.272-.093.566-.093.852v9.738a1.653 1.653 0 0 0 1.006 1.473c.255.114.536.137.812.13h7.058a6.287 6.287 0 0 1-.432-1.291H5.646V9.645h12.709v3.042a5.132 5.132 0 0 1 1.29 0c0-.917.003-1.834 0-2.751a1.653 1.653 0 0 0-1.024-1.46c-.254-.111-.535-.129-.809-.122h-1.166c-.002-.834.003-1.67-.002-2.504a4.642 4.642 0 0 0-1.46-3.231A4.637 4.637 0 0 0 12 1.354zm0 1.292a3.355 3.355 0 0 1 2.498 1.112 3.36 3.36 0 0 1 .856 2.305v2.292H8.645c.001-.821-.002-1.642.002-2.463A3.35 3.35 0 0 1 12 2.646zm0 10.708a1.651 1.651 0 0 0-1.509.987 1.65 1.65 0 0 0 .252 1.72c.373.45.996.67 1.568.555a1.653 1.653 0 0 0 1.3-1.274A1.649 1.649 0 0 0 12 13.354z" fill="#ffffff"></path></g></g></svg>