<svg height="64" width="64" data-color="color-2" viewBox="0 0 20 20"><title>lock_view_on</title><g fill="#000000" class="nc-icon-wrapper"><g transform="translate(0 0)"><path d="M8.003 14l-.007 1.993h-1.5c-.676-.01-.676 1.01 0 1h1.92a.49.49 0 0 0 .162 0h1.918c.676.01.676-1.01 0-1h-1.5L9.003 14zM3.496 3.993a.5.5 0 0 0-.5.5v8a.5.5 0 0 0 .5.5h7a.5.5 0 1 0 0-1h-6.5v-7h6.5a.5.5 0 1 0 0-1h-6z" data-color="color-2"></path><path d="M14.504 7c-1.408 0-2.5 1.267-2.5 2.752v1.5c0 1.482 1.092 2.748 2.5 2.748s2.5-1.266 2.5-2.748v-.32a.5.5 0 1 0-1 0v.32c0 1-.7 1.748-1.5 1.748s-1.5-.747-1.5-1.748v-1.5c0-1.006.7-1.752 1.5-1.752a.5.5 0 1 0 0-1zm0-4c-1.408 0-2.5 1.266-2.5 2.748v.32a.5.5 0 1 0 1 0v-.32c0-1 .7-1.748 1.5-1.748s1.5.747 1.5 1.748v1.5c0 1.006-.7 1.752-1.5 1.752a.5.5 0 1 0 0 1c1.408 0 2.5-1.267 2.5-2.752v-1.5c0-1.482-1.092-2.748-2.5-2.748z" fill="#ffffff"></path></g></g></svg>