<svg width="64" height="64" viewBox="0 0 24 24"><title>lock off outline</title><g fill="#ffffff" class="nc-icon-wrapper"><g transform="translate(0 0)"><path class="nc-icon-wrapper" d="M12 1.353a4.52 4.52 0 0 0-3.153 1.299c-.43.42-.778.923-1.025 1.471l.953.965c.23-.802.767-1.51 1.479-1.946a3.35 3.35 0 0 1 4.182.55c.525.55.85 1.284.907 2.042.017.218.008.438.01.657v1.962h-3.3l1.293 1.293h5.008v5.008l1.293 1.293V9.968a1.64 1.64 0 0 0-.454-1.097 1.645 1.645 0 0 0-1.145-.517h-1.401v-2.42A4.628 4.628 0 0 0 15.9 3.48a4.675 4.675 0 0 0-2.215-1.81A4.621 4.621 0 0 0 12 1.355zm-9.61.877l-.779.772 5.354 5.352c-.34 0-.68-.002-1.02 0-.227.008-.451.062-.654.163a1.61 1.61 0 0 0-.803.837 1.623 1.623 0 0 0-.135.722v9.948a1.657 1.657 0 0 0 1.52 1.618c.155.009.31.003.465.004h11.684c.46-.005.911-.219 1.208-.57l.217-.242 1.392 1.396.77-.769-19.22-19.23zm3.256 7.416h2.61l3.64 3.641c-.19.074-.384.144-.574.22a1.59 1.59 0 0 0-.867.912 1.658 1.658 0 0 0 .976 2.125 1.65 1.65 0 0 0 1.548-.217 1.61 1.61 0 0 0 .56-.766l.174-.458 4.64 4.641v.61H5.646V9.645z"></path></g></g></svg>