<svg width="64" height="64" viewBox="0 0 24 24"><title>lock outline</title><g fill="#ffffff" class="nc-icon-wrapper"><g transform="translate(0 0)"><path class="nc-icon-wrapper" d="M12 1.353a4.606 4.606 0 0 0-2.443.697 4.68 4.68 0 0 0-1.723 1.892 4.627 4.627 0 0 0-.48 2.013v2.398H5.96a1.646 1.646 0 0 0-1.606 1.623v10.032a1.65 1.65 0 0 0 1.672 1.639h11.998a1.65 1.65 0 0 0 1.622-1.673V9.976a1.65 1.65 0 0 0-1.672-1.622h-1.328v-2.41a4.619 4.619 0 0 0-.854-2.628 4.68 4.68 0 0 0-1.734-1.482A4.628 4.628 0 0 0 12 1.354zm0 1.293a3.334 3.334 0 0 1 1.875.573 3.346 3.346 0 0 1 1.477 2.676c.003.241 0 .483.002.725v1.733H8.646V5.951A3.347 3.347 0 0 1 12 2.646zm-6.354 7h12.707v10.707H5.646V9.646zM12 13.354a1.645 1.645 0 0 0-.008 3.294 1.65 1.65 0 0 0 1.654-1.695A1.65 1.65 0 0 0 12 13.354z"></path></g></g></svg>