<svg width="64" height="64" viewBox="0 0 24 24"><title>lock open variant outline</title><g fill="#ffffff" class="nc-icon-wrapper"><g transform="translate(0 0)"><path class="nc-icon-wrapper" d="M18 1.353a4.628 4.628 0 0 0-2.431.69 4.641 4.641 0 0 0-2.215 4.032v2.279H3.978a1.654 1.654 0 0 0-1.626 1.695v9.972a1.654 1.654 0 0 0 1.696 1.625H16.02a1.654 1.654 0 0 0 1.625-1.695V9.98a1.654 1.654 0 0 0-1.695-1.625h-1.305V5.943a3.349 3.349 0 0 1 2.474-3.18 3.35 3.35 0 0 1 4.232 3.306v1.578h1.294V5.925a4.628 4.628 0 0 0-.738-2.433 4.676 4.676 0 0 0-2.067-1.757A4.621 4.621 0 0 0 18 1.354zM3.646 9.646h12.707v10.707H3.646V9.646zM10 13.354a1.632 1.632 0 0 0-1.143.465 1.644 1.644 0 0 0 1.032 2.824 1.644 1.644 0 0 0 1.754-1.547 1.626 1.626 0 0 0-.352-1.11A1.654 1.654 0 0 0 10 13.353z"></path></g></g></svg>