<svg height="64" width="64" viewBox="0 0 20 20"><title>longdisplay</title><g fill="#ffffff" class="nc-icon-wrapper"><g transform="translate(0 0)"><path d="M3.508 3.5a.5.5 0 0 0-.5.5v12a.5.5 0 0 0 .5.5h2.984a.5.5 0 0 0 .5-.5V4a.5.5 0 0 0-.5-.5zm.5 1h1.984v2H4.008zm0 3h1.984v2H4.008zm0 3h1.984v2H4.008zm0 3h1.984v2H4.008zm11.984-3h1v1h-1zm-2 0h1v1h-1zm-2 0h1v1h-1zm-2 0h1v1h-1zm-2 0h1v1h-1zm8-3h1v1h-1zm-2 0h1v1h-1zm-2 0h1v1h-1zm-2 0h1v1h-1zm-2 0h1v1h-1zm8-3h1v1h-1zm-2 0h1v1h-1zm-2 0h1v1h-1zm-2 0h1v1h-1zm-2 0h1v1h-1z" class="nc-icon-wrapper"></path></g></g></svg>