<svg height="64" width="64" viewBox="0 0 20 20"><title>mat_sphere_sky</title><g fill="#000000" class="nc-icon-wrapper"><g transform="translate(0 0)"><path d="M12.479 3c-.756 0-1.403.283-1.834.75-.309.334-.374.801-.461 1.25H9.25C7.501 5 6 6.268 6 8c0 .034.01.066.012.1.32-.066.65-.1.988-.1 2.033 0 3.794 1.242 4.572 3h2.678c.73 0 1.411-.231 1.92-.668A2.4 2.4 0 0 0 17 8.5c0-1.192-.946-2.063-2.043-2.307-.002-.488.012-1.1-.246-1.744C14.407 3.693 13.656 3 12.479 3z" fill="#ffffff"></path><path d="M7 9c-2.203 0-4 1.797-4 4 0 2.203 1.797 4 4 4 2.203 0 4-1.797 4-4 0-2.203-1.797-4-4-4zm0 1c1.663 0 3 1.337 3 3s-1.337 3-3 3-3-1.337-3-3 1.337-3 3-3z" data-color="color-2"></path><path d="M4.5 3C5.323 3 6 3.677 6 4.5S5.323 6 4.5 6 3 5.323 3 4.5 3.677 3 4.5 3z" fill="#ffffff"></path></g></g></svg>