<svg height="64" width="64" data-color="color-2" viewBox="0 0 20 20"><title>mat_shaderball</title><g fill="#000000" class="nc-icon-wrapper"><g transform="translate(0 0)"><path d="M9.82 3.002a6.006 6.006 0 0 0-5.529 4.15A5.997 5.997 0 0 0 5.541 13H5.25a.5.5 0 0 0-.354.146l-1.75 1.75A.5.5 0 0 0 3 15.25v1.25a.5.5 0 0 0 .5.5h13a.5.5 0 0 0 .5-.5v-1.25a.5.5 0 0 0-.146-.354l-1.75-1.75A.5.5 0 0 0 14.75 13h-.295a5.993 5.993 0 0 0 1.133-6.188 6.004 6.004 0 0 0-5.768-3.81zm.034 1.1a4.894 4.894 0 0 1 4.708 3.11 4.896 4.896 0 0 1-1.345 5.483.55.55 0 0 0-.178.305H12.5a.5.5 0 1 0 0 1h2.043L16 15.457V16H4v-.543L5.457 14H9.5a.5.5 0 1 0 0-1H7.123a.55.55 0 0 0-.111-.117 4.899 4.899 0 0 1 2.842-8.781z" fill="#ffffff"></path><path d="M9.555 5.691a.5.5 0 0 0-.086.008 3.346 3.346 0 0 0-2.772 2.782.5.5 0 1 0 .989.154 2.34 2.34 0 0 1 1.943-1.95.5.5 0 0 0-.074-.993z" data-color="color-2"></path></g></g></svg>