<svg height="64" width="64" viewBox="0 0 20 20"><title>mat_sphere</title><g fill="#000000" class="nc-icon-wrapper"><g transform="translate(0 0)"><path d="M10 3c-3.86 0-7 3.14-7 7s3.14 7 7 7 7-3.14 7-7-3.14-7-7-7zm0 1c3.32 0 6 2.68 6 6s-2.68 6-6 6-6-2.68-6-6 2.68-6 6-6z" fill="#ffffff"></path><path d="M4.508 9.244a.5.5 0 0 0-.352.858C5.522 11.478 6.902 12 8.5 12H10c2.575 0 3.848-.615 4.723-1.053a.5.5 0 1 0-.446-.894C13.402 10.49 12.425 11 10 11H8.5c-1.402 0-2.403-.363-3.633-1.602a.5.5 0 0 0-.36-.154z" data-color="color-2"></path></g></g></svg>