<svg width="64" height="64" viewBox="0 0 24 24"><title>medal outline</title><g fill="#000000" class="nc-icon-wrapper"><g transform="translate(0 0)"><path d="M4.354 2.355v1.468l5.21 3.902c-.518.22-1.043.432-1.523.731a7.648 7.648 0 0 0-.006 13.077 7.651 7.651 0 0 0 4.972 1.042 7.648 7.648 0 0 0 6.616-6.984 7.653 7.653 0 0 0-4.726-7.67l-.46-.196 5.209-3.902V2.355H4.355zm1.953 1.29H17.79l-5.044 3.71h-1.494l-4.945-3.71zm5.82 5.002a6.36 6.36 0 0 1 6.214 5.93c.095 1.394-.265 2.822-1.054 3.979-1.023 1.522-2.733 2.55-4.552 2.767a6.182 6.182 0 0 1-3.006-.374 6.576 6.576 0 0 1-2.928-2.275 6.243 6.243 0 0 1-1.148-4.044c.1-1.677.879-3.31 2.148-4.417 1.178-1.04 2.759-1.592 4.325-1.566z" fill="#ffffff"></path><path d="M14.94 19.5L12 17.77 9.06 19.5l.78-3.34-2.59-2.24 3.41-.29L12 10.5l1.34 3.13 3.41.29-2.59 2.24" data-color="color-2"></path></g></g></svg>