<svg height="64" width="64" viewBox="0 0 20 20"><title>memory</title><g fill="#000000" class="nc-icon-wrapper"><g transform="translate(0 0)"><path d="M8.502 2.996c-.253 0-.505.17-.5.508L7.998 5h-2.5a.5.5 0 0 0-.5.5V8l-1.494-.002c-.676-.01-.676 1.01 0 1L4.998 9v2l-1.494-.002c-.676-.01-.676 1.01 0 1L4.998 12v2.5a.5.5 0 0 0 .5.5h2.5l.004 1.496c-.01.676 1.01.676 1 0L8.998 15h2l.004 1.496c-.01.676 1.01.676 1 0L11.998 15h2.5a.5.5 0 0 0 .5-.5V12l1.498-.002c.676.01.676-1.01 0-1L14.998 11V9l1.498-.002c.676.01.676-1.01 0-1L14.998 8V5.5a.5.5 0 0 0-.5-.5h-2.5l.004-1.496c.01-.676-1.01-.676-1 0L10.998 5h-2l.004-1.496c.005-.338-.248-.508-.5-.508zM5.998 6h8v8h-8z" fill="#ffffff"></path><path d="M8.498 8a.5.5 0 0 0-.5.5v3a.5.5 0 0 0 .5.5h3a.5.5 0 0 0 .5-.5v-3a.5.5 0 0 0-.5-.5zm.5 1h2v2h-2z" data-color="color-2"></path></g></g></svg>