<svg height="64" width="64" viewBox="0 0 20 20"><title>mesh_monkey</title><g fill="#000000" class="nc-icon-wrapper"><g transform="translate(0 0)"><path d="M6.5 3a.5.5 0 0 0-.33.123l-2 1.75A.5.5 0 0 0 4 5.25V7H2.5a.5.5 0 0 0-.5.5V9c0 .986.74 1.689 1.568 1.92.716.2 1.515.048 2.184-.385L7 11.94v2.311c0 .889.394 1.618.969 2.078.574.46 1.306.672 2.031.672.725 0 1.457-.212 2.031-.672.575-.46.969-1.19.969-2.078v-2.31l1.248-1.405c.67.433 1.468.585 2.184.385.827-.231 1.568-.934 1.568-1.92v-1.5a.5.5 0 0 0-.5-.5H16v-1.75a.5.5 0 0 0-.17-.377l-2-1.75a.5.5 0 0 0-.33-.123h-2a.5.5 0 0 0-.354.146l-.853.854h-.586l-.853-.854a.5.5 0 0 0-.354-.146zm.188 1h1.605l.853.854A.5.5 0 0 0 9.5 5h1a.5.5 0 0 0 .354-.146L11.707 4h1.606L15 5.479V7.5a.5.5 0 0 0 .5.5H17v1c0 .514-.322.811-.838.955-.394.11-.821-.063-1.207-.25a.5.5 0 0 0-.828-.537l-2 2.25a.5.5 0 0 0-.127.332v2.5c0 .611-.23 1.007-.594 1.297-.363.29-.881.453-1.406.453-.525 0-1.043-.163-1.406-.453-.363-.29-.594-.686-.594-1.297v-2.5a.5.5 0 0 0-.127-.332l-2-2.25a.5.5 0 0 0-.828.537c-.386.187-.813.36-1.207.25C3.322 9.811 3 9.514 3 9V8h1.5a.5.5 0 0 0 .5-.5V5.477z" fill="#ffffff"></path><path d="M8 6a.5.5 0 0 0-.354.146l-.5.5A.5.5 0 0 0 7 7v.5a.5.5 0 1 0 1 0v-.293L8.207 7H8.5a.5.5 0 1 0 0-1zm4 0a.5.5 0 0 0-.354.146l-.5.5A.5.5 0 0 0 11 7v.5a.5.5 0 1 0 1 0v-.293L12.207 7h.293a.5.5 0 1 0 0-1zM9.5 9a.5.5 0 1 0 0 1h1a.5.5 0 1 0 0-1z" data-color="color-2"></path></g></g></svg>