<svg height="64" width="64" viewBox="0 0 20 20"><title>mesh_torus</title><g fill="#000000" class="nc-icon-wrapper"><g transform="translate(0 0)"><path d="M10 4c-2.195 0-4.17.64-5.62 1.709C2.932 6.777 2 8.301 2 10c0 1.7.932 3.223 2.38 4.291C5.83 15.359 7.805 16 10 16c2.195 0 4.17-.64 5.62-1.709C17.068 13.223 18 11.699 18 10c0-1.7-.932-3.223-2.38-4.291C14.17 4.641 12.195 4 10 4zm0 1c2 0 3.773.59 5.025 1.514C16.277 7.437 17 8.664 17 10c0 1.337-.723 2.563-1.975 3.486C13.773 14.41 12 15 10 15c-2 0-3.773-.59-5.025-1.514C3.723 12.563 3 11.336 3 10c0-1.337.723-2.563 1.975-3.486C6.227 5.59 8 5 10 5z" fill="#ffffff"></path><path d="M7.492 8.492a.5.5 0 0 0-.492.51v.25c0 .268.101.433.234.617.134.185.321.369.567.535.49.334 1.218.593 2.197.596.98.003 1.712-.257 2.203-.592a2.24 2.24 0 0 0 .565-.539c.133-.185.233-.35.234-.617v-.25a.5.5 0 1 0-1-.004v.252c0-.112.009-.041-.047.037-.056.079-.16.189-.316.295-.312.213-.83.42-1.635.418-.805-.002-1.328-.212-1.64-.424a1.287 1.287 0 0 1-.317-.293C7.989 9.205 8 9.137 8 9.25v-.252a.5.5 0 0 0-.508-.506z" data-color="color-2"></path></g></g></svg>