<svg height="64" width="64" viewBox="0 0 20 20"><title>mesh_grid</title><g fill="#000000" class="nc-icon-wrapper"><g transform="translate(0 0)"><path d="M3.484 2.952a.5.5 0 0 0-.5.5v13.096a.5.5 0 0 0 .5.5h13.033a.5.5 0 0 0 .5-.5V3.452a.5.5 0 0 0-.5-.5zm.5 1h12.033v12.096H3.984z" fill="#ffffff"></path><path d="M7.509 4.944a.5.5 0 0 0-.492.508v1.5h-1.5a.5.5 0 1 0 0 1h1.5v4h-1.5a.5.5 0 1 0 0 1h1.5v1.5a.5.5 0 1 0 1 0v-1.5h4v1.5a.5.5 0 1 0 1 0v-1.5h1.5a.5.5 0 1 0 0-1h-1.5v-4h1.5a.5.5 0 1 0 0-1h-1.5v-1.5a.5.5 0 1 0-1 0v1.5h-4v-1.5a.5.5 0 0 0-.508-.508zm.508 3.008h4v4h-4z" data-color="color-2"></path></g></g></svg>