<svg height="64" width="64" viewBox="0 0 20 20"><title>mesh_icosphere</title><g fill="#000000" class="nc-icon-wrapper"><g transform="translate(0 0)"><path d="M9.5 3a.5.5 0 0 0-.24.06l-5.5 3a.5.5 0 0 0-.26.44v7a.5.5 0 0 0 .26.44l5.5 3a.5.5 0 0 0 .24.06h1a.5.5 0 0 0 .24-.06l5.5-3a.5.5 0 0 0 .26-.44v-7a.5.5 0 0 0-.26-.44l-5.5-3A.5.5 0 0 0 10.5 3zm.127 1h.746L15.5 6.797v6.406L10.373 16h-.746L4.5 13.203V6.797z" fill="#ffffff"></path><path d="M6 6a.5.5 0 1 0 0 1h8a.5.5 0 1 0 0-1zm6.014 1a.5.5 0 0 0-.405.188l-3.595 4.496L5.4 8.199a.5.5 0 1 0-.8.602l3 4a.5.5 0 0 0 .386.199.5.5 0 0 0 .405-.188l3.595-4.496 2.614 3.485a.5.5 0 1 0 .8-.602l-3-4A.5.5 0 0 0 12.014 7zm-4.028 6H6a.5.5 0 1 0 0 1h8a.5.5 0 1 0 0-1z" data-color="color-2"></path></g></g></svg>