<svg height="64" width="64" viewBox="0 0 20 20"><title>mesh_uvsphere</title><g fill="#000000" class="nc-icon-wrapper"><g transform="translate(0 0)"><path d="M10 2.938A7.07 7.07 0 0 0 2.937 10 7.07 7.07 0 0 0 10 17.063 7.07 7.07 0 0 0 17.063 10 7.07 7.07 0 0 0 10 2.937zm0 1A6.055 6.055 0 0 1 16.063 10 6.055 6.055 0 0 1 10 16.063 6.055 6.055 0 0 1 3.937 10 6.055 6.055 0 0 1 10 3.937z" fill="#ffffff"></path><path d="M9.477 4.744a.5.5 0 0 0-.4.24C8.183 6.41 8 7.98 8 10c0 .335.056.607.068.922-1.167-.08-2.112-.427-3.2-1.524a.5.5 0 1 0-.712.704c1.258 1.267 2.545 1.752 3.987 1.83.125 1.119.352 2.165.933 3.086a.502.502 0 1 0 .848-.536c-.453-.718-.66-1.554-.781-2.482H10c2.575 0 3.848-.615 4.723-1.053a.5.5 0 1 0-.446-.894C13.402 10.49 12.425 11 10 11h-.928C9.055 10.659 9 10.38 9 10c0-1.96.173-3.284.924-4.484a.5.5 0 0 0-.447-.772z" data-color="color-2"></path></g></g></svg>