<svg height="64" width="64" viewBox="0 0 20 20"><title>mesh_cube</title><g fill="#000000" class="nc-icon-wrapper"><g transform="translate(0 0)"><path d="M6.5 3a.5.5 0 0 0-.354.146l-3 3A.5.5 0 0 0 3 6.5v10a.5.5 0 0 0 .5.5h10a.5.5 0 0 0 .354-.146l3-3A.5.5 0 0 0 17 13.5v-10a.5.5 0 0 0-.5-.5zm.207 1H16v9.293L13.293 16H4V6.707z" fill="#ffffff"></path><path d="M15.49 3.988a.5.5 0 0 0-.344.153L13.293 6H5.5a.5.5 0 1 0 0 1H13v7.5a.5.5 0 1 0 1 0V6.707l1.854-1.861a.5.5 0 0 0-.364-.858z" data-color="color-2"></path></g></g></svg>