<svg height="64" width="64" viewBox="0 0 20 20"><title>mesh_cylinder</title><g fill="#000000" class="nc-icon-wrapper"><g transform="translate(0 0)"><path d="M6.496 7.246a.5.5 0 0 0-.273.92C7.15 8.784 8.6 9 10 9c1.397 0 2.85-.216 3.777-.834a.5.5 0 1 0-.554-.832C12.65 7.716 11.273 8 10 8c-1.276 0-2.65-.284-3.223-.666a.5.5 0 0 0-.28-.088z" data-color="color-2"></path><path d="M10 3c-1.58 0-3.013.285-4.096.777-.541.246-.997.543-1.338.909C4.226 5.051 4 5.506 4 6v8c0 .494.226.949.566 1.314.34.366.797.663 1.338.909C6.987 16.715 8.42 17 10 17s3.013-.285 4.096-.777c.541-.246.997-.543 1.338-.909.34-.365.566-.82.566-1.314V6c0-.494-.226-.949-.566-1.314-.34-.366-.797-.663-1.338-.909C13.013 3.285 11.58 3 10 3zm0 1c1.457 0 2.774.275 3.682.688.454.206.803.447 1.02.68.216.232.298.435.298.632v8c0 .197-.082.4-.299.633-.216.232-.565.473-1.02.68-.907.412-2.224.687-3.681.687-1.457 0-2.774-.275-3.682-.688-.454-.206-.803-.447-1.02-.68C5.082 14.4 5 14.197 5 14V6c0-.197.082-.4.299-.633.216-.232.565-.473 1.02-.68C7.226 4.275 8.543 4 10 4z" fill="#ffffff"></path></g></g></svg>