<svg height="64" width="64" viewBox="0 0 20 20"><title>meta_ball</title><g fill="#000000" class="nc-icon-wrapper"><g transform="translate(0 0)"><path d="M10 2.938A7.07 7.07 0 0 0 2.937 10 7.07 7.07 0 0 0 10 17.063 7.07 7.07 0 0 0 17.063 10 7.07 7.07 0 0 0 10 2.937zm0 1A6.055 6.055 0 0 1 16.063 10 6.055 6.055 0 0 1 10 16.063 6.055 6.055 0 0 1 3.937 10 6.055 6.055 0 0 1 10 3.937z" fill="#ffffff"></path><path d="M9.477 4.744a.5.5 0 0 0-.4.24C8.183 6.41 8 7.98 8 10c0 1.967.174 3.586 1.076 5.018a.502.502 0 1 0 .848-.536C9.171 13.289 9 11.908 9 10c0-1.96.173-3.284.924-4.484a.5.5 0 0 0-.447-.772z" data-color="color-2"></path></g></g></svg>