<svg height="64" width="64" viewBox="0 0 20 20"><title>meta_cube</title><g fill="#000000" class="nc-icon-wrapper"><g transform="translate(0 0)"><path d="M8.5 3c-.795 0-1.559.316-2.121.879l-2.5 2.5A3.001 3.001 0 0 0 3 8.5V14c0 1.65 1.35 3 3 3h5.5c.795 0 1.559-.316 2.121-.879l2.5-2.5A3.001 3.001 0 0 0 17 11.5V5.75c0-.795-.26-1.502-.754-1.996S15.046 3 14.25 3zm0 1h5.75c.585 0 1.003.175 1.29.46.285.287.46.705.46 1.29v5.75a2 2 0 0 1-.586 1.414l-2.5 2.5A2 2 0 0 1 11.5 16H6c-1.11 0-2-.89-2-2V8.5a2 2 0 0 1 .586-1.414l2.5-2.5A2 2 0 0 1 8.5 4z" fill="#ffffff"></path><path d="M14.49 4.996a.5.5 0 0 0-.344.15l-1 1a.5.5 0 1 0 .708.708l1-1a.5.5 0 0 0-.364-.858zM6.5 7a.5.5 0 1 0 0 1h4a.5.5 0 1 0 0-1zm5.992 1.992A.5.5 0 0 0 12 9.5v4a.5.5 0 1 0 1 0v-4a.5.5 0 0 0-.508-.508z" data-color="color-2"></path></g></g></svg>