<svg width="64" height="64" viewBox="0 0 24 24"><title>minus circle outline</title><g fill="#000000" class="nc-icon-wrapper"><g transform="translate(0 0)"><path d="M7 13h10v-2H7" data-color="color-2"></path><path d="M12 2.355A9.62 9.62 0 0 0 6.656 3.97a9.684 9.684 0 0 0-3.858 5.135 9.678 9.678 0 0 0 .367 6.77 9.695 9.695 0 0 0 4.341 4.661 9.654 9.654 0 0 0 5.805 1.021 9.635 9.635 0 0 0 5.536-2.766 9.633 9.633 0 0 0 2.719-5.547 9.657 9.657 0 0 0-1.027-5.731 9.699 9.699 0 0 0-4.74-4.38 9.621 9.621 0 0 0-3.8-.778zm0 1.29a8.372 8.372 0 0 1 8.18 6.647 8.36 8.36 0 0 1-.764 5.554 8.416 8.416 0 0 1-4.073 3.812 8.37 8.37 0 0 1-6.253.175 8.408 8.408 0 0 1-4.35-3.699A8.344 8.344 0 0 1 5.868 6.33 8.357 8.357 0 0 1 12 3.646z" fill="#ffffff"></path></g></g></svg>