<svg width="64" height="64" viewBox="0 0 24 24"><title>minus circle multiple outline</title><g fill="#000000" class="nc-icon-wrapper"><g transform="translate(0 0)"><path d="M15 3.354A8.609 8.609 0 0 0 9.922 5.01a8.691 8.691 0 0 0-3.314 4.911 8.625 8.625 0 0 0 .577 5.77 8.722 8.722 0 0 0 4.452 4.271 8.629 8.629 0 0 0 6.046.256 8.712 8.712 0 0 0 4.742-3.797 8.606 8.606 0 0 0 1.208-4.9 8.622 8.622 0 0 0-2.041-5.105 8.673 8.673 0 0 0-4.906-2.897A8.597 8.597 0 0 0 15 3.354zm0 1.292a7.333 7.333 0 0 1 4.256 1.357 7.385 7.385 0 0 1 2.8 3.92 7.37 7.37 0 0 1-.387 5.178 7.4 7.4 0 0 1-3.558 3.563 7.369 7.369 0 0 1-5.145.405 7.385 7.385 0 0 1-3.911-2.741 7.333 7.333 0 0 1-1.41-4.257A7.333 7.333 0 0 1 8.904 7.89a7.386 7.386 0 0 1 3.911-2.913A7.33 7.33 0 0 1 15 4.646z" fill="#ffffff"></path><path d="M5.646 4.047A8.804 8.804 0 0 0 1.43 7.839a8.512 8.512 0 0 0-1.06 3.643 8.558 8.558 0 0 0 .854 4.284 8.786 8.786 0 0 0 3.984 3.986c.14.062.31.161.437.19V18.54a7.39 7.39 0 0 1-3.394-3.618 7.356 7.356 0 0 1-.435-4.499A7.36 7.36 0 0 1 5.646 5.46zM11 11v2h8v-2z" data-color="color-2"></path></g></g></svg>