<svg height="64" width="64" viewBox="0 0 20 20"><title>mod_data_transfer</title><g fill="#000000" class="nc-icon-wrapper"><g transform="translate(0 0)"><path d="M3.5 7a.5.5 0 0 0-.5.5v2a.5.5 0 0 0 .5.5h.715L7 14.64v1.86a.5.5 0 0 0 .5.5h2a.5.5 0 0 0 .5-.5v-1.86L12.785 10h.715a.5.5 0 0 0 .5-.5v-2a.5.5 0 0 0-.5-.5h-2a.5.5 0 0 0-.5.5V8H6v-.5a.5.5 0 0 0-.5-.5zM4 8h1v1H4zm8 0h1v1h-1zM6 9h5v.5a.5.5 0 0 0 .5.5h.115l-2.4 4h-1.43l-2.4-4H5.5a.5.5 0 0 0 .5-.5zm2 6h1v1H8z" fill="#ffffff"></path><path d="M7.5 3a.5.5 0 0 0-.5.5V7h1V4h8v10h-3.5c-.676-.01-.676 1.01 0 1h4a.5.5 0 0 0 .5-.5v-11a.5.5 0 0 0-.5-.5z" data-color="color-2"></path></g></g></svg>