<svg height="64" width="64" viewBox="0 0 20 20"><title>mod_multires</title><g fill="#000000" class="nc-icon-wrapper"><g transform="translate(0 0)"><path d="M3.5 3a.5.5 0 0 0-.5.5v13a.5.5 0 0 0 .5.5h13a.5.5 0 0 0 .5-.5v-13a.5.5 0 0 0-.5-.5zM4 4h12v12H4z" data-color="color-2"></path><path d="M10.492 3.992A.5.5 0 0 0 10 4.5V10H4.5a.5.5 0 1 0 0 1H10v2H4.5a.5.5 0 1 0 0 1H10v1.5a.5.5 0 1 0 1 0V14h2v1.5a.5.5 0 1 0 1 0V14h1.5a.5.5 0 1 0 0-1H14v-2h1.5a.5.5 0 1 0 0-1H14V4.5a.5.5 0 1 0-1 0V10h-2V4.5a.5.5 0 0 0-.508-.508zM11 11h2v2h-2z" fill="#ffffff"></path></g></g></svg>