<svg height="64" width="64" viewBox="0 0 20 20"><title>mod_time</title><g fill="#000000" class="nc-icon-wrapper"><g transform="translate(0 0)"><path d="M10 3c-3.86 0-7 3.14-7 7s3.14 7 7 7 7-3.14 7-7-3.14-7-7-7zm0 1c3.32 0 6 2.68 6 6s-2.68 6-6 6-6-2.68-6-6 2.68-6 6-6z" fill="#ffffff"></path><path d="M10.492 4.992A.5.5 0 0 0 10 5.5v5a.5.5 0 0 0 .223.416l3 2a.5.5 0 1 0 .554-.832L11 10.232V5.5a.5.5 0 0 0-.508-.508z" data-color="color-2"></path><path d="M5.5 10a.5.5 0 1 0 0 1h3a.5.5 0 1 0 0-1z" data-color="color-2"></path><path d="M6.744 6.244a.5.5 0 0 0-.348.86l1.75 1.75a.5.5 0 1 0 .708-.708l-1.75-1.75a.5.5 0 0 0-.36-.152z" data-color="color-2"></path></g></g></svg>