<svg height="64" width="64" viewBox="0 0 20 20"><title>mod_particle_instance</title><g fill="#000000" class="nc-icon-wrapper"><g transform="translate(0 0)"><path d="M11.004 9.002A2.01 2.01 0 0 0 9 7c-1.1 0-2.004.902-2.004 2.002A2.01 2.01 0 0 0 9 11.004a2.01 2.01 0 0 0 2.004-2.002zm6-.502c0-.823-.677-1.5-1.5-1.5s-1.5.677-1.5 1.5.677 1.5 1.5 1.5 1.5-.677 1.5-1.5zm-7 7c0-.823-.677-1.5-1.5-1.5s-1.5.677-1.5 1.5.677 1.5 1.5 1.5 1.5-.677 1.5-1.5zm5.992-.998c0-.822-.674-1.502-1.496-1.502s-1.496.68-1.496 1.502.674 1.502 1.496 1.502 1.496-.68 1.496-1.502z" data-color="color-2"></path><path d="M14.504 8h-4v1h4zm-.646 5.146l-3.51-3.496-.705.71 3.507 3.494zM9.004 10.5h-1v4h1z" data-color="color-2"></path><path d="M13.004 4.5c0-.823-.677-1.5-1.5-1.5s-1.5.677-1.5 1.5.677 1.5 1.5 1.5 1.5-.677 1.5-1.5zm-1 0c0 .282-.218.5-.5.5a.493.493 0 0 1-.5-.5.493.493 0 0 1 .5-.5c.282 0 .5.218.5.5zm-5 .502A2.01 2.01 0 0 0 5 3c-1.1 0-2.004.902-2.004 2.002A2.01 2.01 0 0 0 5 7.004a2.01 2.01 0 0 0 2.004-2.002zm-1 0A.995.995 0 0 1 5 6.004a.995.995 0 0 1-1.004-1.002A.995.995 0 0 1 5 4a.995.995 0 0 1 1.004 1.002zm0 6.498c0-.823-.677-1.5-1.5-1.5s-1.5.677-1.5 1.5.677 1.5 1.5 1.5 1.5-.677 1.5-1.5zm-1 0c0 .282-.218.5-.5.5a.493.493 0 0 1-.5-.5.493.493 0 0 1 .5-.5c.282 0 .5.218.5.5z" fill="#ffffff"></path><path d="M10.504 4h-4v1h4zm-5.5 2.5h-1v4h1z" fill="#ffffff"></path></g></g></svg>