<svg height="64" width="64" viewBox="0 0 20 20"><title>mod_hue_saturation</title><g fill="#000000" class="nc-icon-wrapper"><g transform="translate(0 0)"><path d="M7.007 4.5v1H16.5c.676.01.676-1.01 0-1zM3.5 9.5c-.676-.01-.676 1.01 0 1h5.507v-1zm10.507 0v1H16.5c.676.01.676-1.01 0-1zM3.5 14.5c-.676-.01-.676 1.01 0 1h9.507v-1z" data-color="color-2"></path><path d="M4.5 3.5C3.677 3.5 3 4.177 3 5s.677 1.5 1.5 1.5S6 5.823 6 5s-.677-1.5-1.5-1.5zm0 1c.282 0 .5.218.5.5 0 .282-.218.5-.5.5A.493.493 0 0 1 4 5c0-.282.218-.5.5-.5zm7 4c-.823 0-1.5.677-1.5 1.5s.677 1.5 1.5 1.5S13 10.823 13 10s-.677-1.5-1.5-1.5zm0 1c.282 0 .5.218.5.5 0 .282-.218.5-.5.5a.493.493 0 0 1-.5-.5c0-.282.218-.5.5-.5zm4 4c-.823 0-1.5.677-1.5 1.5s.677 1.5 1.5 1.5S17 15.823 17 15s-.677-1.5-1.5-1.5zm0 1c.282 0 .5.218.5.5 0 .282-.218.5-.5.5a.493.493 0 0 1-.5-.5c0-.282.218-.5.5-.5z" fill="#ffffff"></path></g></g></svg>