<svg height="64" width="64" viewBox="0 0 20 20"><title>mod_warp</title><g fill="#000000" class="nc-icon-wrapper"><g transform="translate(0 0)"><path d="M3.488 5.004a.5.5 0 0 0-.5.5l.008 11.008a.5.5 0 0 0 .5.5h11a.5.5 0 0 0 .5-.5v-2.508h-1v2.008h-10L3.988 6.004h2.008v-1z" data-color="color-2"></path><path d="M14.536 3.004c-.616.073-1.183.348-1.747.654-1.129.613-2.26 1.346-3.293 1.346h-1a.5.5 0 1 0 0 1h1c1.467 0 2.71-.892 3.77-1.467.529-.287 1.009-.496 1.386-.54.378-.045.646.016.99.36.345.345.406.613.362.99-.045.378-.254.858-.541 1.387-.575 1.06-1.467 2.303-1.467 3.77v1a.5.5 0 1 0 1 0v-1c0-1.033.733-2.164 1.346-3.293.306-.564.581-1.131.654-1.746a2.182 2.182 0 0 0-.646-1.815c-.53-.53-1.2-.719-1.815-.646z" fill="#ffffff"></path></g></g></svg>