<svg height="64" width="64" viewBox="0 0 20 20"><title>mod_smooth</title><g fill="#000000" class="nc-icon-wrapper"><g transform="translate(0 0)"><path d="M9.496 2.996a.5.5 0 0 0-.5.5v1.5h-3.5a.5.5 0 0 0-.5.5v3.5h-1.5a.5.5 0 0 0-.5.5v7a.5.5 0 1 0 1 0v-6.5h1.5a.5.5 0 0 0 .5-.5v-3.5h3.5a.5.5 0 0 0 .5-.5v-1.5h6.5a.5.5 0 1 0 0-1z" fill="#ffffff"></path><path d="M16.496 5.996c-5.793 0-10.5 4.707-10.5 10.5a.5.5 0 1 0 1 0c0-5.253 4.247-9.5 9.5-9.5a.5.5 0 1 0 0-1z" data-color="color-2"></path></g></g></svg>