<svg height="64" width="64" viewBox="0 0 20 20"><title>mod_normaledit</title><g fill="#000000" class="nc-icon-wrapper"><g transform="translate(0 0)"><path d="M8.753 8.003l-5.258.002a.5.5 0 0 0-.5.5v8a.5.5 0 0 0 .5.5h8a.5.5 0 0 0 .5-.498l.008-4.002a.5.5 0 1 0-1-.004l-.008 3.504h-7v-7l4.758-.002a.5.5 0 1 0 0-1z" data-color="color-2"></path><path d="M11.495 2.995a.5.5 0 0 0-.492.508v4.598a1.503 1.503 0 0 0-1.006 1.408c0 .822.678 1.5 1.5 1.5.362 0 .693-.136.953-.354l3.795 2.278a.501.501 0 1 0 .516-.86l-3.793-2.277a1.48 1.48 0 0 0-.002-.586l3.795-2.277a.501.501 0 1 0-.516-.86l-3.804 2.284a1.492 1.492 0 0 0-.438-.252V3.503a.5.5 0 0 0-.508-.508z" fill="#ffffff"></path></g></g></svg>