<svg height="64" width="64" viewBox="0 0 20 20"><title>mod_simpledeform</title><g fill="#000000" class="nc-icon-wrapper"><g transform="translate(0 0)"><path d="M14 6c-5.3 0-9.5 4.704-9.5 9.5v1a.5.5 0 0 0 .5.5h3a.5.5 0 0 0 .5-.5v-1c0-1.05.682-2.478 1.738-3.594C11.295 10.791 12.694 10 14 10h1a.5.5 0 0 0 .5-.5v-3A.5.5 0 0 0 15 6zm0 1h.5v2H14c-1.694 0-3.295.96-4.488 2.219C8.318 12.479 7.5 14.05 7.5 15.5v.5h-2v-.5C5.5 11.296 9.3 7 14 7z" data-color="color-2"></path><path d="M5 3a.5.5 0 0 0-.5.5v6.61a11.6 11.6 0 0 1 1-1.47V4h2v2.719a11.18 11.18 0 0 1 1-.68V3.5A.5.5 0 0 0 8 3z" fill="#ffffff"></path></g></g></svg>