<svg height="64" width="64" viewBox="0 0 20 20"><title>mod_vertex_weight</title><g fill="#000000" class="nc-icon-wrapper"><g transform="translate(0 0)"><path d="M3.996 2.996v2h-1v4h1v2h2v-8zm10 0v8h2v-2h1v-4h-1v-2zm-7 3v2h6v-2z" fill="#ffffff"></path><path d="M8.488 11.004a.5.5 0 0 0-.5.5v3.008a.5.5 0 0 0 .5.5h3.008a.5.5 0 0 0 .5-.5v-3.008a.5.5 0 0 0-.5-.5H8.488zm.5 1h2.008v2.008H8.988zm4.508.984a.5.5 0 0 0-.5.5v3.008a.5.5 0 0 0 .5.5h3.008a.5.5 0 0 0 .5-.5v-3.008a.5.5 0 0 0-.5-.5h-3.008zm-10 .016a.5.5 0 0 0-.5.5v3a.5.5 0 0 0 .5.5h3a.5.5 0 0 0 .5-.5v-3a.5.5 0 0 0-.5-.5h-3zm10.5.984h2.008v2.008h-2.008zm-10 .016h2v2h-2z" data-color="color-2"></path></g></g></svg>