<svg height="64" width="64" viewBox="0 0 20 20"><title>mod_physics</title><g fill="#000000" class="nc-icon-wrapper"><g transform="translate(0 0)"><path d="M9.494 2.994a.5.5 0 0 0-.5.5v4a.5.5 0 0 0 .5.5h1.5v.5a.5.5 0 0 0 .5.5h1.5v1.5a.5.5 0 0 0 .5.5h3a.5.5 0 0 0 .5-.5v-7a.5.5 0 0 0-.5-.5zm.5 1h6v6h-2v-1.5a.5.5 0 0 0-.5-.5h-1.5v-.5a.5.5 0 0 0-.5-.5h-1.5z" fill="#ffffff"></path><path d="M5.502 2.988a.5.5 0 0 0-.455.729l1 2a.5.5 0 1 0 .894-.446l-1-2a.5.5 0 0 0-.44-.283zM3.476 5.99a.5.5 0 0 0-.205.951l2 1a.5.5 0 1 0 .446-.894l-2-1a.5.5 0 0 0-.24-.057zm11 6a.5.5 0 0 0-.205.951l2 1a.5.5 0 1 0 .446-.894l-2-1a.5.5 0 0 0-.24-.057zm-.974 1.998a.5.5 0 0 0-.455.729l1 2a.5.5 0 1 0 .894-.446l-1-2a.5.5 0 0 0-.44-.283z" data-color="color-2"></path><path d="M3.494 8.994a.5.5 0 0 0-.5.5v7a.5.5 0 0 0 .5.5h7a.5.5 0 0 0 .5-.5l-.008-4a.5.5 0 0 0-.5-.5h-1.5v-1.5a.5.5 0 0 0-.5-.5H6.99l.004-.496a.5.5 0 0 0-.5-.504zm.5 1H5.99l-.004.496a.5.5 0 0 0 .5.504h1.5v1.5a.5.5 0 0 0 .5.5h1.5l.008 3h-6z" fill="#ffffff"></path></g></g></svg>