<svg height="64" width="64" viewBox="0 0 20 20"><title>mod_uvproject</title><g fill="#000000" class="nc-icon-wrapper"><g transform="translate(0 0)"><path d="M16.5 3l-9.008.008a.5.5 0 0 0-.5.508l.04 2.492 1-.016L8 4.008 16 4l-.006 8.012-2 .02.01 1 2.494-.024a.5.5 0 0 0 .494-.5L17 3.5a.5.5 0 0 0-.5-.5z" data-color="color-2"></path><path d="M3 7v2h2V7zm2 2v2h2V9zm2 0h2V7H7zm2 0v2h2V9zm2 0h2V7h-2zm0 2v2h2v-2zm0 2H9v2h2zm0 2v2h2v-2zm-2 0H7v2h2zm-2 0v-2H5v2zm-2 0H3v2h2zm0-2v-2H3v2zm2 0h2v-2H7z" fill="#ffffff"></path></g></g></svg>