<svg height="64" width="64" viewBox="0 0 20 20"><title>mod_remesh</title><g fill="#000000" class="nc-icon-wrapper"><g transform="translate(0 0)"><path d="M13.498 2.996l-3.006.008a.5.5 0 0 0-.5.5v13a.5.5 0 0 0 .5.5h3a.5.5 0 0 0 .5-.5L14 12.996h2.5a.5.5 0 0 0 .5-.5v-5a.5.5 0 0 0-.5-.5H14v-3.5a.5.5 0 0 0-.502-.5zM13 3.998v2.998h-2.008V4.002zm-2.008 3.998H13v4h-2.008zm3.008 0h2v4h-2zm-3.008 5h2.006l-.006 3.008h-2z" data-color="color-2"></path><path d="M8.537 3.166a.5.5 0 0 0-.135.016A7.003 7.003 0 0 0 3 9.945a7.005 7.005 0 0 0 5.305 6.842.5.5 0 1 0 .242-.969A5.997 5.997 0 0 1 4 9.953a5.996 5.996 0 0 1 4.63-5.799.5.5 0 0 0-.093-.988z" fill="#ffffff"></path></g></g></svg>