<svg height="64" width="64" viewBox="0 0 20 20"><title>mod_instance</title><g fill="#ffffff" class="nc-icon-wrapper"><g transform="translate(0 0)"><path d="M10.454 2.946c-4.14 0-7.508 3.368-7.508 7.508a.5.5 0 1 0 1 0 6.5 6.5 0 0 1 6.508-6.508.5.5 0 1 0 0-1z"></path><path d="M13.454 5.846c-4.194 0-7.608 3.414-7.608 7.608a.601.601 0 1 0 1.202 0 6.397 6.397 0 0 1 6.406-6.406.601.601 0 1 0 0-1.202zm3 3c-4.194 0-7.608 3.414-7.608 7.608a.601.601 0 1 0 1.202 0 6.397 6.397 0 0 1 6.406-6.406.601.601 0 1 0 0-1.202z"></path></g></g></svg>