<svg height="64" width="64" viewBox="0 0 20 20"><title>mod_cast</title><g fill="#000000" class="nc-icon-wrapper"><g transform="translate(0 0)"><path d="M10.004 2.996c-3.848 0-6.978 3.12-6.998 6.963l-.002.037a.5.5 0 0 0 .002.049.5.5 0 0 0 0 .002l-.01 6.455a.5.5 0 0 0 .502.502l6.47-.008a.5.5 0 0 0 .036 0l.05-.002a.5.5 0 0 0 .009 0c3.833-.032 6.941-3.158 6.941-6.998 0-3.86-3.14-7-7-7zm0 1c3.32 0 6 2.68 6 6s-2.68 6-6 6l-6.008.008.01-6.008a.5.5 0 0 0 0-.021 5.99 5.99 0 0 1 5.998-5.979z" fill="#ffffff"></path><path d="M5.504 8.996a.5.5 0 1 0 0 1h4.5v4.5a.5.5 0 1 0 1 0v-5a.5.5 0 0 0-.5-.5z" data-color="color-2"></path></g></g></svg>