<svg height="64" width="64" viewBox="0 0 20 20"><title>mod_meshdeform</title><g fill="#000000" class="nc-icon-wrapper"><g transform="translate(0 0)"><path d="M3.5 3a.5.5 0 0 0-.5.5v2a.5.5 0 0 0 .5.5H4v8h-.5a.5.5 0 0 0-.5.5v2a.5.5 0 0 0 .5.5h2a.5.5 0 0 0 .5-.5V16h8v.5a.5.5 0 0 0 .5.5h2a.5.5 0 0 0 .5-.5v-2a.5.5 0 0 0-.5-.5H16V6h.5a.5.5 0 0 0 .5-.5v-2a.5.5 0 0 0-.5-.5h-2a.5.5 0 0 0-.5.5V4H6v-.5a.5.5 0 0 0-.5-.5zM4 4h1v1H4zm11 0h1v1h-1zM6 5h8v.5a.5.5 0 0 0 .5.5h.5v8h-.5a.5.5 0 0 0-.5.5v.5H6v-.5a.5.5 0 0 0-.5-.5H5V6h.5a.5.5 0 0 0 .5-.5zM4 15h1v1H4zm11 0h1v1h-1z" fill="#ffffff"></path><path d="M7.5 7a.5.5 0 0 0-.5.5v5a.5.5 0 0 0 .5.5h5a.5.5 0 0 0 .5-.5v-5a.5.5 0 0 0-.5-.5zM8 8h4v4H8z" data-color="color-2"></path></g></g></svg>