<svg height="64" width="64" viewBox="0 0 20 20"><title>mod_array</title><g fill="#000000" class="nc-icon-wrapper"><g transform="translate(0 0)"><path d="M6.502 6.996l-3.006.008a.5.5 0 0 0-.5.5v9a.5.5 0 0 0 .5.5h3a.5.5 0 0 0 .5-.5l.008-9.008a.5.5 0 0 0-.502-.5zm-.498 1.002l-.008 8.006h-2V8.002z" fill="#ffffff"></path><path d="M16.502 2.996l-3.006.008a.5.5 0 0 0-.5.5v9a.5.5 0 0 0 .5.5h3a.5.5 0 0 0 .5-.5l.008-9.008a.5.5 0 0 0-.502-.5zm-.498 1.002l-.008 8.006h-2V4.002zm-4.502.998l-3.006.008a.5.5 0 0 0-.5.5v9a.5.5 0 0 0 .5.5h3a.5.5 0 0 0 .5-.5l.008-9.008a.5.5 0 0 0-.502-.5zm-.498 1.002l-.008 8.006h-2V6.002z" data-color="color-2"></path></g></g></svg>