<svg height="64" width="64" viewBox="0 0 20 20"><title>mod_particles</title><g fill="#000000" class="nc-icon-wrapper"><g transform="translate(0 0)"><path d="M17 15c0-1.099-.901-2-2-2s-2 .901-2 2 .901 2 2 2 2-.901 2-2zm-1 0c0 .558-.442 1-1 1s-1-.442-1-1 .442-1 1-1 1 .442 1 1zm-9 .5c0-.823-.677-1.5-1.5-1.5S4 14.677 4 15.5 4.677 17 5.5 17 7 16.323 7 15.5zm-1 0c0 .282-.218.5-.5.5a.493.493 0 0 1-.5-.5.493.493 0 0 1 .5-.5c.282 0 .5.218.5.5zm11-10c0-.823-.677-1.5-1.5-1.5S14 4.677 14 5.5 14.677 7 15.5 7 17 6.323 17 5.5zm-1 0c0 .282-.218.5-.5.5a.493.493 0 0 1-.5-.5.493.493 0 0 1 .5-.5c.282 0 .5.218.5.5zm-8 0A2.508 2.508 0 0 0 5.5 3C4.125 3 3 4.125 3 5.5S4.125 8 5.5 8 8 6.875 8 5.5zm-1 0C7 6.334 6.334 7 5.5 7S4 6.334 4 5.5 4.666 4 5.5 4 7 4.666 7 5.5z" fill="#ffffff"></path><path d="M15.008 5.492A.5.5 0 0 0 14.5 5h-5a.5.5 0 1 0 0 1h5a.5.5 0 0 0 .508-.508zm-1.004 7.998a.5.5 0 0 0-.15-.344l-5-5a.5.5 0 1 0-.708.708l5 5a.5.5 0 0 0 .858-.364zM6 9.5a.5.5 0 1 0-1 0v5a.5.5 0 1 0 1 0z" data-color="color-2"></path></g></g></svg>