<svg height="64" width="64" data-color="color-2" viewBox="0 0 20 20"><title>mod_skin</title><g fill="#000000" class="nc-icon-wrapper"><g transform="translate(0 0)"><path d="M13.5 3a3.5 3.5 0 0 0-3.488 3.383.476.476 0 0 0-.012.152V10H6.5a.53.53 0 0 0-.113.012A3.501 3.501 0 0 0 3 13.5a3.5 3.5 0 0 0 3.383 3.488A.476.476 0 0 0 6.5 17h7a3.5 3.5 0 0 0 3.5-3.5v-7a.49.49 0 0 0-.012-.117A3.501 3.501 0 0 0 13.5 3zm0 1A2.492 2.492 0 0 1 16 6.535V13.5a2.5 2.5 0 0 1-2.5 2.5h-7A2.492 2.492 0 0 1 4 13.5C4 12.113 5.113 11 6.5 11h3.75a.5.5 0 0 0 .354-.146l.25-.25A.5.5 0 0 0 11 10.25V6.5C11 5.113 12.113 4 13.5 4z" fill="#ffffff"></path><path d="M13.508 5.992A.5.5 0 0 1 14 6.5v6.92a.5.5 0 0 1-.113.404.5.5 0 0 1-.016.02.5.5 0 0 1-.017.017.5.5 0 0 1-.004.002.5.5 0 0 1-.034.032.5.5 0 0 1-.004.002.5.5 0 0 1-.394.103H6.5a.5.5 0 1 1 0-1H13V6.5a.5.5 0 0 1 .508-.508z" data-color="color-2"></path></g></g></svg>