<svg height="64" width="64" viewBox="0 0 20 20"><title>mod_screw</title><g fill="#ffffff" class="nc-icon-wrapper"><g transform="translate(0 0)"><path d="M16.492 2.976a.5.5 0 0 0-.492.508c0 1.278-.827 2.38-2.666 3.441-1.663.96-4.283 1.194-6.3 1.06-.98-.064-1.789-.305-2.313-.61-.52-.303-.716-.623-.72-.885.004-.262.2-.584.72-.887.524-.305 1.334-.544 2.312-.61 1.741-.114 3.903.018 5.244.688a.5.5 0 1 0 .446-.894c-1.66-.83-3.922-.913-5.756-.791-1.101.073-2.043.333-2.748.744-.638.37-1.097.91-1.184 1.553A.5.5 0 0 0 3 6.484l.002.006L3 6.496a.5.5 0 0 0 .035.19.5.5 0 0 0 .002.005c.088.642.545 1.18 1.182 1.55.706.41 1.647.669 2.748.741 2.141.142 4.886-.047 6.867-1.19C15.829 6.639 17 5.206 17 3.484a.5.5 0 0 0-.508-.508zm-.275 5.252a.5.5 0 0 0-.438.676c.122.335.221.661.221 1.08 0 1.833-.827 2.88-2.666 3.941-1.663.96-4.283 1.194-6.3 1.06-.98-.064-1.789-.305-2.313-.61-.52-.303-.716-.623-.72-.885.004-.262.2-.584.72-.887.524-.305 1.334-.544 2.312-.61 1.741-.114 3.903.018 5.244.688a.5.5 0 1 0 .446-.894c-1.66-.83-3.922-.913-5.756-.791-1.101.073-2.043.333-2.748.744-.638.37-1.097.91-1.184 1.553a.5.5 0 0 0-.035.191l.002.006-.002.006a.5.5 0 0 0 .037.195c.088.641.545 1.179 1.182 1.55.705.41 1.647.669 2.748.741 2.141.142 4.886-.047 6.867-1.191 1.968-1.136 3.13-2.603 3.16-4.723A.5.5 0 0 0 17 9.984a.5.5 0 0 0-.014-.127 4.245 4.245 0 0 0-.265-1.293.5.5 0 0 0-.504-.336zm.043 7a.5.5 0 0 0-.434.77s.174.356.174.52a.5.5 0 1 0 1 0c0-.6-.326-1.048-.326-1.048a.5.5 0 0 0-.414-.242z" class="nc-icon-wrapper"></path></g></g></svg>