<svg height="64" width="64" viewBox="0 0 20 20"><title>mod_build</title><g fill="#000000" class="nc-icon-wrapper"><g transform="translate(0 0)"><path d="M3.5 7a.5.5 0 0 0-.5.5v9a.5.5 0 0 0 .5.5h13a.5.5 0 0 0 .5-.5v-6a.5.5 0 0 0-.5-.5H9V7.5a.5.5 0 0 0-.5-.5zM4 8h4v2H4zm0 3h2v2H4zm3 0h4v2H7zm5 0h4v2h-4zm-8 3h4v2H4zm5 0h4v2H9zm5 0h2v2h-2z" data-color="color-2"></path><path d="M16.5 3a.5.5 0 0 1 .5.5v3a.5.5 0 0 1-.5.5h-5a.5.5 0 0 1-.5-.5v-3a.5.5 0 0 1 .5-.5zM16 4h-4v2h4z" fill="#ffffff"></path></g></g></svg>