<svg height="64" width="64" viewBox="0 0 20 20"><title>mod_explode</title><g fill="#000000" class="nc-icon-wrapper"><g transform="translate(0 0)"><path d="M3.504 6.496l3-3h6l-3 3z" data-color="color-2"></path><path d="M6.504 2.996a.5.5 0 0 0-.354.146l-3 3a.5.5 0 0 0 .354.854h6a.5.5 0 0 0 .354-.146l3-3a.5.5 0 0 0-.354-.854zm.207 1h4.586l-2 2H4.711zm9.777 3a.5.5 0 0 0-.338.146l-3 3a.5.5 0 0 0-.146.354v6a.5.5 0 0 0 .854.354l3-3a.5.5 0 0 0 .146-.354v-6a.5.5 0 0 0-.516-.5zm-.484 1.707v4.586l-2 2v-4.586zm-6.5 1.293l-6.008.008a.5.5 0 0 0-.5.5v6a.5.5 0 0 0 .5.5h6a.5.5 0 0 0 .5-.5l.008-6.008a.5.5 0 0 0-.5-.5zm-.5 1l-.008 5.008h-5v-5.002z" fill="#ffffff"></path></g></g></svg>