<svg height="64" width="64" viewBox="0 0 20 20"><title>mod_displace</title><g fill="#000000" class="nc-icon-wrapper"><g transform="translate(0 0)"><path d="M4.5 3a.5.5 0 0 0-.5.5v8a.5.5 0 0 0 .5.5H5a.5.5 0 0 0 .283-.088l10.5-7.25A.5.5 0 0 0 16 4.25V3.5a.5.5 0 0 0-.5-.5zM5 4h9.982L5 10.893V4.25z" fill="#ffffff"></path><path d="M9.25 11a.5.5 0 1 0 0 1H15v.156L5 15.965V14.25a.5.5 0 1 0-1 0v2.25a.5.5 0 0 0 .5.5H5a.5.5 0 0 0 .178-.033l10.5-4A.5.5 0 0 0 16 12.5v-1a.5.5 0 0 0-.5-.5z" data-color="color-2"></path></g></g></svg>