<svg height="64" width="64" viewBox="0 0 20 20"><title>mod_wireframe</title><g fill="#000000" class="nc-icon-wrapper"><g transform="translate(0 0)"><path d="M6 6.5V8h1V6.5zM6 9v2h1V9zm0 3v1.28l-2.586 2.35.672.74 2.603-2.368L8 14v-1H7v-1zm3.008 1v1h2v-1zM12 13v1h1.5v-1z" data-color="color-2"></path><path d="M6.5 3a.5.5 0 0 0-.354.146l-3 3A.5.5 0 0 0 3 6.5v10a.5.5 0 0 0 .5.5h10a.5.5 0 0 0 .354-.146l3-3A.5.5 0 0 0 17 13.5v-10a.5.5 0 0 0-.5-.5zm.207 1h8.586l-2 2H4.707zM16 4.707v8.586l-2 2V6.707zM4 7h9v9H4z" fill="#ffffff"></path></g></g></svg>