<svg height="64" width="64" viewBox="0 0 20 20"><title>mod_opacity</title><g fill="#000000" class="nc-icon-wrapper"><g transform="translate(0 0)"><path d="M16.498 3.005a.5.5 0 0 1 .5.5v9.992a.5.5 0 0 1-.5.5H6.502a.5.5 0 0 1-.5-.5V3.505a.5.5 0 0 1 .5-.5zm-.5 1H7.002v8.992h8.996z" fill="#ffffff"></path><path d="M8.002 7.003l4.496.002a.5.5 0 0 1 .5.5v4.498h-1V8.005l-3.996-.002zm-3 0v1l-1 .002v7.99h7.996v-.992h1v1.492a.5.5 0 0 1-.5.5H3.502a.5.5 0 0 1-.5-.5v-8.99a.5.5 0 0 1 .5-.5z" data-color="color-2"></path></g></g></svg>