<svg height="64" width="64" data-color="color-2" viewBox="0 0 20 20"><title>mod_edgesplit</title><g fill="#000000" class="nc-icon-wrapper"><g transform="translate(0 0)"><path d="M6.496 5.996l10.008.008a.5.5 0 0 1 .5.5v10a.5.5 0 0 1-.5.5h-10a.5.5 0 0 1-.5-.5L5.996 6.496a.5.5 0 0 1 .5-.5zm.5 1l.008 9.008h9V7.002z" fill="#ffffff"></path><path d="M16.496 2.996a.5.5 0 1 1 0 1h-10a.5.5 0 1 1 0-1zM3.504 5.988a.5.5 0 0 1 .492.508l.008 10.006a.5.5 0 1 1-1 .002L2.996 6.496a.5.5 0 0 1 .508-.508z" data-color="color-2"></path></g></g></svg>