<svg height="64" width="64" viewBox="0 0 20 20"><title>mod_decim</title><g fill="#000000" class="nc-icon-wrapper"><g transform="translate(0 0)"><path d="M8.496 2.992a.5.5 0 0 0-.1.012l-4.9.004a.5.5 0 0 0-.5.5v10a.5.5 0 1 0 1 0V9h4.508a.5.5 0 0 0 .5-.5V4.002l4.5-.002a.5.5 0 1 0 0-1l-4.893.004a.5.5 0 0 0-.115-.012zm-.492 1.012V8H3.996V4.006z" data-color="color-2"></path><path d="M16.488 3a.5.5 0 0 0-.338.146L3.143 16.154a.5.5 0 0 0 .353.854L16.504 17a.5.5 0 0 0 .5-.5v-13a.5.5 0 0 0-.516-.5zm-.484 1.707V16l-11.3.008z" fill="#ffffff"></path></g></g></svg>