<svg height="64" width="64" viewBox="0 0 20 20"><title>mod_offset</title><g fill="#000000" class="nc-icon-wrapper"><g transform="translate(0 0)"><path d="M6.3 16.445c0-6.25 4.63-11.382 10.4-11.382a.6.6 0 1 1 0 1.199c-5.056 0-9.2 4.523-9.2 10.184a.6.6 0 1 1-1.2 0z" fill="#ffffff"></path><path d="M13.8 15.055a9.319 9.319 0 0 1-4.22-1.021.5.5 0 1 1 .452-.891 8.301 8.301 0 0 0 3.768.912.5.5 0 1 1 0 1zm-8.018-4.012a.5.5 0 0 1-.404-.232C4.028 8.753 3.3 6.194 3.3 3.555a.5.5 0 1 1 1 0c0 2.454.683 4.832 1.914 6.709a.5.5 0 0 1-.432.78z" data-color="color-2"></path></g></g></svg>