<svg height="64" width="64" viewBox="0 0 20 20"><title>mod_tint</title><g fill="#000000" class="nc-icon-wrapper"><g transform="translate(0 0)"><path d="M3.504 3a.5.5 0 0 0-.5.5L2.996 14c0 1.517 1.22 3 2.985 3s3.015-1.475 3.015-3l.008-10.5a.5.5 0 0 0-.5-.5zm.5 1h4l-.008 10c0 .975-.812 2-2.015 2-1.204 0-1.985-1.017-1.985-2z" fill="#ffffff"></path><path d="M14.496 11a.5.5 0 1 0 0 1h1.508v4H9.746a.5.5 0 1 0 0 1h6.758a.5.5 0 0 0 .5-.5v-5a.5.5 0 0 0-.5-.5z" data-color="color-2"></path><path d="M12.496 4a.5.5 0 0 0-.346.146l-2 2a.5.5 0 1 0 .708.708l1.646-1.647L14.797 7.5l-4.647 4.646a.5.5 0 1 0 .708.708l5-5a.5.5 0 0 0 0-.708l-3-3A.5.5 0 0 0 12.496 4z" data-color="color-2"></path><path d="M6.004 13c-.546 0-1 .454-1 1s.454 1 1 1 1-.454 1-1-.454-1-1-1z" fill="#ffffff"></path></g></g></svg>