<svg height="64" width="64" viewBox="0 0 20 20"><title>mod_shrinkwrap</title><g fill="#000000" class="nc-icon-wrapper"><g transform="translate(0 0)"><path d="M10 6c1.656 0 3 1.375 3 3.047 0 1.672-1.344 3.047-3 3.047s-3-1.375-3-3.047C7 7.375 8.344 6 10 6zm0 1c-1.105 0-2 .905-2 2.047 0 1.141.895 2.047 2 2.047s2-.906 2-2.047C12 7.905 11.105 7 10 7z" data-color="color-2"></path><path d="M10 3C6.49 3 4 5.773 4 8.92V16h-.96a.5.5 0 1 0 0 1H4.5a.5.5 0 0 0 .5-.5V8.92C5 6.292 7.01 4 10 4s5 2.292 5 4.92v7.58a.5.5 0 0 0 .5.5h1.46a.5.5 0 1 0 0-1H16V8.92C16 5.773 13.51 3 10 3z" fill="#ffffff"></path></g></g></svg>