<svg height="64" width="64" viewBox="0 0 20 20"><title>mod_wave</title><g fill="#ffffff" class="nc-icon-wrapper"><g transform="translate(0 0)"><path d="M16.54 3.012a.5.5 0 1 1-.044.998A11.997 11.997 0 0 0 4.01 16.473a.5.5 0 1 1-1 .039 12.998 12.998 0 0 1 13.53-13.5zm.032 4.006a.5.5 0 1 1-.062.998 8.001 8.001 0 0 0-8.498 8.421.5.5 0 1 1-.998.055 9.002 9.002 0 0 1 9.558-9.474zm-.037 4.011a.5.5 0 1 1-.107.994 3.999 3.999 0 0 0-4.408 4.381.5.5 0 1 1-.995.102 5 5 0 0 1 5.51-5.477zM16 15c.546 0 1 .454 1 1s-.454 1-1 1-1-.454-1-1 .454-1 1-1z" class="nc-icon-wrapper"></path></g></g></svg>