<svg height="64" width="64" viewBox="0 0 20 20"><title>mod_boolean</title><g fill="#000000" class="nc-icon-wrapper"><g transform="translate(0 0)"><path d="M12.5 4.996a.5.5 0 0 0-.5.5v6.5H5.5a.5.5 0 0 0-.5.5l-.008 4.006a.5.5 0 0 0 .502.502l11.006-.008a.5.5 0 0 0 .5-.5v-11a.5.5 0 0 0-.5-.5zm.5 1h3v10l-10.008.008.006-3.008H12.5a.5.5 0 0 0 .5-.5z" data-color="color-2"></path><path d="M9.5 2.996a.5.5 0 0 1 .5.5v6a.5.5 0 0 1-.5.5h-6a.5.5 0 0 1-.5-.5v-6a.5.5 0 0 1 .5-.5zm-.5 1H4v5h5z" fill="#ffffff"></path></g></g></svg>