<svg height="64" width="64" viewBox="0 0 20 20"><title>mod_cloth</title><g fill="#ffffff" class="nc-icon-wrapper"><g transform="translate(0 0)"><path d="M7.492 2.996a.5.5 0 0 0-.074.008H3.5a.5.5 0 0 0-.5.5v5a.5.5 0 0 0 .5.5H5v7.5a.5.5 0 0 0 .5.5h9a.5.5 0 0 0 .5-.5v-7.5h1.5a.5.5 0 0 0 .5-.5v-5a.5.5 0 0 0-.5-.5h-3.92a.5.5 0 0 0-.404.113.5.5 0 0 0-.02.016.5.5 0 0 0-.017.017.5.5 0 0 0-.002.004.5.5 0 0 0-.032.034.5.5 0 0 0-.002.004.5.5 0 0 0-.103.394v.418a2 2 0 1 1-4 0v-.42a.5.5 0 0 0-.113-.404.5.5 0 0 0-.002-.004.5.5 0 0 0-.032-.033.5.5 0 0 0-.003-.002.5.5 0 0 0-.034-.032.5.5 0 0 0-.004-.002.5.5 0 0 0-.32-.111zM4 4.004h3a3.001 3.001 0 0 0 4.5 2.598A3.001 3.001 0 0 0 13 4.004h3v4h-1.5a.5.5 0 0 0-.5.5v7.5H6v-7.5a.5.5 0 0 0-.5-.5H4z" class="nc-icon-wrapper"></path></g></g></svg>