<svg height="64" width="64" viewBox="0 0 20 20"><title>mod_mirror</title><g fill="#000000" class="nc-icon-wrapper"><g transform="translate(0 0)"><path d="M5 4a2.508 2.508 0 0 0-2.5 2.5c0 1.18.69 1.86 1.133 2.34.592.641 1.204 1.217 1.66 1.66l-.897.896c-.912.913-1.156 2.325-.562 3.354a2.504 2.504 0 0 0 2.812 1.164A2.504 2.504 0 0 0 8.5 13.5a.5.5 0 1 0-1 0c0 .681-.453 1.273-1.111 1.45a1.496 1.496 0 0 1-1.688-.7c-.311-.539-.185-1.559.403-2.146l1.25-1.25a.5.5 0 0 0 0-.708c-.432-.431-1.308-1.25-1.987-1.986-.48-.52-.867-.84-.867-1.66C3.5 5.666 4.166 5 5 5c1.167 0 2.029 1.236 2.646 1.854a.5.5 0 1 0 .708-.708C7.971 5.764 6.834 4 5 4z" data-color="color-2"></path><path d="M15 4c-1.833 0-2.971 1.764-3.354 2.146a.5.5 0 1 0 .708.708C12.971 6.236 13.834 5 15 5c.834 0 1.5.666 1.5 1.5 0 .82-.387 1.14-.867 1.66-.679.735-1.555 1.555-1.987 1.986a.5.5 0 0 0 0 .708l1.25 1.25c.588.587.714 1.607.403 2.146-.34.59-1.03.876-1.688.7A1.496 1.496 0 0 1 12.5 13.5a.5.5 0 1 0-1 0c0 1.13.763 2.122 1.854 2.414a2.504 2.504 0 0 0 2.812-1.164c.594-1.029.35-2.441-.562-3.354l-.897-.896c.456-.443 1.068-1.019 1.66-1.66.443-.48 1.133-1.16 1.133-2.34C17.5 5.125 16.375 4 15 4zm-4.5 4V6h-1v2zm0-3V3h-1v2zm0 12v-2h-1v2zm0-3v-2h-1v2zm0-3V9h-1v2z" fill="#ffffff"></path></g></g></svg>