<svg height="64" width="64" data-color="color-2" viewBox="0 0 20 20"><title>mod_simplify</title><g fill="#000000" class="nc-icon-wrapper"><g transform="translate(0 0)"><path d="M5 3c-1.099 0-2 .901-2 2 0 .733.406 1.37 1 1.719V11h1V7c1.099 0 2-.901 2-2h4V4H6.719C6.371 3.406 5.733 3 5 3zm0 1c.558 0 1 .442 1 1s-.442 1-1 1-1-.442-1-1 .442-1 1-1z" fill="#ffffff"></path><path d="M15 3c-1.099 0-2 .901-2 2 0 .369.109.71.285 1.008l-7.277 7.277A1.97 1.97 0 0 0 5 13c-1.099 0-2 .901-2 2s.901 2 2 2 2-.901 2-2c0-.369-.109-.71-.285-1.008l7.277-7.277c.298.176.64.285 1.008.285 1.099 0 2-.901 2-2s-.901-2-2-2zm0 1c.558 0 1 .442 1 1s-.442 1-1 1-1-.442-1-1 .442-1 1-1zM5 14c.558 0 1 .442 1 1s-.442 1-1 1-1-.442-1-1 .442-1 1-1z" data-color="color-2"></path></g></g></svg>