<svg height="64" width="64" viewBox="0 0 20 20"><title>mod_mask</title><g fill="#000000" class="nc-icon-wrapper"><g transform="translate(0 0)"><path d="M12.5 3C10.02 3 8 5.02 8 7.5s2.02 4.5 4.5 4.5S17 9.98 17 7.5 14.98 3 12.5 3zm0 1C14.439 4 16 5.561 16 7.5a3.484 3.484 0 0 1-2.018 3.162 5.002 5.002 0 0 0-4.644-4.644A3.484 3.484 0 0 1 12.5 4z" data-color="color-2"></path><path d="M6.502 6.066a.5.5 0 0 0-.227.051 5.72 5.72 0 0 0-3.214 5.996 5.721 5.721 0 0 0 4.8 4.823 5.722 5.722 0 0 0 6.014-3.184.5.5 0 1 0-.902-.432 4.715 4.715 0 0 1-4.963 2.627 4.713 4.713 0 0 1-1.309-8.925.5.5 0 0 0-.199-.956z" fill="#ffffff"></path></g></g></svg>