<svg width="64" height="64" viewBox="0 0 20 20"><title>mouse_lmb_drag</title><g fill="#000000" class="nc-icon-wrapper"><g transform="translate(0 0)"><path d="M14.477 2.011a.5.5 0 0 0-.315.871c.588.545.842 1.086.842 1.602L15 10.49a.5.5 0 0 0 1 0l.004-6.005c0-.85-.432-1.66-1.162-2.336a.5.5 0 0 0-.365-.137zM6.5 2.99l-1.016.001A3.48 3.48 0 0 0 2 6.473v3.015a.5.5 0 0 0 .498.5l4.01.008a.5.5 0 0 0 .5-.5L7 3.525v-.038a.5.5 0 0 0-.5-.498zm10.992 1.038a.5.5 0 0 0-.492.505V8.59a.5.5 0 1 0 1 0V4.53a.5.5 0 0 0-.508-.504z" fill="#ffffff"></path><path d="M8 2.99v1h1.516C10.9 3.99 12 5.09 12 6.473v8.031c0 1.385-1.1 2.484-2.484 2.484H5.484A2.469 2.469 0 0 1 3 14.505V10.99H2v3.516a3.488 3.488 0 0 0 3.484 3.484h4.032A3.488 3.488 0 0 0 13 14.505V6.474a3.488 3.488 0 0 0-3.484-3.485z" data-color="color-2"></path></g></g></svg>