<svg width="64" height="64" viewBox="0 0 20 20"><title>mouse_move</title><g fill="#000000" class="nc-icon-wrapper"><g transform="translate(0 0)"><path d="M14.477 2.011a.5.5 0 0 0-.315.872c.588.544.842 1.085.842 1.601L15 10.49a.5.5 0 0 0 1 0l.004-6.006c0-.85-.432-1.66-1.162-2.336a.5.5 0 0 0-.365-.137zm3.015 2.016a.5.5 0 0 0-.492.506v4.059a.5.5 0 1 0 1 0V4.533a.5.5 0 0 0-.508-.506zm-10 .955A.5.5 0 0 0 7 5.49v4a.5.5 0 1 0 1 0v-4a.5.5 0 0 0-.508-.508z" fill="#ffffff"></path><path d="M5.562 2.99A3.566 3.566 0 0 0 2 6.553v7.875a3.566 3.566 0 0 0 3.563 3.562h3.874A3.566 3.566 0 0 0 13 14.427V6.552A3.566 3.566 0 0 0 9.437 2.99zm0 1h3.876A2.546 2.546 0 0 1 12 6.553v7.875a2.546 2.546 0 0 1-2.563 2.562H5.563A2.546 2.546 0 0 1 3 14.427V6.552A2.546 2.546 0 0 1 5.562 3.99z" data-color="color-2"></path></g></g></svg>