<svg width="64" height="64" viewBox="0 0 20 20"><title>mouse_mmb_drag</title><g fill="#000000" class="nc-icon-wrapper"><g transform="translate(0 0)"><path d="M14.477 2.011a.5.5 0 0 0-.315.871c.588.545.842 1.086.842 1.602L15 10.49a.5.5 0 0 0 1 0l.004-6.005c0-.85-.432-1.66-1.162-2.336a.5.5 0 0 0-.365-.137zm3.015 2.016a.5.5 0 0 0-.492.505V8.59a.5.5 0 1 0 1 0V4.53a.5.5 0 0 0-.508-.504zm-9.54.962l-.905.001C6.477 4.99 6 5.464 6 6.035v3.907c0 .57.476 1.046 1.047 1.046h.906A1.053 1.053 0 0 0 9 9.943V6.036c0-.571-.476-1.047-1.047-1.047z" fill="#ffffff"></path><path d="M9.516 2.989l-4.032.001A3.488 3.488 0 0 0 2 6.473v8.03a3.488 3.488 0 0 0 3.484 3.485h4.032A3.488 3.488 0 0 0 13 14.505v-8.03a3.488 3.488 0 0 0-3.484-3.486zm-4.032 1h4.032C10.9 3.99 12 5.09 12 6.474v8.03c0 1.386-1.1 2.485-2.484 2.485H5.484A2.469 2.469 0 0 1 3 14.505V6.474c0-1.385 1.1-2.485 2.484-2.485z" data-color="color-2"></path></g></g></svg>