<svg width="64" height="64" viewBox="0 0 20 20"><title>mouse_rmb_drag</title><g fill="#000000" class="nc-icon-wrapper"><g transform="translate(0 0)"><path d="M14.477 2.011a.5.5 0 0 0-.315.871c.588.545.842 1.086.842 1.602L15 10.49a.5.5 0 0 0 1 0l.004-6.005c0-.85-.432-1.66-1.162-2.336a.5.5 0 0 0-.365-.137zM8.5 2.99a.5.5 0 0 0-.5.498v.038l-.008 5.97a.5.5 0 0 0 .5.5l4.01-.007a.5.5 0 0 0 .498-.5V6.473A3.48 3.48 0 0 0 9.516 2.99zm8.992 1.038a.5.5 0 0 0-.492.505V8.59a.5.5 0 1 0 1 0V4.53a.5.5 0 0 0-.508-.504z" fill="#ffffff"></path><path d="M7 2.99v1H5.484A2.469 2.469 0 0 0 3 6.473v8.031c0 1.385 1.1 2.484 2.484 2.484h4.032c1.384 0 2.484-1.1 2.484-2.484V10.99h1v3.516a3.488 3.488 0 0 1-3.484 3.484H5.484A3.488 3.488 0 0 1 2 14.505V6.474a3.488 3.488 0 0 1 3.484-3.485z" data-color="color-2"></path></g></g></svg>