<svg width="64" height="64" data-color="color-2" viewBox="0 0 20 20"><title>mute_ipo_on</title><g fill="#000000" class="nc-icon-wrapper"><g transform="translate(0 0)"><path d="M9.241 4a.5.5 0 0 0-.354.146L6.034 7H4.491a.5.5 0 0 0-.5.5v5a.5.5 0 0 0 .5.5h1.543l2.853 2.854a.5.5 0 0 0 .354.146h.25a.5.5 0 0 0 .5-.5v-11a.5.5 0 0 0-.5-.5z" fill="#ffffff"></path><path d="M14.499 5a.5.5 0 0 0-.453.74c1.239 2.34 1.238 6.181-.006 8.52a.5.5 0 1 0 .882.471c1.446-2.718 1.448-6.74.008-9.46a.5.5 0 0 0-.431-.27zm-1.996 1.998a.5.5 0 0 0-.508.506v4.992a.5.5 0 1 0 1 0V7.504a.5.5 0 0 0-.492-.506z" data-color="color-2"></path></g></g></svg>