<svg height="64" width="64" data-color="color-2" viewBox="0 0 20 20"><title>network_drive</title><g fill="#000000" class="nc-icon-wrapper"><g transform="translate(0 0)"><path d="M15.5 2.5c-.823 0-1.5.677-1.5 1.5 0 .23.058.447.152.643a.5.5 0 0 0-.006.003L12.293 6.5H11.5a.5.5 0 1 0 0 1h1a.5.5 0 0 0 .354-.146l2-2a.5.5 0 0 0 .004-.006c.195.094.412.152.642.152.823 0 1.5-.677 1.5-1.5s-.677-1.5-1.5-1.5zm0 1c.282 0 .5.218.5.5 0 .282-.218.5-.5.5A.493.493 0 0 1 15 4c0-.282.218-.5.5-.5zm0 5c-.647 0-1.198.421-1.406 1H11.5a.5.5 0 1 0 0 1h2.594c.208.579.76 1 1.406 1 .823 0 1.5-.677 1.5-1.5s-.677-1.5-1.5-1.5zm0 1c.282 0 .5.218.5.5 0 .282-.218.5-.5.5a.493.493 0 0 1-.5-.5c0-.282.218-.5.5-.5zm-4 2.992a.5.5 0 1 0 0 1h.793l1.853 1.854a.5.5 0 0 0 .008.008A1.472 1.472 0 0 0 14 16c0 .823.677 1.5 1.5 1.5S17 16.823 17 16s-.677-1.5-1.5-1.5c-.228 0-.443.056-.637.148a.5.5 0 0 0-.01-.01l-2-2a.5.5 0 0 0-.353-.146zm4 3.008c.282 0 .5.218.5.5 0 .282-.218.5-.5.5a.493.493 0 0 1-.5-.5c0-.282.218-.5.5-.5z" data-color="color-2"></path><path d="M7 13.5h1v1H7zm-2 0h1v1H5zm-.463-8C3.694 5.5 3 6.194 3 7.037v7.926c0 .843.694 1.537 1.537 1.537h5.926A1.547 1.547 0 0 0 12 14.963V7.037c0-.843-.694-1.537-1.537-1.537zm0 7h5.926c.306 0 .537.231.537.537v1.926a.526.526 0 0 1-.537.537H4.537A.526.526 0 0 1 4 14.963v-1.926c0-.306.231-.537.537-.537z" fill="#ffffff"></path></g></g></svg>