<svg height="64" width="64" viewBox="0 0 20 20"><title>nla</title><g fill="#000000" class="nc-icon-wrapper"><g transform="translate(0 0)"><path d="M3.5 10a.5.5 0 0 1-.5-.5v-3a.5.5 0 0 1 .5-.5H9v1H4v2h5v1zm8.5 0V9h2V7h-2V6h2.5a.5.5 0 0 1 .5.5v3a.5.5 0 0 1-.5.5z" data-color="color-2"></path><path d="M5.5 7a.5.5 0 0 1-.5-.5v-3a.5.5 0 0 1 .5-.5H9v1H6v2h3v1zM12 7V6h4V4h-4V3h4.5a.5.5 0 0 1 .5.5v3a.5.5 0 0 1-.5.5z" data-color="color-2"></path><path d="M10 3v13.965h1V3zM5.5 13a.5.5 0 0 0-.5.5v3a.5.5 0 0 0 .5.5H9v-4zm6.5 0v4h4.5a.5.5 0 0 0 .5-.5v-3a.5.5 0 0 0-.5-.5z" fill="#ffffff"></path></g></g></svg>