<svg height="64" width="64" viewBox="0 0 20 20"><title>nla_pushdown</title><g fill="#000000" class="nc-icon-wrapper"><g transform="translate(0 0)"><path d="M3.5 17a.5.5 0 0 1-.5-.5v-3a.5.5 0 0 1 .5-.5h10a.5.5 0 0 1 .5.5v3a.5.5 0 0 1-.5.5zm.5-1h9v-2H4z" data-color="color-2"></path><path d="M7.5 14a.5.5 0 0 1-.5-.5v-3a.5.5 0 0 1 .5-.5h9a.5.5 0 0 1 .5.5v3a.5.5 0 0 1-.5.5zm.5-1h8v-2H8z" data-color="color-2"></path><path d="M6.5 3a.5.5 0 0 0-.4.8l3 4a.5.5 0 0 0 .8 0l3-4a.5.5 0 0 0-.4-.8z" fill="#ffffff"></path></g></g></svg>