<svg height="64" width="64" data-color="color-2" viewBox="0 0 20 20"><title>node_side</title><g fill="#000000" class="nc-icon-wrapper"><g transform="translate(0 0)"><path d="M14.992 2.992a.5.5 0 0 0-.492.508v3a.5.5 0 1 0 1 0v-3a.5.5 0 0 0-.508-.508zm0 5a.5.5 0 0 0-.492.508v3a.5.5 0 1 0 1 0v-3a.5.5 0 0 0-.508-.508zm0 5a.5.5 0 0 0-.492.508v3a.5.5 0 1 0 1 0v-3a.5.5 0 0 0-.508-.508z" data-color="color-2"></path><path d="M6 7c-.822 0-1.5.678-1.5 1.5v4c0 .822.678 1.5 1.5 1.5h5c.822 0 1.5-.678 1.5-1.5v-4c0-.822-.678-1.5-1.5-1.5zm0 5h5a.5.5 0 1 1 0 1H6a.5.5 0 1 1 0-1z" fill="#ffffff"></path></g></g></svg>