<svg height="64" width="64" viewBox="0 0 20 20"><title>node_compositing</title><g fill="#000000" class="nc-icon-wrapper"><g transform="translate(0 0)"><path d="M7.5 3a.5.5 0 0 0-.5.5v9a.5.5 0 0 0 .5.5h9a.5.5 0 0 0 .5-.5v-9a.5.5 0 0 0-.5-.5zM8 4h8v8H8z" fill="#ffffff"></path><path d="M5.492 4.992A.5.5 0 0 0 5 5.5v9a.5.5 0 0 0 .5.5h9a.5.5 0 1 0 0-1H6V5.5a.5.5 0 0 0-.508-.508zm-2 2A.5.5 0 0 0 3 7.5v9a.5.5 0 0 0 .5.5h9a.5.5 0 1 0 0-1H4V7.5a.5.5 0 0 0-.508-.508z" data-color="color-2"></path><path d="M16.484 3a.5.5 0 0 0-.338.146l-9 9A.5.5 0 0 0 7.5 13h9a.5.5 0 0 0 .5-.5v-9a.5.5 0 0 0-.516-.5z" fill="#ffffff"></path></g></g></svg>