<svg height="64" width="64" viewBox="0 0 20 20"><title>node_corner</title><g fill="#000000" class="nc-icon-wrapper"><g transform="translate(0 0)"><path d="M2.992 13.508A.5.5 0 0 0 3.5 14h2.504l.004 2.5a.5.5 0 1 0 1 0l-.004-3a.5.5 0 0 0-.5-.5H3.5a.5.5 0 0 0-.508.508zM6.008 11.5a.5.5 0 1 0 1 0v-3a.5.5 0 1 0-1 0zm0-5a.5.5 0 1 0 1 0v-3a.5.5 0 1 0-1 0zm1.986 7.008A.5.5 0 0 0 8.5 14h3a.5.5 0 1 0 0-1h-3a.5.5 0 0 0-.506.508zm5 0A.5.5 0 0 0 13.5 14h3a.5.5 0 1 0 0-1h-3a.5.5 0 0 0-.506.508z" data-color="color-2"></path><path d="M10.493 4c-.822 0-1.5.678-1.5 1.5v4c0 .822.678 1.5 1.5 1.5h5c.822 0 1.5-.678 1.5-1.5v-4c0-.822-.678-1.5-1.5-1.5zm0 5h5a.5.5 0 1 1 0 1h-5a.5.5 0 1 1 0-1z" fill="#ffffff"></path></g></g></svg>