<svg height="64" width="64" viewBox="0 0 20 20"><title>node_material</title><g fill="#ffffff" class="nc-icon-wrapper"><g transform="translate(0 0)"><path d="M10 2.938a7.066 7.066 0 0 0-6.291 3.85A7.038 7.038 0 0 0 2.937 10 7.07 7.07 0 0 0 10 17.063 7.07 7.07 0 0 0 17.063 10 7.07 7.07 0 0 0 10 2.937zm0 1A6.055 6.055 0 0 1 16.063 10 6.055 6.055 0 0 1 10 16.063 6.055 6.055 0 0 1 3.937 10 6.058 6.058 0 0 1 10 3.937zM10 5a1 1 0 0 0-1 1 1 1 0 0 0 1 1 1 1 0 0 0 1-1 1 1 0 0 0-1-1zM7.176 6.162a1 1 0 0 0-.688.305 5 5 0 0 0-1.289 2.24 1 1 0 1 0 1.932.516c.136-.51.402-.974.773-1.346a1 1 0 0 0-.728-1.715z" class="nc-icon-wrapper"></path></g></g></svg>