<svg height="64" width="64" viewBox="0 0 20 20"><title>node_sel</title><g fill="#000000" class="nc-icon-wrapper"><g transform="translate(0 0)"><path d="M4.469 3C3.664 3 3 3.664 3 4.469v11.062C3 16.336 3.664 17 4.469 17h8.062c.805 0 1.469-.664 1.469-1.469v-.582c-1.682-.248-3-1.704-3-3.449 0-1.745 1.318-3.201 3-3.45V4.469C14 3.664 13.336 3 12.531 3zM4 4h9v3H4z" fill="#ffffff"></path><path d="M14.5 14a2.508 2.508 0 0 1-2.5-2.5c0-1.375 1.125-2.5 2.5-2.5s2.5 1.125 2.5 2.5-1.125 2.5-2.5 2.5z" data-color="color-2"></path></g></g></svg>