<svg height="64" width="64" data-color="color-2" viewBox="0 0 20 20"><title>node_insert_off</title><g fill="#000000" class="nc-icon-wrapper"><g transform="translate(0 0)"><path d="M5.496 3.002a.5.5 0 0 0-.383.822l4.5 5.5a.5.5 0 0 0 .774 0l4.5-5.5a.5.5 0 1 0-.774-.632L10 8.218 5.887 3.191a.5.5 0 0 0-.39-.19z" data-color="color-2"></path><path d="M4.25 11.008c-.684 0-1.25.566-1.25 1.25v3.5c0 .684.566 1.25 1.25 1.25h3.5c.684 0 1.25-.566 1.25-1.25v-3.5c0-.684-.566-1.25-1.25-1.25zm8 0c-.684 0-1.25.566-1.25 1.25v3.5c0 .684.566 1.25 1.25 1.25h3.5c.684 0 1.25-.566 1.25-1.25v-3.5c0-.684-.566-1.25-1.25-1.25zm-7.75 4h3a.5.5 0 1 1 0 1h-3a.5.5 0 1 1 0-1zm8 0h3a.5.5 0 1 1 0 1h-3a.5.5 0 1 1 0-1z" fill="#ffffff"></path></g></g></svg>