<svg height="64" width="64" data-color="color-2" viewBox="0 0 20 20"><title>nodetree</title><g fill="#000000" class="nc-icon-wrapper"><g transform="translate(0 0)"><path d="M6.61 3C5.753 3 5 3.648 5 4.5v3C5 8.352 5.753 9 6.61 9h4.78C12.247 9 13 8.352 13 7.5v-3c0-.852-.753-1.5-1.61-1.5zM14 4v3c.563 0 1-.504 1-1.031v-.938C15 4.504 14.563 4 14 4zM6.465 7A.5.5 0 0 1 6.5 7h5a.5.5 0 1 1 0 1h-5a.5.5 0 0 1-.035-1zm-1.856 4C3.753 11 3 11.648 3 12.5v3c0 .852.753 1.5 1.61 1.5h4.78c.857 0 1.61-.648 1.61-1.5v-3c0-.852-.753-1.5-1.61-1.5zM12 13v3c.563 0 1-.504 1-1.031v-.938c0-.527-.437-1.031-1-1.031zm-7.535 2a.5.5 0 0 1 .035 0h5a.5.5 0 1 1 0 1h-5a.5.5 0 0 1-.035-1z" fill="#ffffff"></path><path d="M14.5 5v1c.56 0 .908.143 1.133.367.224.225.367.574.367 1.133v5c0 .56-.143.908-.367 1.133-.225.224-.574.367-1.133.367h-2v1h2c.74 0 1.389-.21 1.84-.66.45-.451.66-1.1.66-1.84v-5c0-.74-.21-1.389-.66-1.84-.451-.45-1.1-.66-1.84-.66z" data-color="color-2"></path></g></g></svg>