<svg height="64" width="64" viewBox="0 0 20 20"><title>node_top</title><g fill="#000000" class="nc-icon-wrapper"><g transform="translate(0 0)"><path d="M7.492 8c-.822 0-1.5.678-1.5 1.5v4c0 .822.678 1.5 1.5 1.5h5c.822 0 1.5-.678 1.5-1.5v-4c0-.822-.678-1.5-1.5-1.5zm0 5h5a.5.5 0 1 1 0 1h-5a.5.5 0 1 1 0-1z" fill="#ffffff"></path><path d="M17.008 5.492A.5.5 0 0 0 16.5 5h-3a.5.5 0 1 0 0 1h3a.5.5 0 0 0 .508-.508zm-5 0A.5.5 0 0 0 11.5 5h-3a.5.5 0 1 0 0 1h3a.5.5 0 0 0 .508-.508zm-5 0A.5.5 0 0 0 6.5 5h-3a.5.5 0 1 0 0 1h3a.5.5 0 0 0 .508-.508z" data-color="color-2"></path></g></g></svg>