<svg height="64" width="64" viewBox="0 0 20 20"><title>normals_vertex_face</title><g fill="#000000" class="nc-icon-wrapper"><g transform="translate(0 0)"><path d="M10.981 2.991a1 1 0 0 0-.984 1.014v4.832a1 1 0 0 0 .29.885 1 1 0 0 0 .005.006 1 1 0 0 0 .014.014 1 1 0 0 0 .85.263h4.841a1 1 0 1 0 0-2h-4v-4a1 1 0 0 0-1.016-1.014z" fill="#ffffff"></path><path d="M12.99 16.508a.5.5 0 0 0-.5.5h-9a.5.5 0 0 0-.5-.5v-9a.5.5 0 0 0 .5-.5l5.508-.006v1l-5.008.006v8h8v-5.004h1z" data-color="color-2"></path></g></g></svg>