<svg height="64" width="64" viewBox="0 0 20 20"><title>normals_face</title><g fill="#000000" class="nc-icon-wrapper"><g transform="translate(0 0)"><path d="M17.007 9.991a1 1 0 0 0-1.014-.986h-8c-1.352-.02-1.352 2.02 0 2h8a1 1 0 0 0 1.014-1.014z" fill="#ffffff"></path><path d="M11.994 3.498c.006-.595-.848-.7-.986-.121l.072-.283-7.707 1.92a.5.5 0 0 0-.379.484v11a.5.5 0 0 0 .496.5l.998.01a.488.488 0 0 0 .14-.02l7.003-2.005a.5.5 0 0 0 .363-.483l.014-2.496-1 .002-.016 2.119-6.568 1.88-.43-.001V5.891l7-1.745.014 3.86h1z" data-color="color-2"></path></g></g></svg>