<svg height="64" width="64" viewBox="0 0 20 20"><title>normalize_fcurves</title><g fill="#000000" class="nc-icon-wrapper"><g transform="translate(0 0)"><path d="M3.496 2.996a.5.5 0 0 0-.5.5v4a.5.5 0 1 0 1 0v-3.5h3.5a.5.5 0 1 0 0-1zm9.008 0a.5.5 0 1 0 0 1h3.5v3.5a.5.5 0 1 0 1 0v-4a.5.5 0 0 0-.5-.5zm-9.016 9a.5.5 0 0 0-.492.508v4a.5.5 0 0 0 .5.5h4a.5.5 0 1 0 0-1h-3.5v-3.5a.5.5 0 0 0-.508-.508zm13.008 0a.5.5 0 0 0-.492.508v3.5h-3.5a.5.5 0 1 0 0 1h4a.5.5 0 0 0 .5-.5v-4a.5.5 0 0 0-.508-.508z" data-color="color-2"></path><path d="M5.496 5.996a.5.5 0 1 0 0 1h1c.392 0 .749.274 1.137.867s.744 1.446 1.086 2.317c.342.87.67 1.756 1.068 2.466.199.356.413.67.686.918.272.249.627.432 1.023.432.625 0 1.133-.276 1.447-.646.314-.37.473-.798.616-1.178.142-.38.272-.718.414-.91.141-.193.228-.266.523-.266a.5.5 0 1 0 0-1c-.58 0-1.056.302-1.328.672-.272.37-.409.783-.547 1.152-.138.37-.277.693-.44.885-.162.192-.31.291-.685.291-.104 0-.202-.035-.35-.17-.147-.135-.32-.367-.488-.668-.337-.602-.664-1.466-1.01-2.346-.345-.88-.708-1.776-1.18-2.496-.47-.72-1.114-1.32-1.972-1.32z" fill="#ffffff"></path></g></g></svg>