<svg height="64" width="64" viewBox="0 0 20 20"><title>normals_vertex</title><g fill="#000000" class="nc-icon-wrapper"><g transform="translate(0 0)"><path d="M15.978 2.995a1 1 0 0 0-.687.303l-2.72 2.72c-.027 0-.052-.007-.079-.007-.822 0-1.5.677-1.5 1.5 0 .822.678 1.5 1.5 1.5.823 0 1.5-.678 1.5-1.5 0-.027-.006-.052-.008-.078l2.72-2.721a1 1 0 0 0-.726-1.717z" fill="#ffffff"></path><path d="M3.492 6.005a.5.5 0 0 0-.5.5v2a.5.5 0 0 0 .5.5h.5v5h-.5a.5.5 0 0 0-.5.5v2a.5.5 0 0 0 .5.5h2a.5.5 0 0 0 .5-.5v-.508h5v.508a.5.5 0 0 0 .5.5h2a.5.5 0 0 0 .5-.5v-2a.5.5 0 0 0-.5-.5h-.5v-4h-1v4h-.5a.5.5 0 0 0-.5.5v.492h-5v-.492a.5.5 0 0 0-.5-.5h-.5v-5h.5a.5.5 0 0 0 .5-.5v-.508h4.006v-1H5.992v-.492a.5.5 0 0 0-.5-.5zm.5 1h1v1h-1zm0 8h1v1h-1zm8 0h1v1h-1z" data-color="color-2"></path></g></g></svg>