<svg height="64" width="64" viewBox="0 0 20 20"><title>object_origin</title><g fill="#000000" class="nc-icon-wrapper"><g transform="translate(0 0)"><path d="M7.491 2.994a.5.5 0 0 0-.388.196.5.5 0 0 0-.004.006L5.145 5.149a.5.5 0 1 0 .707.707l1.147-1.147v3.793a.5.5 0 1 0 1 0V4.709l1.146 1.147a.5.5 0 1 0 .708-.708L7.895 3.191a.5.5 0 0 0-.404-.197zm7.002 7.002a.5.5 0 0 0-.348.86l1.147 1.146h-3.793a.5.5 0 1 0 0 1h3.793l-1.147 1.146a.5.5 0 1 0 .708.708l1.957-1.958a.5.5 0 0 0 .002-.792.5.5 0 0 0-.006-.004l-1.954-1.954a.5.5 0 0 0-.359-.152zM3.491 12.994a.5.5 0 0 0-.492.508v2.94a.5.5 0 0 0 .56.56h2.94a.5.5 0 1 0 0-1H4.706l1.147-1.146a.5.5 0 1 0-.708-.708l-1.146 1.147v-1.793a.5.5 0 0 0-.508-.508z" fill="#ffffff"></path><path d="M9.995 12.002a1.996 1.996 0 0 1-1.996 1.996 1.996 1.996 0 0 1-1.996-1.996 1.996 1.996 0 0 1 1.996-1.996 1.996 1.996 0 0 1 1.996 1.996z" data-color="color-2"></path></g></g></svg>