<svg height="64" width="64" viewBox="0 0 20 20"><title>object_hidden</title><g fill="#000000" class="nc-icon-wrapper"><g transform="translate(0 0)"><path d="M3.5 3a.5.5 0 0 0-.5.5V7h1V4h3V3zM13 3v1h3v3h1V3.5a.5.5 0 0 0-.5-.5zM3 13v3.5a.5.5 0 0 0 .5.5H7v-1H4v-3zm13 0v3h-3v1h3.5a.5.5 0 0 0 .5-.5V13z" fill="#ffffff"></path><path d="M6.5 6a.5.5 0 0 0-.5.5V8h1V7h1V6zM9 6v1h2V6zm3 0v1h1v1h1V6.5a.5.5 0 0 0-.5-.5zM6 9v2h1V9zm7 0v2h1V9zm-7 3v1.5a.5.5 0 0 0 .5.5H8v-1H7v-1zm7 0v1h-1v1h1.5a.5.5 0 0 0 .5-.5V12zm-4 1v1h2v-1z" data-color="color-2"></path></g></g></svg>