<svg height="64" width="64" viewBox="0 0 20 20"><title>onionskin_on</title><g fill="#000000" class="nc-icon-wrapper"><g transform="translate(0 0)"><path d="M4.084 8.586a4.495 4.495 0 0 0-1.043 3.521 4.503 4.503 0 0 0 3.332 3.75 4.495 4.495 0 0 0 4.035-.941c-.296.05-.598.084-.908.084-.386 0-.763-.042-1.127-.12a3.488 3.488 0 0 1-1.75.009 3.496 3.496 0 0 1-2.592-2.916 3.486 3.486 0 0 1 .088-1.346A5.446 5.446 0 0 1 4 9.504c0-.313.033-.619.084-.918z" data-color="color-2"></path><path d="M8.086 5.25C6.3 5.847 5 7.517 5 9.5 5 11.98 7.02 14 9.5 14c.489 0 .951-.097 1.393-.242a5.49 5.49 0 0 1-1.557-.774A3.485 3.485 0 0 1 6 9.5c0-1.084.499-2.037 1.268-2.678a5.487 5.487 0 0 1 .818-1.572z" data-color="color-2"></path><path d="M12.5 4A4.515 4.515 0 0 0 8 8.5c0 2.473 2.027 4.5 4.5 4.5S17 10.973 17 8.5 14.973 4 12.5 4zm0 2C13.893 6 15 7.107 15 8.5S13.893 11 12.5 11A2.485 2.485 0 0 1 10 8.5C10 7.107 11.107 6 12.5 6z" fill="#ffffff"></path></g></g></svg>