<svg height="64" width="64" viewBox="0 0 20 20"><title>orientation_view</title><g fill="#ffffff" class="nc-icon-wrapper"><g transform="translate(0 0)"><path d="M5.492 2.992a.5.5 0 0 0-.388.196.5.5 0 0 0-.004.006L3.146 5.147a.5.5 0 1 0 .707.707L5 4.707v7.574c-.594.348-1 .986-1 1.719 0 1.099.901 2 2 2 .733 0 1.37-.406 1.719-1h7.574l-1.147 1.146a.5.5 0 1 0 .708.708l1.957-1.958a.5.5 0 0 0 .002-.792.5.5 0 0 0-.006-.004l-1.954-1.954a.5.5 0 0 0-.359-.152.5.5 0 0 0-.348.86L15.293 14H8c0-1.099-.901-2-2-2V4.707l1.146 1.147a.5.5 0 1 0 .708-.708L5.896 3.189a.5.5 0 0 0-.404-.197zM6 13c.558 0 1 .442 1 1s-.442 1-1 1-1-.442-1-1 .442-1 1-1z" class="nc-icon-wrapper"></path></g></g></svg>