<svg height="64" width="64" viewBox="0 0 20 20"><title>orientation_local</title><g fill="#ffffff" class="nc-icon-wrapper"><g transform="translate(0 0)"><path d="M13.676 3a.5.5 0 1 0 0 1h1.69l-3.384 4.27a1.967 1.967 0 0 0-.978-.27c-.733 0-1.37.406-1.719 1H4.703l1.146-1.147a.5.5 0 0 0-.363-.857.5.5 0 0 0-.344.15l-2 2a.5.5 0 0 0 0 .707l2 2a.5.5 0 1 0 .707-.707L4.703 10h4.3c0 1.099.902 2 2 2 1.1 0 2-.901 2-2 0-.378-.113-.729-.298-1.031l3.299-4.162v1.521a.5.5 0 1 0 1 0V3.5a.5.5 0 0 0-.5-.5zm-2.672 6c.558 0 1 .442 1 1s-.442 1-1 1-1-.442-1-1 .442-1 1-1z"></path><path d="M12.248 10.738a.5.5 0 0 0-.396.817L15.364 16h-1.69a.5.5 0 1 0 0 1h2.829a.5.5 0 0 0 .5-.5v-2.828a.5.5 0 1 0-1 0v1.521l-3.367-4.26a.5.5 0 0 0-.389-.195z"></path></g></g></svg>