<svg height="64" width="64" viewBox="0 0 20 20"><title>orientation_normal</title><g fill="#ffffff" class="nc-icon-wrapper"><g transform="translate(0 0)"><path d="M14.516 6.999a.5.5 0 0 0-.366.857l1.147 1.147H9.711a2 2 0 0 0-1.72-1c-1.1 0-2 .901-2 2s.9 2 2 2c1.098 0 2-.901 2-2h5.306l-1.147 1.146a.501.501 0 0 0 .71.707l2-2a.5.5 0 0 0 0-.707l-2-2a.5.5 0 0 0-.344-.15zM7.99 9.003c.558 0 1 .442 1 1s-.442 1-1 1-1-.442-1-1 .442-1 1-1z"></path><path d="M11.998 7.996l-.004-4.502a.5.5 0 0 0-.504-.5l-1.002.008a.5.5 0 0 0-.133.02L3.357 5.014a.5.5 0 0 0-.363.48v11a.5.5 0 0 0 .496.5l.998.01a.5.5 0 0 0 .14-.02l7.003-2.005a.5.5 0 0 0 .363-.481l.004-3.502h-1l-.004 3.125-6.57 1.88-.43-.001V5.873l6.568-1.871.432-.004.004 3.998z"></path></g></g></svg>