<svg height="64" width="64" viewBox="0 0 20 20"><title>orientation_global</title><g fill="#ffffff" class="nc-icon-wrapper"><g transform="translate(0 0)"><path d="M13.49 5.996a.5.5 0 0 0-.05.004H10.5a.5.5 0 1 0 0 1h1.793l-5.147 5.146a.5.5 0 1 0 .708.708L13 7.707V9.5a.5.5 0 1 0 1 0V6.56a.5.5 0 0 0-.51-.564z"></path><path d="M5.492 2.992a.5.5 0 0 0-.389.195.5.5 0 0 0-.004.006L3.146 5.146a.5.5 0 1 0 .707.708L5 4.707v7.574c-.594.348-1 .986-1 1.719 0 1.099.901 2 2 2 .733 0 1.37-.406 1.718-1h7.575l-1.147 1.146a.5.5 0 1 0 .707.708l1.957-1.958a.5.5 0 0 0 .002-.792.5.5 0 0 0-.006-.004l-1.953-1.954a.5.5 0 0 0-.36-.152.5.5 0 0 0-.347.86L15.293 14H8c0-1.099-.902-2-2-2V4.707l1.146 1.146a.5.5 0 1 0 .707-.707L5.896 3.189a.5.5 0 0 0-.404-.197zM6 13c.558 0 1 .442 1 1s-.442 1-1 1-1-.442-1-1 .442-1 1-1z"></path></g></g></svg>