<svg height="64" width="64" viewBox="0 0 20 20"><title>outliner_data_mesh</title><g fill="#ffffff" class="nc-icon-wrapper"><g transform="translate(0 0)"><path d="M3.5 3a.5.5 0 0 0-.5.5v3a.5.5 0 0 0 .5.5h.95L8 13.627V16.5a.5.5 0 0 0 .5.5h3a.5.5 0 0 0 .5-.5v-2.873L15.55 7h.95a.5.5 0 0 0 .5-.5v-3a.5.5 0 0 0-.5-.5h-3a.5.5 0 0 0-.5.5V4H7v-.5a.5.5 0 0 0-.5-.5zM4 4h2v2H4zm10 0h2v2h-2zM7 5h6v1.5a.5.5 0 0 0 .5.5h.914L11.2 13H8.801L5.586 7H6.5a.5.5 0 0 0 .5-.5zm2 9h2v2H9z" class="nc-icon-wrapper"></path></g></g></svg>