<svg height="64" width="64" viewBox="0 0 20 20"><title>outliner_data_speaker</title><g fill="#ffffff" class="nc-icon-wrapper"><g transform="translate(0 0)"><path d="M8.5 3a.5.5 0 0 0-.354.146L5.293 6H3.5a.5.5 0 0 0-.5.5v7a.5.5 0 0 0 .5.5h1.793l2.853 2.854A.5.5 0 0 0 8.5 17h1a.5.5 0 0 0 .5-.5v-13a.5.5 0 0 0-.5-.5zm.207 1H9v12h-.293l-2.853-2.854A.5.5 0 0 0 5.5 13H4V7h1.5a.5.5 0 0 0 .354-.146zm6.76 1.016a.5.5 0 0 0-.422.72 9.997 9.997 0 0 1-.008 8.545.5.5 0 1 0 .904.428 11.003 11.003 0 0 0 .008-9.4.5.5 0 0 0-.482-.293zm-2.862.937a.5.5 0 0 0-.433.742 7 7 0 0 1 .006 6.596.5.5 0 1 0 .883.47 8 8 0 0 0-.008-7.536.5.5 0 0 0-.448-.272z" class="nc-icon-wrapper"></path></g></g></svg>