<svg height="64" width="64" viewBox="0 0 20 20"><title>outliner</title><g fill="#000000" class="nc-icon-wrapper"><g transform="translate(0 0)"><path d="M3.5 3a.5.5 0 0 0-.5.5v2a.5.5 0 0 0 .5.5h4a.5.5 0 0 0 .5-.5v-2a.5.5 0 0 0-.5-.5zm7 6a.5.5 0 0 0-.5.5v2a.5.5 0 0 0 .5.5h6a.5.5 0 0 0 .5-.5v-2a.5.5 0 0 0-.5-.5zm0 5a.5.5 0 0 0-.5.5v2a.5.5 0 0 0 .5.5h6a.5.5 0 0 0 .5-.5v-2a.5.5 0 0 0-.5-.5z" fill="#ffffff"></path><path d="M5 7v8.5a.5.5 0 0 0 .5.5H9v-1H6v-4h3v-1H6V7z" data-color="color-2"></path></g></g></svg>