<svg height="64" width="64" viewBox="0 0 20 20"><title>outliner_ob_force_field</title><g fill="#ffffff" class="nc-icon-wrapper"><g transform="translate(0 0)"><path d="M3.993 2.988a1 1 0 0 0-.82 1.567L4.803 7l-1.63 2.445a1 1 0 0 0 0 1.11L4.803 13l-1.63 2.445a1 1 0 1 0 1.664 1.11l2-3a1 1 0 0 0 0-1.11L5.206 10l1.63-2.445a1 1 0 0 0 0-1.11l-2-3a1 1 0 0 0-.843-.457zm5 0a1 1 0 0 0-.82 1.567L9.803 7l-1.63 2.445a1 1 0 0 0 0 1.11L9.803 13l-1.63 2.445a1 1 0 1 0 1.664 1.11l2-3a1 1 0 0 0 0-1.11L10.206 10l1.63-2.445a1 1 0 0 0 0-1.11l-2-3a1 1 0 0 0-.843-.457zm5 0a1 1 0 0 0-.82 1.567L14.803 7l-1.63 2.445a1 1 0 0 0 0 1.11L14.803 13l-1.63 2.445a1 1 0 1 0 1.664 1.11l2-3a1 1 0 0 0 0-1.11L15.206 10l1.63-2.445a1 1 0 0 0 0-1.11l-2-3a1 1 0 0 0-.843-.457z" class="nc-icon-wrapper"></path></g></g></svg>