<svg height="64" width="64" viewBox="0 0 20 20"><title>outliner_data_meta</title><g fill="#ffffff" class="nc-icon-wrapper"><g transform="translate(0 0)"><path d="M13.248 3.014c-1.271.111-2.329.986-2.846 2.177-2.575-.62-5.267.504-6.597 2.809a6.003 6.003 0 0 0 .953 7.242 6.003 6.003 0 0 0 7.242.953c2.305-1.33 3.428-4.022 2.809-6.597 1.361-.591 2.31-1.888 2.177-3.403a3.505 3.505 0 0 0-3.181-3.181 3.184 3.184 0 0 0-.557 0zm.023.996a2.493 2.493 0 0 1 2.719 2.271 2.495 2.495 0 0 1-1.844 2.633.5.5 0 0 0-.359.582l.035.18a.5.5 0 0 0 .008.03 4.997 4.997 0 0 1-2.33 5.624 4.995 4.995 0 0 1-6.035-.795A4.995 4.995 0 0 1 4.67 8.5a4.997 4.997 0 0 1 5.625-2.33.5.5 0 0 0 .03.008l.18.035a.5.5 0 0 0 .581-.36 2.496 2.496 0 0 1 2.186-1.843zM7.5 9a.5.5 0 0 0-.5.5v3a.5.5 0 0 0 .5.5h3a.5.5 0 0 0 .5-.5v-3a.5.5 0 0 0-.5-.5zm.5 1h2v2H8z" class="nc-icon-wrapper"></path></g></g></svg>