<svg height="64" width="64" viewBox="0 0 20 20"><title>outliner_data_pointcloud</title><g fill="#ffffff" class="nc-icon-wrapper"><g transform="translate(0 0)"><path d="M5.636 3.08c1.651 0 3 1.349 3 3 0 1.65-1.349 3-3 3-1.65 0-3-1.35-3-3 0-1.651 1.35-3 3-3zm0 1c-1.11 0-2 .889-2 2 0 1.11.89 2 2 2 1.11 0 2-.89 2-2 0-1.111-.89-2-2-2zm8.727 3.047c1.651 0 3 1.349 3 3 0 1.65-1.349 3-3 3-1.65 0-3-1.35-3-3 0-1.651 1.35-3 3-3zm0 1c-1.11 0-2 .89-2 2 0 1.11.89 2 2 2 1.11 0 2-.89 2-2 0-1.11-.89-2-2-2zm-7.336 2.794c1.651 0 3 1.35 3 3 0 1.651-1.349 3-3 3-1.65 0-3-1.349-3-3 0-1.65 1.35-3 3-3zm0 1c-1.11 0-2 .89-2 2 0 1.11.89 2 2 2 1.11 0 2-.89 2-2 0-1.11-.89-2-2-2z" class="nc-icon-wrapper"></path></g></g></svg>