<svg height="64" width="64" viewBox="0 0 20 20"><title>outliner_data_armature</title><g fill="#ffffff" class="nc-icon-wrapper"><g transform="translate(0 0)"><path d="M11.5 2.988c-.82 0-1.496.676-1.496 1.496S10.679 5.98 11.5 5.98c.82 0 1.496-.675 1.496-1.496 0-.82-.676-1.496-1.496-1.496zm-8.004 1a.5.5 0 0 0-.5.5v3a.5.5 0 0 0 .5.5h3a.5.5 0 0 0 .5-.5v-.5h3.014l-.014 3.287c-1.66 1.41-3.241 2.622-3.988 6.108-.178.674.86.898.976.21.676-3.15 1.924-4.088 3.518-5.427 1.584 1.34 2.831 2.277 3.52 5.43.133.666 1.135.446.976-.215-.763-3.495-2.351-4.704-4.002-6.118l.014-3.275h5.502c.657-.009.657-.99 0-1h-3.043a2.494 2.494 0 0 1-1.97.992 2.492 2.492 0 0 1-1.968-.992H6.996v-1.5a.5.5 0 0 0-.5-.5zm.5 1h2v2h-2z" class="nc-icon-wrapper"></path></g></g></svg>