<svg height="64" width="64" viewBox="0 0 20 20"><title>outliner_ob_camera</title><g fill="#ffffff" class="nc-icon-wrapper"><g transform="translate(0 0)"><path d="M13 2.498c-2.14 0-3.854 1.535-4.307 3.541C8.059 5.166 7.159 4.498 6 4.498a3.508 3.508 0 0 0-3.5 3.5c0 1.927 1.573 3.5 3.5 3.5h7c2.48 0 4.5-2.02 4.5-4.5s-2.02-4.5-4.5-4.5zm0 3c.823 0 1.5.677 1.5 1.5s-.677 1.5-1.5 1.5-1.5-.677-1.5-1.5.677-1.5 1.5-1.5zm-7 1c.823 0 1.5.677 1.5 1.5s-.677 1.5-1.5 1.5-1.5-.677-1.5-1.5.677-1.5 1.5-1.5zm7 0c-.282 0-.5.218-.5.5 0 .282.218.5.5.5.282 0 .5-.218.5-.5 0-.282-.218-.5-.5-.5zm-3.95.998H9a.5.5 0 0 0 .05 0zm-3.05 0c-.282 0-.5.218-.5.5 0 .282.218.5.5.5.282 0 .5-.218.5-.5 0-.282-.218-.5-.5-.5z"></path><path d="M4.992 12.49a.5.5 0 0 0-.492.508v2a.5.5 0 0 0 1 0v-.5h1v1.5a.5.5 0 0 0 .146.353l1 1a.5.5 0 0 0 .354.147h5a.5.5 0 0 0 .5-.5v-4a.5.5 0 0 0-.5-.5H7a.5.5 0 0 0-.5.5v.5h-1v-.5a.5.5 0 0 0-.508-.508zm11.992.01a.48.48 0 0 0-.296.11l-2.5 2a.5.5 0 0 0 0 .78l2.5 2A.5.5 0 0 0 17.5 17v-4a.5.5 0 0 0-.516-.5z"></path></g></g></svg>