<svg height="64" width="64" viewBox="0 0 20 20"><title>outliner_data_lightprobe</title><g fill="#ffffff" class="nc-icon-wrapper"><g transform="translate(0 0)"><path d="M6.507 2.993a.5.5 0 0 0-.36.152l-3 3a.5.5 0 1 0 .708.707l3-3a.5.5 0 0 0-.348-.859zm5 0a.5.5 0 0 0-.36.152l-8 8a.5.5 0 1 0 .708.707l8-8a.5.5 0 0 0-.348-.859zm5 0a.5.5 0 0 0-.36.152l-4.415 4.416c.272.196.511.435.707.707l4.416-4.416a.5.5 0 0 0-.348-.859zm0 5a.5.5 0 0 0-.36.152l-8 8a.5.5 0 1 0 .708.707l8-8a.5.5 0 0 0-.348-.859zM10.001 9a1 1 0 0 0-1 1 1 1 0 0 0 1 1 1 1 0 0 0 1-1 1 1 0 0 0-1-1zm-2.437 2.73l-4.416 4.416a.5.5 0 1 0 .707.707l4.416-4.416a3.053 3.053 0 0 1-.707-.707zm8.943 1.264a.5.5 0 0 0-.36.152l-3 3a.5.5 0 1 0 .708.707l3-3a.5.5 0 0 0-.348-.859z" class="nc-icon-wrapper"></path></g></g></svg>