<svg height="64" width="64" viewBox="0 0 20 20"><title>outliner_ob_lattice</title><g fill="#ffffff" class="nc-icon-wrapper"><g transform="translate(0 0)"><path d="M10.5 3.5l-3.752.006a.5.5 0 0 0-.482.379l-1.25 4.994A.5.5 0 0 0 5.5 9.5h3.75a.5.5 0 0 0 .484-.379l1.25-5A.5.5 0 0 0 10.5 3.5zm6 0l-3.752.006a.5.5 0 0 0-.482.379l-1.25 4.994a.5.5 0 0 0 .484.621h3.75a.5.5 0 0 0 .484-.379l1.25-5A.5.5 0 0 0 16.5 3.5zm-8 7l-3.752.006a.5.5 0 0 0-.482.379l-1.25 4.994a.5.5 0 0 0 .484.621h3.75a.5.5 0 0 0 .484-.379l1.25-5A.5.5 0 0 0 8.5 10.5zm6 0l-3.752.006a.5.5 0 0 0-.482.379l-1.25 4.994a.5.5 0 0 0 .484.621h3.75a.5.5 0 0 0 .484-.379l1.25-5a.5.5 0 0 0-.484-.621z" class="nc-icon-wrapper"></path></g></g></svg>