<svg height="64" width="64" viewBox="0 0 20 20"><title>outliner_ob_surface</title><g fill="#ffffff" class="nc-icon-wrapper"><g transform="translate(0 0)"><path d="M7.508 3a.5.5 0 0 0-.493.586c.364 2.07.211 3.24-.13 3.988-.342.748-.898 1.146-1.563 1.653-.665.506-1.427 1.125-1.873 2.244-.446 1.119-.576 2.682-.191 5.107a.5.5 0 0 0 .494.422h8.756a.5.5 0 0 0 .494-.578c-.369-2.325-.22-3.701.13-4.582.35-.881.898-1.323 1.546-1.817.647-.493 1.406-1.033 1.863-2.035.456-1.002.586-2.394.203-4.574A.5.5 0 0 0 16.252 3z" class="nc-icon-wrapper"></path></g></g></svg>