<svg height="64" width="64" viewBox="0 0 20 20"><title>outliner_data_lattice</title><g fill="#ffffff" class="nc-icon-wrapper"><g transform="translate(0 0)"><path d="M4.494 2.997a.5.5 0 0 0-.5.5v3a.5.5 0 0 0 .5.5h.86l-.825 3.299a.5.5 0 0 0-.041.168L3.01 16.376a.5.5 0 0 0 .484.62h4.922a.5.5 0 0 0 .16 0h4.893a.5.5 0 0 0 .484-.376L16.99 4.63a.5.5 0 0 0-.484-.623L11.599 4a.5.5 0 0 0-.205 0l-3.4-.004v-.5a.5.5 0 0 0-.5-.5zm.5 1h2v2h-.922a.5.5 0 0 0-.16 0h-.918zm3 1l2.86.004-1.25 4.996h-3.97l.75-3h1.11a.5.5 0 0 0 .5-.5zM11.883 5l3.98.006-1.264 4.99h-3.964zm-6.498 5.996h3.968l-1.25 5H4.135zm5 0h3.96l-1.265 5H9.135z" class="nc-icon-wrapper"></path></g></g></svg>