<svg height="64" width="64" viewBox="0 0 20 20"><title>outliner_ob_group_instance</title><g fill="#000000" class="nc-icon-wrapper"><g transform="translate(0 0)"><path d="M16.5 3.5a.5.5 0 0 1 .5.5v2a.5.5 0 0 1-.5.5h-11A.5.5 0 0 1 5 6V4a.5.5 0 0 1 .5-.5zm-.5 4V14a.5.5 0 0 1-.5.5h-9A.5.5 0 0 1 6 14V7.5zm-4 1h-2c-1.352-.02-1.352 2.02 0 2h2c1.352.02 1.352-2.02 0-2z" fill="#ffffff"></path><path d="M4 5.5V6c0 .623.447 1.068 1 1.29V8.5H3.5A.5.5 0 0 1 3 8V6a.5.5 0 0 1 .5-.5zm1 4V14c0 .817.683 1.5 1.5 1.5H14v.5a.5.5 0 0 1-.5.5h-9A.5.5 0 0 1 4 16V9.5z" data-color="color-2"></path></g></g></svg>