<svg height="64" width="64" viewBox="0 0 20 20"><title>outliner_data_light</title><g fill="#ffffff" class="nc-icon-wrapper"><g transform="translate(0 0)"><path d="M10 2.5C6.717 2.5 4 4.941 4 8c0 1.706.905 3.146 2.152 4.36l.994.994a.5.5 0 0 0 .303.148.5.5 0 0 0 .051.998h5a.5.5 0 0 0 .045-.998.5.5 0 0 0 .309-.148l.998-.999c1.212-1.198 2.146-2.651 2.146-4.353 0-3.059-2.716-5.5-6-5.5zm0 1c2.792 0 5 2.036 5 4.5 0 1.334-.743 2.549-1.852 3.644l-1 1a.5.5 0 0 0 .28.854h-4.86a.5.5 0 0 0 .287-.854l-1-1a.5.5 0 0 0-.01-.01c-1.14-1.108-1.847-2.286-1.847-3.64 0-2.464 2.208-4.5 5-4.5zm-2.5 12a.5.5 0 1 0 0 1H9v.5a.5.5 0 0 0 .5.5h1a.5.5 0 0 0 .5-.5v-.5h1.5a.5.5 0 1 0 0-1z"></path><path d="M7.49 7.506a.5.5 0 0 0-.344.848L8 9.207v1.543a.5.5 0 1 0 1 0V9.5h2v1.25a.5.5 0 1 0 1 0V9.207l.854-.854a.5.5 0 0 0-.708-.706l-.853.853H8.707l-.854-.854a.5.5 0 0 0-.363-.14z"></path></g></g></svg>