<svg height="64" width="64" viewBox="0 0 20 20"><title>outliner_data_greasepencil</title><g fill="#ffffff" class="nc-icon-wrapper"><g transform="translate(0 0)"><path d="M13.5 3a.5.5 0 0 0-.5.5V5h-.994c-1.176 0-2.252.418-2.885 1.182a.5.5 0 1 0 .77.636C10.266 6.365 11.079 6 12.006 6H13v.5a.5.5 0 0 0 .5.5h3a.5.5 0 0 0 .5-.5v-3a.5.5 0 0 0-.5-.5zm.5 1h2v2h-2zM9.414 7.959c-1.107.048-2.072.369-2.82.912A3.818 3.818 0 0 0 5.006 12v1H3.5a.5.5 0 0 0-.5.5v3a.5.5 0 0 0 .5.5h3a.5.5 0 0 0 .5-.5v-3a.5.5 0 0 0-.5-.5h-.494v-1c0-.975.418-1.77 1.176-2.32.757-.55 1.876-.847 3.265-.684 1.99.234 3.414 1.228 4.104 2.332.69 1.104.682 2.238-.149 3.068-.838.838-1.988.894-3.084.264-1.095-.63-2.082-1.98-2.316-3.969-.05-.695-1.105-.57-.992.118.266 2.26 1.404 3.91 2.808 4.718.703.404 1.485.59 2.237.528a3.247 3.247 0 0 0 2.054-.951c1.17-1.17 1.162-2.911.29-4.307-.873-1.396-2.575-2.527-4.835-2.793a7.189 7.189 0 0 0-1.15-.045zM4 14h2v2H4z" class="nc-icon-wrapper"></path></g></g></svg>