<svg height="64" width="64" viewBox="0 0 20 20"><title>output</title><g fill="#000000" class="nc-icon-wrapper"><g transform="translate(0 0)"><path d="M4.5 3C3.678 3 3 3.678 3 4.5v5c0 .822 1 1.5 1.5 1.5H5V8h-.5c-.676.01-.676-1.01 0-1h11c.676-.01.676 1.01 0 1H15v3h.5c.822 0 1.5-.678 1.5-1.5v-5c0-.822-.678-1.5-1.5-1.5H5z" data-color="color-2"></path><path d="M6 8v8.5a.5.5 0 0 0 .5.5h7a.5.5 0 0 0 .5-.5V8zm6 2c.546 0 1 .454 1 1s-.454 1-1 1-1-.454-1-1 .454-1 1-1zm-2.508 2a.5.5 0 0 1 .424.223l2 3A.5.5 0 0 1 11.5 16h-4a.5.5 0 0 1-.416-.777l2-3A.501.501 0 0 1 9.492 12z" fill="#ffffff"></path></g></g></svg>