<svg height="64" width="64" viewBox="0 0 20 20"><title>particles</title><g fill="#000000" class="nc-icon-wrapper"><g transform="translate(0 0)"><path d="M8 5.5A2.508 2.508 0 0 0 5.5 3C4.125 3 3 4.125 3 5.5S4.125 8 5.5 8 8 6.875 8 5.5z" fill="#ffffff"></path><path d="M5.5 17c-.823 0-1.5-.677-1.5-1.5 0-.647.421-1.198 1-1.406V9.5c-.01-.676 1.01-.676 1 0v4.594c.579.208 1 .76 1 1.406 0 .823-.677 1.5-1.5 1.5zm9.5 0c-1.099 0-2-.901-2-2 0-.369.109-.71.285-1.008L8.146 8.854c-.49-.472.236-1.198.708-.708l5.138 5.14c.298-.177.64-.286 1.008-.286 1.099 0 2 .901 2 2s-.901 2-2 2zm.5-10a1.502 1.502 0 0 1-1.406-1H9.5c-.676.01-.676-1.01 0-1h4.594c.208-.579.76-1 1.406-1 .823 0 1.5.677 1.5 1.5S16.323 7 15.5 7z" data-color="color-2"></path></g></g></svg>