<svg height="64" width="64" viewBox="0 0 20 20"><title>particle_point</title><g fill="#000000" class="nc-icon-wrapper"><g transform="translate(0 0)"><path d="M16.504 5.996a.5.5 0 0 0-.31.11c-.214.165-.42.333-.616.501-4.034 3.459-4.518 6.51-4.578 9.883a.5.5 0 1 0 1 .02c.059-3.304.376-5.84 4.229-9.143.184-.158.377-.316.578-.473a.5.5 0 0 0-.303-.898z" data-color="color-2"></path><path d="M5.5 8a.5.5 0 0 0-.5.5v3a.5.5 0 0 0 .5.5h3a.5.5 0 0 0 .5-.5v-3a.5.5 0 0 0-.5-.5zm-2 5a.5.5 0 0 0-.5.5v3a.5.5 0 0 0 .5.5h3a.5.5 0 0 0 .5-.5v-3a.5.5 0 0 0-.5-.5zm5-10a.5.5 0 0 0-.5.5v3a.5.5 0 0 0 .5.5h3a.5.5 0 0 0 .5-.5v-3a.5.5 0 0 0-.5-.5z" fill="#ffffff"></path></g></g></svg>