<svg height="64" width="64" viewBox="0 0 20 20"><title>particle_tip</title><g fill="#000000" class="nc-icon-wrapper"><g transform="translate(0 0)"><path d="M5.496 7.994a.5.5 0 0 0-.435.266c-1.532 2.807-2.015 5.045-2.022 8.224a.5.5 0 1 0 1 .004c.007-3.083.432-5.055 1.9-7.748a.5.5 0 0 0-.443-.746zm6.998 2a.5.5 0 0 0-.379.186C10.841 11.708 10 13.166 10 16.5a.5.5 0 1 0 1 0c0-3.18.659-4.208 1.885-5.68a.5.5 0 0 0-.39-.826z" data-color="color-2"></path><path d="M6.5 3a.5.5 0 0 0-.5.5v3a.5.5 0 0 0 .5.5h3a.5.5 0 0 0 .5-.5v-3a.5.5 0 0 0-.5-.5zm7 2a.5.5 0 0 0-.5.5v3a.5.5 0 0 0 .5.5h3a.5.5 0 0 0 .5-.5v-3a.5.5 0 0 0-.5-.5z" fill="#ffffff"></path></g></g></svg>