<svg height="64" width="64" viewBox="0 0 20 20"><title>particle_path</title><g fill="#000000" class="nc-icon-wrapper"><g transform="translate(0 0)"><path d="M15.493 5.979a1.5 1.5 0 0 0-.678.168c-3.417 1.709-5.83 5.059-5.83 9.342a1.5 1.5 0 1 0 3 0c0-3.217 1.587-5.367 4.17-6.658a1.5 1.5 0 0 0-.662-2.852z" fill="#ffffff"></path><path d="M8.481 2.991a.5.5 0 0 0-.353.129c-4.084 3.59-5.144 7.808-5.131 13.363a.5.5 0 1 0 1-.002c-.012-5.432.929-9.214 4.79-12.61a.5.5 0 0 0-.306-.88z" data-color="color-2"></path></g></g></svg>