<svg height="64" width="64" data-color="color-2" viewBox="0 0 20 20"><title>paste_flip_up</title><g fill="#000000" class="nc-icon-wrapper"><g transform="translate(0 0)"><path d="M3.56 2.993a.5.5 0 0 0-.492.508v3a.5.5 0 1 0 1 0v-3a.5.5 0 0 0-.508-.508zm0 5a.5.5 0 0 0-.492.508v3a.5.5 0 1 0 1 0v-3a.5.5 0 0 0-.508-.508zm0 5a.5.5 0 0 0-.492.508v3a.5.5 0 1 0 1 0v-3a.5.5 0 0 0-.508-.508z" data-color="color-2"></path><path d="M6.578 2.993a.5.5 0 0 0-.5.5v.5h-1.01v1h5.025v-.5a.5.5 0 0 0-.515-.5h-1.5v-.5a.5.5 0 0 0-.5-.5zm3.515 2l-.015.5v.5h-5.01v9h4.01v-4.316a1.5 1.5 0 0 1 1.69-1.684h1.309v-3.5a.5.5 0 0 0-.5-.5z" fill="#ffffff"></path><path d="M10.588 9.989a.5.5 0 0 1 .05.004h3.94a.5.5 0 1 1 0 1h-2.793l5.147 5.147a.5.5 0 1 1-.707.707L11.078 11.7v2.793a.5.5 0 1 1-1 0V10.55a.5.5 0 0 1 .51-.56z" data-color="color-2"></path></g></g></svg>