<svg height="64" width="64" viewBox="0 0 20 20"><title>paste_flip_down</title><g fill="#000000" class="nc-icon-wrapper"><g transform="translate(0 0)"><path d="M16.505 3a.5.5 0 0 1 .492.508v3a.5.5 0 1 1-1 0v-3A.5.5 0 0 1 16.505 3zm0 5a.5.5 0 0 1 .492.508v3a.5.5 0 1 1-1 0v-3A.5.5 0 0 1 16.505 8zm0 5a.5.5 0 0 1 .492.508v3a.5.5 0 1 1-1 0v-3a.5.5 0 0 1 .508-.508z" data-color="color-2"></path><path d="M13.481 3a.5.5 0 0 1 .5.5V4h1.016v1h-5v-.5c0-.253.15-.495.484-.5h1.5v-.5a.5.5 0 0 1 .5-.5zM9.997 5l-.016.5V6h5.016v9H8.481a.5.5 0 0 1-.5-.5v-.36l2.58-2.58a1.5 1.5 0 1 0-2.12-2.12l-.46.458V5.5a.5.5 0 0 1 .5-.5z" fill="#ffffff"></path><path d="M9.507 9.994a.5.5 0 0 1 .35.86L4.709 16h2.793a.5.5 0 1 1 0 1h-3.94a.5.5 0 0 1-.56-.57V12.5a.5.5 0 1 1 1 0v2.793l5.146-5.147a.5.5 0 0 1 .358-.152z" data-color="color-2"></path></g></g></svg>