<svg height="64" width="64" viewBox="0 0 20 20"><title>paste_down</title><g fill="#000000" class="nc-icon-wrapper"><g transform="translate(0 0)"><path d="M3.497 4.998a.5.5 0 0 0-.5.5v9a.5.5 0 0 0 .5.5h9c.107 0 .2-.04.281-.098l-3.342-3.341a1.5 1.5 0 1 1 2.122-2.122l1.439 1.44V5.498a.5.5 0 0 0-.5-.5h-1.484l-.016.5v.5h-6v-.5l.016-.5zm5-2a.5.5 0 0 1 .5.5v.5h1.5a.5.5 0 0 1 .516.5v.5h-6v-.5c0-.253.149-.495.484-.5h1.5v-.5a.5.5 0 0 1 .5-.5z" fill="#ffffff"></path><path d="M16.489 17.002a.5.5 0 0 1-.05-.004h-3.94a.5.5 0 1 1 0-1h2.793l-5.147-5.147a.5.5 0 1 1 .707-.707l5.147 5.147v-2.793a.5.5 0 1 1 1 0v3.943a.5.5 0 0 1-.51.56z" data-color="color-2"></path></g></g></svg>