<svg height="64" width="64" viewBox="0 0 20 20"><title>physics</title><g fill="#000000" class="nc-icon-wrapper"><g transform="translate(0 0)"><path d="M10 7.001c-1.65 0-3 1.35-3 3s1.35 3 3 3 3-1.35 3-3-1.35-3-3-3z" fill="#ffffff"></path><path d="M9.924 3.001A7.009 7.009 0 0 0 3.477 7.46a7.006 7.006 0 0 0 3.337 8.773 7.007 7.007 0 0 0 9.067-2.435.5.5 0 1 0-.84-.543 5.996 5.996 0 0 1-7.771 2.09 5.995 5.995 0 0 1-2.862-7.522 5.995 5.995 0 0 1 7.196-3.603.5.5 0 1 0 .265-.965 6.962 6.962 0 0 0-1.945-.254zm5.076 0c-1.099 0-2 .901-2 2s.901 2 2 2 2-.901 2-2-.901-2-2-2z" data-color="color-2"></path></g></g></svg>