<svg width="64" height="64" viewBox="0 0 20 20"><title>pinned 2</title><g fill="#000000" class="nc-icon-wrapper"><g transform="translate(0 0)"><path d="M12.504 2.996a.5.5 0 0 0-.5.5v.793l3.707 3.707h.793a.5.5 0 0 0 .5-.5v-1a.5.5 0 0 0-.147-.353l-3-3a.5.5 0 0 0-.353-.147zm-5.26 9.246a.5.5 0 0 0-.344.15l-3.75 3.75a.5.5 0 1 0 .707.708l3.75-3.75a.5.5 0 0 0-.363-.858z" data-color="color-2"></path><path d="M11.297 4.996l-2 2H6.504a.5.5 0 0 0-.354.147l-1 1a.5.5 0 0 0 0 .707l6 6a.5.5 0 0 0 .707 0l1-1a.5.5 0 0 0 .147-.354v-2.793l2-2z" fill="#ffffff"></path></g></g></svg>