<svg height="64" width="64" viewBox="0 0 20 20"><title>pivot_median</title><g fill="#000000" class="nc-icon-wrapper"><g transform="translate(0 0)"><path d="M12.813 3.016a4.567 4.567 0 0 1 4.17 4.154 4.57 4.57 0 0 1-3.393 4.812.5.5 0 1 1-.254-.968 3.56 3.56 0 0 0 2.65-3.758 3.557 3.557 0 0 0-3.256-3.244A3.558 3.558 0 0 0 8.986 6.68a.5.5 0 1 1-.968-.248 4.568 4.568 0 0 1 4.794-3.416zM7.5 8a.5.5 0 1 1 0 1 3.498 3.498 0 0 0-2.475 5.975A3.498 3.498 0 0 0 11 12.5a.5.5 0 1 1 1 0 4.503 4.503 0 0 1-2.777 4.158 4.504 4.504 0 0 1-5.881-5.88A4.503 4.503 0 0 1 7.5 8z" data-color="color-2"></path><path d="M11.996 9.502A1.498 1.498 0 0 1 10.498 11 1.498 1.498 0 0 1 9 9.502a1.498 1.498 0 0 1 1.498-1.498 1.498 1.498 0 0 1 1.498 1.498z" fill="#ffffff"></path></g></g></svg>