<svg height="64" width="64" viewBox="0 0 20 20"><title>pivot_active</title><g fill="#000000" class="nc-icon-wrapper"><g transform="translate(0 0)"><path d="M7.5 8c2.48 0 4.5 2.02 4.5 4.5S9.98 17 7.5 17 3 14.98 3 12.5 5.02 8 7.5 8zm0 1A3.492 3.492 0 0 0 4 12.5C4 14.439 5.561 16 7.5 16s3.5-1.561 3.5-3.5S9.439 9 7.5 9z" data-color="color-2"></path><path d="M12.87 3.016a4.504 4.504 0 0 1 4.112 4.095 4.503 4.503 0 0 1-3.345 4.743.5.5 0 1 1-.254-.967 3.495 3.495 0 0 0 2.603-3.69 3.494 3.494 0 0 0-3.199-3.185 3.494 3.494 0 0 0-3.678 2.619.5.5 0 1 1-.968-.248 4.505 4.505 0 0 1 4.728-3.367z" data-color="color-2"></path><path d="M9 12.498a1.498 1.498 0 0 1-1.498 1.498 1.498 1.498 0 0 1-1.498-1.498A1.498 1.498 0 0 1 7.502 11 1.498 1.498 0 0 1 9 12.498z" fill="#ffffff"></path></g></g></svg>