<svg height="64" width="64" viewBox="0 0 20 20"><title>pivot_obounding_box</title><g fill="#000000" class="nc-icon-wrapper"><g transform="translate(0 0)"><path d="M3.496 2.996a.5.5 0 0 0-.5.5v4a.5.5 0 1 0 1 0v-3.5h3.5a.5.5 0 1 0 0-1zm9.008 0a.5.5 0 1 0 0 1h3.5v3.5a.5.5 0 1 0 1 0v-4a.5.5 0 0 0-.5-.5zm-9.016 9a.5.5 0 0 0-.492.508v4a.5.5 0 0 0 .5.5h4a.5.5 0 1 0 0-1h-3.5v-3.5a.5.5 0 0 0-.508-.508zm13.008 0a.5.5 0 0 0-.492.508v3.5h-3.5a.5.5 0 1 0 0 1h4a.5.5 0 0 0 .5-.5v-4a.5.5 0 0 0-.508-.508z" fill="#ffffff"></path><path d="M11.996 10A1.996 1.996 0 0 1 10 11.996 1.996 1.996 0 0 1 8.003 10 1.996 1.996 0 0 1 10 8.003 1.996 1.996 0 0 1 11.996 10z" data-color="color-2"></path></g></g></svg>