<svg width="64" height="64" viewBox="0 0 24 24"><title>plus circle multiple outline</title><g fill="#000000" class="nc-icon-wrapper"><g transform="translate(0 0)"><path d="M15 3.354A8.609 8.609 0 0 0 9.922 5.01a8.691 8.691 0 0 0-3.314 4.911 8.625 8.625 0 0 0 .577 5.77 8.722 8.722 0 0 0 4.452 4.271 8.629 8.629 0 0 0 6.046.256 8.712 8.712 0 0 0 4.742-3.797 8.606 8.606 0 0 0 1.208-4.9 8.622 8.622 0 0 0-2.041-5.105 8.673 8.673 0 0 0-4.906-2.897A8.597 8.597 0 0 0 15 3.354zm0 1.292a7.333 7.333 0 0 1 4.256 1.357 7.385 7.385 0 0 1 2.8 3.92 7.37 7.37 0 0 1-.387 5.178 7.4 7.4 0 0 1-3.558 3.563 7.369 7.369 0 0 1-5.145.405 7.385 7.385 0 0 1-3.911-2.741 7.333 7.333 0 0 1-1.41-4.257A7.333 7.333 0 0 1 8.904 7.89a7.386 7.386 0 0 1 3.911-2.913A7.33 7.33 0 0 1 15 4.646z" fill="#ffffff"></path><path d="M5.646 4.09a8.916 8.916 0 0 0-3.66 2.913 8.453 8.453 0 0 0-.332 9.506 8.86 8.86 0 0 0 3.992 3.401v-1.37a7.391 7.391 0 0 1-2.943-2.745 7.289 7.289 0 0 1-1.04-3.317 7.315 7.315 0 0 1 1.42-4.838 7.387 7.387 0 0 1 2.563-2.179V4.09z" data-color="color-2"></path><path d="M16 8h-2v3h-3v2h3v3h2v-3h3v-2h-3" data-color="color-2"></path></g></g></svg>