<svg height="64" width="64" viewBox="0 0 20 20"><title>preferences</title><g fill="#ffffff" class="nc-icon-wrapper"><g transform="translate(0 0)"><path d="M9 3l-.156 1.906c-.623.143-1.077.252-1.594.594L5.5 4 4 5.5l1.5 1.75c-.342.517-.451.97-.594 1.594L3 9v2l1.906.156c.143.623.252 1.077.594 1.594L4 14.5 5.5 16l1.75-1.5c.517.342.97.451 1.594.594L9 17h2l.156-1.906c.623-.143 1.077-.252 1.594-.594L14.5 16l1.5-1.5-1.5-1.75c.342-.517.451-.97.594-1.594L17 11V9l-1.906-.156c-.143-.623-.252-1.077-.594-1.594L16 5.5 14.5 4l-1.75 1.5c-.517-.342-.97-.451-1.594-.594L11 3h-1zm1 5c1.116 0 2 .884 2 2s-.884 2-2 2-2-.884-2-2 .884-2 2-2z" class="nc-icon-wrapper"></path></g></g></svg>