<svg height="64" width="64" viewBox="0 0 20 20"><title>preset_new</title><g fill="#000000" class="nc-icon-wrapper"><g transform="translate(0 0)"><path d="M4 7c-.546 0-1 .454-1 1s.454 1 1 1 1-.454 1-1-.454-1-1-1zm0 4c-.546 0-1 .454-1 1s.454 1 1 1 1-.454 1-1-.454-1-1-1zm0 4c-.546 0-1 .454-1 1s.454 1 1 1 1-.454 1-1-.454-1-1-1zm3.5-7c-.676-.01-.676 1.01 0 1h2.26a4.476 4.476 0 0 1-.485-1zm0 4c-.676-.01-.676 1.01 0 1h8c.676.01.676-1.01 0-1zm0 4c-.676-.01-.676 1.01 0 1h8c.676.01.676-1.01 0-1z" data-color="color-2"></path><path d="M13.5 3a3.5 3.5 0 1 0 0 7 3.5 3.5 0 0 0 0-7zM13 4h1v2h2v1h-2v2h-1V7h-2V6h2z" fill="#ffffff"></path></g></g></svg>