<svg height="64" width="64" viewBox="0 0 20 20"><title>preset</title><g fill="#000000" class="nc-icon-wrapper"><g transform="translate(0 0)"><path d="M9.496 4.5a.5.5 0 1 0 0 1h7a.5.5 0 1 0 0-1zm0 5a.5.5 0 1 0 0 1h7a.5.5 0 1 0 0-1zm0 5a.5.5 0 1 0 0 1h7a.5.5 0 1 0 0-1z" data-color="color-2"></path><path d="M4.496 3.5c-.823 0-1.5.677-1.5 1.5s.677 1.5 1.5 1.5 1.5-.677 1.5-1.5-.677-1.5-1.5-1.5zm0 5c-.823 0-1.5.677-1.5 1.5s.677 1.5 1.5 1.5 1.5-.677 1.5-1.5-.677-1.5-1.5-1.5zm0 5c-.823 0-1.5.677-1.5 1.5s.677 1.5 1.5 1.5 1.5-.677 1.5-1.5-.677-1.5-1.5-1.5z" fill="#ffffff"></path></g></g></svg>