<svg width="64" height="64" viewBox="0 0 24 24"><title>progress clock</title><g fill="#000000" class="nc-icon-wrapper"><g transform="translate(0 0)"><path d="M12.5 7v5.25l4.5 2.67-.75 1.23L11 13V7z" data-color="color-2"></path><path d="M13.354 2.457v1.288a8.338 8.338 0 0 1 7.018 8.231c.015 2.187-.887 4.358-2.428 5.906a8.261 8.261 0 0 1-4.59 2.356v1.26a9.662 9.662 0 0 0 5.571-2.818 9.548 9.548 0 0 0 2.654-5.556 9.746 9.746 0 0 0-.662-4.83 9.629 9.629 0 0 0-4.486-4.86 9.683 9.683 0 0 0-3.077-.978zm-2.708.022A9.454 9.454 0 0 0 6.21 4.31l.927.96a8.35 8.35 0 0 1 3.508-1.507V2.48zm-6.34 3.738a9.51 9.51 0 0 0-1.836 4.429h1.28a8.37 8.37 0 0 1 1.475-3.51l-.92-.919zM2.48 13.354a9.668 9.668 0 0 0 1.835 4.427l.91-.916a8.355 8.355 0 0 1-1.467-3.51H2.48zm4.65 5.477l-.909.87a9.62 9.62 0 0 0 4.424 1.875V20.3a8.355 8.355 0 0 1-3.515-1.47z" fill="#ffffff"></path></g></g></svg>