<svg width="64" height="64" viewBox="0 0 24 24"><title>progress download</title><g fill="#000000" class="nc-icon-wrapper"><g transform="translate(0 0)"><path d="M12 16.5L7.5 12H11V8h2v4h3.5z" data-color="color-2"></path><path d="M13.354 2.457v1.288a8.349 8.349 0 0 1 7.014 7.898 8.411 8.411 0 0 1-2.123 5.919 8.272 8.272 0 0 1-4.856 2.67c-.067.006-.021.108-.035.16v1.107a9.639 9.639 0 0 0 5.577-2.824c1.561-1.597 2.543-3.755 2.69-5.985a9.856 9.856 0 0 0-.152-2.549 9.503 9.503 0 0 0-2.143-4.428 9.682 9.682 0 0 0-5.971-3.256zm-2.708.022A9.45 9.45 0 0 0 6.21 4.31l.927.959a8.35 8.35 0 0 1 3.508-1.507V2.48zm-6.34 3.737a9.513 9.513 0 0 0-1.836 4.43h1.28a8.37 8.37 0 0 1 1.475-3.51l-.92-.92zM2.48 13.354a9.667 9.667 0 0 0 1.836 4.426l.91-.916a8.358 8.358 0 0 1-1.469-3.51H2.481zm4.65 5.477l-.91.87a9.62 9.62 0 0 0 4.425 1.875v-1.274a8.358 8.358 0 0 1-3.515-1.471z" fill="#ffffff"></path></g></g></svg>