<svg width="64" height="64" viewBox="0 0 24 24"><title>progress alert</title><g fill="#000000" class="nc-icon-wrapper"><g transform="translate(0 0)"><path d="M11 7v6h2V7zm0 8v2h2v-2z" data-color="color-2"></path><path d="M10.646 2.418a9.426 9.426 0 0 0-4.442 1.837l.939 1.01a8.35 8.35 0 0 1 3.503-1.503V2.418zm2.708.011v1.265a8.34 8.34 0 0 1 7.018 8.232 8.366 8.366 0 0 1-7.018 8.26v1.258a9.65 9.65 0 0 0 5.506-2.839 9.587 9.587 0 0 0 2.44-8.863 9.62 9.62 0 0 0-7.946-7.313zM4.306 6.217a9.436 9.436 0 0 0-1.836 4.43h1.28a8.37 8.37 0 0 1 1.475-3.51l-.919-.92zm-1.824 7.137a9.668 9.668 0 0 0 1.834 4.427l.91-.916a8.355 8.355 0 0 1-1.467-3.51H2.482zm4.63 5.463l-.893.88a9.62 9.62 0 0 0 4.427 1.879V20.3a8.355 8.355 0 0 1-3.534-1.484z" fill="#ffffff"></path></g></g></svg>