<svg height="64" width="64" viewBox="0 0 20 20"><title>proportional_projected</title><g fill="#000000" class="nc-icon-wrapper"><g transform="translate(0 0)"><path d="M9.993 8c-1.099 0-2 .901-2 2s.901 2 2 2 2-.901 2-2-.901-2-2-2z" fill="#ffffff"></path><path d="M10.073 4.984A5.027 5.027 0 0 0 5.053 10c0 2.752 2.243 5.023 5.022 5.016l5.92-.016a1 1 0 1 0-.004-2l-5.92.016c-1.703.005-3.018-1.333-3.018-3.016a2.983 2.983 0 0 1 3.018-3.016l5.92.016a1 1 0 1 0 .004-2l-5.92-.016a1 1 0 0 0-.002 0z" data-color="color-2"></path><path d="M9.993 3A7.002 7.002 0 0 0 3.93 13.5 7.002 7.002 0 0 0 9.993 17h6.5a.5.5 0 1 0 0-1h-6.5a6 6 0 1 1 0-12h6.5a.5.5 0 1 0 0-1z" fill="#ffffff"></path></g></g></svg>