<svg height="64" width="64" viewBox="0 0 20 20"><title>proportional_on</title><g fill="#000000" class="nc-icon-wrapper"><g transform="translate(0 0)"><path d="M10.001 3.003c-3.86 0-6.999 3.139-6.999 6.999s3.139 7 7 7c3.86 0 6.998-3.14 6.998-7s-3.139-7-6.999-7zm0 .998a5.994 5.994 0 0 1 6.001 6 5.994 5.994 0 0 1-6 6.002A5.994 5.994 0 0 1 4 10.002a5.994 5.994 0 0 1 6.001-6z" fill="#ffffff"></path><path d="M10.001 8A2.009 2.009 0 0 0 8 10.003a2.009 2.009 0 0 0 2.001 2.001 2.009 2.009 0 0 0 2.001-2.001 2.009 2.009 0 0 0-2-2.001z" fill="#ffffff"></path><path d="M10.001 5.001c-2.75 0-5 2.25-5 5s2.25 5.002 5 5.002 5-2.251 5-5.001c0-2.75-2.25-5-5-5zm0 2.002A2.984 2.984 0 0 1 13 10.002 2.984 2.984 0 0 1 10 13a2.984 2.984 0 0 1-2.998-3A2.984 2.984 0 0 1 10 7.004z" data-color="color-2"></path></g></g></svg>