<svg height="64" width="64" viewBox="0 0 20 20"><title>question</title><g fill="#ffffff" class="nc-icon-wrapper"><g transform="translate(0 0)"><path d="M10 5C8.217 5 7 6.5 7 8h2c0-.5.283-1 1-1 .717 0 1 .5 1 1 0 .247-.036.3-.117.41-.08.11-.254.26-.514.47C9.849 9.303 9 10.167 9 11.5v.5h2v-.5c0-.667.15-.678.63-1.068.241-.196.568-.436.862-.834.294-.399.508-.97.508-1.598 0-1.5-1.217-3-3-3zm-1 8h2v2H9zm1-10c-3.86 0-7 3.14-7 7s3.14 7 7 7 7-3.14 7-7-3.14-7-7-7zm0 1c3.32 0 6 2.68 6 6s-2.68 6-6 6-6-2.68-6-6 2.68-6 6-6z" class="nc-icon-wrapper"></path></g></g></svg>