<svg height="64" width="64" viewBox="0 0 20 20"><title>quit</title><g fill="#ffffff" class="nc-icon-wrapper"><g transform="translate(0 0)"><path d="M9.992 2.996a.5.5 0 0 0-.492.508v7a.5.5 0 1 0 1 0v-7a.5.5 0 0 0-.508-.508zM6.977 5.049a.5.5 0 0 0-.223.068C4.209 6.554 2.96 9.5 3.723 12.285c.763 2.786 3.342 4.72 6.277 4.72s5.514-1.934 6.277-4.72c.763-2.785-.486-5.73-3.03-7.168a.5.5 0 1 0-.493.871c2.159 1.22 3.201 3.688 2.558 6.034-.642 2.345-2.815 3.982-5.312 3.982-2.497 0-4.67-1.637-5.313-3.982-.642-2.346.4-4.814 2.56-6.034a.5.5 0 0 0-.27-.939z" class="nc-icon-wrapper"></path></g></g></svg>