<svg height="64" width="64" viewBox="0 0 20 20"><title>recover_last</title><g fill="#ffffff" class="nc-icon-wrapper"><g transform="translate(0 0)"><path d="M3.496 2.999a.5.5 0 0 0-.492.508v4a.5.5 0 0 0 .5.5h4a.5.5 0 1 0 0-1H4.816a5.986 5.986 0 0 1 7.368-2.58 5.988 5.988 0 0 1 3.664 6.9 5.987 5.987 0 0 1-6.27 4.66 5.99 5.99 0 0 1-5.55-5.5.5.5 0 1 0-.997.08 6.997 6.997 0 0 0 6.475 6.417 6.999 6.999 0 0 0 7.318-5.436 7 7 0 0 0-4.275-8.053 6.998 6.998 0 0 0-8.545 2.93V3.507a.5.5 0 0 0-.508-.508zm8.988 3.004a.5.5 0 0 0-.382.205l-3 4a.5.5 0 0 0-.016.578l2 3a.5.5 0 1 0 .832-.554l-1.803-2.705 2.787-3.717a.5.5 0 0 0 .104-.313.5.5 0 0 0-.522-.494z" class="nc-icon-wrapper"></path></g></g></svg>