<svg height="64" width="64" viewBox="0 0 20 20"><title>render_result</title><g fill="#000000" class="nc-icon-wrapper"><g transform="translate(0 0)"><path d="M7.5 3a.5.5 0 0 0-.5.5v9a.5.5 0 0 0 .5.5h9a.5.5 0 0 0 .5-.5v-9a.5.5 0 0 0-.5-.5zM8 4h8v8H8z" fill="#ffffff"></path><path d="M14 5c-.546 0-1 .454-1 1s.454 1 1 1 1-.454 1-1-.454-1-1-1zm-3.514 1.05a.45.45 0 0 0-.388.249l-2.75 5.5a.45.45 0 0 0 .402.65h5.75a.45.45 0 0 0 .395-.664l-3-5.5a.45.45 0 0 0-.409-.234z" fill="#ffffff"></path><path d="M5.492 4.992A.5.5 0 0 0 5 5.5v9a.5.5 0 0 0 .5.5h9a.5.5 0 1 0 0-1H6V5.5a.5.5 0 0 0-.508-.508zm-2 2A.5.5 0 0 0 3 7.5v9a.5.5 0 0 0 .5.5h9a.5.5 0 1 0 0-1H4V7.5a.5.5 0 0 0-.508-.508z" data-color="color-2"></path></g></g></svg>