<svg height="64" width="64" data-color="color-2" viewBox="0 0 20 20"><title>restrict_color_off</title><g fill="#000000" class="nc-icon-wrapper"><g transform="translate(0 0)"><path d="M5 4.5a.5.5 0 0 0-.5.5v8.5c0 1.099.901 2 2 2s2-.901 2-2V5a.5.5 0 0 0-.5-.5zm.5 1h2v8c0 .558-.442 1-1 1s-1-.442-1-1z" fill="#ffffff"></path><path d="M11.992 5.5a.5.5 0 0 0-.346.146L9.5 7.793v1.414l2.5-2.5L13.293 8 9.5 11.793v1.414l4.854-4.853a.5.5 0 0 0 0-.708l-2-2a.5.5 0 0 0-.362-.146z" data-color="color-2"></path><path d="M12.75 11.5l-1 1h2.75v2H9.75l-1 1H15a.5.5 0 0 0 .5-.5v-3a.5.5 0 0 0-.5-.5z" data-color="color-2"></path></g></g></svg>