<svg height="64" width="64" viewBox="0 0 20 20"><title>restrict_color_on</title><g fill="#000000" class="nc-icon-wrapper"><g transform="translate(0 0)"><path d="M8 4.5l-2.996.006a.5.5 0 0 0-.5.498L4.5 13.463c0 1.023.806 2.037 2 2.037 1.195 0 1.996-1.022 1.996-2.043L8.5 5a.5.5 0 0 0-.5-.5zm-1.5 8a1 1 0 1 1 0 2 1 1 0 0 1 0-2z" fill="#ffffff"></path><path d="M12.646 11.646l-3 3A.5.5 0 0 0 10 15.5h5a.5.5 0 0 0 .5-.5v-3a.5.5 0 0 0-.514-.5h-2a.506.506 0 0 0-.34.146z" data-color="color-2"></path><path d="M11.993 5.5a.5.5 0 0 0-.346.147l-2.001 2A.5.5 0 0 0 9.499 8v4a.5.5 0 0 0 .854.354l4-4a.5.5 0 0 0 0-.707l-2-2a.5.5 0 0 0-.36-.147z" data-color="color-2"></path></g></g></svg>