<svg height="64" width="64" viewBox="0 0 20 20"><title>rigid_body</title><g fill="#000000" class="nc-icon-wrapper"><g transform="translate(0 0)"><path d="M11.976 6.983a.52.52 0 0 0-.38.195l-3.612 4.516-3.092-3.533a.52.52 0 1 0-.783.683l3.5 4a.52.52 0 0 0 .799-.017l3.611-4.514 3.09 3.531a.52.52 0 1 0 .783-.683l-3.5-4a.52.52 0 0 0-.416-.178z" data-color="color-2"></path><path d="M3.493 3.976a.52.52 0 0 0-.513.527v11a.52.52 0 0 0 1.04 0v-1.5h11.96v1.5a.52.52 0 0 0 1.04 0v-11a.52.52 0 0 0-.527-.527.52.52 0 0 0-.513.527v1.5H4.02v-1.5a.52.52 0 0 0-.527-.527zm.528 3.027H15.98v6H4.02z" fill="#ffffff"></path></g></g></svg>