<svg width="64" height="64" viewBox="0 0 24 24"><title>robot off outline</title><g fill="#000000" class="nc-icon-wrapper"><g transform="translate(0 0)"><path d="M2.39 2.23L1.611 3 6.78 8.17c-.432.274-.862.556-1.237.907a6.659 6.659 0 0 0-2.151 4.218c-.041.352-.038.706-.038 1.06-.467.001-.935-.003-1.403.002a.657.657 0 0 0-.597.696c0 .993-.001 1.987.001 2.98.01.349.343.64.69.612h1.31c.001.487-.005.974.003 1.46.033.652.496 1.251 1.115 1.454.34.122.705.078 1.06.086h13.515c.302-.003.584-.12.844-.265.052-.05.091-.02.128.03l.82.819.77-.77L2.39 2.23zm9.61.125a1.657 1.657 0 0 0-1.523 1.025 1.646 1.646 0 0 0 .402 1.824c.138.135.31.225.476.32v1.83h-.3l1.291 1.292c.62.002 1.241-.005 1.861.003a5.352 5.352 0 0 1 5.147 5.36v1.636h2v1.71h-.298l1.19 1.19c.23-.093.42-.321.4-.58 0-1 .001-1.999-.001-2.998a.655.655 0 0 0-.69-.612h-1.31c.007-.532-.01-1.065-.113-1.588a6.647 6.647 0 0 0-6.585-5.413h-1.302v-1.83c.254-.136.5-.297.67-.535A1.646 1.646 0 0 0 12 2.355zM7.767 9.156l6.087 6.098c-.004.28-.001.567.108.83.227.615.849 1.058 1.506 1.061h.278l3.221 3.21H4.646v-3h-2v-1.71h2c.002-.62-.005-1.24.004-1.86a5.277 5.277 0 0 1 1.409-3.38 5.512 5.512 0 0 1 1.659-1.223l.05-.026z" fill="#ffffff"></path><path d="M8.5 13.5c-1.1 0-2 .9-2 2s.9 2 2 2 2-.89 2-2-.89-2-2-2" data-color="color-2"></path></g></g></svg>