<svg width="64" height="64" viewBox="0 0 24 24"><title>robot dead outline</title><g fill="#000000" class="nc-icon-wrapper"><g transform="translate(0 0)"><path d="M12 2.355a1.657 1.657 0 0 0-1.523 1.025 1.646 1.646 0 0 0 .401 1.824c.139.135.31.225.477.32v1.83c-.55.003-1.1-.006-1.65.007a6.627 6.627 0 0 0-4.16 1.705 6.638 6.638 0 0 0-2.147 4.165c-.047.373-.045.749-.044 1.124-.467.001-.935-.003-1.403.002a.656.656 0 0 0-.597.695c0 .994-.001 1.987.001 2.981.01.349.342.64.688.612h1.311c.002.487-.004.974.004 1.46a1.655 1.655 0 0 0 1.154 1.466c.328.108.675.066 1.014.074h13.506a1.653 1.653 0 0 0 1.507-1.06c.138-.334.101-.698.106-1.05v-.89c.468 0 .936.003 1.404-.002a.657.657 0 0 0 .597-.695l-.001-2.98a.655.655 0 0 0-.688-.613h-1.312c.006-.523-.009-1.048-.109-1.563a6.647 6.647 0 0 0-6.562-5.438h-1.329v-1.83c.246-.133.486-.286.654-.514A1.646 1.646 0 0 0 12 2.355zm-2 6.29c1.376.001 2.753-.002 4.13.002a5.352 5.352 0 0 1 5.223 5.25c.003.582 0 1.165.001 1.748h2v1.71h-2v3H4.646v-3h-2v-1.71h2c.002-.617-.005-1.235.004-1.852A5.353 5.353 0 0 1 10 8.645z" fill="#ffffff"></path><path d="M16.56 13.38l-1.06 1.06-1.06-1.06-1.06 1.06 1.06 1.06-1.06 1.06 1.06 1.06 1.06-1.06 1.06 1.06 1.06-1.06-1.06-1.06 1.06-1.06-1.06-1.06" data-color="color-2"></path><path d="M10.62 14.44L9.56 15.5l1.06 1.06-1.06 1.06-1.06-1.06-1.06 1.06-1.06-1.06 1.06-1.06-1.06-1.06 1.06-1.06 1.06 1.06 1.06-1.06 1.06 1.06" data-color="color-2"></path></g></g></svg>