<svg width="64" height="64" viewBox="0 0 24 24"><title>robot love outline</title><g fill="#000000" class="nc-icon-wrapper"><g transform="translate(0 0)"><path d="M7.035 13.685c-.265 0-.53.105-.735.315-.4.39-.4 1.05 0 1.45l2.2 2.2 2.2-2.2c.4-.4.4-1.06 0-1.45-.41-.42-1.06-.42-1.47 0l-.73.72-.73-.72a1.025 1.025 0 0 0-.735-.315zm7 0c-.265 0-.53.105-.735.315-.4.39-.4 1.05 0 1.45l2.2 2.2 1.47-1.47.73-.73c.4-.4.4-1.06 0-1.45-.41-.42-1.06-.42-1.47 0l-.73.72-.73-.72a1.025 1.025 0 0 0-.735-.315z" data-color="color-2"></path><path d="M11.99 2.353a1.657 1.657 0 0 0-1.558 1.144 1.646 1.646 0 0 0 .297 1.546c.162.214.394.354.626.48v1.831c-.55.003-1.1-.006-1.65.007a6.627 6.627 0 0 0-4.16 1.705 6.638 6.638 0 0 0-2.147 4.165c-.046.373-.045.749-.043 1.124-.468.001-.936-.003-1.404.002a.656.656 0 0 0-.597.695l.001 2.981c.01.349.342.64.688.612h1.312c.002.487-.005.974.003 1.46a1.655 1.655 0 0 0 1.154 1.466c.328.108.676.066 1.015.074h13.505a1.653 1.653 0 0 0 1.507-1.06c.138-.334.101-.699.107-1.051v-.889c.467 0 .935.003 1.403-.002a.657.657 0 0 0 .597-.695c0-.993.001-1.987-.001-2.98a.655.655 0 0 0-.688-.613h-1.311c.005-.523-.01-1.048-.11-1.563a6.647 6.647 0 0 0-6.57-5.438h-1.32V5.525c.252-.139.502-.296.674-.534.45-.571.427-1.437-.015-2.006a1.572 1.572 0 0 0-.787-.55 1.658 1.658 0 0 0-.527-.083zM10 8.645c1.377.001 2.753-.002 4.13.002a5.352 5.352 0 0 1 5.223 5.25c.003.582 0 1.165.002 1.748h2v1.71h-2v3H4.645v-3h-2v-1.71h2c.003-.617-.004-1.235.005-1.852A5.353 5.353 0 0 1 10 8.645z" fill="#ffffff"></path></g></g></svg>