<svg width="64" height="64" viewBox="0 0 24 24"><title>robot confused outline</title><g fill="#000000" class="nc-icon-wrapper"><g transform="translate(0 0)"><path d="M16 3v4h1V3zm2 0v1h2v1h-1v2h1V6h.5c.28 0 .5-.22.5-.5v-2c0-.28-.22-.5-.5-.5zm-2 5v1h1V8zm3 0v1h1V8zM8.5 13.5c-1.1 0-2 .9-2 2s.9 2 2 2 2-.89 2-2-.89-2-2-2zm7 0a2 2 0 0 0-2 2 2 2 0 1 0 4 0c0-1.11-.89-2-2-2z" data-color="color-2"></path><path d="M11.973 2.35a1.696 1.696 0 0 0-1.238.594 1.616 1.616 0 0 0-.378.967 1.642 1.642 0 0 0 .874 1.543l.123.07v1.83c-.487 0-.974-.002-1.461 0a6.652 6.652 0 0 0-2.051.358 6.656 6.656 0 0 0-3.464 2.74 6.604 6.604 0 0 0-1 2.994c-.029.302-.024.605-.024.907l-1.378.001a.655.655 0 0 0-.622.724v2.938a.655.655 0 0 0 .72.63h1.28v1.402c.01.36.143.714.374.99.238.292.576.503.947.576.156.034.316.033.474.032h13.875a1.645 1.645 0 0 0 1.623-1.622v-1.378h1.378a.655.655 0 0 0 .622-.724v-2.938a.655.655 0 0 0-.721-.63h-1.28c0-.284.005-.567-.019-.85a6.564 6.564 0 0 0-.986-2.967c-.041-.06-.076-.134-.124-.183h-1.622a5.34 5.34 0 0 1 1.375 2.712c.066.358.088.722.084 1.086v1.495h2v1.707h-2v3H4.647v-3h-2v-1.707h2v-1.733a5.33 5.33 0 0 1 .813-2.753 5.353 5.353 0 0 1 4.605-2.515l3.986.001c.2.003.398.02.596.045V7.406c-.243-.028-.486-.058-.73-.052h-1.27V5.526c.152-.089.309-.172.44-.29.311-.267.51-.656.55-1.063a1.648 1.648 0 0 0-.331-1.181 1.671 1.671 0 0 0-1.333-.642z" fill="#ffffff"></path></g></g></svg>