<svg width="64" height="64" viewBox="0 0 24 24"><title>rocket outline</title><g fill="#000000" class="nc-icon-wrapper"><g transform="translate(0 0)"><path d="M12 8c-1.1 0-2 .9-2 2s.9 2 2 2 2-.9 2-2-.9-2-2-2zm-5.65 7.73L4 22l3.86-1.55c-.7-1.53-1.2-3.11-1.51-4.72zm11.3 0c-.31 1.61-.81 3.19-1.51 4.72L20 22z" data-color="color-2"></path><path d="M12 2.418c-.55.262-1.03.646-1.481 1.051-.38.345-.74.714-1.04 1.13-.907 1.218-1.487 2.655-1.8 4.133-.326 1.535-.386 3.116-.271 4.677a19.178 19.178 0 0 0 1.302 5.597c.106.259.206.522.33.772.256.488.772.825 1.322.863.28.01.559.002.838.004.792 0 1.584.002 2.376 0a1.634 1.634 0 0 0 1.388-.882c.092-.165.155-.344.23-.517a19.23 19.23 0 0 0 1.059-3.432c.34-1.627.46-3.3.356-4.96-.106-1.653-.464-3.308-1.2-4.8a8.973 8.973 0 0 0-1.299-1.961 9.1 9.1 0 0 0-1.572-1.37A4.206 4.206 0 0 0 12 2.419zm0 1.46c.317.247.626.504.9.796.925.969 1.559 2.188 1.938 3.465.411 1.385.544 2.839.512 4.279a17.412 17.412 0 0 1-1.386 6.404c-.075.179-.155.356-.234.533h-3.46a17.904 17.904 0 0 1-1.214-3.591 17.191 17.191 0 0 1-.34-5.272c.133-1.392.47-2.78 1.116-4.025.5-.964 1.189-1.838 2.054-2.498l.114-.09z" fill="#ffffff"></path></g></g></svg>