<svg width="64" height="64" viewBox="0 0 24 24"><title>rocket launch outline</title><g fill="#000000" class="nc-icon-wrapper"><g transform="translate(0 0)"><path d="M15.955 6.045c-.512 0-1.025.195-1.415.585-.78.78-.78 2.05 0 2.83.78.78 2.05.78 2.83 0s.77-2.05 0-2.83a1.995 1.995 0 0 0-1.415-.585zM7.91 8.1l-6.1 2.77 3.83 1.63C6.22 10.93 7 9.46 7.91 8.1zm-2.27 6.02L2 17.76v1.41l4.09-4.08c-.21-.3-.36-.62-.45-.97zm1.12 1.71L2 20.59V22h1.41l4.77-4.76zm9.14.26c-1.36.91-2.83 1.69-4.4 2.27l1.63 3.83zm-6.99 1.82L4.83 22h1.41l3.64-3.64c-.34-.09-.67-.24-.97-.45z" data-color="color-2"></path><path d="M8.88 16.53l-1.41-1.41 1.41 1.41" fill="#ffffff"></path><path d="M19.22 2.355c-1.572 0-3.12.46-4.501 1.197-1.53.816-2.87 1.95-4.037 3.224a18.944 18.944 0 0 0-2.9 4.226 21.33 21.33 0 0 0-.816 1.809 1.664 1.664 0 0 0 .259 1.551c.14.178.312.327.47.489.614.61 1.227 1.224 1.843 1.833.355.332.86.528 1.347.439.28-.057.541-.183.807-.286a18.72 18.72 0 0 0 7.12-5.164c1.041-1.234 1.906-2.638 2.398-4.182a8.87 8.87 0 0 0 .412-2.13 9.058 9.058 0 0 0-.146-2.098 4.153 4.153 0 0 0-.162-.584c-.548-.187-1.127-.262-1.701-.307a5.98 5.98 0 0 0-.393-.017zm0 1.29c.317 0 .638.004.945.09l.117.027c.055.41.09.823.072 1.237-.044 1.373-.493 2.71-1.166 3.9-.769 1.358-1.813 2.542-2.966 3.587a17.383 17.383 0 0 1-5.576 3.365c-.035.006-.079.052-.104.009l-2.459-2.401c.405-1.042.89-2.053 1.467-3.01a17.176 17.176 0 0 1 3.877-4.492c1.139-.918 2.437-1.667 3.856-2.049a7.507 7.507 0 0 1 1.937-.263z" fill="#ffffff"></path></g></g></svg>