<svg height="64" width="64" viewBox="0 0 20 20"><title>root_curve</title><g fill="#ffffff" class="nc-icon-wrapper"><g transform="translate(0 0)"><path d="M9.75 4.972a.482.52 0 0 0-.314.127l-3.5 3.25c-1.73 1.607-2.918 3.545-2.918 6.143a.482.52 0 1 0 .964 0c0-2.267.972-3.862 2.583-5.358L9.928 6.01h.143l3.365 3.123a.482.52 0 0 0 0 .002c1.612 1.495 2.582 3.089 2.582 5.356a.483.52 0 1 0 .964 0c0-2.598-1.187-4.537-2.917-6.143l-3.5-3.25a.482.52 0 0 0-.315-.127z" class="nc-icon-wrapper"></path></g></g></svg>