<svg height="64" width="64" viewBox="0 0 20 20"><title>scene</title><g fill="#000000" class="nc-icon-wrapper"><g transform="translate(0 0)"><path d="M6.5 3.5a.5.5 0 0 0-.4.2L4.75 5.5H4c-.545 0-1 .455-1 1v9c0 .545.455 1 1 1h12c.545 0 1-.455 1-1v-9c0-.545-.455-1-1-1h-3.75L10.9 3.7a.5.5 0 0 0-.4-.2zm1 1h2a.5.5 0 0 1 .5.5v1a.5.5 0 0 1-.5.5h-2A.5.5 0 0 1 7 6V5a.5.5 0 0 1 .5-.5zM4 7.5h9v7H4V8zm11 1c.546 0 1 .454 1 1s-.454 1-1 1-1-.454-1-1 .454-1 1-1zm0 4c.546 0 1 .454 1 1s-.454 1-1 1-1-.454-1-1 .454-1 1-1z" fill="#ffffff"></path><path d="M5.5 8.5a.5.5 0 1 0 0 1h6.002a.5.5 0 1 0 0-1zm0 2a.5.5 0 1 0 0 1h6.002a.5.5 0 1 0 0-1zm0 2a.5.5 0 1 0 0 1h6.002a.5.5 0 1 0 0-1z" data-color="color-2"></path><path d="M14.502 3.5c-.676-.01-.676 1.01 0 1h1c.676.01.676-1.01 0-1z" fill="#ffffff"></path></g></g></svg>