<svg height="64" width="64" viewBox="0 0 20 20"><title>screen_back</title><g fill="#000000" class="nc-icon-wrapper"><g transform="translate(0 0)"><path d="M3.5 3a.5.5 0 0 0-.5.5v10a.5.5 0 0 0 .5.5H9v2H6.5c-.676-.01-.676 1.01 0 1h7c.676.01.676-1.01 0-1H11v-2h5.5a.5.5 0 0 0 .5-.5v-10a.5.5 0 0 0-.5-.5zM4 4h12v9H4z" fill="#ffffff"></path><path d="M8.497 5.003a.5.5 0 0 0-.344.15l-3 3a.5.5 0 0 0 0 .708l3 3a.5.5 0 1 0 .708-.708L6.714 9.007h7.793a.5.5 0 1 0 0-1H6.714l2.147-2.146a.5.5 0 0 0-.364-.858z" data-color="color-2"></path></g></g></svg>