<svg width="64" height="64" viewBox="0 0 24 24"><title>security</title><g fill="#ffffff" class="nc-icon-wrapper"><g transform="translate(0 0)"><path d="M12 1.388L3.354 5.23c.001 1.976-.001 3.952.001 5.927.014.923.135 1.844.358 2.74.753 3.031 2.671 5.782 5.324 7.449A10.467 10.467 0 0 0 12 22.626c2.233-.568 4.227-1.917 5.702-3.673a12.545 12.545 0 0 0 2.842-6.412c.093-.662.106-1.33.101-1.998V5.231L12 1.388zm.354 1.257v9h7.049a13.268 13.268 0 0 1-.348 1.914c-.579 2.185-1.775 4.221-3.473 5.722a9.436 9.436 0 0 1-3.621 2.022l-.315.096v-9.045h-7V6.07l7.709-3.425z" class="nc-icon-wrapper"></path></g></g></svg>