<svg width="64" height="64" viewBox="0 0 24 24"><title>select color</title><g fill="#000000" class="nc-icon-wrapper"><g transform="translate(0 0)"><path d="M3.917 3.354a.662.662 0 0 0-.563.7v.592h1.292V3.354h-.73zm3.437 0v1.292h1.291V3.354h-1.29zm4 0v1.292h1.291V3.354h-1.29zm4 0v1.292h1.292V3.354h-1.292zm4 0v1.292h1.291c-.001-.25.004-.499-.002-.748a.663.663 0 0 0-.696-.544h-.593zm-16 4v1.292h1.292V7.354H3.354zm16 0v1.292h1.291V7.354h-1.29zm-16 4v1.291h1.292v-1.29H3.354zm0 4v1.292h1.292v-1.292H3.354zm0 4c.002.25-.003.499.003.748.048.325.37.572.696.544h.593v-1.292H3.354zm4 0v1.292h1.291v-1.292h-1.29z" fill="#ffffff"></path><path d="M19.31 12c-.13 0-.26.05-.36.14l-1.56 1.57-.96-.96-.71.71.71.71-4.46 4.46V21h2.38l4.45-4.46.7.71.72-.71-.96-.96 1.56-1.55c.18-.2.18-.53 0-.72l-1.17-1.17a.476.476 0 0 0-.34-.14zM17 15l.97.97L13.93 20l-.96-.96z" data-color="color-2"></path></g></g></svg>