<svg width="64" height="64" viewBox="0 0 24 24"><title>select place</title><g fill="#000000" class="nc-icon-wrapper"><g transform="translate(0 0)"><path d="M7 16l5 5 5-5z" data-color="color-2"></path><path d="M3.987 3.354c-.27.019-.504.228-.6.475-.052.14-.026.29-.032.436v.38h1.29v-1.29h-.658zm3.367 0v1.292h1.292V3.354H7.354zm4 0v1.292h1.291V3.354h-1.29zm4 0v1.292h1.292V3.354h-1.291zm4 0v1.292h1.292c-.002-.23.002-.46-.003-.69-.034-.262-.24-.484-.483-.574-.137-.045-.283-.021-.425-.028h-.38zm-16 4v1.292h1.292V7.354H3.355zm16 0v1.292h1.292V7.354h-1.292zm-16 4c.002.23-.002.46.003.69.034.261.24.484.483.574.137.045.284.021.425.027h.38v-1.29h-1.29zm4 0v1.291h1.292v-1.29H7.354zm4 0v1.291h1.291v-1.29h-1.29zm4 0v1.291h1.292v-1.29h-1.291zm4 0v1.291c.23-.001.46.003.69-.002.262-.034.484-.24.574-.483.046-.138.022-.284.028-.426v-.38h-1.292z" fill="#ffffff"></path></g></g></svg>