<svg width="64" height="64" viewBox="0 0 24 24"><title>select compare</title><g fill="#000000" class="nc-icon-wrapper"><g transform="translate(0 0)"><path d="M15.354 3.354v1.292h1.292V3.354h-1.292zm4 .072v1.22h1.22a1.606 1.606 0 0 0-1.22-1.22zm0 3.928v1.292h1.291V7.354h-1.29zm0 4v1.291h1.291v-1.29h-1.29zm0 4v1.292h1.291v-1.291h-1.29zm-4 4v1.292h1.292v-1.292h-1.292zm4 0v1.22a1.605 1.605 0 0 0 1.22-1.22h-1.22z" fill="#ffffff"></path><path d="M11.355 1.354v21.292h1.29V1.354h-1.29zM5 3.354a1.65 1.65 0 0 0-1.646 1.762V19.03a1.653 1.653 0 0 0 1.776 1.614h3.516v-1.29h-4V4.644h4v-1.29H5z" data-color="color-2"></path></g></g></svg>