<svg width="64" height="64" viewBox="0 0 24 24"><title>select multiple</title><g fill="#000000" class="nc-icon-wrapper"><g transform="translate(0 0)"><path d="M3 8.354a.653.653 0 0 0-.646.685v11.97a.653.653 0 0 0 .685.637h11.998a.619.619 0 0 0 .511-.3.679.679 0 0 0 .098-.38v-.613h-12v-12H3z" data-color="color-2"></path><path d="M7 4.354a.653.653 0 0 0-.644.597c-.004.231 0 .463-.002.694h1.292v-1.29H7zm3.354 0v1.291h1.292v-1.29h-1.292zm4 0v1.291h1.291v-1.29h-1.29zm4 0v1.291h1.292c-.002-.236.004-.474-.004-.71a.653.653 0 0 0-.654-.58h-.633zm-12 4v1.291h1.292v-1.29H6.354zm12 0v1.291h1.292v-1.29h-1.292zm-12 4v1.292h1.292v-1.292H6.354zm12 0v1.292h1.292v-1.292h-1.292zm-12 4c.002.237-.004.475.004.712a.652.652 0 0 0 .648.58h.64v-1.292H6.354zm4 0v1.291h1.292v-1.29h-1.292zm4 0v1.291h1.291v-1.29h-1.29zm4 0v1.291c.236-.001.472.004.707-.003a.653.653 0 0 0 .585-.66v-.628h-1.292z" fill="#ffffff"></path></g></g></svg>