<svg width="64" height="64" viewBox="0 0 24 24"><title>select</title><g fill="#ffffff" class="nc-icon-wrapper"><g transform="translate(0 0)"><path class="nc-icon-wrapper" d="M4 3.353a.65.65 0 0 0-.646.699v.594h1.293V3.353H4zm3.353 0v1.293h1.294V3.353H7.352zm4 0v1.293h1.294V3.353h-1.294zm4 0v1.293h1.294V3.353h-1.293zm4 0v1.293h1.293c0-.226.002-.452 0-.679a.65.65 0 0 0-.698-.613h-.594zm-16 4v1.294h1.294V7.352H3.354zm16 0v1.294h1.293V7.352h-1.293zm-16 4v1.294h1.294v-1.294H3.354zm16 0v1.294h1.293v-1.294h-1.293zm-16 4v1.294h1.294v-1.293H3.354zm16 0v1.294h1.293v-1.293h-1.293zm-16 4l.001.68a.65.65 0 0 0 .698.613h.594v-1.293H3.353zm4 0v1.293h1.294v-1.293H7.352zm4 0v1.293h1.294v-1.293h-1.294zm4 0v1.293h1.294v-1.293h-1.293zm4 0v1.293c.227 0 .453.002.68 0a.65.65 0 0 0 .613-.698v-.594h-1.293z"></path></g></g></svg>