<svg width="64" height="64" data-color="color-2" viewBox="0 0 24 24"><title>select drag</title><g fill="#000000" class="nc-icon-wrapper"><g transform="translate(0 0)"><path d="M5.355 5.355v1.29h1.29v-1.29h-1.29zm4 0v1.29h1.29v-1.29h-1.29zm4 0v1.29h1.29v-1.29h-1.29zm4 0v1.29h1.29v-1.29h-1.29zm-12 4v1.29h1.29v-1.29h-1.29zm12 0v1.29h1.29v-1.29h-1.29zm-12 4v1.29h1.29v-1.29h-1.29zm0 4v1.29h1.29v-1.29h-1.29zm4 0v1.29h1.29v-1.29h-1.29z" fill="#ffffff"></path><path d="M17.354 13.354v4h-4v1.293h4v4h1.293v-4h4v-1.293h-4v-4h-1.293z" data-color="color-2"></path></g></g></svg>