<svg width="64" height="64" viewBox="0 0 24 24"><title>select all</title><g fill="#000000" class="nc-icon-wrapper"><g transform="translate(0 0)"><path d="M7.354 3.354v1.292h1.291V3.354h-1.29zm4 0v1.292h1.291V3.354h-1.29zm4 0v1.292h1.292V3.354h-1.292zm-10.708.072A1.609 1.609 0 0 0 3.448 4.56c-.061.097.015.09.085.086h1.112v-1.22zm14.708 0v1.22h1.22a1.61 1.61 0 0 0-1.191-1.213zm-16 3.928v1.292h1.292V7.354H3.354zm16 0v1.292h1.291V7.354h-1.29zm-16 4v1.291h1.292v-1.29H3.354zm16 0v1.291h1.291v-1.29h-1.29zm-16 4v1.292h1.292v-1.291H3.354zm16 0v1.292h1.291v-1.291h-1.29zm-15.928 4c.12.568.573 1.048 1.134 1.198.097.061.09-.015.085-.085v-1.113H3.426zm3.928 0v1.292h1.291v-1.292h-1.29zm4 0v1.292h1.291v-1.292h-1.29zm4 0v1.292h1.292v-1.292h-1.292zm4 0v1.22a1.609 1.609 0 0 0 1.198-1.134c.06-.097-.015-.09-.085-.086h-1.113z" fill="#ffffff"></path><path d="M7.354 7.354v9.291h9.291v-9.29h-9.29zm1.291 1.291h6.71v6.71h-6.71v-6.71z" data-color="color-2"></path></g></g></svg>