<svg width="64" height="64" viewBox="0 0 24 24"><title>select off</title><g fill="#ffffff" class="nc-icon-wrapper"><g transform="translate(0 0)"><path class="nc-icon-wrapper" d="M7.354 3.353v1.293h1.293V3.353H7.352zm4 0v1.293h1.293V3.353h-1.294zm4 0v1.293h1.293V3.353h-1.293zm4 0v1.293h1.293l-.001-.679a.65.65 0 0 0-.354-.542.688.688 0 0 0-.352-.071h-.586zM2.279 3.5l-.777.771 3.084 3.082H3.354v1.293h1.293V7.414l11.939 11.94h-1.233v1.292h1.293v-1.232l3.082 3.084.772-.778L2.279 3.5zm17.075 3.853v1.293h1.293V7.353h-1.293zm-16 4v1.293h1.293v-1.293H3.354zm16 0v1.293h1.293v-1.293h-1.293zm-16 4v1.293h1.293v-1.293H3.354zm16 0v1.293h1.293v-1.293h-1.293zm-16 4c0 .227-.002.453 0 .68a.65.65 0 0 0 .354.542.688.688 0 0 0 .352.071h.586v-1.293H3.353zm4 0v1.293h1.293v-1.293H7.352zm4 0v1.293h1.293v-1.293h-1.294z"></path></g></g></svg>