<svg width="64" height="64" viewBox="0 0 24 24"><title>select search</title><g fill="#000000" class="nc-icon-wrapper"><g transform="translate(0 0)"><path d="M3.983 3.354a.652.652 0 0 0-.629.653v.639h1.292V3.354h-.663zm3.371 0v1.292h1.291V3.354h-1.29zm4 0v1.292h1.291V3.354h-1.29zm4 0v1.292h1.292V3.354h-1.292zm4 0v1.292h1.291c-.002-.243.007-.486-.005-.728a.653.653 0 0 0-.67-.564h-.616zm-16 4v1.292h1.292V7.354H3.354zm16 0v1.292h1.291V7.354h-1.29zm-16 4v1.291h1.292v-1.29H3.354zm16.66 0c.223.198.435.409.632.633v-.632h-.633zm-16.66 4v1.292h1.292v-1.292H3.354zm0 4c.003.243-.006.486.006.728a.653.653 0 0 0 .67.564h.616v-1.292H3.354zm4 0v1.292h1.291v-1.292h-1.29z" fill="#ffffff"></path><path d="M15.5 19a2.5 2.5 0 0 1 0-5 2.5 2.5 0 0 1 0 5" fill="#ffffff"></path><path d="M19.31 18.9c.44-.69.69-1.52.69-2.4 0-2.5-2-4.5-4.5-4.5S11 14 11 16.5s2 4.5 4.5 4.5c.87 0 1.69-.25 2.38-.68L21 23.39 22.39 22l-3.08-3.1" data-color="color-2"></path></g></g></svg>