<svg height="64" width="64" viewBox="0 0 20 20"><title>seq_splitview</title><g fill="#000000" class="nc-icon-wrapper"><g transform="translate(0 0)"><path d="M3.5 8a.5.5 0 0 0-.5.5v8a.5.5 0 0 0 .5.5h8a.5.5 0 0 0 .5-.5v-8a.5.5 0 0 0-.5-.5zM10 9c.546 0 1 .454 1 1s-.454 1-1 1-1-.454-1-1 .454-1 1-1zm-2.98 1.75a.5.5 0 0 1 .412.246l2.5 4.25A.5.5 0 0 1 9.5 16h-5a.5.5 0 0 1-.432-.754l2.5-4.25a.5.5 0 0 1 .452-.246z" fill="#ffffff"></path><path d="M7.5 3a.5.5 0 0 0-.5.5v3a.5.5 0 0 0 .5.5h9a.5.5 0 0 0 .5-.5v-3a.5.5 0 0 0-.5-.5zM8 4h8v2H8zm5 7v1h3v2h-3v1h3.5a.5.5 0 0 0 .5-.5v-3a.5.5 0 0 0-.5-.5z" data-color="color-2"></path></g></g></svg>