<svg height="64" width="64" viewBox="0 0 20 20"><title>seq_preview</title><g fill="#000000" class="nc-icon-wrapper"><g transform="translate(0 0)"><path d="M7.523 9a.5.5 0 0 1 .41.252l4 7A.5.5 0 0 1 11.5 17h-8a.5.5 0 0 1-.434-.748l4-7A.5.5 0 0 1 7.523 9zM7.5 10.508L4.362 16h6.277z" fill="#ffffff"></path><path d="M12.5 6c.823 0 1.5.677 1.5 1.5S13.323 9 12.5 9 11 8.323 11 7.5 11.677 6 12.5 6z" fill="#ffffff"></path><path d="M3.5 3a.5.5 0 0 0-.5.5v10.852l1-1.75V4h12v12h-3.1c.123.34.117.687.004 1H16.5a.5.5 0 0 0 .5-.5v-13a.5.5 0 0 0-.5-.5z" data-color="color-2"></path></g></g></svg>