<svg height="64" width="64" viewBox="0 0 20 20"><title>seq_sequencer</title><g fill="#000000" class="nc-icon-wrapper"><g transform="translate(0 0)"><path d="M3.5 10a.5.5 0 0 1-.5-.5v-3a.5.5 0 0 1 .5-.5h11a.5.5 0 0 1 .5.5v3a.5.5 0 0 1-.5.5zM4 9h10V7H4z" data-color="color-2"></path><path d="M5.5 7a.5.5 0 0 1-.5-.5v-3a.5.5 0 0 1 .5-.5h11a.5.5 0 0 1 .5.5v3a.5.5 0 0 1-.5.5zM6 6h10V4H6z" fill="#ffffff"></path><path d="M5.5 13a.5.5 0 0 0-.5.5v3a.5.5 0 0 0 .5.5h11a.5.5 0 0 0 .5-.5v-3a.5.5 0 0 0-.5-.5zm.5 1h10v2H6z" data-color="color-2"></path></g></g></svg>