<svg height="64" width="64" viewBox="0 0 20 20"><title>sequence</title><g fill="#000000" class="nc-icon-wrapper"><g transform="translate(0 0)"><path d="M14.98 2.504a.5.5 0 0 0-.12.02l-1.364.388.01 2.04 1.63-.468a.5.5 0 0 0 .36-.48v-1a.5.5 0 0 0-.516-.5zm-2.484.694l-2 .57.01 2.04 2-.573zm-3 .856l-1.637.468a.5.5 0 0 0-.363.48v1a.5.5 0 0 0 .637.481l1.369-.39zm-2 5.444v1l8.5.01a.5.5 0 0 0 0-1zm-3 2.006v5.492a.5.5 0 0 0 .5.5h11a.5.5 0 0 0 .5-.5v-4.992a.5.5 0 0 0-.5-.5z" fill="#ffffff"></path><path d="M4.004 5.496a.5.5 0 0 0-.5.5v4a.5.5 0 0 0 .5.5h2a.5.5 0 0 0 .5-.5v-4a.5.5 0 0 0-.5-.5zm.5 1h1v3h-1z" data-color="color-2"></path></g></g></svg>