<svg height="64" width="64" viewBox="0 0 20 20"><title>shading_bounding_box</title><g fill="#ffffff" class="nc-icon-wrapper"><g transform="translate(0 0)"><path d="M3.496 2.996a.5.5 0 0 0-.5.5v4a.5.5 0 1 0 1 0v-3.5h3.5a.5.5 0 1 0 0-1zm9.008 0a.5.5 0 1 0 0 1h3.5v3.5a.5.5 0 1 0 1 0v-4a.5.5 0 0 0-.5-.5zm-9.016 9a.5.5 0 0 0-.492.508v4a.5.5 0 0 0 .5.5h4a.5.5 0 1 0 0-1h-3.5v-3.5a.5.5 0 0 0-.508-.508zm13.008 0a.5.5 0 0 0-.492.508v3.5h-3.5a.5.5 0 1 0 0 1h4a.5.5 0 0 0 .5-.5v-4a.5.5 0 0 0-.508-.508z" class="nc-icon-wrapper"></path></g></g></svg>