<svg width="64" height="64" data-color="color-2" viewBox="0 0 20 20"><title>shading_texture</title><g fill="#000000" class="nc-icon-wrapper"><g transform="translate(0 0)"><path d="M10 3.5c-3.59 0-6.5 2.41-6.5 6 1 1 3 2.5 6.5 2.5z" data-color="color-2"></path><path d="M15.244 10.645a.6.6 0 0 0-.418 1.029l.5.5a.6.6 0 1 0 .848-.848l-.5-.5a.6.6 0 0 0-.43-.181zm-2.25.75a.6.6 0 0 0-.418 1.029l1.75 1.75a.6.6 0 1 0 .848-.848l-1.75-1.75a.6.6 0 0 0-.43-.181zm-2.5.5a.6.6 0 0 0-.418 1.029l2.75 2.75a.6.6 0 1 0 .848-.848l-2.75-2.75a.6.6 0 0 0-.43-.181zm0 3a.6.6 0 0 0-.418 1.029l.75.75a.6.6 0 1 0 .848-.848l-.75-.75a.6.6 0 0 0-.43-.181z" data-color="color-2"></path><path d="M10 3c-3.86 0-7 3.14-7 7s3.14 7 7 7 7-3.14 7-7-3.14-7-7-7zm0 1c3.32 0 6 2.68 6 6s-2.68 6-6 6-6-2.68-6-6 2.68-6 6-6z" fill="#ffffff"></path></g></g></svg>