<svg height="64" width="64" viewBox="0 0 20 20"><title>shaderfx</title><g fill="#000000" class="nc-icon-wrapper"><g transform="translate(0 0)"><path d="M10.488 8.004a.5.5 0 0 0-.346.146L8.996 9.297l1.707 1.707 1.147-1.146a.5.5 0 0 0 0-.708l-1-1a.5.5 0 0 0-.362-.146zm-2.199 2L3.142 15.15a.5.5 0 0 0 0 .708l1 1a.5.5 0 0 0 .708 0l5.146-5.147z" fill="#ffffff"></path><path d="M6.488 2.996a.5.5 0 0 0-.492.508v1.5h-1.5a.5.5 0 1 0 0 1h1.5v1.5a.5.5 0 1 0 1 0v-1.5h1.5a.5.5 0 1 0 0-1h-1.5v-1.5a.5.5 0 0 0-.508-.508zm8 .5a.5.5 0 0 0-.492.508v1h-1a.5.5 0 1 0 0 1h1v1a.5.5 0 1 0 1 0v-1h1a.5.5 0 1 0 0-1h-1v-1a.5.5 0 0 0-.508-.508zm0 7.5a.5.5 0 0 0-.492.508v1.5h-1.5a.5.5 0 1 0 0 1h1.5v1.5a.5.5 0 1 0 1 0v-1.5h1.5a.5.5 0 1 0 0-1h-1.5v-1.5a.5.5 0 0 0-.508-.508z" data-color="color-2"></path></g></g></svg>