<svg height="64" width="64" viewBox="0 0 20 20"><title>shading_wire</title><g fill="#000000" class="nc-icon-wrapper"><g transform="translate(0 0)"><path d="M10 3c-3.86 0-7 3.14-7 7s3.14 7 7 7 7-3.14 7-7-3.14-7-7-7zm0 1c3.32 0 6 2.68 6 6s-2.68 6-6 6-6-2.68-6-6 2.68-6 6-6z" fill="#ffffff"></path><path d="M9.984 3.244a.5.5 0 0 0-.375.194C8.903 4.321 8.44 5.434 8.199 7H4.25c-.676-.01-.676 1.01 0 1h3.832A23.189 23.189 0 0 0 8 10c0 .737.03 1.394.082 2H4.25c-.676-.01-.676 1.01 0 1H8.2c.24 1.566.703 2.68 1.41 3.563a.5.5 0 0 0 .78-.626c-.565-.706-.963-1.596-1.185-2.937h6.545c.676.01.676-1.01 0-1H9.082A22.494 22.494 0 0 1 9 10c0-.753.03-1.41.082-2h6.668c.676.01.676-1.01 0-1H9.205c.222-1.341.62-2.23 1.186-2.938a.5.5 0 0 0-.407-.818z" data-color="color-2"></path></g></g></svg>