<svg height="64" width="64" viewBox="0 0 20 20"><title>shapekey_data</title><g fill="#000000" class="nc-icon-wrapper"><g transform="translate(0 0)"><path d="M12.504 12.996a.5.5 0 0 0 .353-.146l2-2a.5.5 0 0 0 .147-.354v-5a.5.5 0 0 0-.5-.5h-5a.5.5 0 0 0-.354.147l-2 2a.5.5 0 0 0-.146.353v5a.5.5 0 0 0 .5.5z" fill="#ffffff"></path><path d="M11.746 17.004a.5.5 0 0 0 .354-.146l4.75-4.75a.5.5 0 0 0 .146-.354l.008-8.256a.5.5 0 0 0-.502-.502l-8.256.008a.5.5 0 0 0-.354.146L3.142 7.9a.5.5 0 0 0-.146.354l.008 8.244a.5.5 0 0 0 .498.498zm-.207-1l-7.537-.006-.006-7.537 4.457-4.457 7.55-.008-.007 7.55z" data-color="color-2"></path></g></g></svg>