<svg width="64" height="64" viewBox="0 0 24 24"><title>sheep</title><g fill="#000000" class="nc-icon-wrapper"><g transform="translate(0 0)"><path d="M3.766 11.104c-.029.016-.062.057-.017.06.023-.024.063-.034.017-.06zm-.022.064a8.642 8.642 0 0 1-1.21.936c.234.322.495.625.767.916.362.292.792.506 1.252.587.325.059.658.046.984.003.202-.028.4-.075.6-.114l.062-.013c.038.43.075.86.133 1.289.116.871.287 1.738.556 2.577.09.278.189.554.302.824.272.649.621 1.27 1.078 1.808.119.137.24.27.373.394.472.453 1.044.8 1.663 1.008a5.437 5.437 0 0 0 1.99.257 4.988 4.988 0 0 0 1.765-.397c.501-.218.959-.532 1.349-.914.122-.117.233-.242.343-.37.464-.553.817-1.192 1.089-1.859.116-.284.217-.575.31-.867.3-.977.474-1.987.582-3.002.026-.249.046-.498.069-.748.182.036.364.077.547.11.263.043.53.063.798.05.373-.021.74-.127 1.069-.303.173-.092.338-.2.49-.325.27-.29.529-.59.762-.91a8.637 8.637 0 0 1-1.21-.936 3.841 3.841 0 0 1-1.978 1.104 3.57 3.57 0 0 1-1.724-.054c-.027 1.197-.126 2.396-.368 3.57-.184.875-.45 1.743-.88 2.533a5.054 5.054 0 0 1-.621.895c-.34.379-.762.686-1.237.871a3.778 3.778 0 0 1-.959.232l-.343.044v-2.01h-.293v2.01c-.188-.025-.375-.046-.562-.075a3.385 3.385 0 0 1-1.225-.436 3.334 3.334 0 0 1-.843-.74 3.545 3.545 0 0 1-.285-.389 4.544 4.544 0 0 1-.317-.53c-.419-.802-.674-1.679-.85-2.563-.22-1.121-.31-2.264-.336-3.406-.382.104-.78.149-1.176.122a3.785 3.785 0 0 1-1.992-.721 3.936 3.936 0 0 1-.524-.457zm3.692 1.057c.043.004.028-.037.029-.066-.05 0-.026.033-.03.066zm9.119-.006c.007-.028 0-.083-.03-.059 0 .03-.014.06.03.06zm3.7-1.05c.044-.025.001-.044-.02-.065-.05.03-.001.036.02.064z" fill="#ffffff"></path><path d="M12 2c-.81 0-1.5.5-1.82 1.17C10 3.07 9.75 3 9.5 3c-.69 0-1.27.47-1.44 1.11C7.89 4.04 7.7 4 7.5 4A1.5 1.5 0 0 0 6 5.5c0 .19.04.37.1.54C4.91 6.23 4 7.26 4 8.5A2.5 2.5 0 0 0 6.5 11c1.08 0 2-.69 2.34-1.64a2.5 2.5 0 0 0 1.66.64c.57 0 1.08-.19 1.5-.5.42.31.94.5 1.5.5a2.5 2.5 0 0 0 1.66-.64c.34.95 1.26 1.64 2.34 1.64A2.5 2.5 0 0 0 20 8.5c0-1.24-.91-2.27-2.1-2.46.06-.17.1-.35.1-.54A1.5 1.5 0 0 0 16.5 4c-.2 0-.39.04-.56.11C15.77 3.47 15.19 3 14.5 3c-.25 0-.5.07-.68.17C13.5 2.5 12.81 2 12 2zm-2 10a1 1 0 0 0-1 1 1 1 0 0 0 1 1 1 1 0 0 0 1-1 1 1 0 0 0-1-1zm4 0a1 1 0 0 0-1 1 1 1 0 0 0 1 1 1 1 0 0 0 1-1 1 1 0 0 0-1-1z" data-color="color-2"></path></g></g></svg>