<svg width="64" height="64" viewBox="0 0 24 24"><title>shield off outline</title><g fill="#ffffff" class="nc-icon-wrapper"><g transform="translate(0 0)"><path class="nc-icon-wrapper" d="M12 1.389L6.266 3.936l.972.98L12 2.791l7.353 3.28v5.225c-.013 1.4-.349 2.789-.91 4.068-.077.173-.157.344-.242.513l.912.906c.816-1.511 1.358-3.182 1.497-4.899.035-.388.038-.778.036-1.167V5.23L12 1.389zM2.28 3.5l-.778.771 1.852 1.852v4.956c.006.63.06 1.26.165 1.883a12.427 12.427 0 0 0 1.057 3.328c.944 1.963 2.399 3.69 4.217 4.896.982.651 2.07 1.146 3.213 1.435a10.73 10.73 0 0 0 4.2-2.174c.268-.221.52-.462.773-.7l2.25 2.251.771-.777L2.28 3.5zm2.366 3.914l11.447 11.45c-.276.268-.553.539-.851.784-.9.75-1.939 1.352-3.07 1.672l-.172.047a7.59 7.59 0 0 1-.908-.297 8.608 8.608 0 0 1-1.716-.937 9.97 9.97 0 0 1-1.302-1.091 9.951 9.951 0 0 1-.562-.594A11.91 11.91 0 0 1 5.907 16.1c-.656-1.259-1.096-2.639-1.223-4.055a9.97 9.97 0 0 1-.038-1V7.413z"></path></g></g></svg>