<svg width="64" height="64" viewBox="0 0 24 24"><title>shield check outline</title><g fill="#000000" class="nc-icon-wrapper"><g transform="translate(0 0)"><path d="M10 17l-4-4 1.41-1.41L10 14.17l6.59-6.59L18 9" data-color="color-2"></path><path d="M12 1.388L3.354 5.23c.001 1.976-.001 3.952.001 5.927.014.916.132 1.83.353 2.718.722 2.935 2.533 5.608 5.05 7.295A10.476 10.476 0 0 0 12 22.627c2.193-.554 4.155-1.865 5.621-3.574a12.553 12.553 0 0 0 2.918-6.48c.099-.675.111-1.358.106-2.038V5.23L12 1.388zm0 1.404l7.354 3.278c0 1.77.002 3.538-.001 5.307-.038 1.935-.676 3.83-1.684 5.47-.928 1.499-2.18 2.819-3.708 3.71a7.734 7.734 0 0 1-1.961.81c-1.48-.378-2.804-1.23-3.89-2.288a11.822 11.822 0 0 1-3.13-5.357 9.972 9.972 0 0 1-.334-2.735V6.07L12 2.792z" fill="#ffffff"></path></g></g></svg>