<svg width="64" height="64" viewBox="0 0 24 24"><title>shield link variant outline</title><g fill="#000000" class="nc-icon-wrapper"><g transform="translate(0 0)"><path d="M14.92 6a3.09 3.09 0 0 0-2.18.9l-2.02 2.02a3.054 3.054 0 0 0 0 4.36c.16.15.37.22.57.22.21 0 .41-.07.56-.22s.25-.35.25-.57c0-.21-.1-.42-.25-.57-.28-.28-.43-.64-.43-1.04s.15-.77.44-1.05l2.01-2.02c.56-.56 1.53-.56 2.09.01.29.28.44.65.44 1.04 0 .42-.15.77-.44 1.05l-.37.37.05.14c.15.42.22.86.22 1.3l-.01.56 1.25-1.24c.58-.58.9-1.36.9-2.18 0-.82-.32-1.58-.9-2.18a3.09 3.09 0 0 0-2.18-.9zm-1.199 3.497a.832.832 0 0 0-.581.223c-.14.15-.24.36-.24.57a.866.866 0 0 0 .24.57c.29.28.44.64.44 1.05 0 .39-.15.76-.44 1.04l-2.01 2.02c-.56.56-1.53.56-2.1-.01a1.46 1.46 0 0 1-.43-1.04c0-.42.15-.77.44-1.05l.36-.37-.04-.14a3.82 3.82 0 0 1-.22-1.3l.01-.56-1.25 1.24a3.09 3.09 0 0 0 0 4.36c.6.6 1.39.9 2.18.9.79 0 1.58-.3 2.18-.9l2.02-2.02c.58-.58.9-1.35.9-2.18 0-.82-.32-1.59-.9-2.17a.754.754 0 0 0-.559-.233z" data-color="color-2"></path><path d="M12 1.388L3.354 5.23c.001 1.976-.001 3.952.001 5.927.014.916.132 1.83.353 2.718.722 2.935 2.533 5.608 5.05 7.295A10.476 10.476 0 0 0 12 22.627c2.193-.554 4.155-1.865 5.621-3.574a12.553 12.553 0 0 0 2.918-6.48c.099-.675.111-1.358.106-2.038V5.23L12 1.388zm0 1.404l7.354 3.278c0 1.77.002 3.538-.001 5.307-.038 1.935-.676 3.83-1.684 5.47-.928 1.499-2.18 2.819-3.708 3.71a7.734 7.734 0 0 1-1.961.81c-1.48-.378-2.804-1.23-3.89-2.288a11.822 11.822 0 0 1-3.13-5.357 9.972 9.972 0 0 1-.334-2.735V6.07L12 2.792z" fill="#ffffff"></path></g></g></svg>