<svg width="64" height="64" viewBox="0 0 24 24"><title>shield bug outline</title><g fill="#000000" class="nc-icon-wrapper"><g transform="translate(0 0)"><path d="M12 1.388L3.354 5.23c.001 1.975-.001 3.95.001 5.926.05 3.876 2.058 7.672 5.238 9.89A10.654 10.654 0 0 0 12 22.625c2.214-.57 4.195-1.904 5.667-3.641 1.904-2.236 3.008-5.158 2.978-8.101V5.23L12 1.388zm0 1.425c2.451 1.085 4.903 2.17 7.354 3.257 0 1.762.002 3.524-.001 5.287-.037 1.933-.664 3.828-1.665 5.474-.91 1.486-2.14 2.798-3.648 3.688a7.723 7.723 0 0 1-2.04.847c-1.517-.38-2.872-1.257-3.973-2.352a11.795 11.795 0 0 1-3.045-5.289 10.08 10.08 0 0 1-.337-2.766v-4.89L12 2.812z" fill="#ffffff"></path><path d="M11 13h2v1h-2v-1" fill="#ffffff"></path><path d="M9.9 6.6l-.8.8 1.2 1.2c-.5.3-.9.8-1.1 1.4H7v1h2v1H7v1h2v1H7v1h2.2c.4 1.2 1.5 2 2.8 2s2.4-.8 2.8-2H17v-1h-2v-1h2v-1h-2v-1h2v-1h-2.2c-.2-.6-.6-1.1-1.1-1.5l1.2-1.2-.7-.7L12.8 8H12c-.2 0-.5 0-.7.1zM11 11h2v1h-2z" data-color="color-2"></path></g></g></svg>