<svg width="64" height="64" viewBox="0 0 24 24"><title>shield half full</title><g fill="#ffffff" class="nc-icon-wrapper"><g transform="translate(0 0)"><path class="nc-icon-wrapper" d="M12 1.389L3.354 5.23v5.84c.006.621.057 1.242.158 1.854a12.545 12.545 0 0 0 3.744 7.038c1.285 1.213 2.854 2.14 4.563 2.607.09.02.181.072.271.025 1.714-.451 3.29-1.365 4.586-2.569a12.543 12.543 0 0 0 3.665-6.353 12.035 12.035 0 0 0 .306-2.862V5.23L12 1.39zm-.354 1.244l7.707 3.437v5.223c-.01 1.288-.295 2.566-.776 3.758a11.956 11.956 0 0 1-2.18 3.5c-.101.117-.21.228-.319.34-.307.31-.627.61-.97.88a9.036 9.036 0 0 1-1.866 1.156 7.435 7.435 0 0 1-1.259.444l-.337.09V2.633z"></path></g></g></svg>