<svg width="64" height="64" viewBox="0 0 24 24"><title>shield outline</title><g fill="#ffffff" class="nc-icon-wrapper"><g transform="translate(0 0)"><path class="nc-icon-wrapper" d="M12 1.389L3.354 5.23v5.84c.006.621.057 1.242.158 1.854a12.545 12.545 0 0 0 3.744 7.038c1.285 1.213 2.854 2.14 4.563 2.607.09.02.181.072.271.025 1.714-.451 3.29-1.365 4.586-2.569a12.543 12.543 0 0 0 3.665-6.353 12.035 12.035 0 0 0 .306-2.862V5.23L12 1.39zm0 1.402l7.354 3.28v5.222c-.012 1.288-.296 2.566-.777 3.758a11.956 11.956 0 0 1-2.18 3.5c-.101.117-.21.228-.319.34-.307.31-.627.61-.97.88a9.418 9.418 0 0 1-1.334.89 7.65 7.65 0 0 1-1.736.696c-.021.006-.042.014-.062.004a7.487 7.487 0 0 1-1.3-.472 8.863 8.863 0 0 1-1.259-.727 9.857 9.857 0 0 1-1.283-1.06c-.23-.223-.452-.455-.66-.698a11.955 11.955 0 0 1-2.16-3.633c-.433-1.16-.678-2.397-.668-3.638V6.07L12 2.791z"></path></g></g></svg>