<svg height="64" width="64" viewBox="0 0 20 20"><title>shortdisplay</title><g fill="#000000" class="nc-icon-wrapper"><g transform="translate(0 0)"><path d="M15.992 7.5h1v1h-1zm0-3h1v1h-1zm-8 3h1v1h-1zm0 3h1v1h-1zm0-6h1v1h-1z" data-color="color-2"></path><path d="M11.508 3.5a.5.5 0 0 0-.5.5v6a.5.5 0 0 0 .5.5h2.984a.5.5 0 0 0 .5-.5V4a.5.5 0 0 0-.5-.5zm.5 1h1.984v2h-1.984zm0 3h1.984v2h-1.984zm-8.5-4a.5.5 0 0 0-.5.5v12a.5.5 0 0 0 .5.5h2.984a.5.5 0 0 0 .5-.5V4a.5.5 0 0 0-.5-.5zm.5 1h1.984v2H4.008zm0 3h1.984v2H4.008zm0 3h1.984v2H4.008zm0 3h1.984v2H4.008z" fill="#ffffff"></path></g></g></svg>