<svg width="64" height="64" viewBox="0 0 24 24"><title>skull outline</title><g fill="#000000" class="nc-icon-wrapper"><g transform="translate(0 0)"><path d="M12 1.354a9.613 9.613 0 0 0-5.44 1.68 9.675 9.675 0 0 0-3.863 5.412 9.52 9.52 0 0 0 .232 5.787 10.038 10.038 0 0 0 2.426 3.72v3.692h13.29v-3.691c1.437-1.396 2.462-3.225 2.835-5.199a9.607 9.607 0 0 0-1.153-6.625 9.693 9.693 0 0 0-4.818-4.118A9.62 9.62 0 0 0 12 1.354zm0 1.292a8.334 8.334 0 0 1 4.883 1.573 8.368 8.368 0 0 1 3.215 4.717 8.311 8.311 0 0 1-.185 4.717 8.227 8.227 0 0 1-2.558 3.713v2.989h-2.71v-2h-1.29v2h-2.71v-2h-1.29v2h-2.71V17.36c-1.354-1.167-2.367-2.746-2.779-4.491a8.295 8.295 0 0 1 .873-6.007A8.387 8.387 0 0 1 9.08 3.17a8.357 8.357 0 0 1 2.92-.524z" fill="#ffffff"></path><path d="M8 11a2 2 0 0 0-2 2 2 2 0 0 0 2 2 2 2 0 0 0 2-2 2 2 0 0 0-2-2zm8 0a2 2 0 0 0-2 2 2 2 0 0 0 2 2 2 2 0 0 0 2-2 2 2 0 0 0-2-2zm-4 3l-1.5 3h3z" data-color="color-2"></path></g></g></svg>