<svg width="64" height="64" viewBox="0 0 24 24"><title>skull scan outline</title><g fill="#000000" class="nc-icon-wrapper"><g transform="translate(0 0)"><path d="M12 3.354a7.603 7.603 0 0 0-4.4 1.403A7.711 7.711 0 0 0 4.653 8.89a7.514 7.514 0 0 0 .03 4.288 8.11 8.11 0 0 0 1.673 2.99v4.477h11.29v-4.477c.91-1.028 1.573-2.284 1.846-3.633a7.62 7.62 0 0 0-.573-4.78 7.73 7.73 0 0 0-3.95-3.798A7.569 7.569 0 0 0 12 3.355zm0 1.292a6.329 6.329 0 0 1 3.944 1.38 6.389 6.389 0 0 1 2.233 3.486 6.184 6.184 0 0 1-.383 4.047 6.613 6.613 0 0 1-1.44 1.992v3.803h-2.708v-2h-.292v2h-2.708v-2h-.292v2H7.646V15.55c-1.092-1.05-1.83-2.483-1.972-3.997a6.295 6.295 0 0 1 1.298-4.429 6.392 6.392 0 0 1 3.463-2.282A6.307 6.307 0 0 1 12 4.646z" fill="#ffffff"></path><path d="M21.897.353c-.156 0-.313.006-.468.001h-3.074v1.292h4v4h1.29c0-1.244.003-2.487-.002-3.73-.026-.718-.58-1.372-1.283-1.521a2.208 2.208 0 0 0-.463-.042zM2 .354C1.294.344.625.846.426 1.522c-.107.336-.061.692-.072 1.039v3.085h1.292v-4h4V.354zM9.5 10c-.8 0-1.5.7-1.5 1.5S8.7 13 9.5 13s1.5-.7 1.5-1.5-.7-1.5-1.5-1.5zm2.5 3l-1 2h2zM.354 18.354c.002 1.244-.002 2.487.003 3.73.026.718.58 1.372 1.283 1.521.305.067.62.032.93.04h3.075v-1.29h-4v-4zm22 0v4h-4v1.292c1.244-.002 2.487.002 3.73-.003.718-.027 1.371-.58 1.521-1.283.067-.306.031-.62.04-.93v-3.076z" data-color="color-2"></path><path d="M14.5 13c-.8 0-1.5-.7-1.5-1.5s.7-1.5 1.5-1.5 1.5.7 1.5 1.5-.7 1.5-1.5 1.5" data-color="color-2"></path></g></g></svg>