<svg width="64" height="64" viewBox="0 0 24 24"><title>skull crossbones outline</title><g fill="#000000" class="nc-icon-wrapper"><g transform="translate(0 0)"><path d="M12 1.354a6.65 6.65 0 0 0-4.116 1.409 6.604 6.604 0 0 0-2.416 3.991 6.544 6.544 0 0 0 .326 3.58 7.406 7.406 0 0 0 1.56 2.428v2.883h9.291v-2.883c.985-1.028 1.696-2.338 1.92-3.75a6.67 6.67 0 0 0-1.137-4.872 6.601 6.601 0 0 0-3.848-2.6A6.753 6.753 0 0 0 12 1.353zm0 1.292c1.33-.007 2.662.491 3.64 1.398a5.328 5.328 0 0 1 1.703 3.591c.108 1.537-.499 3.098-1.592 4.179-.123.13-.271.244-.397.364v2.177h-1.708v-2h-.292v2h-2.708v-2h-.292v2H8.646V12.17a5.27 5.27 0 0 1-1.902-3.13c-.26-1.345-.006-2.789.735-3.945a5.285 5.285 0 0 1 3.267-2.308c.41-.096.832-.143 1.254-.143zM2.752 15.435l-.319 1.212 7.053 1.85-6.953 1.854.32 1.215L12 19.133l9.13 2.428.254-1.205-6.96-1.856 6.944-1.851-.32-1.214-9.148 2.432-9.147-2.432z" fill="#ffffff"></path><path d="M9.5 6C8.7 6 8 6.7 8 7.5S8.7 9 9.5 9 11 8.3 11 7.5 10.3 6 9.5 6zm5 0c-.8 0-1.5.7-1.5 1.5S13.7 9 14.5 9 16 8.3 16 7.5 15.3 6 14.5 6zM12 9l-1 2h2z" data-color="color-2"></path></g></g></svg>