<svg height="64" width="64" viewBox="0 0 20 20"><title>snap_grid</title><g class="nc-icon-wrapper" fill="#000000" id="g12"><g transform="translate(0 0)"><path d="M4.5 4a.5.5 0 0 0-.5.5v4a.5.5 0 0 0 .5.5h4a.5.5 0 0 0 .5-.5v-4a.5.5 0 0 0-.5-.5z" id="path8" fill="#ffffff"></path><path d="M13.492 2.992A.5.5 0 0 0 13 3.5v2.496l-2.506-.004c-.676-.01-.678 1.008-.002 1L13 6.996V13H6.996l-.004-2.508c.008-.676-1.01-.674-1 .002L5.996 13H3.5c-.676-.01-.676 1.01 0 1h2.496L6 16.5c-.01.676 1.01.676 1 0L6.996 14H13v2.5c-.01.676 1.01.676 1 0V14h2.5c.676.01.676-1.01 0-1H14V6.996L16.5 7c.676.01.676-1.01 0-1L14 5.996V3.5a.5.5 0 0 0-.508-.508z" id="path4" data-color="color-2"></path></g></g></svg>