<svg height="64" width="64" viewBox="0 0 20 20"><title>snap_normal</title><g fill="#000000" class="nc-icon-wrapper"><g transform="translate(0 0)"><path d="M9.102 4.014a6.502 6.502 0 0 0-5.163 3.12 6.504 6.504 0 0 0 .797 7.788 6.503 6.503 0 0 0 7.705 1.375 6.504 6.504 0 0 0 3.44-7.031.5.5 0 1 0-.983.19 5.495 5.495 0 0 1-2.91 5.948 5.494 5.494 0 0 1-6.52-1.162 5.497 5.497 0 0 1-.673-6.59 5.493 5.493 0 0 1 6.148-2.457.501.501 0 1 0 .264-.966c-.7-.19-1.41-.258-2.105-.215z" data-color="color-2"></path><path d="M15.979 2.99a1 1 0 0 0-.687.303l-3.713 3.715c-.026-.001-.051-.008-.078-.008-.822 0-1.5.677-1.5 1.5 0 .822.678 1.5 1.5 1.5s1.5-.678 1.5-1.5c0-.028-.006-.053-.008-.08l3.713-3.713a1 1 0 0 0-.727-1.717z" fill="#ffffff"></path></g></g></svg>