<svg height="64" width="64" data-color="color-2" viewBox="0 0 20 20"><title>snap_midpoint</title><g fill="#000000" class="nc-icon-wrapper"><g transform="translate(0 0)"><path d="M16.431 3.002a.55.55 0 0 0-.38.166l-3.443 3.445a.55.55 0 1 0 .778.778l3.445-3.444a.55.55 0 0 0-.4-.945zm-9.446 9.445a.55.55 0 0 0-.377.166l-3.445 3.444a.551.551 0 1 0 .78.779l3.443-3.445a.55.55 0 0 0-.4-.944z" data-color="color-2"></path><path d="M8.497 8.002a.5.5 0 0 0-.5.5v3a.5.5 0 0 0 .5.5h3a.5.5 0 0 0 .5-.5v-3a.5.5 0 0 0-.5-.5z" fill="#ffffff"></path></g></g></svg>