<svg height="64" width="64" viewBox="0 0 20 20"><title>snap_perpendicular</title><g fill="#000000" class="nc-icon-wrapper"><g transform="translate(0 0)"><path d="M3.493 2.993a.5.5 0 0 0-.492.506v12.908a.5.5 0 0 0 .082.377.5.5 0 0 0 .002.004.5.5 0 0 0 .03.036.5.5 0 0 0 .001.004.5.5 0 0 0 .031.033.5.5 0 0 0 .026.021.5.5 0 0 0 .012.012.5.5 0 0 0 .003.002.5.5 0 0 0 .041.03.5.5 0 0 0 .354.073h12.918a.5.5 0 1 0 0-1h-12.5v-12.5a.5.5 0 0 0-.508-.506z" data-color="color-2"></path><path d="M6.493 10.007a.5.5 0 0 0-.5.5v3a.5.5 0 0 0 .5.5h3a.5.5 0 0 0 .5-.5v-3a.5.5 0 0 0-.5-.5z" fill="#ffffff"></path></g></g></svg>