<svg width="64" height="64" viewBox="0 0 24 24"><title>sort calendar ascending</title><g fill="#ffffff" class="nc-icon-wrapper"><g transform="translate(0 0)"><path class="nc-icon-wrapper" d="M4.354 3.354v2c-.483.002-.966-.003-1.45.003a1.653 1.653 0 0 0-1.47 1.134c-.114.334-.071.69-.08 1.035v10.506c.003.65.436 1.268 1.043 1.5.275.118.577.118.87.114h9.764a1.652 1.652 0 0 0 1.5-1.043c.118-.275.118-.577.114-.87V6.967a1.65 1.65 0 0 0-1.06-1.506c-.335-.139-.7-.102-1.052-.107h-.888v-2h-1.291v2H5.645v-2H4.354zm15 0v14h-2.499L20 20.5l3.144-3.144h-2.499v-14h-1.29zM2.645 10.646h10.71v7.708H2.644v-7.708zm5.71 2.708v2.291h2.29v-2.29h-2.29z"></path></g></g></svg>