<svg width="64" height="64" viewBox="0 0 24 24"><title>sort numeric descending</title><g fill="#ffffff" class="nc-icon-wrapper"><g transform="translate(0 0)"><path class="nc-icon-wrapper" d="M7 3.354a1.657 1.657 0 0 0-1.495.962c-.125.258-.16.548-.15.832 0 1.305-.002 2.61 0 3.915.018.606.403 1.18.955 1.43.257.125.546.163.83.153.646-.001 1.293.002 1.94-.002a1.65 1.65 0 0 0 1.404-.93c.13-.262.172-.557.162-.847-.001-1.31.001-2.62-.001-3.93A1.654 1.654 0 0 0 9.677 3.5a1.762 1.762 0 0 0-.817-.145H7zm11 .147l-3.144 3.144h2.499v14h1.29v-14h2.5L18 3.501zM6.645 4.646h2.71v4.709h-2.71v-4.71zM7 13.354a1.657 1.657 0 0 0-1.495.962c-.125.258-.16.548-.15.832.002.326-.006.652.005.978.04.61.452 1.172 1.019 1.397.246.107.517.13.783.123h2.193v1.708h-4v1.292c1.236-.001 2.472.001 3.709-.002a1.65 1.65 0 0 0 1.41-.913c.138-.266.183-.568.172-.864 0-1.31.001-2.62-.001-3.93a1.654 1.654 0 0 0-.968-1.437 1.762 1.762 0 0 0-.817-.146H7zm-.355 1.292h2.71v1.708h-2.71v-1.708z"></path></g></g></svg>