<svg width="64" height="64" viewBox="0 0 24 24"><title>sort alphabetical ascending</title><g fill="#ffffff" class="nc-icon-wrapper"><g transform="translate(0 0)"><path d="M7 3.354a1.657 1.657 0 0 0-1.495.962c-.125.259-.16.549-.15.833v5.497h1.29v-2h2.71v2h1.29c0-1.898.002-3.795 0-5.693a1.654 1.654 0 0 0-.95-1.444 1.746 1.746 0 0 0-.829-.154H7zm10.355 0v14h-2.5L18 20.5l3.144-3.144h-2.499v-14h-1.29zM6.645 4.646h2.71v2.708h-2.71V4.646zm-1.29 8.708v1.292h3.73l-3.73 4.482v1.518h5.29v-1.292H6.914l3.731-4.482v-1.518h-5.29z" class="nc-icon-wrapper"></path></g></g></svg>