<svg width="64" height="64" viewBox="0 0 24 24"><title>sort clock descending outline</title><g fill="#000000" class="nc-icon-wrapper"><g transform="translate(0 0)"><path d="M7 9v3.69l3.19 1.84.75-1.3-2.44-1.41V9" data-color="color-2"></path><path d="M19 3.501l-3.145 3.144h2.5v14h1.29v-14h2.5L19 3.501zM8 5.355a6.623 6.623 0 0 0-4.193 1.491 6.644 6.644 0 0 0 7.153 11.105 6.682 6.682 0 0 0 3.246-3.57 6.674 6.674 0 0 0-.224-5.281 6.669 6.669 0 0 0-3.849-3.396 6.637 6.637 0 0 0-2.132-.35zm0 1.44a5.2 5.2 0 0 1 3.656 1.501 5.2 5.2 0 0 1 1.547 3.57 5.199 5.199 0 0 1-4.736 5.318 5.204 5.204 0 0 1-4.712-8.198A5.208 5.208 0 0 1 8 6.796z" fill="#ffffff"></path></g></g></svg>