<svg width="64" height="64" viewBox="0 0 24 24"><title>sort bool descending variant</title><g fill="#ffffff" class="nc-icon-wrapper"><g transform="translate(0 0)"><path class="nc-icon-wrapper" d="M5 3.354a1.651 1.651 0 0 0-1.492.95 1.776 1.776 0 0 0-.153.843c0 1.306-.002 2.611 0 3.917.017.638.445 1.24 1.042 1.468.25.105.522.12.79.114 1.292-.001 2.584.001 3.877-.001a1.652 1.652 0 0 0 1.468-1.042c.105-.25.12-.522.114-.789 0-1.292.001-2.585-.001-3.877a1.652 1.652 0 0 0-1.042-1.468c-.25-.106-.522-.121-.789-.115H5zm13 .147l-3.144 3.144h2.499v14h1.29v-14h2.5L18 3.501zM4.646 4.646h4.709v4.709h-4.71v-4.71zM5 13.354a1.651 1.651 0 0 0-1.492.95 1.776 1.776 0 0 0-.153.843v1.684l1.46-1.431 1.468 1.488L9.2 14.001l1.446 1.433c-.005-.322.028-.653-.087-.962a1.652 1.652 0 0 0-1.432-1.113c-.357-.01-.715-.002-1.072-.005H5zm5.646 2.312L6.268 20l-2.913-2.937c0 .672-.003 1.344.002 2.015.022.64.458 1.24 1.059 1.46.247.101.515.113.778.107 1.29-.001 2.58.001 3.87-.001a1.652 1.652 0 0 0 1.468-1.042c.105-.25.12-.522.114-.789v-3.148z"></path></g></g></svg>