<svg width="64" height="64" viewBox="0 0 24 24"><title>sort alphabetical descending</title><g fill="#ffffff" class="nc-icon-wrapper"><g transform="translate(0 0)"><path class="nc-icon-wrapper" d="M7 3.354a1.657 1.657 0 0 0-1.495.962c-.125.258-.16.548-.15.832v5.498h1.29v-2h2.71v2h1.29c0-1.898.002-3.796 0-5.694a1.653 1.653 0 0 0-1.778-1.598H7zm11 .147l-3.144 3.144h2.499v14h1.29v-14h2.5L18 3.501zM6.645 4.646h2.71v2.708h-2.71V4.646zm-1.29 8.708v1.292h3.73l-3.73 4.482v1.518h5.29v-1.292H6.915l3.732-4.482v-1.518H5.355z"></path></g></g></svg>