<svg width="64" height="64" viewBox="0 0 24 24"><title>sort calendar descending</title><g fill="#ffffff" class="nc-icon-wrapper"><g transform="translate(0 0)"><path class="nc-icon-wrapper" d="M4.354 3.354v2c-.483.002-.966-.003-1.45.003a1.653 1.653 0 0 0-1.47 1.134c-.115.335-.071.691-.08 1.038v10.503c.003.65.436 1.268 1.043 1.5.275.118.578.117.872.114h9.763a1.652 1.652 0 0 0 1.5-1.043c.118-.275.117-.578.113-.872V6.968a1.65 1.65 0 0 0-1.06-1.507c-.335-.139-.7-.101-1.054-.107h-.885v-2h-1.292v2H5.645v-2h-1.29zM20 3.501l-3.145 3.144h2.5v14h1.29v-14h2.5L20 3.501zM2.646 10.646h10.708v7.709H2.646v-7.71zm5.709 2.708v2.291h2.291v-2.29H8.355z"></path></g></g></svg>