<svg width="64" height="64" viewBox="0 0 24 24"><title>sort numeric ascending</title><g fill="#ffffff" class="nc-icon-wrapper"><g transform="translate(0 0)"><path class="nc-icon-wrapper" d="M7 3.353a1.652 1.652 0 0 0-1.646 1.683v3.988a1.65 1.65 0 0 0 1.671 1.623h2.007a1.644 1.644 0 0 0 1.603-1.45c.018-.154.01-.31.011-.464V4.968a1.65 1.65 0 0 0-1.671-1.614H7zm10.354 0v14h-2.5l3.147 3.147 3.146-3.147h-2.5v-14h-1.293zM6.647 4.646h2.707v4.707H6.647V4.647zm.354 8.707a1.652 1.652 0 0 0-1.647 1.683v1.012a1.65 1.65 0 0 0 1.674 1.599h2.326v1.707h-4v1.293h3.678a1.645 1.645 0 0 0 1.614-1.6c.002-.38 0-.76.001-1.142v-2.937a1.65 1.65 0 0 0-1.672-1.614H7.001zm-.354 1.294h2.707v1.706H6.647v-1.707z"></path></g></g></svg>