<svg height="64" width="64" viewBox="0 0 20 20"><title>sound</title><g fill="#ffffff" class="nc-icon-wrapper"><g transform="translate(0 0)"><path d="M7.5 3a.5.5 0 0 0-.5.5v9.64a1.837 2.622 64.988 0 0-1.982.073 1.837 2.622 64.988 0 0-1.971 2.685 1.837 2.622 64.988 0 0 2.935.89 1.837 2.622 64.988 0 0 2.01-2.19A.5.5 0 0 0 8 14.5V5h8v7.14a1.837 2.622 64.988 0 0-1.982.073 1.837 2.622 64.988 0 0-1.971 2.685 1.837 2.622 64.988 0 0 2.935.89 1.837 2.622 64.988 0 0 2.01-2.19A.5.5 0 0 0 17 13.5v-10a.5.5 0 0 0-.5-.5z" class="nc-icon-wrapper"></path></g></g></svg>