<svg height="64" width="64" viewBox="0 0 20 20"><title>sphere_curve</title><g fill="#ffffff" class="nc-icon-wrapper"><g transform="translate(0 0)"><path d="M3.464 14.5a.482.52 0 0 1-.457-.546l.03-.88v-.004a7.063 7.61 0 0 1 3.486-6.558 6.922 7.458 0 0 1 6.984 0 7.063 7.61 0 0 1 3.487 6.575v.885a.482.52 0 1 1-.963 0v-.885a6.099 6.57 0 0 0-3.012-5.68 5.95 6.411 0 0 0-6.01 0 6.098 6.57 0 0 0-3.01 5.68.482.52 0 0 1-.002.018l-.028.884a.482.52 0 0 1-.504.51z" class="nc-icon-wrapper"></path></g></g></svg>