<svg width="64" height="64" viewBox="0 0 24 24"><title>star plus outline</title><g fill="#000000" class="nc-icon-wrapper"><g transform="translate(0 0)"><path d="M17 14v3h-3v2h3v3h2v-3h3v-2h-3v-3z" data-color="color-2"></path><path d="M12 2.906l-2.559 6.03-6.586.548 4.938 4.39-1.465 6.405 5.428-3.187c.04-.426.167-.838.31-1.239L12 15.814c-1.445.875-2.89 1.75-4.336 2.623l1.143-4.912-3.76-3.302 5.012-.457L12 5.193l1.941 4.573 5.022.457-1.693 1.462c.303-.035.608-.04.913-.039h.485l2.47-2.162-6.58-.549L12 2.906z" fill="#ffffff"></path></g></g></svg>