<svg width="64" height="64" viewBox="0 0 24 24"><title>star off outline</title><g fill="#ffffff" class="nc-icon-wrapper"><g transform="translate(0 0)"><path class="nc-icon-wrapper" d="M2.398 2.201L1.6 3l6.093 6.092-4.828.392 5.028 4.39-1.463 6.398 5.67-3.383 5.65 3.369-.404-1.613 3.554 3.554.7-.699L2.399 2.201zm9.604.713L10.418 6.72l.676.676 1.023-2.16 1.926 4.53 5.039.46-2.758 2.298.594.594 4.21-3.635-6.57-.547-2.556-6.021zM8.535 9.936l7.516 7.513-.434.553L12 15.815l-4.336 2.623c.38-1.638.762-3.275 1.143-4.913l-3.77-3.312 3.498-.277z"></path></g></g></svg>