<svg width="64" height="64" viewBox="0 0 24 24"><title>star shooting outline</title><g fill="#000000" class="nc-icon-wrapper"><g transform="translate(0 0)"><path d="M4.18 8.79l-2.73 1.8c-.461.3-.589.91-.29 1.41.2.27.52.43.84.43.19 0 .38-.06.55-.17l3.2-2.11zm3.14 2.71l-5.87 3.88a1 1 0 0 0-.29 1.38c.2.3.52.45.84.45.19 0 .38-.05.55-.16l5.42-3.55.27-1.19zm-.01 4.81l-5.86 3.85a1.013 1.013 0 0 0-.29 1.39c.2.29.52.45.84.45.19 0 .38-.05.55-.16l4.11-2.71.34-1.37z" data-color="color-2"></path><path d="M14 1.906l-2.288 5.39-5.847.487 4.429 3.86-1.321 5.721L14 14.326l5.025 3.038-1.328-5.721 4.437-3.86-5.847-.487L14 1.906zm0 3.31c.468 1.1.938 2.198 1.403 3.298 1.19.1 2.38.203 3.569.304-.905.788-1.805 1.581-2.717 2.36.277 1.166.548 2.333.822 3.5-1.025-.618-2.05-1.238-3.077-1.854-1.024.615-2.047 1.233-3.07 1.85.213-.927.42-1.856.636-2.782l.17-.715c-.906-.788-1.816-1.573-2.724-2.359 1.196-.101 2.39-.204 3.586-.304.465-1.1.935-2.199 1.402-3.298z" fill="#ffffff"></path></g></g></svg>