<svg height="64" width="64" viewBox="0 0 20 20"><title>sticky_uvs_loc</title><g fill="#000000" class="nc-icon-wrapper"><g transform="translate(0 0)"><path d="M8.5 6a.5.5 0 0 0-.5.5V9H6.5a.5.5 0 0 0-.5.5v3a.5.5 0 0 0 .5.5h3a.5.5 0 0 0 .5-.5v1a.5.5 0 0 0 .5.5h3a.5.5 0 0 0 .5-.5v-3a.5.5 0 0 0-.5-.5h-2a.5.5 0 0 0 .5-.5v-3a.5.5 0 0 0-.5-.5zM9 7h2v2H9zm-2 3h2v2H7zm4 1h2v2h-2z" fill="#ffffff"></path><path d="M3.492 2.992a.5.5 0 0 0-.316.121.5.5 0 0 0-.02.016.5.5 0 0 0-.017.017.5.5 0 0 0-.002.004.5.5 0 0 0-.032.034.5.5 0 0 0-.002.004.5.5 0 0 0-.027.037.5.5 0 0 0-.002.004.5.5 0 0 0-.074.353V4.5a.5.5 0 1 0 1 0V4h.5a.5.5 0 1 0 0-1h-.92a.5.5 0 0 0-.088-.008zm13 0a.5.5 0 0 0-.074.008H15.5a.5.5 0 1 0 0 1h.5v.5a.5.5 0 1 0 1 0v-.92a.5.5 0 0 0-.113-.404.5.5 0 0 0-.002-.004.5.5 0 0 0-.031-.033.5.5 0 0 0-.004-.002.5.5 0 0 0-.034-.032.5.5 0 0 0-.004-.002.5.5 0 0 0-.32-.111zM6.5 3a.5.5 0 1 0 0 1h1a.5.5 0 1 0 0-1zm3 0a.5.5 0 1 0 0 1h1a.5.5 0 1 0 0-1zm3 0a.5.5 0 1 0 0 1h1a.5.5 0 1 0 0-1zM3.492 5.992A.5.5 0 0 0 3 6.5v1a.5.5 0 1 0 1 0v-1a.5.5 0 0 0-.508-.508zm13 0A.5.5 0 0 0 16 6.5v1a.5.5 0 1 0 1 0v-1a.5.5 0 0 0-.508-.508zm-13 3A.5.5 0 0 0 3 9.5v1a.5.5 0 1 0 1 0v-1a.5.5 0 0 0-.508-.508zm13 0A.5.5 0 0 0 16 9.5v1a.5.5 0 1 0 1 0v-1a.5.5 0 0 0-.508-.508zm-13 3A.5.5 0 0 0 3 12.5v1a.5.5 0 1 0 1 0v-1a.5.5 0 0 0-.508-.508zm13 0A.5.5 0 0 0 16 12.5v1a.5.5 0 1 0 1 0v-1a.5.5 0 0 0-.508-.508zm-13 3A.5.5 0 0 0 3 15.5v.92a.5.5 0 0 0 .113.404.5.5 0 0 0 .016.02.5.5 0 0 0 .017.017.5.5 0 0 0 .004.002.5.5 0 0 0 .034.032.5.5 0 0 0 .004.002.5.5 0 0 0 .394.103H4.5a.5.5 0 1 0 0-1H4v-.5a.5.5 0 0 0-.508-.508zm13 0A.5.5 0 0 0 16 15.5v.5h-.5a.5.5 0 1 0 0 1h.92a.5.5 0 0 0 .404-.113.5.5 0 0 0 .004-.002.5.5 0 0 0 .033-.031.5.5 0 0 0 .002-.004.5.5 0 0 0 .032-.034.5.5 0 0 0 .002-.004.5.5 0 0 0 .027-.037.5.5 0 0 0 .002-.004.5.5 0 0 0 .074-.353V15.5a.5.5 0 0 0-.508-.508zM6.5 16a.5.5 0 1 0 0 1h1a.5.5 0 1 0 0-1zm3 0a.5.5 0 1 0 0 1h1a.5.5 0 1 0 0-1zm3 0a.5.5 0 1 0 0 1h1a.5.5 0 1 0 0-1z" data-color="color-2"></path></g></g></svg>