<svg height="64" width="64" viewBox="0 0 20 20"><title>sticky_uvs_vert</title><g fill="#000000" class="nc-icon-wrapper"><g transform="translate(0 0)"><path d="M13.5 3a.5.5 0 0 0-.5.5v3a.5.5 0 0 0 .5.5h3a.5.5 0 0 0 .5-.5v-3a.5.5 0 0 0-.5-.5zm.5 1h2v2h-2zM3.5 13a.5.5 0 0 0-.5.5v3a.5.5 0 0 0 .5.5h3a.5.5 0 0 0 .5-.5v-3a.5.5 0 0 0-.5-.5zm.5 1h2v2H4z" fill="#ffffff"></path><path d="M6.492 5.992a.5.5 0 0 0-.316.121.5.5 0 0 0-.02.016.5.5 0 0 0-.017.017.5.5 0 0 0-.002.004.5.5 0 0 0-.032.034.5.5 0 0 0-.002.004.5.5 0 0 0-.103.394V7.5a.5.5 0 1 0 1 0V7h.5a.5.5 0 1 0 0-1h-.92a.5.5 0 0 0-.088-.008zm7 0a.5.5 0 0 0-.074.008H12.5a.5.5 0 1 0 0 1h.5v.5a.5.5 0 1 0 1 0v-.92a.5.5 0 0 0-.113-.404.5.5 0 0 0-.002-.004.5.5 0 0 0-.031-.033.5.5 0 0 0-.004-.002.5.5 0 0 0-.034-.032.5.5 0 0 0-.004-.002.5.5 0 0 0-.32-.111zM9.5 6a.5.5 0 1 0 0 1h1a.5.5 0 1 0 0-1zM6.492 8.992A.5.5 0 0 0 6 9.5v1a.5.5 0 1 0 1 0v-1a.5.5 0 0 0-.508-.508zm7 0A.5.5 0 0 0 13 9.5v1a.5.5 0 1 0 1 0v-1a.5.5 0 0 0-.508-.508zm-7 3A.5.5 0 0 0 6 12.5v.92a.5.5 0 0 0 .113.404.5.5 0 0 0 .016.02.5.5 0 0 0 .017.017.5.5 0 0 0 .004.002.5.5 0 0 0 .034.032.5.5 0 0 0 .004.002.5.5 0 0 0 .394.103H7.5a.5.5 0 1 0 0-1H7v-.5a.5.5 0 0 0-.508-.508zm7 0A.5.5 0 0 0 13 12.5v.5h-.5a.5.5 0 1 0 0 1h.92a.5.5 0 0 0 .404-.113.5.5 0 0 0 .004-.002.5.5 0 0 0 .033-.031.5.5 0 0 0 .002-.004.5.5 0 0 0 .032-.034.5.5 0 0 0 .002-.004.5.5 0 0 0 .103-.394V12.5a.5.5 0 0 0-.508-.508zM9.5 13a.5.5 0 1 0 0 1h1a.5.5 0 1 0 0-1z" data-color="color-2"></path></g></g></svg>