<svg height="64" width="64" viewBox="0 0 20 20"><title>strands</title><g fill="#ffffff" class="nc-icon-wrapper"><g transform="translate(0 0)"><path d="M7.037 2.988a1 1 0 0 0-.838.412C2.893 7.809 3.017 14.368 3.014 15.984a1 1 0 1 0 2 .006c.004-1.642.093-7.799 2.787-11.39a1 1 0 0 0-.764-1.612zm4.975 3.002a1 1 0 0 0-.698.281c-2.254 2.123-3.373 3.99-3.89 5.643C6.907 13.567 7 14.964 7 16a1 1 0 1 0 2 0c0-1.136-.07-2.203.332-3.488.402-1.285 1.281-2.833 3.354-4.783a1 1 0 0 0-.674-1.739zm3.945 4.008a1 1 0 0 0-.168.023C13.332 10.55 11 12.829 11 16a1 1 0 1 0 2 0c0-2.174 1.668-3.69 3.21-4.021a1 1 0 0 0-.253-1.981z" class="nc-icon-wrapper"></path></g></g></svg>