<svg height="64" width="64" viewBox="0 0 20 20"><title>stylus_pressure</title><g fill="#000000" class="nc-icon-wrapper"><g transform="translate(0 0)"><path d="M7.547 8.16a.5.5 0 0 0-.182.03 3.504 3.504 0 0 0-2.344 3.699 3.506 3.506 0 0 0 3.104 3.091 3.506 3.506 0 0 0 3.691-2.359.5.5 0 1 0-.947-.32 2.497 2.497 0 0 1-2.637 1.685 2.497 2.497 0 0 1-2.216-2.209 2.495 2.495 0 0 1 1.673-2.642.5.5 0 0 0-.142-.975z" data-color="color-2"></path><path d="M7.521 6.094a.5.5 0 0 0-.085.01 5.505 5.505 0 0 0-4.426 5.713 5.505 5.505 0 0 0 5.053 5.166 5.505 5.505 0 0 0 5.808-4.3.5.5 0 1 0-.976-.214 4.493 4.493 0 0 1-4.752 3.518 4.496 4.496 0 0 1-4.135-4.229 4.494 4.494 0 0 1 3.62-4.674.5.5 0 0 0-.106-.99z" data-color="color-2"></path><path d="M14.492 3a.5.5 0 0 0-.346.146l-5 5A.5.5 0 0 0 9 8.5v1.793l-.854.853c-.49.472.236 1.198.708.708L9.707 11H11.5a.5.5 0 0 0 .354-.146l5-5a.5.5 0 0 0 0-.708l-2-2A.5.5 0 0 0 14.492 3z" fill="#ffffff"></path></g></g></svg>