<svg height="64" width="64" viewBox="0 0 20 20"><title>surface_nsurface</title><g fill="#000000" class="nc-icon-wrapper"><g transform="translate(0 0)"><path d="M8.503 4.006a.5.5 0 0 0-.492.586c.364 2.073.195 3.11-.108 3.63-.303.522-.79.687-1.46.942-.67.255-1.51.623-1.983 1.59-.474.967-.591 2.407-.207 4.83a.5.5 0 0 0 .494.422h6.756a.5.5 0 0 0 .494-.578c-.369-2.328-.207-3.576.115-4.235.322-.658.793-.85 1.436-1.095.642-.245 1.47-.52 1.965-1.373.495-.854.609-2.128.226-4.305a.5.5 0 0 0-.492-.414z" fill="#ffffff"></path><path d="M3.495 3a.5.5 0 0 0-.5.5v2a.5.5 0 0 0 .5.5h2a.5.5 0 0 0 .5-.5v-2a.5.5 0 0 0-.5-.5zm.5 1h1v1h-1zm10.51 10a.5.5 0 0 0-.5.5v2a.5.5 0 0 0 .5.5h2a.5.5 0 0 0 .5-.5v-2a.5.5 0 0 0-.5-.5zm.5 1h1v1h-1z" data-color="color-2"></path></g></g></svg>