<svg height="64" width="64" viewBox="0 0 20 20"><title>surface_ncylinder</title><g fill="#000000" class="nc-icon-wrapper"><g transform="translate(0 0)"><path d="M9.997 5.006c-1.3 0-2.48.22-3.379.604-.45.192-.831.423-1.123.718-.292.295-.498.678-.498 1.102v5.152c0 .424.206.807.498 1.102.292.295.674.526 1.123.718.899.385 2.079.604 3.379.604 1.3 0 2.48-.22 3.379-.604.45-.192.831-.423 1.123-.718.292-.295.498-.678.498-1.102V7.43c0-.424-.206-.807-.498-1.102-.292-.295-.674-.526-1.123-.718-.899-.385-2.079-.604-3.379-.604zm0 1c1.012 0 1.925.133 2.62.342.346.104.64.225.88.383.241.158.5.382.5.775s-.259.617-.5.775a3.361 3.361 0 0 1-.88.383c-.695.209-1.608.342-2.62.342s-1.925-.133-2.62-.342a3.361 3.361 0 0 1-.88-.383c-.241-.158-.5-.382-.5-.775s.259-.617.5-.775c.241-.158.534-.279.88-.383.695-.209 1.608-.342 2.62-.342z" fill="#ffffff"></path><path d="M3.495 3a.5.5 0 0 0-.5.5v2a.5.5 0 0 0 .5.5h1a.5.5 0 1 0 0-1h-.5V4h1v.5a.5.5 0 1 0 1 0v-1a.5.5 0 0 0-.5-.5zm11.01 0a.5.5 0 0 0-.5.5v1a.5.5 0 1 0 1 0V4h1v1h-.5a.5.5 0 1 0 0 1h1a.5.5 0 0 0 .5-.5v-2a.5.5 0 0 0-.5-.5zM3.495 14a.5.5 0 0 0-.5.5v2a.5.5 0 0 0 .5.5h2a.5.5 0 0 0 .5-.5v-1a.5.5 0 1 0-1 0v.5h-1v-1h.5a.5.5 0 1 0 0-1zm12.01 0a.5.5 0 1 0 0 1h.5v1h-1v-.5a.5.5 0 1 0-1 0v1a.5.5 0 0 0 .5.5h2a.5.5 0 0 0 .5-.5v-2a.5.5 0 0 0-.5-.5z" data-color="color-2"></path></g></g></svg>