<svg height="64" width="64" viewBox="0 0 20 20"><title>surface_nsphere</title><g fill="#000000" class="nc-icon-wrapper"><g transform="translate(0 0)"><path d="M9.997 4.006c-3.308 0-6 2.692-6 6s2.692 6 6 6 6-2.692 6-6-2.692-6-6-6zm4.758 6.734a.5.5 0 0 1 .285.92c-1.162.84-2.998 1.35-5.043 1.35-2.044 0-3.88-.51-5.043-1.348a.5.5 0 0 1 .256-.91.5.5 0 0 1 .33.098c.899.648 2.587 1.16 4.457 1.16 1.872 0 3.559-.509 4.457-1.158a.5.5 0 0 1 .3-.112z" fill="#ffffff"></path><path d="M3.495 3a.5.5 0 0 0-.5.5v2a.5.5 0 0 0 .5.5h1a.5.5 0 1 0 0-1h-.5V4h1v.5a.5.5 0 1 0 1 0v-1a.5.5 0 0 0-.5-.5zm11.01 0a.5.5 0 0 0-.5.5v1a.5.5 0 1 0 1 0V4h1v1h-.5a.5.5 0 1 0 0 1h1a.5.5 0 0 0 .5-.5v-2a.5.5 0 0 0-.5-.5zM3.495 14a.5.5 0 0 0-.5.5v2a.5.5 0 0 0 .5.5h2a.5.5 0 0 0 .5-.5v-1a.5.5 0 1 0-1 0v.5h-1v-1h.5a.5.5 0 1 0 0-1zm12.01 0a.5.5 0 1 0 0 1h.5v1h-1v-.5a.5.5 0 1 0-1 0v1a.5.5 0 0 0 .5.5h2a.5.5 0 0 0 .5-.5v-2a.5.5 0 0 0-.5-.5z" data-color="color-2"></path></g></g></svg>