<svg height="64" width="64" viewBox="0 0 20 20"><title>surface_ncurve</title><g fill="#000000" class="nc-icon-wrapper"><g transform="translate(0 0)"><path d="M16.06 4.018a6.065 6.065 0 0 0-5.24 2.992 5.94 5.94 0 0 0 0 5.994 6.065 6.065 0 0 0 5.24 2.992l.431.01a.5.5 0 0 0 .51-.5l-.004-10.984a.5.5 0 0 0-.496-.5l-.438-.004h-.004z" fill="#ffffff"></path><path d="M3.499 3a.5.5 0 0 0-.5.5v2a.5.5 0 0 0 .5.5h.502v8h-.502a.5.5 0 0 0-.5.5v2a.5.5 0 0 0 .5.5h2a.5.5 0 0 0 .5-.5v-.494h5.002c.676.01.676-1.01 0-1H5.999V14.5a.5.5 0 0 0-.5-.5h-.498V6h.498a.5.5 0 0 0 .5-.5v-.494h5.002c.676.01.676-1.01 0-1H5.999V3.5a.5.5 0 0 0-.5-.5zm.5 1h1v1h-1zm0 11h1v1h-1z" data-color="color-2"></path></g></g></svg>