<svg height="64" width="64" viewBox="0 0 20 20"><title>surface_ncircle</title><g fill="#000000" class="nc-icon-wrapper"><g transform="translate(0 0)"><path d="M3.495 3a.5.5 0 0 0-.5.5v2a.5.5 0 0 0 .5.5h2a.5.5 0 0 0 .5-.5v-2a.5.5 0 0 0-.5-.5zm11.01 0a.5.5 0 0 0-.5.5v2a.5.5 0 0 0 .5.5h2a.5.5 0 0 0 .5-.5v-2a.5.5 0 0 0-.5-.5zM3.995 4h1v1h-1zm11.01 0h1v1h-1zM3.495 14a.5.5 0 0 0-.5.5v2a.5.5 0 0 0 .5.5h2a.5.5 0 0 0 .5-.5v-2a.5.5 0 0 0-.5-.5zm11.01 0a.5.5 0 0 0-.5.5v2a.5.5 0 0 0 .5.5h2a.5.5 0 0 0 .5-.5v-2a.5.5 0 0 0-.5-.5zm-10.51 1h1v1h-1zm11.01 0h1v1h-1z" data-color="color-2"></path><path d="M9.997 5.006c-2.755 0-5 2.244-5 5s2.245 5 5 5 5-2.244 5-5-2.245-5-5-5z" fill="#ffffff"></path></g></g></svg>