<svg width="64" height="64" viewBox="0 0 24 24"><title>swap vertical circle outline</title><g fill="#000000" class="nc-icon-wrapper"><g transform="translate(0 0)"><path d="M10 5.5L6.5 9H9v4h2V9h2.5zm3 5.5v4h-2.5l3.5 3.5 3.5-3.5H15v-4z" data-color="color-2"></path><path d="M12 2.355a9.593 9.593 0 0 0-5.478 1.719A9.719 9.719 0 0 0 2.69 9.482a9.603 9.603 0 0 0 .471 6.37 9.753 9.753 0 0 0 4.405 4.707 9.595 9.595 0 0 0 6.075.945 9.662 9.662 0 0 0 5.312-2.837 9.591 9.591 0 0 0 1.494-11.305 9.747 9.747 0 0 0-4.976-4.358A9.575 9.575 0 0 0 12 2.354zm0 1.29a8.372 8.372 0 0 1 8.18 6.647 8.36 8.36 0 0 1-.764 5.554 8.416 8.416 0 0 1-4.073 3.812 8.37 8.37 0 0 1-6.253.175 8.408 8.408 0 0 1-4.35-3.699A8.344 8.344 0 0 1 5.868 6.33 8.357 8.357 0 0 1 12 3.646z" fill="#ffffff"></path></g></g></svg>