<svg width="64" height="64" viewBox="0 0 24 24"><title>sync</title><g fill="#ffffff" class="nc-icon-wrapper"><g transform="translate(0 0)"><path d="M11.646 1.855L8.5 5l3.145 3.145v-2.5c.476-.004.955.005 1.425.09a6.358 6.358 0 0 1 5.283 6.224 6.308 6.308 0 0 1-.623 2.771l.92.92c.663-1.19 1.049-2.553.99-3.92a7.619 7.619 0 0 0-1.633-4.459 7.658 7.658 0 0 0-4.585-2.784 8.317 8.317 0 0 0-1.712-.133c-.069.02-.074-.023-.065-.08V1.855zM5.349 8.35c-.667 1.197-1.053 2.57-.989 3.945a7.652 7.652 0 0 0 5.85 7.14 7.942 7.942 0 0 0 2.023.21c.036.013.125-.027.122.025v2.475L15.499 19l-3.144-3.145v2.5c-.477.004-.956-.005-1.426-.09a6.355 6.355 0 0 1-5.282-6.121 6.31 6.31 0 0 1 .622-2.875l-.92-.919z" class="nc-icon-wrapper"></path></g></g></svg>