<svg width="64" height="64" viewBox="0 0 24 24"><title>sync off</title><g fill="#ffffff" class="nc-icon-wrapper"><g transform="translate(0 0)"><path class="nc-icon-wrapper" d="M14.354 4.354v4.793l1.887-1.89c.211.216.43.424.621.657a6.344 6.344 0 0 1 .886 6.783l.91.912a7.697 7.697 0 0 0 .937-4.081 7.442 7.442 0 0 0-1.271-3.802 7.57 7.57 0 0 0-1.001-1.184l-.184-.18 2.008-2.008h-4.793zM4.141 4.64l-.78.771L5.673 7.72c-.147.23-.295.462-.423.704a7.577 7.577 0 0 0-.883 4.02 7.553 7.553 0 0 0 1.21 3.68c.318.491.696.943 1.118 1.35l.168.166-2.008 2.008h4.793v-4.793L7.76 16.742c-.156-.159-.316-.314-.467-.478-.111-.128-.224-.257-.327-.392a6.458 6.458 0 0 1-.99-1.859 6.35 6.35 0 0 1-.283-2.783c.094-.764.328-1.51.688-2.19l.207-.403 8.77 8.771c-.333.164-.662.338-1.004.48v1.317c.593-.2 1.189-.415 1.721-.751l.199-.124 2.306 2.31.77-.77L4.14 4.64zm5.506.152a7.852 7.852 0 0 0-1.262.543l.92.92c.114-.05.226-.105.342-.153v-1.31z"></path></g></g></svg>