<svg width="64" height="64" viewBox="0 0 24 24"><title>sync alert</title><g fill="#000000" class="nc-icon-wrapper"><g transform="translate(0 0)"><path d="M15.366 4.384l-.011 4.76L17.24 7.26c1.911 1.695 2.643 4.574 1.714 6.961a6.355 6.355 0 0 1-3.6 3.675v1.373c3.087-.952 5.346-4.033 5.292-7.268.01-2.003-.828-3.986-2.255-5.388L21 4.354l-5.635.03zm-6.72.415c-2.926.915-5.17 3.721-5.281 6.805-.141 2.259.833 4.518 2.497 6.036l-2.009 2.007h4.793v-4.793L6.76 16.742c-1.92-1.703-2.648-4.6-1.701-6.993C5.672 8.1 7.013 6.75 8.644 6.1c.005-.433 0-.867.002-1.3z" fill="#ffffff"></path><path d="M11.355 7.354v5.291h1.29v-5.29h-1.29zm0 8v1.292h1.29v-1.292h-1.29z" data-color="color-2"></path></g></g></svg>