<svg height="64" width="64" viewBox="0 0 20 20"><title>syntax_off</title><g fill="#ffffff" class="nc-icon-wrapper"><g transform="translate(0 0)"><path d="M6.746 3a.5.5 0 0 0-.484.377l-3.246 12.75A.5.5 0 0 0 3 16.25v.25a.5.5 0 1 0 1 0v-.188l.85-3.333A.5.5 0 0 0 5 13h4a.5.5 0 0 0 .148-.02h.002l.85 3.332v.188a.5.5 0 1 0 1 0v-.25a.5.5 0 0 0-.016-.123L7.73 3.377A.5.5 0 0 0 7.246 3zm.25 1.545L8.898 12h-3.8z"></path><path d="M13 16v-5h1.5c.835 0 1.5.664 1.5 1.498v2.008c0 .834-.665 1.498-1.5 1.496zm4-1.494v-2.008A2.506 2.506 0 0 0 14.5 10H13V3.5a.5.5 0 1 0-1 0v13a.5.5 0 0 0 .5.5l2 .002a2.503 2.503 0 0 0 2.5-2.496z"></path></g></g></svg>