<svg width="64" height="64" viewBox="0 0 24 24"><title>text box outline</title><g fill="#ffffff" class="nc-icon-wrapper"><g transform="translate(0 0)"><path class="nc-icon-wrapper" d="M5 3.353A1.645 1.645 0 0 0 3.355 4.92c-.003.173 0 .345-.001.517v13.58a1.645 1.645 0 0 0 1.582 1.629c.22.002.44 0 .66 0h13.42a1.645 1.645 0 0 0 1.63-1.582c.002-.22 0-.44 0-.66V4.983a1.645 1.645 0 0 0-1.582-1.629c-.22-.003-.44 0-.66-.001H5zm-.354 1.293h14.707v14.707H4.646V4.646zm2.707 2.707v1.293h9.293V7.353H7.353zm0 4v1.294h9.293v-1.294H7.353zm0 4v1.294h6.293v-1.293H7.353z"></path></g></g></svg>