<svg width="64" height="64" viewBox="0 0 24 24"><title>text box multiple outline</title><g fill="#ffffff" class="nc-icon-wrapper"><g transform="translate(0 0)"><path class="nc-icon-wrapper" d="M7 1.353c-.245 0-.49.054-.709.164a1.61 1.61 0 0 0-.798.826 1.622 1.622 0 0 0-.14.733v13.948c.004.369.142.732.376 1.017a1.65 1.65 0 0 0 1.223.605h14.072c.237-.003.473-.057.685-.163a1.61 1.61 0 0 0 .798-.826c.107-.228.146-.482.14-.733V2.976a1.637 1.637 0 0 0-.375-1.017 1.65 1.65 0 0 0-1.224-.605H7zm-.354 1.293h14.707v14.707H6.646V2.646zM1.353 5.353v15.67c.003.37.142.733.376 1.017a1.65 1.65 0 0 0 1.223.605c.594.002 1.187 0 1.78.001h13.914v-1.293h-16v-16H1.353zm8 0v1.293h9.293V5.353H9.353zm0 4v1.294h9.293V9.352H9.353zm0 4v1.294h6.293v-1.294H9.353z"></path></g></g></svg>