<svg width="64" height="64" data-color="color-2" viewBox="0 0 24 24"><title>text box search outline</title><g fill="#000000" class="nc-icon-wrapper"><g transform="translate(0 0)"><path d="M5 3.354a1.651 1.651 0 0 0-1.483.933c-.132.263-.173.56-.162.85v13.91c.011.624.412 1.218.986 1.461.254.116.535.146.811.137h4.894a6.783 6.783 0 0 1-.776-1.291H4.646V4.645h14.709v6.171c.472.332.909.717 1.29 1.15 0-2.338.002-4.676 0-7.014a1.652 1.652 0 0 0-.986-1.46 1.796 1.796 0 0 0-.81-.138H5zm2.354 4v1.292h9.292V7.354H7.354zm0 4v1.291h2.462a7.359 7.359 0 0 1 1.15-1.29H7.354zm0 4v1.292h1.292a7.25 7.25 0 0 1 .096-1.292H7.354z" fill="#ffffff"></path><path d="M15.5 12C13 12 11 14 11 16.5s2 4.5 4.5 4.5c.87 0 1.69-.25 2.38-.68L21 23.39 22.39 22l-3.08-3.1c.44-.69.69-1.52.69-2.4 0-2.5-2-4.5-4.5-4.5zm0 2a2.5 2.5 0 0 1 2.5 2.5 2.5 2.5 0 0 1-2.5 2.5 2.5 2.5 0 0 1-2.5-2.5 2.5 2.5 0 0 1 2.5-2.5z" data-color="color-2"></path></g></g></svg>