<svg width="64" height="64" viewBox="0 0 24 24"><title>text box remove outline</title><g fill="#000000" class="nc-icon-wrapper"><g transform="translate(0 0)"><path d="M5 3.354a1.651 1.651 0 0 0-1.475.915c-.137.267-.182.57-.17.867v13.911c.011.624.412 1.218.986 1.461.254.116.535.147.81.137h7.07a6.29 6.29 0 0 1-.433-1.29H4.646V4.644h14.708v7.142a6.29 6.29 0 0 1 1.292.433V4.952a1.652 1.652 0 0 0-.987-1.46 1.795 1.795 0 0 0-.81-.138H5zm2.354 4v1.292h9.292V7.354H7.354zm0 4v1.291h7.224c.631-.406 1.334-.7 2.068-.857v-.433H7.354zm0 4v1.292h4.291v-1.292h-4.29z" fill="#ffffff"></path><path d="M14.46 15.88l1.42-1.42L18 16.59l2.12-2.13 1.42 1.42L19.41 18l2.13 2.12-1.42 1.42L18 19.41l-2.12 2.13-1.42-1.42L16.59 18l-2.13-2.12" data-color="color-2"></path></g></g></svg>