<svg width="64" height="64" viewBox="0 0 24 24"><title>timer outline</title><g fill="#ffffff" class="nc-icon-wrapper"><g transform="translate(0 0)"><path d="M9.354 1.354v1.292h5.291V1.354h-5.29zm2.646 3a8.619 8.619 0 0 0-5.11 1.672 8.665 8.665 0 0 0-3.248 4.756 8.67 8.67 0 0 0 .588 6.012 8.687 8.687 0 0 0 4.357 4.15 8.706 8.706 0 0 0 6.357.19 8.644 8.644 0 0 0 4.51-3.742 8.647 8.647 0 0 0-.777-9.876l-.122-.153L19.95 5.97a14.085 14.085 0 0 0-.908-.907l-1.396 1.416a9.444 9.444 0 0 0-1.395-.992A8.507 8.507 0 0 0 12 4.354zm0 1.292a7.333 7.333 0 0 1 4.432 1.484 7.363 7.363 0 0 1 2.744 4.253 7.381 7.381 0 0 1-.665 5.04 7.391 7.391 0 0 1-3.793 3.414 7.39 7.39 0 0 1-5.746-.132 7.39 7.39 0 0 1-3.598-3.508 7.388 7.388 0 0 1-.364-5.492 7.382 7.382 0 0 1 3.324-4.083A7.331 7.331 0 0 1 12 5.646zm-.645 2.709v5.29h1.29v-5.29h-1.29z" class="nc-icon-wrapper"></path></g></g></svg>