<svg width="64" height="64" viewBox="0 0 24 24"><title>timeline plus outline</title><g fill="#000000" class="nc-icon-wrapper"><g transform="translate(0 0)"><path d="M10 4.354a1.652 1.652 0 0 0-1.645 1.757v4.035L6.5 12l1.854 1.854v4.194c.011.596.378 1.166.914 1.426.263.135.562.183.856.172h11.907a1.65 1.65 0 0 0 1.614-1.757V5.968a1.65 1.65 0 0 0-1.758-1.614zm-.355 1.291h12.71v12.71H9.644zM3 10a2 2 0 1 0 0 4c1.11 0 2-.89 2-2a2 2 0 0 0-2-2z" fill="#ffffff"></path><path d="M2 2v6h2V2zm13 6v3h-3v2h3v3h2v-3h3v-2h-3V8zM2 16v6h2v-6z" data-color="color-2"></path></g></g></svg>