<svg width="64" height="64" viewBox="0 0 24 24"><title>timer off outline</title><g fill="#ffffff" class="nc-icon-wrapper"><g transform="translate(0 0)"><path d="M9.354 1.354v1.292h5.291V1.354h-5.29zm2.646 3c-1.53-.005-3.04.462-4.346 1.246l.91.905a7.36 7.36 0 0 1 4.344-.804 7.346 7.346 0 0 1 4.465 2.276 7.338 7.338 0 0 1 1.123 8.458l.904.904c.799-1.323 1.265-2.86 1.245-4.41a8.606 8.606 0 0 0-1.522-4.818c-.175-.26-.372-.503-.568-.747l1.395-1.395-.91-.918-1.394 1.394a9.38 9.38 0 0 0-1.502-1.032A8.668 8.668 0 0 0 12 4.354zm-8.998.148l-.754.766 2.708 2.718a9.142 9.142 0 0 0-.906 1.613 8.664 8.664 0 0 0-.143 6.447 8.643 8.643 0 0 0 8.81 5.57c1.5-.12 2.96-.646 4.204-1.488.044-.022.09-.073.132-.076l2.445 2.445.753-.765c-2.567-2.572-5.131-5.147-7.7-7.718L3.002 4.502zm8.353 3.853v.939l1.29 1.29v-2.23h-1.29zm-5.475.574l10.189 10.18c-.414.255-.832.51-1.285.692-1.933.813-4.215.723-6.083-.226a7.387 7.387 0 0 1-3.518-3.808c-.78-1.906-.71-4.146.212-5.99.143-.294.318-.569.485-.848z" class="nc-icon-wrapper"></path></g></g></svg>