<svg width="64" height="64" viewBox="0 0 24 24"><title>timeline clock outline</title><g fill="#000000" class="nc-icon-wrapper"><g transform="translate(0 0)"><path d="M2 2v6h2V2zm13 6v5l3.68 2.26.82-1.26-3-1.8V8zM2 16v6h2v-6z" data-color="color-2"></path><path d="M16 4.354a7.608 7.608 0 0 0-4.17 1.239 7.701 7.701 0 0 0-3.067 3.933c-.039.103-.065.215-.105.317L6.501 12l2.162 2.162a7.7 7.7 0 0 0 2.575 3.817 7.642 7.642 0 0 0 11.99-3.483 7.678 7.678 0 0 0-.294-5.722 7.687 7.687 0 0 0-3.841-3.77A7.624 7.624 0 0 0 16 4.355zm0 1.291a6.332 6.332 0 0 1 3.61 1.125 6.376 6.376 0 0 1 2.487 3.434 6.372 6.372 0 0 1-.411 4.634 6.39 6.39 0 0 1-3.222 3.02 6.37 6.37 0 0 1-5.078-.066 6.387 6.387 0 0 1-3.179-3.178 6.372 6.372 0 0 1-.084-5.034 6.386 6.386 0 0 1 3.179-3.335c.84-.396 1.769-.6 2.698-.6zM3 10a2 2 0 1 0 0 4c1.11 0 2-.89 2-2a2 2 0 0 0-2-2z" fill="#ffffff"></path></g></g></svg>