<svg width="64" height="64" viewBox="0 0 24 24"><title>timeline help outline</title><g fill="#000000" class="nc-icon-wrapper"><g transform="translate(0 0)"><path d="M2 2v6h2V2zm14 5c-1.66 0-3 1.34-3 3v.5h1.5V10c0-.83.67-1.5 1.5-1.5s1.5.68 1.5 1.5c0 .47-.23.9-.62 1.16l-.29.19A3.53 3.53 0 0 0 15 14.3v.2h1.5v-.2c0-.68.34-1.3.91-1.7l.3-.19C18.5 11.88 19 10.97 19 10c0-1.66-1.34-3-3-3zm-1 8.5V17h1.5v-1.5zM2 16v6h2v-6z" data-color="color-2"></path><path d="M10 4.354a1.652 1.652 0 0 0-1.645 1.757v4.035L6.5 12l1.854 1.854v4.194c.011.596.378 1.166.914 1.426.263.135.562.183.856.172h11.907a1.65 1.65 0 0 0 1.614-1.757V5.968a1.65 1.65 0 0 0-1.758-1.614zm-.355 1.291h12.71v12.71H9.644v-5.039L8.33 12l1.316-1.316zM3 10a2 2 0 1 0 0 4c1.11 0 2-.89 2-2a2 2 0 0 0-2-2z" fill="#ffffff"></path></g></g></svg>