<svg height="64" width="64" viewBox="0 0 20 20"><title>tool_settings</title><g fill="#000000" class="nc-icon-wrapper"><g transform="translate(0 0)"><path d="M11.064 2.993a3.486 3.486 0 0 0-1.06 2.5c0 1.5.75 2.5 2 3.145v6.855c-.029 2.029 3.029 2.029 3 0V8.64c1.29-.666 2-1.647 2-3.147 0-.979-.408-1.864-1.06-2.5h-.94v3l-1 1h-1l-1-1v-3zm1.94 12h1v1h-1z" data-color="color-2"></path><path d="M6.004 8.993v-5.5a.5.5 0 1 0-1 0v5.5zm.75 2h.75c.676.01.676-1.01 0-1h-4c-.676-.01-.676 1.01 0 1h.75v1c-.75 0-1.25.5-1.25 1.25v1.25c0 .785.312 1.44.785 1.867a2.528 2.528 0 0 0 1.697.633c.61 0 1.23-.204 1.711-.629.482-.424.807-1.081.807-1.871v-1.25c0-.75-.5-1.25-1.25-1.25z" fill="#ffffff"></path></g></g></svg>