<svg width="64" height="64" data-color="color-2" viewBox="0 0 24 24"><title>tooltip text outline</title><g fill="#000000" class="nc-icon-wrapper"><g transform="translate(0 0)"><path d="M6 7v2h12V7zm0 4v2h10v-2z" data-color="color-2"></path><path d="M4 2.355a1.654 1.654 0 0 0-1.523 1.024c-.115.26-.129.546-.122.826v11.827a1.654 1.654 0 0 0 1.08 1.513c.274.111.57.102.86.1h3.852L12 21.5l3.853-3.853c1.404-.001 2.807.001 4.21-.002a1.653 1.653 0 0 0 1.468-1.042c.115-.268.118-.562.114-.848V3.958a1.654 1.654 0 0 0-1.08-1.503c-.276-.112-.576-.101-.869-.1H4zm-.355 1.29h16.71v12.71h-5.039L12 19.67l-3.316-3.317H3.645V3.645z" fill="#ffffff"></path></g></g></svg>