<svg width="64" height="64" viewBox="0 0 24 24"><title>tooltip check outline</title><g fill="#000000" class="nc-icon-wrapper"><g transform="translate(0 0)"><path d="M10.75 13.71l-3.5-3.5 1.41-1.42 2.09 2.09 4.59-4.58 1.41 1.41z" data-color="color-2"></path><path d="M4 2.355a1.656 1.656 0 0 0-1.491.951c-.13.266-.164.565-.154.858v11.868a1.654 1.654 0 0 0 1.08 1.513c.274.111.57.102.86.1h3.852L12 21.5l3.853-3.854c1.404 0 2.807.002 4.21 0a1.65 1.65 0 0 0 1.46-1.023c.116-.263.128-.553.122-.836V3.957a1.654 1.654 0 0 0-1.08-1.502c-.277-.112-.577-.102-.869-.1H4zm-.355 1.29h16.71v12.71h-5.039L12 19.67l-3.316-3.317H3.645V3.645z" fill="#ffffff"></path></g></g></svg>