<svg width="64" height="64" viewBox="0 0 20 20"><title>tracker_data</title><g fill="#000000" class="nc-icon-wrapper"><g transform="translate(0 0)"><path d="M10 7v2H8.5a.5.5 0 0 0-.5.5V11H6v1h2v1.5a.5.5 0 0 0 .5.5H10v2h1v-2h1.5a.5.5 0 0 0 .5-.5V12h2v-1h-2V9.5a.5.5 0 0 0-.5-.5H11V7zm-1 3h3v3H9z" fill="#ffffff"></path><path d="M5.25 3c-.65 0-1.236.197-1.645.605C3.197 4.014 3 4.6 3 5.25v9.5c0 .65.197 1.236.605 1.645.409.408.994.605 1.645.605H6v-1h-.75c-.457 0-.748-.123-.937-.313-.19-.19-.313-.48-.313-.937v-9.5c0-.457.123-.748.313-.938S4.793 4 5.25 4H6V3zM14 3v1h.75c.457 0 .748.123.938.313s.312.48.312.937v9.5c0 .457-.123.748-.313.938s-.48.312-.937.312H14v1h.75c.65 0 1.236-.197 1.645-.605.408-.409.605-.994.605-1.645v-9.5c0-.65-.197-1.236-.605-1.645C15.986 3.197 15.4 3 14.75 3z" data-color="color-2"></path></g></g></svg>