<svg width="64" height="64" viewBox="0 0 20 20"><title>tracking_refine_forwards</title><g fill="#000000" class="nc-icon-wrapper"><g transform="translate(0 0)"><path d="M13.027 5.994a.5.5 0 0 0-.148.022l-1 .25a.5.5 0 0 0 .094.986.5.5 0 0 0 .148-.018l1-.25a.5.5 0 0 0-.094-.99zm-3 .75a.5.5 0 0 0-.148.022l-1 .25a.5.5 0 0 0 .094.986.5.5 0 0 0 .148-.018l1-.25a.5.5 0 0 0-.094-.99zM7.004 7.992a.5.5 0 0 0-.358.154l-1 1a.5.5 0 0 0 .348.86.5.5 0 0 0 .36-.152l1-1a.5.5 0 0 0-.35-.862zm-1.996 3a.5.5 0 0 0-.508.508v1a.5.5 0 0 0 .492.508.5.5 0 0 0 .508-.508v-1a.5.5 0 0 0-.492-.508z" data-color="color-2"></path><path d="M12.994 3a.5.5 0 0 0-.348.86l2.647 2.646-2.647 2.646a.5.5 0 1 0 .708.707l3-3a.5.5 0 0 0 0-.707l-3-3a.5.5 0 0 0-.36-.152zM4.962 14c-.806.02-1.462.69-1.462 1.5 0 .823.677 1.5 1.5 1.5s1.5-.677 1.5-1.5S5.823 14 5 14h-.038z" fill="#ffffff"></path></g></g></svg>