<svg width="64" height="64" viewBox="0 0 20 20"><title>tracking_backwards_single</title><g fill="#000000" class="nc-icon-wrapper"><g transform="translate(0 0)"><path d="M14.5 9.493c-.667 0-.667 1 0 1h1a.5.5 0 0 0 .5-.418v-.161a.5.5 0 0 0-.5-.421zm-6 .007a.5.5 0 1 0 0 1h1a.5.5 0 1 0 0-1zm3 0a.5.5 0 1 0 0 1h1a.5.5 0 1 0 0-1z" data-color="color-2"></path><path d="M3.508 6.493A.5.5 0 0 0 3 7v6a.5.5 0 1 0 1 0V7a.5.5 0 0 0-.492-.507zm13 0A.5.5 0 0 0 16 7v6c0 .666 1 .666 1 0V7a.5.5 0 0 0-.492-.507zm-8.002.002a.5.5 0 0 0-.36.152l-3 3a.5.5 0 0 0 0 .707l3 3a.5.5 0 0 0 .708-.707L6.208 10l2.646-2.646a.5.5 0 0 0-.348-.86z" fill="#ffffff"></path></g></g></svg>