<svg height="64" width="64" viewBox="0 0 20 20"><title>tracking</title><g fill="#000000" class="nc-icon-wrapper"><g transform="translate(0 0)"><path d="M7 14.997c0 1.1-.9 2.002-2 2.002s-2-.902-2-2.002c0-1.1.9-2.004 2-2.004s2 .904 2 2.004zm-1 0a.995.995 0 0 0-1-1.004c-.558 0-1 .444-1 1.004a.993.993 0 0 0 1 1.002c.558 0 1-.442 1-1.002zm11-10a2.006 2.006 0 0 1-2 1.996c-1.098 0-2-.899-2-1.996s.902-1.996 2-1.996c1.098 0 2 .899 2 1.996z" fill="#ffffff"></path><path d="M9.496 3.998a.5.5 0 1 0 0 1h2a.5.5 0 1 0 0-1zm-2.01.994a.5.5 0 0 0-.343.152l-1 1a.5.5 0 1 0 .707.707l1-1a.5.5 0 0 0-.364-.859zm-1.002 3a.5.5 0 0 0-.347.86l1 1a.5.5 0 1 0 .707-.708l-1-1a.5.5 0 0 0-.36-.152zm3.012 2.006a.5.5 0 1 0 0 1h1a.5.5 0 1 0 0-1zm2.996.994a.5.5 0 0 0-.35.86l1 1a.5.5 0 1 0 .708-.708l-1-1a.5.5 0 0 0-.358-.152zm.994 3a.5.5 0 0 0-.343.152l-1 1a.5.5 0 1 0 .707.707l1-1a.5.5 0 0 0-.364-.859zM8.49 14.998a.5.5 0 1 0 0 1h2a.5.5 0 1 0 0-1z" data-color="color-2"></path></g></g></svg>