<svg width="64" height="64" viewBox="0 0 20 20"><title>tracking_forwards</title><g fill="#000000" class="nc-icon-wrapper"><g transform="translate(0 0)"><path d="M13.494 3.997a.5.5 0 0 0-.348.86l2.647 2.646-2.647 2.646c-.49.472.236 1.198.708.708l3-3a.5.5 0 0 0 0-.708l-3-3a.5.5 0 0 0-.36-.152zM4.5 13.003c-.823 0-1.5.677-1.5 1.5s.677 1.5 1.5 1.5 1.5-.677 1.5-1.5-.677-1.5-1.5-1.5z" fill="#ffffff"></path><path d="M4.492 7.003A.5.5 0 0 0 4 7.511v1c-.01.676 1.01.676 1 0v-1a.5.5 0 0 0-.508-.508zm4.977 0c-.645.021-.634 1.01.031 1h1c.676.01.676-1.01 0-1H9.47zm3 0c-.645.021-.634 1.01.031 1h1c.676.01.676-1.01 0-1h-1.031zm-6 .008c-.645.021-.634 1.01.031 1h1c.676.01.676-1.01 0-1H6.47zm-1.977 2.992a.5.5 0 0 0-.492.508v1c-.01.676 1.01.676 1 0v-1a.5.5 0 0 0-.508-.508z" data-color="color-2"></path></g></g></svg>