<svg width="64" height="64" viewBox="0 0 20 20"><title>tracking_forwards_single</title><g fill="#000000" class="nc-icon-wrapper"><g transform="translate(0 0)"><path d="M4.5 9.493a.5.5 0 0 0-.5.421v.161a.5.5 0 0 0 .5.418h1c.666 0 .666-1 0-1zm3 .007a.5.5 0 1 0 0 1h1a.5.5 0 1 0 0-1zm3 0a.5.5 0 1 0 0 1h1a.5.5 0 1 0 0-1z" data-color="color-2"></path><path d="M3.492 6.493A.5.5 0 0 0 3 7v6c0 .666 1 .666 1 0V7a.5.5 0 0 0-.508-.507zm13 0A.5.5 0 0 0 16 7v6a.5.5 0 0 0 1 0V7a.5.5 0 0 0-.508-.507zm-4.998.002a.5.5 0 0 0-.348.859L13.793 10l-2.647 2.647a.5.5 0 0 0 .708.707l3-3a.5.5 0 0 0 0-.707l-3-3a.5.5 0 0 0-.36-.152z" fill="#ffffff"></path></g></g></svg>