<svg width="64" height="64" viewBox="0 0 20 20"><title>tracking_refine_backwards</title><g fill="#000000" class="nc-icon-wrapper"><g transform="translate(0 0)"><path d="M15.006 6.992a.5.5 0 0 0-.506.508v1a.5.5 0 1 0 1 0v-1a.5.5 0 0 0-.492-.508.5.5 0 0 1-.002 0zm-1 3.002a.5.5 0 0 0-.36.153l-1 1a.5.5 0 1 0 .708.707l1-1a.5.5 0 0 0-.348-.86zm-3.03 2.004a.5.5 0 0 0-.097.018l-1 .25a.5.5 0 1 0 .242.969l1-.25a.5.5 0 0 0-.094-.987.5.5 0 0 0-.05 0zm-3 .75a.5.5 0 0 0-.097.018l-1 .25a.5.5 0 1 0 .242.969l1-.25a.5.5 0 0 0-.094-.987.5.5 0 0 0-.05 0z" data-color="color-2"></path><path d="M15 3c-.823 0-1.5.677-1.5 1.5S14.177 6 15 6s1.5-.677 1.5-1.5S15.823 3 15 3zM6.996 9.988a.5.5 0 0 0-.35.153l-3 3a.5.5 0 0 0 0 .707l3 3a.5.5 0 0 0 .36.152.5.5 0 0 0 .348-.86l-2.647-2.646 2.647-2.646a.5.5 0 0 0-.358-.86z" fill="#ffffff"></path></g></g></svg>