<svg width="64" height="64" viewBox="0 0 20 20"><title>tracking_backwards</title><g fill="#000000" class="nc-icon-wrapper"><g transform="translate(0 0)"><path d="M15.5 3.998c-.823 0-1.5.677-1.5 1.5s.677 1.5 1.5 1.5 1.5-.677 1.5-1.5-.677-1.5-1.5-1.5zM6.477 8.98a.495.495 0 0 0-.33.163l-3.001 3a.5.5 0 0 0 0 .708l3 3a.5.5 0 0 0 .36.152.5.5 0 0 0 .348-.86l-2.647-2.646 2.647-2.646c.383-.369.024-.893-.377-.87z" fill="#ffffff"></path><path d="M15.5 7.983c-.253 0-.505.169-.5.507v1a.5.5 0 0 0 .508.508A.5.5 0 0 0 16 9.49v-1c.005-.338-.248-.507-.5-.507zm-.024 3c-.244.01-.48.18-.476.507v1a.5.5 0 0 0 .508.508.5.5 0 0 0 .492-.508v-1c.005-.349-.264-.518-.524-.507zM12.5 11.99c-.676-.01-.676 1.01 0 1h1c.676.01.676-1.01 0-1zm-6.031.008c-.645.022-.634 1.01.031 1h1c.676.01.676-1.01 0-1H6.47zm3 0c-.645.022-.634 1.01.031 1h1c.676.01.676-1.01 0-1H9.47z" data-color="color-2"></path></g></g></svg>