<svg width="64" height="64" viewBox="0 0 20 20"><title>tracking_clear_forwards</title><g fill="#000000" class="nc-icon-wrapper"><g transform="translate(0 0)"><path d="M7.01 5.993v1h.5c.667 0 .667-1 0-1zm2.5 0a.5.5 0 1 0 0 1h1a.5.5 0 1 0 0-1zm3 0a.5.5 0 1 0 0 1h1a.5.5 0 1 0 0-1zm-2.998 4a.5.5 0 0 0-.36.151l-2.645 2.647-2.647-2.647a.5.5 0 0 0-.707.708L5.8 13.498l-2.646 2.647a.5.5 0 1 0 .706.706l2.647-2.646 2.646 2.646a.5.5 0 0 0 .708-.707l-2.647-2.647L9.86 10.85a.5.5 0 0 0 .01-.706.5.5 0 0 0-.358-.152z" data-color="color-2"></path><path d="M6.502 2.985a.5.5 0 0 0-.492.508v6c0 .666 1 .666 1 0v-6a.5.5 0 0 0-.508-.508zm7.002.002a.5.5 0 0 0-.348.86l2.647 2.646-2.647 2.647a.5.5 0 0 0 .708.707l3-3a.5.5 0 0 0 0-.707l-3-3a.5.5 0 0 0-.36-.153z" fill="#ffffff"></path></g></g></svg>