<svg width="64" height="64" viewBox="0 0 20 20"><title>tracking_clear_backwards</title><g fill="#000000" class="nc-icon-wrapper"><g transform="translate(0 0)"><path d="M16.558 2.984a.5.5 0 0 0-.417.165l-2.647 2.646-2.646-2.646a.5.5 0 1 0-.707.707l2.646 2.647L10.14 9.15a.5.5 0 0 0-.01.706.5.5 0 0 0 .717 0l2.646-2.646 2.647 2.647a.5.5 0 1 0 .707-.708L14.2 6.502l2.646-2.647a.5.5 0 0 0-.29-.871zM6.49 13.006a.5.5 0 1 0 0 1h1a.5.5 0 1 0 0-1zm3 0a.5.5 0 1 0 0 1h1a.5.5 0 1 0 0-1zm2.984 0c-.65.015-.645 1 .016 1h.5v-1h-.516z" data-color="color-2"></path><path d="M6.49 10.006a.5.5 0 0 0-.354.146l-3 3a.5.5 0 0 0 0 .707l3 3a.5.5 0 0 0 .36.153.5.5 0 0 0 .348-.86l-2.647-2.646 2.647-2.647a.5.5 0 0 0-.354-.853zm7 0c-.25 0-.5.167-.5.5v6a.5.5 0 1 0 1 0v-6c0-.333-.25-.5-.5-.5z" fill="#ffffff"></path></g></g></svg>