<svg height="64" width="64" viewBox="0 0 20 20"><title>transform_origins</title><g fill="#000000" class="nc-icon-wrapper"><g transform="translate(0 0)"><path d="M3.495 2.99a.5.5 0 0 0-.5.5v10a.5.5 0 0 0 .5.5h7a.5.5 0 1 0 0-1h-6.5v-9h9v6.5a.5.5 0 1 0 1 0v-7a.5.5 0 0 0-.5-.5z" data-color="color-2"></path><path d="M10.991 8.99a1.996 1.996 0 0 1-1.996 1.996A1.996 1.996 0 0 1 6.999 8.99a1.996 1.996 0 0 1 1.996-1.996 1.996 1.996 0 0 1 1.996 1.996zm.508 2.016a.5.5 0 0 0-.348.857l4.147 4.147-2.803-.02c-.676-.01-.676 1.01 0 1l4.01.02a.5.5 0 0 0 .5-.5l-.01-4.02c.01-.676-1.01-.676-1 0l.01 2.813-4.146-4.147a.5.5 0 0 0-.36-.15z" fill="#ffffff"></path></g></g></svg>