<svg height="64" width="64" data-color="color-2" viewBox="0 0 20 20"><title>trash</title><g fill="#000000" class="nc-icon-wrapper"><g transform="translate(0 0)"><path d="M5 7.5v7.25c0 .486.17.94.49 1.26.32.32.774.49 1.26.49h6.5c.486 0 .94-.17 1.26-.49.32-.32.49-.774.49-1.26V7.5h-1v7.25c0 .264-.08.435-.197.553-.118.117-.29.197-.553.197h-6.5c-.264 0-.435-.08-.553-.197-.117-.118-.197-.29-.197-.553V7.5zm3.5-4A.5.5 0 0 0 8 4v1.5H4.5c-.676-.01-.676 1.01 0 1h11c.676.01.676-1.01 0-1H12V4a.5.5 0 0 0-.5-.5zm.5 1h2v1H9z" fill="#ffffff"></path><path d="M8.492 8.492A.497.497 0 0 0 8 9v4c-.01.676 1.01.676 1 0V9a.5.5 0 0 0-.508-.508zm3 0A.497.497 0 0 0 11 9v4c-.01.676 1.01.676 1 0V9a.5.5 0 0 0-.508-.508z" data-color="color-2"></path></g></g></svg>