<svg width="64" height="64" viewBox="0 0 24 24"><title>tune vertical</title><g fill="#000000" class="nc-icon-wrapper"><g transform="translate(0 0)"><path d="M9.354 7.354v1.291h5.291v-1.29h-5.29zm-6 4v1.291h5.291v-1.29h-5.29zm12 4v1.292h5.291v-1.292h-5.29z" fill="#ffffff"></path><path d="M5.355 3.354v5.291h1.29v-5.29h-1.29zm6 0v3.291h1.29v-3.29h-1.29zm6 0v9.291h1.29v-9.29h-1.29zm-6 8v9.291h1.29v-9.29h-1.29zm-6 2v7.291h1.29v-7.29h-1.29zm12 4v3.292h1.29v-3.291h-1.29z" data-color="color-2"></path><path d="M15 7h-2" fill="#ffffff"></path><path d="M3 13h2" fill="#ffffff"></path></g></g></svg>