<svg height="64" width="64" viewBox="0 0 20 20"><title>uglypackage</title><g fill="#ffffff" class="nc-icon-wrapper"><g transform="translate(0 0)"><path d="M7.496 4.99a.5.5 0 0 0-.492.508v4a.5.5 0 1 0 1 0v-4a.5.5 0 0 0-.508-.508zm4.998 4.006a.5.5 0 0 0-.494.506v5a.5.5 0 1 0 1 0v-5a.5.5 0 0 0-.506-.506z"></path><path d="M7.5 4.998a.5.5 0 0 0-.354.145l-4 4A.5.5 0 0 0 3 9.498v5a.5.5 0 0 0 .5.5l9 .006a.5.5 0 0 0 .355-.146l4-4.004a.5.5 0 0 0 .145-.356v-5a.5.5 0 0 0-.5-.5zm.209 1h7.588l-3.004 3.006L4.703 9zM16 6.707v3.584l-3.707 3.713L4 14v-4l8.5.004a.5.5 0 0 0 .355-.148z"></path></g></g></svg>