<svg height="64" width="64" viewBox="0 0 20 20"><title>uv_face_select</title><g fill="#000000" class="nc-icon-wrapper"><g transform="translate(0 0)"><path d="M16.497 4.002l-3.5.008.005 1L16 5.004v5l-3.002.006.004 1 3.5-.008a.5.5 0 0 0 .498-.5v-6a.5.5 0 0 0-.502-.5zM4 13.004v3.492a.5.5 0 0 0 .5.5h6a.5.5 0 0 0 .5-.5v-3.492h-1v2.993H5v-2.992z" data-color="color-2"></path><path d="M3.5 3.004a.5.5 0 0 0-.5.5v8a.5.5 0 0 0 .5.5h8a.5.5 0 0 0 .5-.5v-8a.5.5 0 0 0-.5-.5z" fill="#ffffff"></path></g></g></svg>