<svg height="64" width="64" viewBox="0 0 20 20"><title>uv_sync_select</title><g fill="#ffffff" class="nc-icon-wrapper"><g transform="translate(0 0)"><path d="M16.43 7.991a.5.5 0 0 1 .348.86l-7.153 7.152h2.799a.5.5 0 1 1 0 1h-4a.5.5 0 0 1-.006 0 .5.5 0 0 1-.094-.012.5.5 0 0 1-.048-.012.5.5 0 0 1-.352-.543v-3.933a.5.5 0 1 1 1 0v2.787l7.146-7.147a.5.5 0 0 1 .36-.152zm-5-4.994a.5.5 0 0 1 .094.01.5.5 0 0 1 .048.012.5.5 0 0 1 .352.542v3.936a.5.5 0 1 1-1 0V4.71l-7.146 7.146a.5.5 0 1 1-.708-.707l7.154-7.152H7.425a.5.5 0 1 1 0-1h4a.5.5 0 0 1 .006 0z" class="nc-icon-wrapper"></path></g></g></svg>