<svg width="64" height="64" viewBox="0 0 24 24"><title>vector link</title><g fill="#ffffff" class="nc-icon-wrapper"><g transform="translate(0 0)"><path d="M3 1.354a1.651 1.651 0 0 0-1.509.987c-.124.268-.144.566-.137.857v10.834a1.65 1.65 0 0 0 1.061 1.506c.334.139.698.102 1.05.107h10.567a1.65 1.65 0 0 0 1.51-1.07c.138-.342.096-.714.103-1.074v-2.146h-1.29v3H2.645V2.645h11.71v2h1.29c-.002-.58.004-1.16-.003-1.74a1.653 1.653 0 0 0-1.133-1.47c-.334-.115-.688-.072-1.034-.08H3zm6 6a1.651 1.651 0 0 0-1.509.987c-.124.268-.144.566-.137.857v2.448h1.292v-3h11.709v11.709H8.645v-2h-1.29c0 .58-.004 1.16.002 1.74a1.65 1.65 0 0 0 1.115 1.464c.339.122.701.078 1.053.086h10.507a1.65 1.65 0 0 0 1.51-1.07c.139-.342.097-.714.103-1.074V8.968a1.653 1.653 0 0 0-1.06-1.507c-.334-.138-.698-.101-1.05-.106H9z" class="nc-icon-wrapper"></path></g></g></svg>