<svg width="64" height="64" viewBox="0 0 24 24"><title>vector arrange above</title><g fill="#000000" class="nc-icon-wrapper"><g transform="translate(0 0)"><path d="M18.354 7.354v1.293h2v11.707H8.647v-2H7.354v1.678a1.643 1.643 0 0 0 1.488 1.607c.134.012.269.006.403.007h10.771a1.642 1.642 0 0 0 1.622-1.48c.014-.136.007-.272.009-.408V8.984a1.643 1.643 0 0 0-1.481-1.623c-.136-.013-.272-.006-.408-.008h-1.404z" data-color="color-2"></path><path d="M3 1.354a1.65 1.65 0 0 0-1.646 1.743v10.935a1.648 1.648 0 0 0 1.743 1.613h10.935a1.648 1.648 0 0 0 1.613-1.736V2.97a1.652 1.652 0 0 0-.826-1.397 1.688 1.688 0 0 0-.916-.218H3zm-.354 1.292h11.709v11.709H2.645V2.645z" fill="#ffffff"></path></g></g></svg>