<svg width="64" height="64" viewBox="0 0 24 24"><title>vector selection</title><g fill="#000000" class="nc-icon-wrapper"><g transform="translate(0 0)"><path d="M9 7.354a1.646 1.646 0 0 0-1.646 1.688v1.604h1.292v-2h2V7.353H9zm4.354 0v1.291h1v1h1.291v-2.29h-2.29zm1 5v2h-2v1.291h1.689a1.649 1.649 0 0 0 1.602-1.698v-1.593h-1.29zm-7 1v2.291h2.291v-1.29h-1v-1h-1.29z" data-color="color-2"></path><path d="M3 1.354a1.653 1.653 0 0 0-1.531 1.043c-.123.283-.118.595-.115.897v1.352h1.292v-2h2V1.354H3zm4.354 0v1.292h2.291V1.354h-2.29zm5 0v1.292h2v2h1.291c-.002-.58.004-1.16-.003-1.741a1.654 1.654 0 0 0-1.192-1.488c-.317-.094-.65-.054-.976-.063h-1.12zm-11 6v2.291h1.291v-2.29h-1.29zm17 0v1.292h2v2h1.291c-.002-.58.004-1.16-.003-1.741a1.654 1.654 0 0 0-1.192-1.488c-.317-.094-.65-.054-.976-.063h-1.12zm-17 5c.002.584-.004 1.168.004 1.752A1.655 1.655 0 0 0 2.51 15.57c.331.108.682.065 1.023.074h1.112v-1.29h-2v-2H1.353zm19 1v2.291h1.291v-2.29h-1.29zm-13 5c.002.584-.004 1.168.004 1.752A1.655 1.655 0 0 0 8.51 21.57c.331.108.682.065 1.023.074h1.112v-1.29h-2v-2H7.353zm13 0v2h-2v1.291c.584-.002 1.168.005 1.752-.003a1.653 1.653 0 0 0 1.452-1.115c.122-.332.08-.689.087-1.035v-1.138h-1.29zm-7 2v1.291h2.291v-1.29h-2.29z" data-color="color-2"></path></g></g></svg>