<svg width="64" height="64" viewBox="0 0 24 24"><title>vector combine</title><g fill="#ffffff" class="nc-icon-wrapper"><g transform="translate(0 0)"><path d="M3 1.354a1.651 1.651 0 0 0-1.509.987c-.124.268-.144.566-.137.857v10.834a1.65 1.65 0 0 0 1.061 1.506c.334.139.698.102 1.05.107h3.89c0 1.473-.002 2.946 0 4.419a1.65 1.65 0 0 0 1.098 1.488c.341.13.708.085 1.064.093h10.515a1.65 1.65 0 0 0 1.51-1.07c.139-.342.097-.714.104-1.074V8.968a1.653 1.653 0 0 0-1.06-1.507c-.335-.138-.698-.101-1.05-.106h-3.89c-.001-1.473.001-2.946-.002-4.418a1.652 1.652 0 0 0-1.097-1.49c-.34-.128-.707-.085-1.063-.093H3zm-.354 1.292h11.709v4.708c-1.806.001-3.612-.001-5.418.002a1.652 1.652 0 0 0-1.483 1.078c-.135.34-.093.709-.1 1.065v4.856H2.645V2.645zm6 6h5.709v5.709h-5.71v-5.71zm7 0h4.709v11.709H8.645v-4.71c1.807 0 3.613.002 5.419 0a1.65 1.65 0 0 0 1.488-1.098c.13-.34.085-.708.093-1.063V8.645z" class="nc-icon-wrapper"></path></g></g></svg>