<svg width="64" height="64" viewBox="0 0 24 24"><title>vector difference ba</title><g fill="#000000" class="nc-icon-wrapper"><g transform="translate(0 0)"><path d="M18.354 7.354v1.291h2v2h1.291c-.001-.574.003-1.15-.002-1.724a1.652 1.652 0 0 0-.93-1.405 1.724 1.724 0 0 0-.827-.162h-1.532zm2 6v2.291h1.291v-2.29h-1.29zm-13 5c.001.575-.002 1.15.002 1.726a1.65 1.65 0 0 0 1.752 1.565h1.538v-1.29h-2v-2H7.353zm13 0v2h-2v1.291c.575-.001 1.15.003 1.726-.002a1.65 1.65 0 0 0 1.565-1.764v-1.525h-1.29zm-7 2v1.291h2.291v-1.29h-2.29z" data-color="color-2"></path><path d="M3 1.354A1.65 1.65 0 0 0 1.354 3.1v10.933A1.648 1.648 0 0 0 3.1 15.645h5.547v-7h7l-.001-5.693a1.652 1.652 0 0 0-.86-1.4 1.7 1.7 0 0 0-.89-.198H3zm-.354 1.292h11.709v4.708l-5.403.001A1.65 1.65 0 0 0 7.354 9.1v5.255H2.645V2.645z" fill="#ffffff"></path></g></g></svg>