<svg width="64" height="64" viewBox="0 0 24 24"><title>vector difference ab</title><g fill="#000000" class="nc-icon-wrapper"><g transform="translate(0 0)"><path d="M3 1.354a1.65 1.65 0 0 0-1.646 1.748v1.544h1.292v-2h2V1.353H3zm4.354 0v1.292h2.291V1.354h-2.29zm5 0v1.292h2v2h1.291c-.001-.575.003-1.15-.002-1.725a1.652 1.652 0 0 0-.93-1.405 1.724 1.724 0 0 0-.827-.162h-1.532zm-11 6v2.291h1.291v-2.29h-1.29zm0 5c.001.576-.002 1.15.002 1.726a1.65 1.65 0 0 0 1.752 1.565h1.538v-1.29h-2v-2H1.353z" data-color="color-2"></path><path d="M14.355 7.354v7h-7c0 1.898-.002 3.796 0 5.694a1.648 1.648 0 0 0 1.744 1.597h10.933a1.65 1.65 0 0 0 1.613-1.75V8.967a1.652 1.652 0 0 0-.843-1.406 1.698 1.698 0 0 0-.907-.208h-5.54zm1.29 1.291h4.71v11.71H8.645v-4.71h5.403a1.65 1.65 0 0 0 1.597-1.75v-5.25z" fill="#ffffff"></path></g></g></svg>