<svg width="64" height="64" viewBox="0 0 24 24"><title>vector intersection</title><g fill="#000000" class="nc-icon-wrapper"><g transform="translate(0 0)"><path d="M3.14 1.354a1.794 1.794 0 0 0-1.65 1.102c-.128.287-.143.605-.136.916v1.274h1.291v-2h2V1.353H3.14zm4.214 0v1.292h2.291V1.354h-2.29zm5 0v1.292h2v2h1.291c-.002-.54.005-1.08-.004-1.62a1.798 1.798 0 0 0-1.189-1.57c-.3-.117-.624-.102-.94-.102h-1.158zm-11 6v2.291h1.291v-2.29h-1.29zm17 0v1.292h2v2h1.291c-.002-.58.004-1.161-.003-1.741a1.653 1.653 0 0 0-1.153-1.477c-.33-.108-.681-.065-1.023-.074h-1.112zm-17 5c.002.54-.005 1.08.004 1.62.038.726.567 1.39 1.263 1.594.344.112.707.069 1.062.077h.963v-1.29h-2v-2H1.353zm19 1v2.291h1.291v-2.29h-1.29zm-13 5c.002.58-.003 1.161.003 1.741a1.65 1.65 0 0 0 1.134 1.47c.337.115.695.071 1.043.08h1.112v-1.29h-2v-2H7.353zm13 0v2h-2v1.291c.58-.001 1.161.004 1.741-.002a1.65 1.65 0 0 0 1.476-1.153c.108-.332.065-.682.074-1.024v-1.111h-1.29zm-7 2v1.291h2.291v-1.29h-2.29z" data-color="color-2"></path><path d="M9 7.354a1.645 1.645 0 0 0-1.646 1.692v6.6l6.541-.001a1.789 1.789 0 0 0 1.75-1.834V7.354H9zm-.354 1.291h5.709v5.71h-5.71v-5.71z" fill="#ffffff"></path></g></g></svg>