<svg width="64" height="64" viewBox="0 0 24 24"><title>vector difference</title><g fill="#000000" class="nc-icon-wrapper"><g transform="translate(0 0)"><path d="M9 7.354a1.645 1.645 0 0 0-1.646 1.692v1.6h1.292v-2h2V7.353H9zm4.354 0v1.291h1v1h1.291v-2.29h-2.29zm1 5v2h-2v1.291h1.694a1.646 1.646 0 0 0 1.597-1.695v-1.596h-1.29zm-7 1v2.291h2.291v-1.29h-1v-1h-1.29z" data-color="color-2"></path><path d="M3 1.354a1.651 1.651 0 0 0-1.509.987c-.124.268-.144.566-.137.857v10.834a1.65 1.65 0 0 0 1.061 1.506c.334.139.698.102 1.05.107h1.18v-1.29h-2V2.645h11.71v2h1.29c-.001-.58.004-1.16-.002-1.74a1.653 1.653 0 0 0-1.134-1.47c-.334-.115-.688-.072-1.034-.08H3zm15.354 6v1.292h2v11.709H8.646v-2H7.354c.002.58-.003 1.16.003 1.74a1.65 1.65 0 0 0 1.115 1.464c.339.122.7.078 1.053.086h10.507a1.65 1.65 0 0 0 1.51-1.07c.138-.342.096-.714.103-1.074V8.968a1.653 1.653 0 0 0-1.06-1.507c-.334-.138-.698-.101-1.05-.106h-1.18z" fill="#ffffff"></path></g></g></svg>