<svg width="64" height="64" data-color="color-2" viewBox="0 0 24 24"><title>vector arrange below</title><g fill="#000000" class="nc-icon-wrapper"><g transform="translate(0 0)"><path d="M3 1.353a1.648 1.648 0 0 0-1.636 1.465c-.016.141-.009.283-.01.424v10.774a1.643 1.643 0 0 0 1.48 1.623c.136.013.272.006.408.008h1.405v-1.293h-2V2.647h11.707v2h1.293V2.968a1.642 1.642 0 0 0-1.489-1.607c-.134-.012-.268-.006-.402-.007H3z" data-color="color-2"></path><path d="M9 7.354a1.65 1.65 0 0 0-1.646 1.743v10.935a1.648 1.648 0 0 0 1.743 1.613h10.935a1.648 1.648 0 0 0 1.613-1.736V8.97a1.652 1.652 0 0 0-.826-1.397 1.688 1.688 0 0 0-.916-.218H9zm-.354 1.291h11.709v11.71H8.645V8.645z" fill="#ffffff"></path></g></g></svg>