<svg height="64" width="64" viewBox="0 0 20 20"><title>vertex_select</title><g fill="#000000" class="nc-icon-wrapper"><g transform="translate(0 0)"><path d="M7.496 3.5a.5.5 0 0 0-.353.146L5.149 5.64c-.491.472.235 1.198.707.707L7.703 4.5h8.293v8.293L13.289 15.5H5l.004-3.007-1-.002L3.997 16a.5.5 0 0 0 .5.5h9a.5.5 0 0 0 .354-.147l3-3a.5.5 0 0 0 .146-.353V4a.5.5 0 0 0-.5-.5z" data-color="color-2"></path><path d="M3.502 7.494a.5.5 0 0 0-.5.5v3a.5.5 0 0 0 .5.5h3a.5.5 0 0 0 .5-.5v-3a.5.5 0 0 0-.5-.5z" fill="#ffffff"></path></g></g></svg>