<svg height="64" width="64" viewBox="0 0 20 20"><title>view_pan</title><g fill="#ffffff" class="nc-icon-wrapper"><g transform="translate(0 0)"><path d="M10.983 1.998a1 1 0 0 0-.984 1.013v7H8.897l-.91-6.146a1 1 0 1 0-1.977.293l.99 6.67v2.183H6v-1.746L3.409 10.1a1 1 0 0 0-1.14 1.594l3.5 3.75c1.45 1.554 3.387 2.643 5.122 2.555a5.5 5.5 0 0 0 4.807-3.713l2.256-6.27a.75.75 0 1 0-1.41-.508l-.9 2.504h-.741l1.078-5.818a1 1 0 1 0-1.965-.363l-1.144 6.181h-.873v-7a1 1 0 0 0-1.016-1.013z" class="nc-icon-wrapper"></path></g></g></svg>