<svg height="64" width="64" data-color="color-2" viewBox="0 0 20 20"><title>view3d</title><g fill="#000000" class="nc-icon-wrapper"><g transform="translate(0 0)"><path d="M13.502 3a3.505 3.505 0 0 0-3.498 3.498 3.505 3.505 0 0 0 3.498 3.498A3.505 3.505 0 0 0 17 6.498 3.505 3.505 0 0 0 13.502 3zm0 .996a.5.5 0 1 1 0 1c-.835 0-1.502.667-1.502 1.502a.5.5 0 1 1-1 0 2.51 2.51 0 0 1 2.502-2.502z" fill="#ffffff"></path><path d="M7.504 6.992a.5.5 0 0 0-.492.399L6.654 9H4.5a.5.5 0 1 0 0 1h1.932l-.666 3H3.5a.5.5 0 1 0 0 1h2.043l-.531 2.39a.5.5 0 1 0 .976.22l.58-2.61h6.963l.477 2.59a.5.5 0 1 0 .984-.18L14.547 14H16.5a.5.5 0 1 0 0-1h-2.137l-.3-1.629a.5.5 0 1 0-.983.182L13.346 13H6.79l.666-3H9.5a.5.5 0 1 0 0-1H7.68l.308-1.39a.5.5 0 0 0-.484-.618z" data-color="color-2"></path></g></g></svg>