<svg width="64" height="64" viewBox="0 0 24 24"><title>virus outline</title><g fill="#000000" class="nc-icon-wrapper"><g transform="translate(0 0)"><path d="M10.5 9.354c-.256 0-.513.087-.713.248-.149.119-.268.275-.344.45a1.15 1.15 0 0 0 .61 1.504 1.15 1.15 0 0 0 1.354-.355 1.144 1.144 0 0 0-.014-1.419 1.166 1.166 0 0 0-.446-.339 1.155 1.155 0 0 0-.447-.09zm3.5 4a.649.649 0 0 0-.643.58.652.652 0 0 0 .575.71.655.655 0 0 0 .708-.557.653.653 0 0 0-.64-.732z" data-color="color-2"></path><path d="M12 .855a1.367 1.367 0 0 0-1.226.719c-.278.497-.221 1.167.17 1.588.116.135.266.233.41.332v1.893c-.561.072-1.12.183-1.652.381a7.366 7.366 0 0 0-1.306.641L6.994 4.401c.112-.273.186-.57.137-.865-.082-.65-.69-1.171-1.34-1.18-.638-.033-1.25.442-1.394 1.06-.144.542.091 1.146.544 1.469.269.2.61.277.94.26.07-.02.086.06.123.1L7.392 7.22a6.096 6.096 0 0 0-.908 1.067c-.168.25-.31.514-.453.778-.271-.109-.548-.236-.849-.21-.475.028-.954.287-1.166.726-.297.554-.178 1.305.3 1.72.279.238.638.334.99.404.08-.007.04.083.049.133a7.32 7.32 0 0 0 .219 1.865c.005.051.057.131-.03.126l-1.76.47c-.209-.186-.446-.351-.725-.409a1.501 1.501 0 0 0-.603-.013c-.257.074-.507.19-.694.387a1.404 1.404 0 0 0-.266 1.605c.242.502.804.815 1.357.776.216-.005.423-.092.61-.196.312-.182.534-.494.632-.84.002-.074.073-.075.13-.091l1.847-.502a7.345 7.345 0 0 0 1.165 1.615c.267.284.564.536.865.783l-1.326 2.411c-.304.034-.61.111-.855.303-.497.369-.743 1.088-.482 1.666.304.697 1.211 1.08 1.909.745.58-.284.924-.993.754-1.623-.037-.16-.118-.305-.193-.451l1.31-2.41c.507.21 1.03.388 1.572.482.515.099 1.041.115 1.565.108h.398c-.106.223-.232.436-.319.666-.088.291-.114.613 0 .9.192.558.76.96 1.352.935.645-.002 1.236-.517 1.342-1.151.102-.524-.144-1.08-.574-1.388l-.378-.305c.425-.19.856-.37 1.252-.618.279-.164.537-.358.796-.55l2.687 2.686c-.061.282-.087.58.007.859.106.356.36.668.702.822.557.28 1.294.142 1.7-.334.399-.475.434-1.21.083-1.72-.285-.434-.841-.648-1.348-.58-.074.019-.147.04-.221.06l-2.704-2.704c.37-.473.704-.977.944-1.53a7.6 7.6 0 0 0 .371-1.047h1.56c.158.245.35.478.617.607.6.318 1.41.105 1.786-.457.39-.565.295-1.423-.244-1.861-.46-.397-1.189-.45-1.688-.094-.2.128-.343.318-.472.514h-1.36c.008-.565-.013-1.132-.13-1.686a6.568 6.568 0 0 0-1.305-2.787c-.02-.046-.115-.098-.045-.138l1.67-1.67c.156.046.316.09.482.07.517-.022 1.028-.339 1.218-.83.26-.6.058-1.388-.51-1.735a1.454 1.454 0 0 0-1.474-.043c-.52.268-.781.907-.67 1.471.005.06.032.125.024.18l-1.682 1.68c-.47-.366-.973-.695-1.521-.933a6.813 6.813 0 0 0-1.993-.537c-.085.015-.062-.064-.064-.122v-1.78c.247-.16.482-.353.61-.624.332-.634.07-1.494-.556-1.839a1.401 1.401 0 0 0-.698-.177zm0 5.79a5.353 5.353 0 0 1 5.355 5.407 5.353 5.353 0 0 1-5.459 5.301A5.354 5.354 0 0 1 8.352 8.08 5.35 5.35 0 0 1 12 6.645z" fill="#ffffff"></path></g></g></svg>