<svg height="64" width="64" viewBox="0 0 20 20"><title>visual_selection_hidden</title><g fill="#000000" class="nc-icon-wrapper"><g transform="translate(0 0)"><path d="M6.5 4.497a.5.5 0 0 0-.361.854c1.232 1.274 2.634 3.152 5.359 3.152s4.127-1.878 5.36-3.152a.5.5 0 1 0-.72-.696c-1.305 1.35-2.365 2.848-4.64 2.848-2.275 0-3.335-1.497-4.64-2.848a.5.5 0 0 0-.358-.158z" fill="#ffffff"></path><path d="M3.5 7.503a.5.5 0 0 0-.461.697l3 7a.5.5 0 0 0 .934-.039l.92-2.763 2.763-.92a.5.5 0 0 0 .04-.934l-7-3a.501.501 0 0 0-.196-.041z" data-color="color-2"></path></g></g></svg>