<svg height="64" width="64" viewBox="0 0 20 20"><title>visual_selection_unselectable</title><g fill="#000000" class="nc-icon-wrapper"><g transform="translate(0 0)"><path d="M11.5 2.99c-2.725 0-4.127 1.878-5.36 3.152a.5.5 0 0 0 0 .696C7.373 8.113 8.775 9.99 11.5 9.99c2.725 0 4.126-1.879 5.36-3.156a.5.5 0 0 0 0-.694c-1.234-1.277-2.636-3.15-5.36-3.15zm0 1c1.375 0 2.5 1.125 2.5 2.5s-1.125 2.5-2.5 2.5A2.508 2.508 0 0 1 9 6.49c0-1.375 1.125-2.5 2.5-2.5zm0 1c-.834 0-1.5.666-1.5 1.5s.666 1.5 1.5 1.5 1.5-.666 1.5-1.5-.666-1.5-1.5-1.5z" fill="#ffffff"></path><path d="M3.502 8.99a.5.5 0 0 0-.461.697l3 7a.5.5 0 1 0 .918-.394l-2.508-5.852 5.852 2.508a.5.5 0 1 0 .394-.918l-7-3a.5.5 0 0 0-.195-.041z" data-color="color-2"></path></g></g></svg>