<svg height="64" width="64" viewBox="0 0 20 20"><title>visual_selection_disabled</title><g fill="#ffffff" class="nc-icon-wrapper"><g transform="translate(0 0)"><path d="M6.5 4.487a.5.5 0 0 0-.361.854c1.232 1.274 2.634 3.152 5.359 3.152s4.127-1.878 5.36-3.152a.5.5 0 1 0-.72-.696c-1.305 1.35-2.365 2.848-4.64 2.848-2.275 0-3.335-1.497-4.64-2.848a.5.5 0 0 0-.358-.158zm-3 3.006a.5.5 0 0 0-.461.697l3 7a.5.5 0 1 0 .918-.394L4.449 8.944l5.852 2.508a.5.5 0 1 0 .394-.918l-7-3a.5.5 0 0 0-.195-.041z" class="nc-icon-wrapper"></path></g></g></svg>