<svg height="64" width="64" viewBox="0 0 20 20"><title>visual_selection_selectable</title><g fill="#000000" class="nc-icon-wrapper"><g transform="translate(0 0)"><path d="M11.5 3C8.775 3 7.373 4.878 6.14 6.152a.5.5 0 0 0 0 .696C7.373 8.123 8.775 10 11.5 10c2.725 0 4.126-1.879 5.36-3.156a.5.5 0 0 0 0-.694C15.626 4.873 14.224 3 11.5 3zm0 1C12.875 4 14 5.125 14 6.5S12.875 9 11.5 9A2.508 2.508 0 0 1 9 6.5C9 5.125 10.125 4 11.5 4zm0 1c-.834 0-1.5.666-1.5 1.5S10.666 8 11.5 8 13 7.334 13 6.5 12.334 5 11.5 5z" fill="#ffffff"></path><path d="M3.502 9a.5.5 0 0 0-.461.697l3 7a.5.5 0 0 0 .934-.039l.92-2.764 2.763-.92a.5.5 0 0 0 .04-.933l-7-3A.5.5 0 0 0 3.502 9z" data-color="color-2"></path></g></g></svg>