<svg height="64" width="64" viewBox="0 0 20 20"><title>vpaint_hlt</title><g fill="#000000" class="nc-icon-wrapper"><g transform="translate(0 0)"><path d="M8 7v7c0 .5.25 1 1 1s1-.5 1-1v-1c0-.5.534-1 1-1a1 1 0 0 1 1 1v2.5a1.5 1.5 0 1 0 3 0V14a1 1 0 0 1 1-1 1 1 0 0 0 1-1V8.912a1.5 1.5 0 0 1-.5.088h-3A1.5 1.5 0 0 1 12 7.5V7z" data-color="color-2"></path><path d="M6.5 3a.5.5 0 0 1 .5.5V5h6v-.5a.5.5 0 0 1 .5-.5h3a.5.5 0 0 1 .5.5v3a.5.5 0 0 1-.5.5h-3a.5.5 0 0 1-.5-.5V6H7v.5a.5.5 0 0 1-.5.5h-3a.5.5 0 0 1-.5-.5v-3a.5.5 0 0 1 .5-.5zM6 4H4v2h2zm10 1h-2v2h2z" fill="#ffffff"></path></g></g></svg>