<svg width="64" height="64" viewBox="0 0 24 24"><title>waves</title><g fill="#ffffff" class="nc-icon-wrapper"><g transform="translate(0 0)"><path class="nc-icon-wrapper" d="M8.002 5.063c-.073.033.072.032 0 0zm0 .029c-.977.648-2.1 1.09-3.269 1.22a7.162 7.162 0 0 1-.893.041H2.354v1.293h1.738c1.314-.015 2.616-.37 3.778-.977L8 6.602c.23.118.46.236.698.337a8.358 8.358 0 0 0 7.22-.296L16 6.602c.286.15.576.292.876.414 1 .411 2.08.636 3.163.63h1.608V6.353h-1.729c-1.125-.013-2.238-.326-3.23-.851a8.151 8.151 0 0 1-.69-.41 7.318 7.318 0 0 1-3.544 1.195A7.205 7.205 0 0 1 8.8 5.548a7.6 7.6 0 0 1-.798-.456zm7.996 0c.072-.035-.072-.033 0 0zm-7.996 5.97c-.073.034.072.033 0 0zm0 .03c-.977.648-2.1 1.09-3.269 1.22a7.16 7.16 0 0 1-.893.041H2.354v1.293h1.738c1.314-.015 2.616-.37 3.778-.977l.13-.067c.23.118.46.236.698.337a8.359 8.359 0 0 0 7.22-.296l.082-.041c.286.15.576.292.876.414 1 .411 2.08.636 3.163.63h1.608v-1.293h-1.729c-1.125-.013-2.238-.326-3.23-.851a8.151 8.151 0 0 1-.69-.41 7.318 7.318 0 0 1-3.544 1.195 7.205 7.205 0 0 1-3.654-.739 7.6 7.6 0 0 1-.798-.456zm7.996 0c.072-.035-.072-.033 0 0zm-7.996 5.97c-.073.034.072.033 0 0zm0 .03c-.977.648-2.1 1.09-3.269 1.22a7.163 7.163 0 0 1-.893.041H2.354v1.293h1.738c1.314-.015 2.616-.37 3.778-.977l.13-.067c.23.118.46.236.698.337a8.358 8.358 0 0 0 7.22-.296l.082-.041c.286.15.576.292.876.414 1 .411 2.08.636 3.163.63h1.608v-1.293h-1.729c-1.125-.013-2.238-.326-3.23-.851a8.151 8.151 0 0 1-.69-.41 7.318 7.318 0 0 1-3.544 1.195 7.205 7.205 0 0 1-3.654-.739 7.6 7.6 0 0 1-.798-.456zm7.996 0c.072-.035-.072-.033 0 0z"></path></g></g></svg>