<svg width="64" height="64" viewBox="0 0 24 24"><title>weather lightning rainy</title><g fill="#000000" class="nc-icon-wrapper"><g transform="translate(0 0)"><path d="M9.737 11.355l-2.205 5.29h2.38l-.508 3.385 2.505-4.676H9.927l2-4h-2.19zm5.513 3.734c-.463.579-.898 1.182-1.27 1.824-.246.443-.474.904-.585 1.401-.092.42-.022.869.164 1.254.232.48.668.863 1.184 1.007a1.85 1.85 0 0 0 1.527-.237 1.978 1.978 0 0 0 .802-2.159c-.138-.501-.378-.968-.64-1.415a15.566 15.566 0 0 0-1.182-1.676z" data-color="color-2"></path><path d="M12 2.353c-1.02 0-2.038.257-2.932.748a6.253 6.253 0 0 0-2.539 2.607c-.11.21-.202.428-.295.645-.241 0-.483-.002-.723.026a4.586 4.586 0 0 0-1.996.697A4.676 4.676 0 0 0 1.84 8.929a4.625 4.625 0 0 0-.486 1.992 4.637 4.637 0 0 0 1.808 3.76c.1.074.202.15.308.215.122.077.243.165.386.195a.638.638 0 0 0 .586-.155.638.638 0 0 0 .204-.496.65.65 0 0 0-.312-.526c-.065-.04-.132-.08-.195-.123a3.257 3.257 0 0 1-.587-.495 3.4 3.4 0 0 1-.583-.854 3.39 3.39 0 0 1-.298-1.851 3.356 3.356 0 0 1 .992-2 3.356 3.356 0 0 1 3.13-.849 5.364 5.364 0 0 1 1.668-2.76 5.34 5.34 0 0 1 2.645-1.26 5.354 5.354 0 0 1 3.06.38 5.36 5.36 0 0 1 3.188 5.005v.54h1.692a2.35 2.35 0 0 1 2.245 1.81c.135.569.05 1.188-.238 1.697a2.364 2.364 0 0 1-2.086 1.2.65.65 0 0 0-.535.34.637.637 0 0 0-.003.605.65.65 0 0 0 .498.343c.14.012.282-.002.423-.012a3.64 3.64 0 0 0 2.165-.991 3.645 3.645 0 0 0 .914-3.88 3.215 3.215 0 0 0-.298-.618 2.98 2.98 0 0 0-.324-.466 3.637 3.637 0 0 0-2.815-1.319l-.818.048c-.023-.287-.04-.575-.088-.86a6.202 6.202 0 0 0-3.463-4.605A6.144 6.144 0 0 0 12 2.354zm-5.207 5.39c-.02.037.003.048.037.052.023-.05.005-.042-.037-.053z" fill="#ffffff"></path></g></g></svg>