<svg width="64" height="64" viewBox="0 0 24 24"><title>weather night</title><g fill="#000000" class="nc-icon-wrapper"><g transform="translate(0 0)"><path d="M6.738 4.045c-.179-.014-.332.09-.464.197a9.722 9.722 0 0 0-3.226 4.182 9.697 9.697 0 0 0-.38 5.986 9.61 9.61 0 0 0 2.656 4.54 9.572 9.572 0 0 0 4.776 2.522 9.627 9.627 0 0 0 6.128-.785 9.782 9.782 0 0 0 2.681-1.945c.37-.364.7-.767.992-1.195.148-.272.025-.602-.151-.83-.188-.239-.48-.458-.8-.409a10.322 10.322 0 0 1-6.093-1.337 10.44 10.44 0 0 1-4.431-5.072 10.423 10.423 0 0 1-.717-4.922c-.002-.32-.233-.59-.484-.763a.947.947 0 0 0-.488-.169zm-.392 1.762c.04.66.059 1.32.166 1.973a11.719 11.719 0 0 0 2.526 5.646 11.406 11.406 0 0 0 3.35 2.767 11.767 11.767 0 0 0 5.137 1.433l.677.04c-.486.43-.955.883-1.497 1.244A8.354 8.354 0 0 1 4.478 8.383c.37-.772.864-1.48 1.446-2.105l.422-.47z" fill="#ffffff"></path><path d="M13.5 1l-1.06 3-3.19.09 2.53 1.94-.91 3.06 2.63-1.81 2.63 1.81-.91-3.06 2.53-1.94L14.56 4zm5 8l-.69 1.95-2.06.05 1.64 1.25-.59 1.98 1.7-1.17 1.7 1.17-.59-1.98L21.25 11l-2.06-.05z" data-color="color-2"></path></g></g></svg>