<svg width="64" height="64" viewBox="0 0 24 24"><title>weather fog</title><g fill="#000000" class="nc-icon-wrapper"><g transform="translate(0 0)"><path d="M3 15.354a.65.65 0 0 0-.64.564.65.65 0 0 0 .464.703c.151.04.31.02.464.025h9.728a.651.651 0 0 0 .626-.58.65.65 0 0 0-.497-.695c-.149-.029-.3-.012-.451-.017H3zm13 0a.65.65 0 0 0-.64.564.65.65 0 0 0 .464.703c.151.04.309.02.464.025l4.745-.001a.65.65 0 0 0 .611-.612.653.653 0 0 0-.546-.671c-.168-.015-.337-.005-.506-.008H16zm-13 4a.65.65 0 0 0-.64.564.652.652 0 0 0 .48.707c.148.035.302.015.454.02.58 0 1.16.002 1.74 0a.65.65 0 0 0 .61-.612.65.65 0 0 0-.53-.669c-.155-.019-.312-.006-.468-.01H3zm5 0a.651.651 0 0 0-.64.564.65.65 0 0 0 .464.703c.151.04.31.019.464.024h12.729a.65.65 0 0 0 .626-.595.65.65 0 0 0-.513-.683c-.15-.024-.303-.009-.454-.013H8z" data-color="color-2"></path><path d="M12 3.353c-1.008 0-2.015.251-2.901.732A6.25 6.25 0 0 0 6.57 6.63c-.128.234-.232.479-.336.724-.19 0-.38-.003-.569.014a4.595 4.595 0 0 0-1.667.446c-.094.044-.189.086-.278.139a4.576 4.576 0 0 0-1.336 1.133c-.078.101-.15.207-.229.309l-.194.311c-.176.31-.319.642-.418.986-.037.13-.064.263-.098.393-.059.3-.09.604-.089.909l.066.652H2.71a3.346 3.346 0 0 1 1.927-3.712 3.354 3.354 0 0 1 2.155-.192 5.364 5.364 0 0 1 4.22-4.003 5.369 5.369 0 0 1 2.736.199 5.38 5.38 0 0 1 2.078 1.315 5.373 5.373 0 0 1 1.301 2.202c.158.525.233 1.075.226 1.623v.569h1.694a2.356 2.356 0 0 1 2.277 2h1.245a3.786 3.786 0 0 0-.994-2.175 3.526 3.526 0 0 0-2.589-1.116l-.813.048c-.025-.316-.045-.633-.103-.946a6.184 6.184 0 0 0-1.52-3.09 6.17 6.17 0 0 0-2.685-1.725A6.16 6.16 0 0 0 12 3.353zm-5.207 5.39c-.016.033-.003.049.032.05.018-.01.024-.052-.014-.046a10.034 10.034 0 0 1-.018-.005z" fill="#ffffff"></path></g></g></svg>