<svg width="64" height="64" viewBox="0 0 24 24"><title>weather rainy</title><g fill="#000000" class="nc-icon-wrapper"><g transform="translate(0 0)"><path d="M12 11.562c-.673.746-1.318 1.521-1.863 2.367-.235.346-.471.692-.69 1.05-.37.605-.706 1.237-.915 1.917a3.686 3.686 0 0 0-.168 1.37c.05.726.328 1.433.782 2.001a3.658 3.658 0 0 0 1.89 1.25 3.655 3.655 0 0 0 2.559-.239 3.671 3.671 0 0 0 1.607-1.536c.402-.733.543-1.61.371-2.429-.132-.646-.408-1.253-.725-1.828a18.758 18.758 0 0 0-.966-1.527c-.497-.776-1.079-1.493-1.69-2.181L12 11.562zm-.006 1.99c.248.33.497.66.73 1 .22.32.447.637.652.968.302.482.58.984.778 1.518.136.374.233.773.191 1.173a2.353 2.353 0 0 1-2.526 2.137 2.353 2.353 0 0 1-1.598-.803 2.33 2.33 0 0 1-.559-1.795c.055-.405.2-.79.37-1.159.31-.663.71-1.279 1.132-1.876.27-.393.552-.776.83-1.164z" data-color="color-2"></path><path d="M12 2.383c-1.02 0-2.038.257-2.932.747a6.253 6.253 0 0 0-2.539 2.607c-.11.21-.202.428-.295.646-.235 0-.472-.003-.707.024a4.637 4.637 0 0 0-2.43.997 4.643 4.643 0 0 0 .209 7.409 4.63 4.63 0 0 0 2.405.854c.12.005.242.014.362.004a.655.655 0 0 0 .546-.459.646.646 0 0 0-.514-.82c-.101-.016-.205-.006-.307-.015a3.348 3.348 0 0 1-3.148-3.51 3.346 3.346 0 0 1 2.684-3.126c.48-.096.981-.085 1.459.024a5.346 5.346 0 0 1 4.01-3.954 3.92 3.92 0 0 1 .432-.077 5.325 5.325 0 0 1 3.898.953 5.37 5.37 0 0 1 1.902 2.517 5.37 5.37 0 0 1 .319 1.896v.576h1.692a2.35 2.35 0 0 1 2.245 1.81c.135.569.051 1.188-.238 1.697a2.364 2.364 0 0 1-2.126 1.2h-.951a.658.658 0 0 0-.579.416.64.64 0 0 0 .126.663c.127.143.32.222.511.214l1.037-.001a3.666 3.666 0 0 0 3.221-2.08 3.629 3.629 0 0 0-.164-3.43 2.962 2.962 0 0 0-.321-.46 3.637 3.637 0 0 0-2.815-1.319l-.818.05c-.023-.288-.04-.576-.088-.86a6.132 6.132 0 0 0-1.465-3.097c-.044-.055-.096-.103-.143-.157a6.146 6.146 0 0 0-2.512-1.617A6.158 6.158 0 0 0 12 2.383zM6.793 7.766c-.021.039 0 .05.037.052.022-.05.005-.042-.037-.052z" fill="#ffffff"></path></g></g></svg>