<svg width="64" height="64" viewBox="0 0 24 24"><title>weather partly snowy</title><g fill="#000000" class="nc-icon-wrapper"><g transform="translate(0 0)"><path d="M12.27 17.383a.365.365 0 0 0-.322.159.343.343 0 0 0-.056.117l-.565 2.18-1.569-1.608a.402.402 0 0 0-.545-.01.43.43 0 0 0-.086.406.36.36 0 0 0 .093.141l1.577 1.58-2.168.566a.354.354 0 0 0-.185.122.358.358 0 0 0 .077.532c.091.061.21.079.314.047l2.173-.578-.605 2.168c-.04.15.024.319.152.405.1.07.235.078.345.03a.353.353 0 0 0 .215-.258l.569-2.157 1.605 1.605c.09.086.226.116.345.084a.356.356 0 0 0 .24-.2.364.364 0 0 0-.045-.382c-.047-.05-.095-.097-.143-.145l-1.48-1.493 2.175-.567a.347.347 0 0 0 .23-.213.457.457 0 0 0 .028-.228.422.422 0 0 0-.513-.25L11.993 20l.605-2.166a.371.371 0 0 0-.02-.244.343.343 0 0 0-.108-.134.373.373 0 0 0-.2-.073z" data-color="color-2"></path><path d="M14.159 1.351l-1.292.68a7.27 7.27 0 0 1 1.751.798l-.46-1.478zm-8.912.931l-.056 1.454c.47-.43.992-.802 1.552-1.105l-1.496-.349zm-.056 1.454c-.005.056-.004.116-.001.023v-.023zm5.419.648a5.182 5.182 0 0 0-3.913 1.693c-1.002 1.107-1.495 2.664-1.28 4.146a5.286 5.286 0 0 0 1.23 2.709l.369.452c-.417.003-.834-.007-1.25.008a3.641 3.641 0 0 0-3.285 4.592 3.666 3.666 0 0 0 2.245 2.462c.442.162.918.25 1.39.222a.579.579 0 0 0 .503-.455c.09-.314-.068-.715-.403-.8-.208-.051-.425-.015-.634-.065a2.36 2.36 0 0 1-1.784-1.48A2.365 2.365 0 0 1 4.2 15.51a2.365 2.365 0 0 1 1.885-.834h1.579a4.343 4.343 0 0 1 3.819-3.968 4.352 4.352 0 0 1 4.866 4.098c.011.517.002 1.035.005 1.552v.318c.905 0 1.81-.002 2.715.002.589.02 1.128.469 1.25 1.045a1.359 1.359 0 0 1-.537 1.407c-.262.197-.595.27-.919.254-.64.002-1.282-.002-1.922.002a.58.58 0 0 0-.546.411c-.112.308.018.721.344.836.205.068.424.034.636.043.587-.002 1.174.004 1.76-.004a2.654 2.654 0 0 0 2.19-1.382 2.655 2.655 0 0 0-.109-2.707 2.647 2.647 0 0 0-2.2-1.198 2.733 2.733 0 0 0-1.05.193l-.32.113c-.003-.519.019-1.042-.071-1.556a5.581 5.581 0 0 0-1.956-3.425c-.035-.037-.106-.061-.074-.122a5.27 5.27 0 0 0-.342-3.165 5.06 5.06 0 0 0-2.595-2.599 5.146 5.146 0 0 0-1.998-.44zm-.082 1.278A3.84 3.84 0 0 1 13.32 6.89a3.89 3.89 0 0 1 1.04 2.59l.019.399c-.461-.164-.922-.339-1.408-.413a5.688 5.688 0 0 0-4.104.858 5.689 5.689 0 0 0-1.32 1.225l-.203.243c-.21-.399-.44-.793-.551-1.234a3.876 3.876 0 0 1 .436-3.068 3.855 3.855 0 0 1 3.3-1.83zm7.609 2.131c.033.023.07.043.013.008l-.007-.004zm.049.031c.068.313.14.627.172.945.021.324.027.65.016.974l1.048-1.14-1.236-.779zM2.652 9.315l-1.045 1.142 1.232.78a7.263 7.263 0 0 1-.187-1.922z" fill="#ffffff"></path></g></g></svg>