<svg width="64" height="64" viewBox="0 0 24 24"><title>weather cloudy arrow right</title><g fill="#000000" class="nc-icon-wrapper"><g transform="translate(0 0)"><path d="M19.354 16.854v1.5h-17v1.293h17v1.5L21.501 19l-2.147-2.146z" data-color="color-2"></path><path d="M12 3.354a5.149 5.149 0 0 0-4.99 3.883c-.02.067-.037.134-.056.201l-.963-.083A3.64 3.64 0 0 0 2.553 9.82a3.646 3.646 0 0 0 2.943 4.791c.372.053.747.03 1.12.034h12.435a2.645 2.645 0 0 0 2.569-3.015 2.655 2.655 0 0 0-1.25-1.892 2.653 2.653 0 0 0-2.587-.089c-.263.148-.513.318-.77.476-.012-.015.005-.078.004-.11.042-.513.088-1.025.127-1.538A5.146 5.146 0 0 0 12 3.354zm0 1.292a3.85 3.85 0 0 1 3.854 3.78c.002.74 0 1.48 0 2.22 1.067 0 2.132-.002 3.198 0 .52.013 1.011.358 1.203.841.196.472.096 1.05-.252 1.424a1.37 1.37 0 0 1-1.077.443H5.951a2.356 2.356 0 0 1-.426-4.66c.326-.071.66-.043.991-.049h1.63a3.939 3.939 0 0 1 .284-1.603 3.867 3.867 0 0 1 2.311-2.186c.404-.14.832-.21 1.26-.21z" fill="#ffffff"></path></g></g></svg>