<svg width="64" height="64" viewBox="0 0 24 24"><title>weather sunny alert</title><g fill="#000000" class="nc-icon-wrapper"><g transform="translate(0 0)"><path d="M19.354 7.354v5.291h1.291v-5.29h-1.29zm0 8v1.292h1.291v-1.292h-1.29z" data-color="color-2"></path><path d="M12 2.62l-1.53 2.188a7.322 7.322 0 0 1 3.06 0L12 2.619zm1.53 2.188c.017.027.017.022 0 0zm-3.06 0c-.011.013-.025.038 0 0zM6.543 7.086l-2.666.224 1.13 2.419c.306-.982.849-1.881 1.536-2.643zM12 7.354a4.644 4.644 0 0 0-.693 9.24 4.648 4.648 0 0 0 5.258-3.73 4.651 4.651 0 0 0-3.594-5.408A4.675 4.675 0 0 0 12 7.354zm0 1.292a3.353 3.353 0 0 1 3.346 3.591A3.355 3.355 0 1 1 12 8.646zm-6.978 5.632l-1.127 2.414 2.651.237a7.488 7.488 0 0 1-1.524-2.651zm8.49 4.902c-.907.21-1.858.23-2.774.059-.076-.003-.247-.07-.267-.04l1.527 2.18 1.515-2.199z" fill="#ffffff"></path></g></g></svg>