<svg width="64" height="64" viewBox="0 0 24 24"><title>weather windy variant</title><g fill="#000000" class="nc-icon-wrapper"><g transform="translate(0 0)"><path d="M4 16.354a.654.654 0 0 0-.646.614.653.653 0 0 0 .658.679H18.01a1.348 1.348 0 0 1 1.338 1.215 1.354 1.354 0 0 1-1.09 1.468c-.262.05-.538.023-.784-.08a1.323 1.323 0 0 1-.451-.306.647.647 0 0 0-.56-.159.625.625 0 0 0-.444.336.66.66 0 0 0 .037.649c.048.08.121.141.188.205a2.64 2.64 0 0 0 3.224.227 2.663 2.663 0 0 0 1.075-1.463c.136-.469.14-.975.009-1.446a2.662 2.662 0 0 0-1.167-1.547 2.64 2.64 0 0 0-1.408-.392H4z" data-color="color-2"></path><path d="M12 2.355a5.149 5.149 0 0 0-4.99 3.882c-.02.067-.037.135-.056.202l-.963-.084a3.633 3.633 0 0 0-2.72 1.233 3.643 3.643 0 0 0 .311 5.14c.67.6 1.571.934 2.472.918H19.05a2.645 2.645 0 0 0 2.569-3.015 2.655 2.655 0 0 0-1.25-1.893 2.653 2.653 0 0 0-2.587-.089c-.263.148-.513.318-.77.476-.012-.014.005-.077.004-.11.042-.512.088-1.025.127-1.537A5.146 5.146 0 0 0 12 2.355zm0 1.29a3.85 3.85 0 0 1 3.851 3.681c.008.476.002.952.004 1.428v.891c1.066 0 2.131-.001 3.197.001a1.356 1.356 0 0 1 .86 2.358 1.376 1.376 0 0 1-.993.35H5.954a2.357 2.357 0 0 1-1.87-.984 2.365 2.365 0 0 1-.332-2.071 2.36 2.36 0 0 1 1.511-1.536c.289-.099.595-.125.898-.117h1.984a3.935 3.935 0 0 1 .33-1.712 3.865 3.865 0 0 1 2.446-2.136c.35-.101.715-.153 1.08-.153z" fill="#ffffff"></path></g></g></svg>