<svg width="64" height="64" viewBox="0 0 24 24"><title>weather night partly cloudy</title><g fill="#ffffff" class="nc-icon-wrapper"><g transform="translate(0 0)"><path d="M12.71 1.354c-.18 0-.298.156-.436.25A7.21 7.21 0 0 0 9.948 4.77a7.256 7.256 0 0 0 .14 5.376c.073.167.151.331.227.497-.379.157-.76.317-1.101.547a5.124 5.124 0 0 0-2.207 3.055l-.053.193c-.329-.027-.657-.06-.986-.083a3.637 3.637 0 0 0-2.78 1.329 3.638 3.638 0 0 0-.774 2.971c.2 1.138.981 2.15 2.027 2.64a3.723 3.723 0 0 0 1.723.35c4.302-.001 8.603 0 12.904-.002a2.653 2.653 0 0 0 2.21-1.3 2.65 2.65 0 0 0 0-2.688 2.654 2.654 0 0 0-2.21-1.3 2.638 2.638 0 0 0-1.569.463l-.491.31c.045-.552.094-1.104.137-1.656a3.217 3.217 0 0 0-.067-.766l-.035-.193c.495-.043.992-.098 1.473-.228 1.26-.32 2.423-1 3.33-1.93.283-.274.528-.586.759-.903.11-.209-.02-.448-.165-.603-.128-.142-.316-.246-.512-.21a7.983 7.983 0 0 1-4.233-.822c-1.786-.902-3.216-2.495-3.894-4.38a7.943 7.943 0 0 1-.432-3.508c-.03-.254-.25-.448-.476-.54a.534.534 0 0 0-.183-.036zm-.68 2.186c.13.662.227 1.333.439 1.976.19.6.447 1.179.748 1.732a9.266 9.266 0 0 0 1.708 2.175 9.017 9.017 0 0 0 4.726 2.394l.8.15c-.374.213-.74.442-1.122.64a5.992 5.992 0 0 1-2.699.612c-.043-.048-.07-.124-.107-.182a5.166 5.166 0 0 0-4.73-2.683c-.048-.011-.125.028-.146-.03-.547-.912-.864-1.968-.861-3.034a5.89 5.89 0 0 1 .848-3.06l.397-.69zM12 11.645c.3.004.6.042.891.115.26.084.536.132.768.284.348.145.65.38.933.626a2.6 2.6 0 0 1 .342.353c.19.224.361.465.481.734.217.348.327.75.395 1.151.069.44.038.885.045 1.327v1.41c1.072.002 2.143-.002 3.215.002a1.357 1.357 0 0 1 .633 2.512c-.252.16-.556.208-.85.196L5.94 20.354a2.358 2.358 0 0 1-2.01-1.231 2.369 2.369 0 0 1 .137-2.47 2.36 2.36 0 0 1 1.985-1.008h2.094a3.835 3.835 0 0 1 .556-2.127 3.925 3.925 0 0 1 2.793-1.827c.167-.026.336-.046.505-.046zm1.66.399c-.107-.052.085.047 0 0z" class="nc-icon-wrapper"></path></g></g></svg>