<svg width="64" height="64" viewBox="0 0 24 24"><title>weather partly rainy</title><g fill="#000000" class="nc-icon-wrapper"><g transform="translate(0 0)"><path d="M12 16.198c-.417.51-.82 1.03-1.208 1.562-.387.567-.752 1.153-1.04 1.777-.17.373-.317.762-.376 1.17-.043.306-.019.621.054.922a2.652 2.652 0 0 0 2.664 2.015 2.65 2.65 0 0 0 2.484-2.047c.075-.33.092-.676.026-1.009-.084-.439-.257-.855-.453-1.255a13.229 13.229 0 0 0-.953-1.587A35.823 35.823 0 0 0 12 16.198zm0 2.06c.293.453.592.901.85 1.374.17.313.333.634.437.975.048.164.08.335.063.506a1.352 1.352 0 0 1-1.707 1.194 1.356 1.356 0 0 1-.876-.745 1.329 1.329 0 0 1-.115-.667c.036-.286.149-.556.269-.816.265-.562.601-1.086.94-1.606l.139-.215z" data-color="color-2"></path><path d="M14.158 1.33c-.43.226-.861.45-1.292.675.461.143.914.317 1.334.558.133.063.318.2.413.229l-.455-1.461zm-8.911.931l-.056 1.454c.472-.43.996-.804 1.557-1.108L5.247 2.26zm-.056 1.454c-.005.058-.004.11-.001.02v-.02zm5.419.639a5.182 5.182 0 0 0-3.913 1.693c-.993 1.098-1.489 2.639-1.285 4.11a5.226 5.226 0 0 0 1.23 2.736c.125.154.25.308.377.461-.416.003-.832-.007-1.247.007a3.65 3.65 0 0 0-3.339 4.396 3.664 3.664 0 0 0 2.108 2.584c.508.226 1.067.32 1.62.305.31-.003.618.004.927-.005a.577.577 0 0 0 .522-.422c.107-.314-.036-.728-.371-.83-.203-.057-.415-.027-.622-.035-.32-.006-.64.017-.958-.024a2.36 2.36 0 0 1-1.845-1.452 2.365 2.365 0 0 1 .368-2.376 2.365 2.365 0 0 1 1.903-.856h1.579a4.35 4.35 0 0 1 3.815-3.967 4.352 4.352 0 0 1 4.87 4.097c.011.517.002 1.034.005 1.552v.318c.905 0 1.81-.003 2.715.001.589.02 1.128.47 1.25 1.046.13.53-.099 1.124-.554 1.426-.26.182-.58.25-.893.235-.644.001-1.288-.002-1.931.002a.58.58 0 0 0-.546.411c-.112.308.018.721.344.836.205.068.424.034.636.043.587-.003 1.174.004 1.76-.004a2.654 2.654 0 0 0 2.19-1.382 2.65 2.65 0 0 0-.08-2.658 2.654 2.654 0 0 0-2.228-1.247c-.376-.009-.743.084-1.092.217l-.28.098c-.002-.545.02-1.094-.083-1.632a5.663 5.663 0 0 0-1.938-3.366c-.03-.038-.109-.059-.08-.117a5.232 5.232 0 0 0-.243-2.922 5.08 5.08 0 0 0-2.54-2.768 5.163 5.163 0 0 0-2.151-.511zm-.126 1.283a3.88 3.88 0 0 1 3.24 1.745 3.9 3.9 0 0 1 .637 2.086l.017.382c-.46-.164-.922-.339-1.408-.413a5.674 5.674 0 0 0-3.808.678 5.765 5.765 0 0 0-1.608 1.393l-.212.253c-.21-.399-.438-.792-.55-1.232a3.848 3.848 0 0 1 .313-2.848A3.838 3.838 0 0 1 9.32 5.825c.375-.123.77-.186 1.165-.188zm7.7 2.156c.07.316.141.634.174.956.021.32.027.642.016.964l1.048-1.14-1.238-.78zM2.652 9.291l-1.045 1.136 1.232.78a7.194 7.194 0 0 1-.187-1.916z" fill="#ffffff"></path></g></g></svg>