<svg width="64" height="64" viewBox="0 0 24 24"><title>weather cloudy alert</title><g fill="#000000" class="nc-icon-wrapper"><g transform="translate(0 0)"><path d="M11.355 8.355v3.29h1.29v-3.29h-1.29zm0 6v1.29h1.29v-1.29h-1.29z" data-color="color-2"></path><path d="M12 5.355a6.096 6.096 0 0 0-3.863 1.374A6.323 6.323 0 0 0 6.261 9.29c-.01.054-.04.076-.094.063a4.722 4.722 0 0 0-1.948.355 4.668 4.668 0 0 0-2.63 2.829 4.656 4.656 0 0 0 .355 3.728 4.667 4.667 0 0 0 2.966 2.25c.43.108.874.137 1.316.13l12.845-.001a3.642 3.642 0 0 0 2.627-1.194 3.64 3.64 0 0 0 .358-4.433 3.64 3.64 0 0 0-2.45-1.613 3.294 3.294 0 0 0-.852-.035l-.58.034c-.031-.465-.076-.931-.196-1.383a6.216 6.216 0 0 0-2.627-3.673A6.13 6.13 0 0 0 12 5.355zm0 1.29a5.346 5.346 0 0 1 3.468 1.274 5.348 5.348 0 0 1 1.794 3.083c.087.43.098.87.093 1.307v.336c.583.002 1.167-.003 1.751.002a2.358 2.358 0 0 1 1.951 1.205 2.369 2.369 0 0 1-.054 2.388 2.356 2.356 0 0 1-1.882 1.111c-.497.008-.994.002-1.492.004l-11.694-.001a3.354 3.354 0 0 1-1.773-6.161 3.345 3.345 0 0 1 2.63-.45A5.375 5.375 0 0 1 9.175 7.45a5.295 5.295 0 0 1 2.206-.766c.205-.03.412-.037.619-.039zm-5.208 4.098c-.043.113.136.001 0 0z" fill="#ffffff"></path></g></g></svg>