<svg width="64" height="64" viewBox="0 0 24 24"><title>weather lightning</title><g fill="#000000" class="nc-icon-wrapper"><g transform="translate(0 0)"><path d="M12.236 11.354l-2.205 5.293h2.38c-.168 1.127-.338 2.254-.507 3.38l2.504-4.673h-1.983l2.002-4h-2.19z" data-color="color-2"></path><path d="M12 2.353c-1.02 0-2.038.257-2.932.748a6.253 6.253 0 0 0-2.539 2.607c-.11.21-.202.428-.295.645-.241 0-.483-.002-.723.026a4.586 4.586 0 0 0-1.996.697A4.676 4.676 0 0 0 1.84 8.929a4.625 4.625 0 0 0-.486 1.992 4.626 4.626 0 0 0 .937 2.874 4.66 4.66 0 0 0 1.638 1.365 4.625 4.625 0 0 0 1.992.486h1.096a.65.65 0 0 0 .55-.34.637.637 0 0 0 .004-.605.65.65 0 0 0-.498-.343c-.096-.008-.193-.003-.29-.005-.288 0-.576.002-.864 0a3.346 3.346 0 0 1-3.27-3.499 3.346 3.346 0 0 1 2.616-3.127 3.372 3.372 0 0 1 1.516.012c.031.004.018-.064.035-.086a5.366 5.366 0 0 1 1.73-2.744 5.341 5.341 0 0 1 2.624-1.197 5.35 5.35 0 0 1 6.119 4.448c.05.314.068.632.065.95v.536h1.692a2.35 2.35 0 0 1 2.245 1.81c.135.57.051 1.189-.238 1.698a2.364 2.364 0 0 1-2.126 1.2h-.951a.65.65 0 0 0-.543.34.637.637 0 0 0-.004.605.65.65 0 0 0 .498.343c.097.008.194.003.29.004.293 0 .585.002.877 0a3.654 3.654 0 0 0 3.483-2.933c.126-.639.08-1.31-.137-1.923a3.267 3.267 0 0 0-.308-.65 2.98 2.98 0 0 0-.325-.465 3.637 3.637 0 0 0-2.815-1.319l-.818.048c-.023-.287-.04-.575-.088-.86a6.202 6.202 0 0 0-3.463-4.605A6.144 6.144 0 0 0 12 2.354zm-5.207 5.39c-.02.037.003.048.037.052.023-.05.005-.042-.037-.053z" fill="#ffffff"></path></g></g></svg>