<svg width="64" height="64" viewBox="0 0 24 24"><title>weather partly lightning</title><g fill="#000000" class="nc-icon-wrapper"><g transform="translate(0 0)"><path d="M11.8 15h2.45l-1.64 3.27h1.64L11.18 24l.62-4.09H9.75" data-color="color-2"></path><path d="M14.158 1.33c-.43.226-.861.45-1.292.675.461.143.914.317 1.334.558.133.063.318.2.413.229l-.455-1.461zm-8.911.931l-.056 1.454c.472-.43.996-.804 1.557-1.108L5.247 2.26zm-.056 1.454c-.005.058-.004.11-.001.02v-.02zm5.419.639a5.182 5.182 0 0 0-3.913 1.693c-.993 1.098-1.489 2.639-1.285 4.11a5.226 5.226 0 0 0 1.23 2.736c.125.154.25.308.377.461-.416.003-.832-.007-1.247.007a3.65 3.65 0 0 0-3.339 4.396 3.664 3.664 0 0 0 2.108 2.584c.508.226 1.067.32 1.62.305.31-.003.618.004.927-.005a.577.577 0 0 0 .522-.422c.107-.314-.036-.728-.371-.83-.203-.057-.415-.027-.622-.035-.32-.006-.64.017-.958-.024a2.36 2.36 0 0 1-1.845-1.452 2.365 2.365 0 0 1 .368-2.376 2.365 2.365 0 0 1 1.903-.856h1.579a4.35 4.35 0 0 1 3.815-3.967 4.352 4.352 0 0 1 4.87 4.097c.011.517.002 1.034.005 1.552v.318c.905 0 1.81-.003 2.715.001.589.02 1.128.47 1.25 1.046.13.53-.099 1.124-.554 1.426-.26.182-.58.25-.893.235-.644.001-1.288-.002-1.931.002a.58.58 0 0 0-.546.411c-.112.308.018.721.344.836.205.068.424.034.636.043.587-.003 1.174.004 1.76-.004a2.654 2.654 0 0 0 2.19-1.382 2.65 2.65 0 0 0-.08-2.658 2.654 2.654 0 0 0-2.228-1.247c-.376-.009-.743.084-1.092.217l-.28.098c-.002-.541.02-1.087-.08-1.622a5.678 5.678 0 0 0-1.942-3.376c-.03-.038-.108-.06-.08-.118a5.23 5.23 0 0 0-.28-3.02 5.074 5.074 0 0 0-2.578-2.705 5.156 5.156 0 0 0-2.075-.475zm-.08 1.285a3.875 3.875 0 0 1 3.138 1.658c.44.631.678 1.394.692 2.162l.019.391c-.461-.164-.922-.339-1.409-.413a5.683 5.683 0 0 0-4.041.82c-.532.34-.996.779-1.39 1.27l-.197.235c-.209-.399-.438-.793-.55-1.233a3.849 3.849 0 0 1 .312-2.845 3.847 3.847 0 0 1 3.425-2.045zm7.654 2.154c.07.316.141.634.174.956.021.32.027.642.016.964l1.048-1.14-1.238-.78zM2.652 9.291l-1.045 1.136 1.232.779a7.194 7.194 0 0 1-.187-1.915z" fill="#ffffff"></path></g></g></svg>