<svg width="64" height="64" viewBox="0 0 24 24"><title>weather tornado</title><g fill="#ffffff" class="nc-icon-wrapper"><g transform="translate(0 0)"><path class="nc-icon-wrapper" d="M3 3.353a.65.65 0 0 0-.568.34.638.638 0 0 0 0 .613.65.65 0 0 0 .58.34h17.997a.65.65 0 0 0 .559-.34.638.638 0 0 0 0-.612.65.65 0 0 0-.58-.34H3.002zm2 4a.65.65 0 0 0-.568.34.638.638 0 0 0 0 .613.65.65 0 0 0 .58.34h13.997a.65.65 0 0 0 .559-.34.638.638 0 0 0 0-.612.65.65 0 0 0-.58-.34H5.002zm5 4a.65.65 0 0 0-.568.34.638.638 0 0 0 0 .613.65.65 0 0 0 .58.34h9.996a.65.65 0 0 0 .56-.34.638.638 0 0 0 0-.612.65.65 0 0 0-.58-.34H10zm-1 4a.65.65 0 0 0-.568.34.638.638 0 0 0 0 .613.65.65 0 0 0 .58.34h6.005a.65.65 0 0 0 .55-.34.638.638 0 0 0 0-.612.65.65 0 0 0-.579-.34H9zm1 4a.65.65 0 0 0-.568.34.638.638 0 0 0 0 .613.65.65 0 0 0 .58.34h2.005a.65.65 0 0 0 .55-.34.638.638 0 0 0 0-.612.65.65 0 0 0-.579-.34H10z"></path></g></g></svg>