<svg width="64" height="64" viewBox="0 0 24 24"><title>weather sunny off</title><g fill="#ffffff" class="nc-icon-wrapper"><g transform="translate(0 0)"><path class="nc-icon-wrapper" d="M2.39 2.23l-.779.772L5.76 7.146l-1.885.165 1.133 2.425c.155-.494.361-.973.627-1.418-.005.013.027-.053.04-.07.088-.147.212-.268.305-.412l.192-.277 1.93 1.933c-.131.231-.267.46-.37.706a4.54 4.54 0 0 0-.368 2.118c.06.9.392 1.78.94 2.496a4.67 4.67 0 0 0 2.304 1.62c.855.271 1.79.288 2.651.032a4.881 4.881 0 0 0 1.097-.48l.152-.086 6.332 6.332.77-.769L2.39 2.231zm9.61.39l-1.533 2.193a7.166 7.166 0 0 1 3.066 0C13.023 4.08 12.511 3.35 12 2.619zm5.447 4.458a7.184 7.184 0 0 1 1.532 2.664l1.136-2.431-2.668-.233zM12 7.354c-.272 0-.533.085-.797.14l1.182 1.17a3.405 3.405 0 0 1 2.95 2.951l1.175 1.186c.058-.287.149-.571.136-.867a4.628 4.628 0 0 0-.74-2.445 4.676 4.676 0 0 0-2.204-1.812A4.621 4.621 0 0 0 12 7.354zm-2.984 3.05l4.58 4.58c-.233.077-.464.158-.698.23-.35.106-.718.158-1.084.135a3.35 3.35 0 0 1-3.103-2.69 3.119 3.119 0 0 1 .01-1.312c.062-.272.161-.534.247-.8l.048-.143zm9.949 3.848a8.219 8.219 0 0 1-.291.723l1.18 1.18-.89-1.903zm-13.941.022l-1.13 2.418 2.661.236a7.211 7.211 0 0 1-.968-1.347 7.232 7.232 0 0 1-.563-1.307zm1.531 2.654c.043.008.09.008.135.014-.043-.008-.09-.01-.135-.014zm7.04 2.13l-.079.116c.016-.01.025-.035.039-.051l.043-.064zm-.079.116a6.658 6.658 0 0 1-3.06.002l1.542 2.203 1.518-2.205z"></path></g></g></svg>