<svg width="64" height="64" viewBox="0 0 24 24"><title>weather partly cloudy</title><g fill="#ffffff" class="nc-icon-wrapper"><g transform="translate(0 0)"><path class="nc-icon-wrapper" d="M14.158 2.33l-1.293.676a7.427 7.427 0 0 1 1.752.805l-.459-1.48zm.459 1.48c.011.034.02.07.033.102l-.031-.101zm-9.371-.548L5.19 4.715a7.817 7.817 0 0 1 1.557-1.108l-1.502-.345zm1.502.345l.115.026-.113-.027zm3.86 1.747a5.172 5.172 0 0 0-2.925.852 5.11 5.11 0 0 0-1.859 2.198 5.06 5.06 0 0 0-.455 2.21 5.2 5.2 0 0 0 1.204 3.198l.444.542c-.368 0-.737-.002-1.105 0a3.651 3.651 0 0 0-3.5 2.996A3.64 3.64 0 0 0 4.45 21.3c.504.24 1.064.356 1.622.346h12.952a2.638 2.638 0 0 0 1.663-.61 2.646 2.646 0 0 0 .54-3.461 2.66 2.66 0 0 0-1.6-1.145 2.669 2.669 0 0 0-1.562.092l-.42.148c0-.275.002-.55-.002-.824a5.656 5.656 0 0 0-2.044-4.192l-.065-.056c.042-.234.083-.469.099-.706a5.203 5.203 0 0 0-.791-3.168 5.117 5.117 0 0 0-1.466-1.505 5.261 5.261 0 0 0-2.77-.865zm-.03 1.285a3.86 3.86 0 0 1 2.257.789 3.831 3.831 0 0 1 1.414 2.162c.068.274.1.555.11.836l.02.424c-.228-.08-.454-.164-.684-.238a3.683 3.683 0 0 0-.376-.1 5.648 5.648 0 0 0-5.695 1.916l-.282.334c-.103-.199-.21-.395-.31-.596a3.858 3.858 0 0 1-.31-2.41c.043-.155.07-.315.124-.467a3.998 3.998 0 0 1 .68-1.24 3.842 3.842 0 0 1 3.052-1.41zm7.607 2.154c.07.298.126.598.169.9.024.34.032.679.02 1.018l1.048-1.139-1.237-.779zM2.652 10.291L1.61 11.428l1.225.775a7.279 7.279 0 0 1-.182-1.912zM12 11.647a4.352 4.352 0 0 1 3.942 2.5c.28.595.42 1.254.412 1.91v1.59h2.679a1.353 1.353 0 0 1 .61 2.546 1.378 1.378 0 0 1-.7.16H5.978A2.348 2.348 0 0 1 3.7 18.5a2.37 2.37 0 0 1 .23-1.623 2.364 2.364 0 0 1 2.153-1.23h1.581a4.357 4.357 0 0 1 3.266-3.865c.186-.05.378-.078.568-.106.167-.02.335-.03.502-.03z"></path></g></g></svg>