<svg width="64" height="64" viewBox="0 0 24 24"><title>weather snowy rainy</title><g fill="#000000" class="nc-icon-wrapper"><g transform="translate(0 0)"><path d="M12 2.353c-1.02 0-2.038.257-2.932.748a6.253 6.253 0 0 0-2.539 2.607c-.11.21-.202.428-.295.645-.241 0-.483-.002-.723.026a4.586 4.586 0 0 0-1.996.697A4.676 4.676 0 0 0 1.84 8.929a4.625 4.625 0 0 0-.397 2.973c.063.327.162.647.3.951.055.11.102.226.16.336.223.412.505.794.842 1.12a.645.645 0 0 0 1.06-.342.649.649 0 0 0-.189-.601 3.37 3.37 0 0 1-.617-3.867 3.344 3.344 0 0 1 2.96-1.852c.28-.004.561.03.834.095a5.364 5.364 0 0 1 1.668-2.76 5.34 5.34 0 0 1 2.645-1.26 5.354 5.354 0 0 1 3.06.38 5.36 5.36 0 0 1 3.188 5.005v.54h1.692a2.35 2.35 0 0 1 2.245 1.81c.135.569.051 1.188-.238 1.697a2.364 2.364 0 0 1-2.086 1.2.65.65 0 0 0-.535.34.637.637 0 0 0-.003.605.65.65 0 0 0 .498.343c.14.012.282-.002.423-.012a3.64 3.64 0 0 0 2.165-.991 3.645 3.645 0 0 0 .914-3.88 3.215 3.215 0 0 0-.298-.618 2.98 2.98 0 0 0-.324-.466 3.637 3.637 0 0 0-2.815-1.319l-.818.048c-.023-.287-.04-.575-.088-.86a6.202 6.202 0 0 0-3.463-4.605A6.144 6.144 0 0 0 12 2.354zm-5.207 5.39c-.02.037.003.048.037.052.023-.05.005-.042-.037-.053z" fill="#ffffff"></path><path d="M9.998 11.388a.664.664 0 0 0-.62.52l-.741 2.827-2.124-2.111a.69.69 0 0 0-.766-.094.685.685 0 0 0-.327.82c.041.138.14.245.243.34l2.027 1.992c-.97.26-1.94.52-2.91.782a.668.668 0 0 0-.453.56c-.04.276.12.565.374.678a.729.729 0 0 0 .54.027l2.756-.727-.749 2.845c-.073.3.082.644.368.771.293.137.682.034.851-.247.08-.13.1-.284.144-.428l.708-2.632c.702.711 1.403 1.423 2.107 2.133a.676.676 0 0 0 .885.01.688.688 0 0 0 .087-.941c-.176-.184-.358-.362-.536-.543l-1.597-1.607 2.883-.756a.662.662 0 0 0 .462-.688.666.666 0 0 0-.33-.528.654.654 0 0 0-.542-.043l-2.81.725c.244-.948.487-1.896.733-2.844a.644.644 0 0 0-.286-.746.725.725 0 0 0-.377-.095zm6.252 3.7a14.848 14.848 0 0 0-1.28 1.845c-.246.445-.475.909-.58 1.41-.087.426-.007.88.19 1.265.244.48.697.855 1.223.983a1.853 1.853 0 0 0 1.582-.335 1.994 1.994 0 0 0 .75-1.768c-.061-.44-.243-.854-.44-1.249-.309-.604-.696-1.164-1.1-1.708-.113-.149-.228-.297-.345-.442z" data-color="color-2"></path></g></g></svg>