<svg width="64" height="64" viewBox="0 0 24 24"><title>weather windy</title><g fill="#ffffff" class="nc-icon-wrapper"><g transform="translate(0 0)"><path class="nc-icon-wrapper" d="M12 2.353a3.66 3.66 0 0 0-2.61 1.099.663.663 0 0 0-.048.793.627.627 0 0 0 .764.253.653.653 0 0 0 .257-.181c.28-.28.633-.486 1.016-.588a2.371 2.371 0 0 1 1.8.232c.509.294.903.784 1.072 1.348a2.373 2.373 0 0 1-.187 1.826 2.364 2.364 0 0 1-2.142 1.218h-7.93a.65.65 0 0 0-.56.34.638.638 0 0 0 .004.62.651.651 0 0 0 .585.333h8.003a3.655 3.655 0 0 0 3.549-2.912A3.65 3.65 0 0 0 12 2.354zm7 6a2.642 2.642 0 0 0-1.648.58c-.095.079-.19.157-.268.252a.662.662 0 0 0-.064.693.619.619 0 0 0 .473.342.649.649 0 0 0 .564-.198 1.36 1.36 0 0 1 1.013-.374 1.35 1.35 0 0 1 1.282 1.422 1.35 1.35 0 0 1-1.376 1.283H4.992a.65.65 0 0 0-.56.34.638.638 0 0 0 .005.62.651.651 0 0 0 .584.333h14.005a2.655 2.655 0 0 0 2.56-2.081 2.64 2.64 0 0 0-.282-1.867 2.67 2.67 0 0 0-1.51-1.223A2.677 2.677 0 0 0 19 8.354zm-15 8a.65.65 0 0 0-.568.34.638.638 0 0 0 .004.62.651.651 0 0 0 .585.333h13.997A1.35 1.35 0 0 1 19.354 19a1.35 1.35 0 0 1-1.336 1.353 1.356 1.356 0 0 1-.984-.398.647.647 0 0 0-.684-.138.625.625 0 0 0-.381.44.657.657 0 0 0 .086.513c.06.097.152.17.236.245a2.64 2.64 0 0 0 1.641.63 2.65 2.65 0 0 0 2.665-2.137 2.637 2.637 0 0 0-.338-1.886c-.344-.562-.901-.99-1.536-1.168a2.744 2.744 0 0 0-.803-.1H4z"></path></g></g></svg>