<svg width="64" height="64" viewBox="0 0 24 24"><title>weather sunny</title><g fill="#ffffff" class="nc-icon-wrapper"><g transform="translate(0 0)"><path class="nc-icon-wrapper" d="M12 2.62l-1.53 2.187a7.385 7.385 0 0 1 3.06 0L12 2.619zm5.457 4.46a7.373 7.373 0 0 1 1.525 2.654l1.133-2.423-2.658-.231zm-10.916.006l-2.666.224 1.129 2.418a6.763 6.763 0 0 1 .699-1.523c.243-.398.525-.773.838-1.12zM12 7.353c-.86-.001-1.72.241-2.45.7A4.68 4.68 0 0 0 7.816 9.98 4.632 4.632 0 0 0 7.353 12a4.621 4.621 0 0 0 .959 2.823 4.66 4.66 0 0 0 1.668 1.362 4.632 4.632 0 0 0 2.02.461c.86.002 1.72-.24 2.45-.7.477-.297.903-.679 1.243-1.129.287-.379.522-.8.681-1.248a4.657 4.657 0 0 0-.068-3.317A4.655 4.655 0 0 0 12 7.353zm0 1.293a3.334 3.334 0 0 1 1.875.573 3.346 3.346 0 0 1 1.477 2.692 3.338 3.338 0 0 1-.56 1.947 3.338 3.338 0 0 1-1.59 1.274 3.375 3.375 0 0 1-2.583-.074 3.337 3.337 0 0 1-1.456-1.267 3.342 3.342 0 0 1-.513-1.937A3.346 3.346 0 0 1 12 8.646zm6.97 5.618c-.219.68-.535 1.33-.946 1.915-.18.26-.377.507-.587.743l2.668-.233-1.134-2.425zm-13.948.013l-1.127 2.414 2.652.237a7.481 7.481 0 0 1-1.525-2.65zm8.492 4.903c-.62.14-1.258.2-1.892.163a7.163 7.163 0 0 1-1.16-.16l1.536 2.196 1.516-2.2z"></path></g></g></svg>