<svg width="64" height="64" viewBox="0 0 24 24"><title>weather hazy</title><g fill="#000000" class="nc-icon-wrapper"><g transform="translate(0 0)"><path d="M12.676 14.338c-.129-.001-.256.024-.385.017H3.04c-.222.034-.472.104-.594.31-.108.197-.024.435.093.607.187.282.535.47.876.405.067-.012.131-.04.2-.032h9.418a.654.654 0 0 0 .613-.67.541.541 0 0 0-.287-.492c-.207-.116-.45-.144-.683-.145zm8 0c-.129-.001-.256.024-.385.017h-3.287c-.22.011-.468.094-.57.306-.118.25-.018.547.152.745.17.207.458.326.721.246.077-.015.158-.003.236-.007h3.513c.33-.024.615-.342.59-.675a.546.546 0 0 0-.304-.497c-.203-.107-.439-.134-.666-.135zm-13.795 3.97c-.094-.004-.183.028-.273.046l-2.664.001c-.342.024-.63.361-.587.704.007.209.14.405.333.485.293.128.62.117.933.11.282-.016.564-.005.847-.008h1.503c.23-.02.49-.092.61-.308.12-.23.025-.506-.122-.699-.138-.18-.345-.332-.58-.331zm13 0c-.094-.004-.183.028-.273.046H10.96c-.341.014-.64.346-.604.689.005.2.118.396.301.483.267.133.574.13.865.13.218-.007.437-.013.656-.01h7.796c.23-.02.49-.092.61-.308.12-.232.022-.512-.128-.706-.138-.176-.344-.325-.576-.324z" data-color="color-2"></path><path d="M12 2.62l-1.529 2.187a7.414 7.414 0 0 1 3.058 0L12 2.619zm1.529 2.187c.015.024.02.027 0 0zm-3.058 0c-.016.02-.017.027 0 .002zM6.491 7.09l-2.615.22 1.13 2.42c.328-.934.79-1.833 1.438-2.587l.047-.053zm11.02.005c.638.724 1.1 1.59 1.432 2.492.027.06.048.209.083.084l1.1-2.356-2.614-.22zm-5.516.238c-.41-.002-.82.063-1.212.182a3.815 3.815 0 0 0-.749.26c-.817.39-1.497 1.04-1.967 1.809-.373.616-.62 1.333-.584 2.06H8.66c.1-1.049.753-2.009 1.654-2.542a3.2 3.2 0 0 1 1.682-.458c.662-.047 1.326.172 1.856.563.694.51 1.196 1.258 1.46 2.073.037.12.07.242.095.365h1.212c-.052-1.061-.541-2.074-1.276-2.831-.818-.85-1.951-1.414-3.136-1.475a4.154 4.154 0 0 0-.212-.006z" fill="#ffffff"></path></g></g></svg>