<svg width="64" height="64" viewBox="0 0 24 24"><title>weather sunset</title><g fill="#000000" class="nc-icon-wrapper"><g transform="translate(0 0)"><path d="M12 2.62l-1.53 2.188a7.322 7.322 0 0 1 3.06 0L12 2.619zm1.53 2.188c.017.027.016.021 0 0zm-3.06 0c-.013.016-.016.026-.001.002zm6.987 2.27a7.38 7.38 0 0 1 1.524 2.657l1.134-2.426-2.658-.23zm-10.915.008l-2.666.224 1.13 2.419c.306-.982.85-1.881 1.536-2.643zM12 7.354a4.65 4.65 0 0 0-4.6 3.996c-.051.333-.046.67-.045 1.004l-4.388.001a.65.65 0 0 0-.611.612.65.65 0 0 0 .562.674c.222.01.445.002.668.005h17.43a.65.65 0 0 0 .629-.613.653.653 0 0 0-.58-.675c-.306-.008-.613-.002-.92-.004h-3.5c.003-.364.005-.73-.057-1.09A4.652 4.652 0 0 0 12 7.354zm0 1.292a3.352 3.352 0 0 1 3.355 3.415v.293h-6.71c0-.344-.007-.691.069-1.03a3.361 3.361 0 0 1 1.675-2.268A3.346 3.346 0 0 1 12 8.646z" fill="#ffffff"></path><path d="M5 16.354a.65.65 0 0 0-.636.532.649.649 0 0 0 .371.702c.159.078.338.053.508.057h13.773a.65.65 0 0 0 .622-.547.65.65 0 0 0-.402-.699c-.155-.065-.325-.04-.489-.045H5zm2 4a.65.65 0 0 0-.632.516.649.649 0 0 0 .367.718c.158.078.337.053.508.057h9.774a.65.65 0 0 0 .621-.547.65.65 0 0 0-.416-.704c-.152-.058-.316-.034-.474-.04H7z" data-color="color-2"></path></g></g></svg>