<svg width="64" height="64" viewBox="0 0 24 24"><title>weather snowy</title><g fill="#000000" class="nc-icon-wrapper"><g transform="translate(0 0)"><path d="M12.963 13.523a.556.556 0 0 0-.49.31.927.927 0 0 0-.064.155l-.721 2.767-2.075-2.06a.628.628 0 0 0-.423-.172.645.645 0 0 0-.617.4.653.653 0 0 0 .083.644c.043.053.093.098.14.147l1.96 1.973-2.83.738a.693.693 0 0 0-.229.112.589.589 0 0 0-.236.422.726.726 0 0 0 .098.438.634.634 0 0 0 .321.267.686.686 0 0 0 .43-.006l2.782-.75-.746 2.771a.647.647 0 0 0 .023.4c.016.046.044.086.07.126.175.24.518.336.793.224a.602.602 0 0 0 .301-.275.677.677 0 0 0 .06-.147l.72-2.763 2.074 2.06c.112.109.267.17.424.172a.645.645 0 0 0 .614-.39.647.647 0 0 0-.1-.679l-.235-.237-1.846-1.858 2.83-.738a.693.693 0 0 0 .229-.112.59.59 0 0 0 .237-.437.723.723 0 0 0-.1-.423.633.633 0 0 0-.321-.267.686.686 0 0 0-.429.006l-2.782.75.746-2.771a.662.662 0 0 0-.033-.442.62.62 0 0 0-.343-.302.748.748 0 0 0-.315-.053z" data-color="color-2"></path><path d="M12 2.353c-1.02 0-2.038.257-2.932.748a6.253 6.253 0 0 0-2.539 2.607c-.11.21-.202.428-.295.645-.241 0-.483-.002-.723.026a4.586 4.586 0 0 0-1.996.697A4.676 4.676 0 0 0 1.84 8.929a4.625 4.625 0 0 0-.486 1.992 4.626 4.626 0 0 0 .937 2.874 4.66 4.66 0 0 0 1.638 1.365 4.625 4.625 0 0 0 1.992.486.699.699 0 0 0 .378-.075.65.65 0 0 0 .343-.498.648.648 0 0 0-.329-.637.685.685 0 0 0-.37-.083 3.346 3.346 0 0 1-2.8-1.596 3.343 3.343 0 0 1-.493-1.903 3.346 3.346 0 0 1 2.615-3.127 3.372 3.372 0 0 1 1.516.012c.031.004.018-.064.034-.086a5.366 5.366 0 0 1 1.73-2.744 5.341 5.341 0 0 1 2.624-1.197 5.35 5.35 0 0 1 6.12 4.448c.05.314.068.632.065.95v.536h1.692a2.35 2.35 0 0 1 2.245 1.81c.135.57.051 1.189-.238 1.698a2.364 2.364 0 0 1-2.126 1.2h-.952a.65.65 0 0 0-.542.34.637.637 0 0 0-.004.605.65.65 0 0 0 .498.343c.096.008.194.003.29.004.293 0 .585.002.877-.001a3.654 3.654 0 0 0 3.483-2.933c.126-.638.08-1.31-.137-1.923a3.267 3.267 0 0 0-.308-.649 2.98 2.98 0 0 0-.325-.465 3.637 3.637 0 0 0-2.815-1.319l-.818.048c-.023-.287-.04-.575-.088-.86a6.202 6.202 0 0 0-3.463-4.605A6.144 6.144 0 0 0 12 2.354zm-5.207 5.39c-.02.037.003.048.037.052.023-.05.005-.042-.037-.053z" fill="#ffffff"></path></g></g></svg>