<svg width="64" height="64" viewBox="0 0 24 24"><title>weather pouring</title><g fill="#000000" class="nc-icon-wrapper"><g transform="translate(0 0)"><path d="M12 2.353c-1.02 0-2.038.257-2.932.748a6.253 6.253 0 0 0-2.53 2.591c-.115.215-.209.438-.304.661-.234 0-.468-.002-.701.024a4.588 4.588 0 0 0-2.018.699 4.676 4.676 0 0 0-1.672 1.847 4.624 4.624 0 0 0-.356 3.185c.031.13.074.256.11.384A4.642 4.642 0 0 0 3.69 15.02a.64.64 0 0 0 .958-.543.65.65 0 0 0-.313-.563c-.065-.04-.132-.08-.195-.123a3.279 3.279 0 0 1-.676-.595 3.317 3.317 0 0 1-.631-1.09 3.38 3.38 0 0 1 .086-2.431 3.35 3.35 0 0 1 3.875-1.933 5.364 5.364 0 0 1 1.668-2.76 5.34 5.34 0 0 1 2.637-1.259 5.355 5.355 0 0 1 3.06.376 5.359 5.359 0 0 1 3.195 5.007v.54h1.693a2.35 2.35 0 0 1 2.243 1.8 2.37 2.37 0 0 1-.23 1.698 2.34 2.34 0 0 1-.891.899.631.631 0 0 0-.312.503.658.658 0 0 0 .204.522c.147.14.365.2.564.157.154-.029.284-.12.413-.204a3.65 3.65 0 0 0 .937-.903 3.607 3.607 0 0 0 .672-2.154 3.602 3.602 0 0 0-.515-1.823 2.98 2.98 0 0 0-.324-.466 3.637 3.637 0 0 0-2.815-1.319l-.818.048c-.023-.285-.04-.57-.087-.852a6.203 6.203 0 0 0-3.424-4.592A6.142 6.142 0 0 0 12 2.352zm-5.207 5.39c-.02.037.003.048.037.052.023-.05.005-.042-.037-.053z" fill="#ffffff"></path><path d="M8.749 12.32a.644.644 0 0 0-.623.464l-1.3 4.908a.618.618 0 0 0 .316.673c.233.123.54.09.735-.09a.674.674 0 0 0 .205-.371l1.29-4.792a.648.648 0 0 0-.623-.791zm4 0a.643.643 0 0 0-.618.451l-2.089 7.751a.653.653 0 0 0 .254.688c.124.094.28.14.434.125a.628.628 0 0 0 .552-.424c.085-.304.164-.61.246-.914l1.844-6.884a.654.654 0 0 0-.623-.792zm4 0a.644.644 0 0 0-.622.464c-.434 1.636-.868 3.272-1.3 4.908a.618.618 0 0 0 .314.673c.234.123.541.09.736-.09a.673.673 0 0 0 .205-.371l1.29-4.792a.648.648 0 0 0-.623-.791z" data-color="color-2"></path></g></g></svg>