<svg width="64" height="64" viewBox="0 0 24 24"><title>weather partly snowy rainy</title><g fill="#000000" class="nc-icon-wrapper"><g transform="translate(0 0)"><path d="M14.159 1.351l-1.292.68a7.27 7.27 0 0 1 1.751.798l-.46-1.478zm-8.912.931l-.056 1.454c.47-.43.992-.802 1.552-1.105l-1.496-.349zm-.056 1.454c-.005.056-.004.116-.001.023v-.023zm5.419.648a5.182 5.182 0 0 0-3.913 1.693c-1.002 1.107-1.495 2.664-1.28 4.146a5.286 5.286 0 0 0 1.23 2.709l.369.452c-.417.003-.834-.007-1.25.008a3.641 3.641 0 0 0-2.713 1.488c-.7.947-.895 2.246-.487 3.353a3.698 3.698 0 0 0 1.063 1.54c.196.157.483.142.682 0 .273-.169.423-.557.252-.847-.104-.184-.292-.297-.413-.467a2.3 2.3 0 0 1-.43-2.018c.199-.806.859-1.475 1.663-1.684.398-.115.813-.074 1.221-.081h1.06a4.343 4.343 0 0 1 3.819-3.968 4.352 4.352 0 0 1 4.866 4.098c.011.517.002 1.035.005 1.552v.318c.905 0 1.81-.002 2.715.002.589.02 1.128.469 1.25 1.045a1.359 1.359 0 0 1-.537 1.407c-.262.197-.596.27-.919.254-.317.003-.634-.005-.951.004a.579.579 0 0 0-.526.438c-.099.31.045.715.375.815.202.057.414.027.622.035.437-.007.883.033 1.309-.092a2.661 2.661 0 0 0 1.878-1.925 2.654 2.654 0 0 0-.6-2.397 2.65 2.65 0 0 0-2.125-.874c-.317.009-.625.09-.92.204l-.28.1c-.002-.52.02-1.043-.07-1.557a5.581 5.581 0 0 0-1.956-3.425c-.035-.037-.106-.061-.074-.122a5.27 5.27 0 0 0-.342-3.165 5.06 5.06 0 0 0-2.595-2.598 5.146 5.146 0 0 0-1.998-.441zm-.082 1.278A3.84 3.84 0 0 1 13.32 6.89a3.89 3.89 0 0 1 1.04 2.59l.019.399c-.461-.164-.922-.339-1.408-.413a5.688 5.688 0 0 0-4.104.858 5.689 5.689 0 0 0-1.32 1.225l-.203.243c-.21-.399-.44-.793-.551-1.234a3.876 3.876 0 0 1 .436-3.068 3.855 3.855 0 0 1 3.3-1.83zm7.609 2.131c.033.023.07.043.013.008l-.007-.004zm.049.031c.068.313.14.627.172.945.021.324.027.65.016.974l1.048-1.14-1.236-.779zM2.652 9.315l-1.045 1.142 1.232.78a7.263 7.263 0 0 1-.187-1.922z" fill="#ffffff"></path><path d="M10.227 17.378a.362.362 0 0 0-.339.29l-.56 2.16-1.594-1.592c-.126-.12-.342-.144-.48-.029a.397.397 0 0 0-.144.234.354.354 0 0 0 .121.329l1.588 1.56-2.205.598a.357.357 0 0 0-.246.414c.026.14.14.264.285.283.118.02.23-.028.344-.053l2.01-.518-.602 2.15c-.041.163.032.355.188.429.174.087.41.012.492-.165.033-.08.048-.167.072-.25l.528-2.008c.536.541 1.072 1.083 1.61 1.623a.375.375 0 0 0 .44.037.37.37 0 0 0 .114-.51c-.052-.07-.12-.125-.178-.188l-1.467-1.466 2.184-.581a.384.384 0 0 0 .26-.44.382.382 0 0 0-.383-.254c-.097.011-.19.043-.286.064l-1.98.496.602-2.202a.344.344 0 0 0-.232-.387.409.409 0 0 0-.142-.024zm4.72 2.222c-.222.276-.425.566-.62.861-.257.397-.494.81-.648 1.26-.07.205-.115.424-.087.642.042.451.306.88.701 1.106a1.32 1.32 0 0 0 1.152.081 1.42 1.42 0 0 0 .85-1.033 1.331 1.331 0 0 0-.01-.613c-.099-.384-.284-.74-.482-1.081a9.777 9.777 0 0 0-.6-.895l-.257-.328z" data-color="color-2"></path></g></g></svg>