<svg width="64" height="64" viewBox="0 0 24 24"><title>weather snowy heavy</title><g fill="#000000" class="nc-icon-wrapper"><g transform="translate(0 0)"><path d="M9.998 10.388a.659.659 0 0 0-.62.524l-.741 2.823-2.124-2.11a.69.69 0 0 0-.88-.021.687.687 0 0 0-.139.896c.081.123.2.214.302.32l1.894 1.861c-.968.26-1.937.52-2.906.782a.677.677 0 0 0-.442.808c.072.308.387.52.697.496.158-.015.308-.07.462-.107l2.496-.657c-.25.953-.504 1.906-.752 2.86-.07.319.117.678.431.78.306.108.685-.032.824-.33.06-.143.088-.298.132-.447l.687-2.554c.704.712 1.407 1.427 2.113 2.138a.676.676 0 0 0 .93-.043c.25-.256.245-.716-.024-.958l-2.073-2.086c.966-.254 1.933-.506 2.9-.762a.66.66 0 0 0 .435-.748.645.645 0 0 0-.501-.53c-.138-.036-.277 0-.409.037l-2.763.713c.245-.95.488-1.9.735-2.848a.643.643 0 0 0-.316-.758.742.742 0 0 0-.349-.08zm8.267 5.971a.362.362 0 0 0-.38.303l-.557 2.133c-.543-.537-1.084-1.076-1.629-1.612-.162-.146-.451-.102-.553.094a.368.368 0 0 0 .08.466l1.57 1.584-2.185.57a.362.362 0 0 0-.228.474.343.343 0 0 0 .35.238c.136-.015.264-.065.395-.097l1.88-.52c-.202.734-.408 1.468-.609 2.203-.044.17.05.368.224.42a.362.362 0 0 0 .465-.19c.059-.188.102-.381.154-.571l.43-1.649c.548.542 1.093 1.086 1.642 1.626.177.147.48.07.563-.145a.368.368 0 0 0-.102-.43l-1.57-1.583 2.184-.57a.362.362 0 0 0 .229-.474.343.343 0 0 0-.361-.238c-.143.02-.28.072-.42.107l-1.845.51c.202-.734.407-1.468.608-2.203.044-.17-.05-.368-.223-.421a.438.438 0 0 0-.112-.025z" data-color="color-2"></path><path d="M12 1.353c-1.02 0-2.038.257-2.932.748a6.253 6.253 0 0 0-2.539 2.607c-.11.21-.202.428-.295.645-.241 0-.483-.002-.723.026a4.586 4.586 0 0 0-1.996.697A4.676 4.676 0 0 0 1.84 7.929a4.625 4.625 0 0 0-.397 2.973c.063.327.162.647.3.951.055.11.102.226.16.336.223.412.505.794.842 1.12a.645.645 0 0 0 1.06-.342.649.649 0 0 0-.189-.601 3.37 3.37 0 0 1-.617-3.867 3.344 3.344 0 0 1 2.96-1.852c.28-.004.561.03.834.095a5.364 5.364 0 0 1 1.668-2.76 5.34 5.34 0 0 1 2.645-1.26 5.354 5.354 0 0 1 3.06.38 5.36 5.36 0 0 1 3.188 5.005v.54h1.692a2.35 2.35 0 0 1 2.245 1.81c.135.569.051 1.188-.238 1.697a2.364 2.364 0 0 1-2.086 1.2.65.65 0 0 0-.535.34.637.637 0 0 0-.003.605.65.65 0 0 0 .498.343c.14.012.282-.002.423-.012a3.64 3.64 0 0 0 2.165-.991 3.645 3.645 0 0 0 .914-3.88 3.216 3.216 0 0 0-.298-.618 2.98 2.98 0 0 0-.324-.466 3.637 3.637 0 0 0-2.815-1.319l-.818.048c-.023-.287-.04-.575-.088-.86a6.202 6.202 0 0 0-3.463-4.605A6.144 6.144 0 0 0 12 1.354zm-5.207 5.39c-.02.037.003.048.037.052.023-.05.005-.042-.037-.053z" fill="#ffffff"></path></g></g></svg>