<svg width="64" height="64" viewBox="0 0 24 24"><title>weather cloudy</title><g fill="#ffffff" class="nc-icon-wrapper"><g transform="translate(0 0)"><path class="nc-icon-wrapper" d="M12 5.354c-1.02 0-2.038.256-2.932.747a6.253 6.253 0 0 0-2.539 2.607c-.11.21-.202.428-.295.645-.241 0-.483-.002-.723.026a4.586 4.586 0 0 0-1.996.697 4.676 4.676 0 0 0-1.675 1.853 4.625 4.625 0 0 0-.486 1.992 4.626 4.626 0 0 0 .937 2.874 4.66 4.66 0 0 0 1.638 1.365 4.625 4.625 0 0 0 1.992.486H19.023a3.656 3.656 0 0 0 3.54-2.868 3.661 3.661 0 0 0-.123-1.988 3.267 3.267 0 0 0-.309-.65 2.98 2.98 0 0 0-.324-.465 3.637 3.637 0 0 0-2.815-1.319l-.818.048c-.023-.287-.04-.575-.089-.86a6.202 6.202 0 0 0-3.463-4.605A6.144 6.144 0 0 0 12 5.354zm0 1.293a5.352 5.352 0 0 1 5.354 5.464v.536h1.692a2.35 2.35 0 0 1 2.245 1.81c.135.569.05 1.188-.238 1.697a2.364 2.364 0 0 1-2.126 1.2H5.967a3.346 3.346 0 0 1-2.82-1.589 3.343 3.343 0 0 1-.497-1.903 3.346 3.346 0 0 1 2.592-3.13 3.37 3.37 0 0 1 1.533.006c.04.015.023-.063.04-.085a5.366 5.366 0 0 1 1.73-2.744A5.341 5.341 0 0 1 12 6.646zm-5.207 4.095c-.02.038.003.05.037.053.023-.05.005-.042-.037-.053z"></path></g></g></svg>