<svg width="64" height="64" viewBox="0 0 24 24"><title>web</title><g fill="#ffffff" class="nc-icon-wrapper"><g transform="translate(0 0)"><path d="M12 2.355A9.6 9.6 0 0 0 6.414 4.14 9.697 9.697 0 0 0 2.67 9.555a9.665 9.665 0 0 0 .596 6.54 9.695 9.695 0 0 0 4.528 4.586 9.67 9.67 0 0 0 6.355.724 9.662 9.662 0 0 0 5.461-3.48 9.616 9.616 0 0 0 2.028-5.53 9.628 9.628 0 0 0-1.45-5.495 9.694 9.694 0 0 0-4.901-3.97A9.63 9.63 0 0 0 12 2.353zm0 1.052c.38.543.753 1.093 1.072 1.676.537.963.958 1.991 1.246 3.056l.062.216H9.62c.162-.581.336-1.16.566-1.72A14.757 14.757 0 0 1 11.867 3.6L12 3.407zm-1.858.406c-.348.646-.71 1.285-.993 1.963-.36.835-.641 1.702-.88 2.579h-3.8c.28-.49.552-.986.9-1.43a8.292 8.292 0 0 1 4.025-2.857l.748-.255zm3.71 0c.625.218 1.263.407 1.855.71a8.362 8.362 0 0 1 3.569 3.385l.258.447h-3.84a15.488 15.488 0 0 0-1.435-3.783l-.407-.759zM3.983 9.645H8.04c-.126.985-.227 1.977-.17 2.97.028.583.098 1.162.17 1.74H3.983c-.183-.698-.317-1.412-.334-2.135-.028-.85.103-1.7.32-2.52l.014-.055zm5.373 0h5.292c.151 1.03.26 2.071.18 3.111a21.668 21.668 0 0 1-.179 1.599H9.355c-.15-.93-.24-1.871-.2-2.813.021-.636.1-1.268.201-1.897zm6.604 0h4.057c.184.704.319 1.423.335 2.152.026.848-.107 1.693-.324 2.511.005.072-.071.04-.117.047H15.96c.126-.984.227-1.977.17-2.97a23.231 23.231 0 0 0-.17-1.74zm-11.494 6h3.803c.365 1.352.847 2.68 1.529 3.905l.346.642c-.617-.218-1.247-.406-1.833-.703a8.378 8.378 0 0 1-3.441-3.15c-.138-.23-.27-.462-.404-.694zm5.154 0h4.76c-.16.57-.328 1.137-.553 1.685a14.822 14.822 0 0 1-1.703 3.074l-.124.179c-.41-.586-.81-1.18-1.148-1.812a13.422 13.422 0 0 1-1.173-2.918l-.06-.208zm6.074 0h3.841c-.283.49-.56.984-.91 1.43a8.406 8.406 0 0 1-4.052 2.865l-.727.25c.363-.674.742-1.342 1.033-2.052a16.29 16.29 0 0 0 .815-2.493z" class="nc-icon-wrapper"></path></g></g></svg>