<svg height="64" width="64" data-color="color-2" viewBox="0 0 20 20"><title>x_ray</title><g fill="#000000" class="nc-icon-wrapper"><g transform="translate(0 0)"><path d="M3.5 6a.5.5 0 0 0-.5.5v10a.5.5 0 0 0 .5.5h10a.5.5 0 0 0 .5-.5v-10a.5.5 0 0 0-.5-.5zM4 7h9v9H4z" fill="#ffffff"></path><path d="M7 8v2h1V8zm0 3v1.5a.5.5 0 0 0 .5.5H9v-1H8v-1zm3 1v1h2v-1z" data-color="color-2"></path><path d="M7.5 3a.5.5 0 0 0-.5.5V5h1V4h8v8h-1v1h1.5a.5.5 0 0 0 .5-.5v-9a.5.5 0 0 0-.5-.5z" data-color="color-2"></path></g></g></svg>