<svg width="64" height="64" viewBox="0 0 24 24"><title>zip box outline</title><g fill="#000000" class="nc-icon-wrapper"><g transform="translate(0 0)"><path d="M5 3.354a1.658 1.658 0 0 0-1.493.958c-.127.259-.162.55-.152.835v13.895a1.66 1.66 0 0 0 1.025 1.481c.249.109.521.13.789.122h13.873a1.66 1.66 0 0 0 1.481-1.025c.109-.249.13-.522.123-.79V4.959a1.66 1.66 0 0 0-1.026-1.482c-.248-.108-.521-.129-.789-.122H5.001zm-.354 1.292h14.708v14.708H4.646V4.646z" fill="#ffffff"></path><path d="M10 4.65V7h2V4.65zM12 7v2h2V7zm0 2h-2v2h2zm0 2v2h2v-2zm0 2h-2v2h2zm0 2v2h2v-2z" data-color="color-2"></path></g></g></svg>