<svg width="64" height="64" viewBox="0 0 20 20"><title>zoom_previous</title><g fill="#000000" class="nc-icon-wrapper"><g transform="translate(0 0)"><path d="M10.55 2.95c-3.573 0-6.5 2.927-6.5 6.5a6.459 6.459 0 0 0 1.574 4.219l-2.428 2.427c-.472.472.236 1.18.708.708l2.425-2.426a6.466 6.466 0 0 0 4.221 1.572c3.573 0 6.5-2.927 6.5-6.5s-2.927-6.5-6.5-6.5zm0 1c2.859 0 5.22 2.205 5.475 5v1c-.255 2.795-2.616 5-5.475 5a5.513 5.513 0 0 1-5.5-5.5c0-3.027 2.473-5.5 5.5-5.5z" fill="#ffffff"></path><path d="M16.025 8.95H9.757l2.147-2.146c.472-.472-.236-1.18-.708-.708L8.239 9.054a.5.5 0 0 0-.002.792l.006.004 2.954 2.954c.47.49 1.197-.236.707-.707L9.757 9.95h6.268" data-color="color-2"></path></g></g></svg>