<svg width="64" height="64" viewBox="0 0 20 20"><title>zoom_in</title><g fill="#000000" class="nc-icon-wrapper"><g transform="translate(0 0)"><path d="M10.542 5.942a.5.5 0 0 0-.492.508v2.5h-2.5a.5.5 0 1 0 0 1h2.5v2.5a.5.5 0 1 0 1 0v-2.5h2.5a.5.5 0 1 0 0-1h-2.5v-2.5a.5.5 0 0 0-.508-.508z" data-color="color-2"></path><path d="M10.55 2.95c-3.573 0-6.5 2.927-6.5 6.5a6.46 6.46 0 0 0 1.574 4.219l-2.428 2.427a.5.5 0 1 0 .708.708l2.425-2.426a6.466 6.466 0 0 0 4.221 1.572c3.573 0 6.5-2.927 6.5-6.5s-2.927-6.5-6.5-6.5zm0 1c3.027 0 5.5 2.473 5.5 5.5s-2.473 5.5-5.5 5.5a5.513 5.513 0 0 1-5.5-5.5c0-3.027 2.473-5.5 5.5-5.5z" fill="#ffffff"></path></g></g></svg>