<svg height="64" width="64" viewBox="0 0 20 20"><title>zoom_all</title><g fill="#000000" class="nc-icon-wrapper"><g transform="translate(0 0)"><path d="M13 3c-2.198 0-4 1.802-4 4 0 .92.328 1.76.855 2.438l-3.709 3.708a.5.5 0 1 0 .708.708l3.708-3.71A3.956 3.956 0 0 0 13 11c2.198 0 4-1.802 4-4s-1.802-4-4-4zm0 1c1.652 0 3 1.348 3 3s-1.348 3-3 3-3-1.348-3-3 1.348-3 3-3z" fill="#ffffff"></path><path d="M6.484 4a.5.5 0 0 0-.338.146l-3 3A.5.5 0 0 0 3.5 8h3a.5.5 0 0 0 .5-.5V5h.5c.676.01.676-1.01 0-1h-1v.002L6.484 4zM3 9v7.5a.5.5 0 0 0 .5.5h9a.5.5 0 0 0 .5-.5v-4c.01-.676-1.01-.676-1 0V16H4V9z" data-color="color-2"></path></g></g></svg>